<?xml version="1.0" encoding="utf-8"?>
<!-- Created with "sPlan" (http://www.abacom-online.de) -->
<svg version="1.1" baseProfile="full"
xmlns="http://www.w3.org/2000/svg"
width="50mm" height="50mm"
viewBox="0 0 500 500">
<title>ANG_FET</title>
<defs>
<style type="text/css">
<![CDATA[
polyline {stroke-linecap:round; stroke-linejoin:round}
polygon {stroke-linecap:round; stroke-linejoin:round}
path {stroke-linecap:round; stroke-linejoin:round}
circle {stroke-linecap:round; stroke-linejoin:round}
]]>
</style>
</defs>
<polyline points="79.97 250.91 178.30 250.91 178.30 151.99 178.30 350.18" fill="none" stroke="rgb(0,0,255)" stroke-width="15" />
<polyline points="231.46 98.98 231.46 400.92" fill="none" stroke="rgb(0,0,255)" stroke-width="15" />
<polyline points="399.97 450.91 399.97 350.28 239.51 350.28" fill="none" stroke="rgb(0,0,255)" stroke-width="15" />
<path fill="rgb(255,0,0)" stroke="rgb(255,0,0)" stroke-width="10" d=" M 68 245 C 68 239 74 239 74 239 L 86 239 L 86 239 C 92 239 92 245 92 245 L 92 257 L 92 257 C 92 263 86 263 86 263 L 74 263 L 74 263 C 68 263 68 257 68 257 L 68 245 Z" />
<polyline points="240.97 250.08 399.97 250.08 399.97 450.91" fill="none" stroke="rgb(0,0,255)" stroke-width="15" />
<polygon points="295.37 235.68 240.97 250.08 295.37 264.48" fill="rgb(0,0,255)" stroke="rgb(0,0,255)" stroke-width="15" />
<polyline points="399.97 50.91 399.97 151.89 237.67 151.89" fill="none" stroke="rgb(0,0,255)" stroke-width="15" />
<path fill="rgb(255,0,0)" stroke="rgb(255,0,0)" stroke-width="10" d=" M 388 45 C 388 39 394 39 394 39 L 406 39 L 406 39 C 412 39 412 45 412 45 L 412 57 L 412 57 C 412 63 406 63 406 63 L 394 63 L 394 63 C 388 63 388 57 388 57 L 388 45 Z" />
<path fill="rgb(255,0,0)" stroke="rgb(255,0,0)" stroke-width="10" d=" M 388 445 C 388 439 394 439 394 439 L 406 439 L 406 439 C 412 439 412 445 412 445 L 412 457 L 412 457 C 412 463 406 463 406 463 L 394 463 L 394 463 C 388 463 388 457 388 457 L 388 445 Z" />
</svg>
