<?xml version="1.0" encoding="utf-8"?>
<!-- Created with "sPlan" (http://www.abacom-online.de) -->
<svg version="1.1" baseProfile="full"
xmlns="http://www.w3.org/2000/svg"
width="50mm" height="50mm"
viewBox="0 0 500 500">
<title>CLIN</title>
<defs>
<style type="text/css">
<![CDATA[
polyline {stroke-linecap:round; stroke-linejoin:round}
polygon {stroke-linecap:round; stroke-linejoin:round}
path {stroke-linecap:round; stroke-linejoin:round}
circle {stroke-linecap:round; stroke-linejoin:round}
]]>
</style>
</defs>
<polyline points="50.03 150.28 130.36 150.28 130.36 99.96 369.71 99.96 369.71 150.28 450.04 150.28 369.71 150.28 369.71 199.87 130.36 199.87 130.36 150.28" fill="none" stroke="rgb(0,0,255)" stroke-width="15" />
<path fill="rgb(255,0,0)" stroke="rgb(255,0,0)" stroke-width="10" d=" M 438 144 C 438 138 444 138 444 138 L 456 138 L 456 138 C 462 138 462 144 462 144 L 462 156 L 462 156 C 462 162 456 162 456 162 L 444 162 L 444 162 C 438 162 438 156 438 156 L 438 144 Z" />
<path fill="rgb(255,0,0)" stroke="rgb(255,0,0)" stroke-width="10" d=" M 38 144 C 38 138 44 138 44 138 L 56 138 L 56 138 C 62 138 62 144 62 144 L 62 156 L 62 156 C 62 162 56 162 56 162 L 44 162 L 44 162 C 38 162 38 156 38 156 L 38 144 Z" />
<polyline points="100.12 134.76 83.92 165.52" fill="none" stroke="rgb(0,0,255)" stroke-width="15" />
<polyline points="50.03 350.28 130.36 350.28 130.36 299.96 369.71 299.96 369.71 350.28 450.04 350.28 369.71 350.28 369.71 399.87 130.36 399.87 130.36 350.28" fill="none" stroke="rgb(0,0,255)" stroke-width="15" />
<path fill="rgb(255,0,0)" stroke="rgb(255,0,0)" stroke-width="10" d=" M 438 344 C 438 338 444 338 444 338 L 456 338 L 456 338 C 462 338 462 344 462 344 L 462 356 L 462 356 C 462 362 456 362 456 362 L 444 362 L 444 362 C 438 362 438 356 438 356 L 438 344 Z" />
<path fill="rgb(255,0,0)" stroke="rgb(255,0,0)" stroke-width="10" d=" M 38 344 C 38 338 44 338 44 338 L 56 338 L 56 338 C 62 338 62 344 62 344 L 62 356 L 62 356 C 62 362 56 362 56 362 L 44 362 L 44 362 C 38 362 38 356 38 356 L 38 344 Z" />
</svg>
