<?xml version="1.0" encoding="utf-8"?>
<!-- Created with "sPlan" (http://www.abacom-online.de) -->
<svg version="1.1" baseProfile="full"
xmlns="http://www.w3.org/2000/svg"
width="50mm" height="50mm"
viewBox="0 0 500 500">
<title>DC_FEED</title>
<defs>
<style type="text/css">
<![CDATA[
polyline {stroke-linecap:round; stroke-linejoin:round}
polygon {stroke-linecap:round; stroke-linejoin:round}
path {stroke-linecap:round; stroke-linejoin:round}
circle {stroke-linecap:round; stroke-linejoin:round}
]]>
</style>
</defs>
<polyline points="100.12 234.76 83.92 265.52" fill="none" stroke="rgb(0,0,255)" stroke-width="15" />
<polyline points="50.03 250.28 141.16 250.28" fill="none" stroke="rgb(0,0,255)" stroke-width="15" />
<path fill="rgb(255,0,0)" stroke="rgb(255,0,0)" stroke-width="10" d=" M 38 244 C 38 238 44 238 44 238 L 56 238 L 56 238 C 62 238 62 244 62 244 L 62 256 L 62 256 C 62 262 56 262 56 262 L 44 262 L 44 262 C 38 262 38 256 38 256 L 38 244 Z" />
<path fill="none" stroke="rgb(0,0,255)" stroke-width="15" d=" M 213.92 250.28 Q 213.92 250.28 213.57 246.73 Q 213.22 243.18 212.18 239.77 Q 211.14 236.36 209.46 233.21 Q 207.78 230.07 205.52 227.31 Q 203.26 224.55 200.50 222.29 Q 197.75 220.03 194.60 218.35 Q 191.46 216.67 188.05 215.63 Q 184.63 214.60 181.09 214.25 Q 177.54 213.90 173.99 214.25 Q 170.44 214.60 167.03 215.63 Q 163.61 216.67 160.47 218.35 Q 157.33 220.03 154.57 222.29 Q 151.81 224.55 149.55 227.31 Q 147.29 230.07 145.61 233.21 Q 143.93 236.36 142.89 239.77 Q 141.86 243.18 141.51 246.73 Q 141.16 250.28 141.16 250.28" />
<path fill="none" stroke="rgb(0,0,255)" stroke-width="15" d=" M 286.67 250.28 Q 286.67 250.28 286.32 246.73 Q 285.97 243.18 284.94 239.77 Q 283.90 236.36 282.22 233.21 Q 280.54 230.07 278.28 227.31 Q 276.02 224.55 273.26 222.29 Q 270.51 220.03 267.36 218.35 Q 264.22 216.67 260.80 215.63 Q 257.39 214.60 253.84 214.25 Q 250.29 213.90 246.74 214.25 Q 243.20 214.60 239.78 215.63 Q 236.37 216.67 233.23 218.35 Q 230.08 220.03 227.33 222.29 Q 224.57 224.55 222.31 227.31 Q 220.05 230.07 218.37 233.21 Q 216.69 236.36 215.65 239.77 Q 214.62 243.18 214.27 246.73 Q 213.92 250.28 213.91 250.28" />
<path fill="none" stroke="rgb(0,0,255)" stroke-width="15" d=" M 359.43 250.28 Q 359.43 250.28 359.08 246.73 Q 358.73 243.18 357.70 239.77 Q 356.66 236.36 354.98 233.21 Q 353.30 230.07 351.04 227.31 Q 348.78 224.55 346.02 222.29 Q 343.26 220.03 340.12 218.35 Q 336.97 216.67 333.56 215.63 Q 330.15 214.60 326.60 214.25 Q 323.05 213.90 319.50 214.25 Q 315.95 214.60 312.54 215.63 Q 309.13 216.67 305.99 218.35 Q 302.84 220.03 300.08 222.29 Q 297.33 224.55 295.07 227.31 Q 292.80 230.07 291.12 233.21 Q 289.44 236.36 288.41 239.77 Q 287.37 243.18 287.02 246.73 Q 286.67 250.28 286.67 250.28" />
<polyline points="359.43 250.28 449.93 250.28" fill="none" stroke="rgb(0,0,255)" stroke-width="15" />
<path fill="rgb(255,0,0)" stroke="rgb(255,0,0)" stroke-width="10" d=" M 438 244 C 438 238 444 238 444 238 L 456 238 L 456 238 C 462 238 462 244 462 244 L 462 256 L 462 256 C 462 262 456 262 456 262 L 444 262 L 444 262 C 438 262 438 256 438 256 L 438 244 Z" />
<path fill="none" stroke="rgb(0,0,255)" stroke-width="15" d=" M 120 130 L 380 130 380 350 120 350 120 130 Z" />
</svg>
