<?xml version="1.0" encoding="utf-8"?>
<!-- Created with "sPlan" (http://www.abacom-online.de) -->
<svg version="1.1" baseProfile="full"
xmlns="http://www.w3.org/2000/svg"
width="50mm" height="50mm"
viewBox="0 0 500 500">
<title>HYBRID_180</title>
<defs>
<style type="text/css">
<![CDATA[
polyline {stroke-linecap:round; stroke-linejoin:round}
polygon {stroke-linecap:round; stroke-linejoin:round}
path {stroke-linecap:round; stroke-linejoin:round}
circle {stroke-linecap:round; stroke-linejoin:round}
]]>
</style>
</defs>
<polyline points="50.07 230.18 120.20 230.18 120.20 179.83 380.04 179.83 380.04 230.18 450.12 230.18 380.06 230.18 380.06 330.19 450.21 330.19 380.06 330.19 380.06 380.77 120.35 380.77 120.35 330.18 50.07 330.18 120.35 330.18 120.35 230.16" fill="none" stroke="rgb(0,0,255)" stroke-width="15" />
<path fill="rgb(255,0,0)" stroke="rgb(255,0,0)" stroke-width="10" d=" M 38 224 C 38 218 44 218 44 218 L 56 218 L 56 218 C 62 218 62 224 62 224 L 62 236 L 62 236 C 62 242 56 242 56 242 L 44 242 L 44 242 C 38 242 38 236 38 236 L 38 224 Z" />
<path fill="rgb(255,0,0)" stroke="rgb(255,0,0)" stroke-width="10" d=" M 438 224 C 438 218 444 218 444 218 L 456 218 L 456 218 C 462 218 462 224 462 224 L 462 236 L 462 236 C 462 242 456 242 456 242 L 444 242 L 444 242 C 438 242 438 236 438 236 L 438 224 Z" />
<path fill="rgb(255,0,0)" stroke="rgb(255,0,0)" stroke-width="10" d=" M 438 324 C 438 318 444 318 444 318 L 456 318 L 456 318 C 462 318 462 324 462 324 L 462 336 L 462 336 C 462 342 456 342 456 342 L 444 342 L 444 342 C 438 342 438 336 438 336 L 438 324 Z" />
<polyline points="100.12 214.76 83.92 245.52" fill="none" stroke="rgb(0,0,255)" stroke-width="15" />
<path fill="rgb(255,0,0)" stroke="rgb(255,0,0)" stroke-width="10" d=" M 38 324 C 38 318 44 318 44 318 L 56 318 L 56 318 C 62 318 62 324 62 324 L 62 336 L 62 336 C 62 342 56 342 56 342 L 44 342 L 44 342 C 38 342 38 336 38 336 L 38 324 Z" />
<polyline points="156.30 207.12 344.55 207.12 156.30 344.00 344.55 344.00 156.30 207.12" fill="none" stroke="rgb(0,0,255)" stroke-width="12" />
<path fill="rgb(0,0,0)" stroke="rgb(0,0,0)" stroke-width="0" d=" M 192.61 154.46 L 181.07 154.46 181.14 74.66 179.36 76.39 177.38 78.12 175.20 79.84 172.80 81.57 170.20 83.30 167.55 84.93 165.01 86.40 162.58 87.69 160.26 88.81 158.05 89.76 158.05 77.66 161.82 75.60 165.40 73.37 168.79 70.97 171.98 68.41 174.98 65.68 177.72 62.89 180.11 60.13 182.17 57.41 183.88 54.72 185.26 52.06 192.70 52.06 Z M 236.88 98.06 L 234.19 96.85 231.79 95.45 229.69 93.86 227.88 92.08 226.38 90.11 225.15 87.96 224.20 85.64 223.52 83.17 223.11 80.53 222.97 77.73 223.28 73.52 224.18 69.59 225.67 65.93 227.75 62.56 230.43 59.46 233.61 56.79 237.17 54.72 241.14 53.24 245.49 52.35 250.25 52.06 255.02 52.36 259.41 53.27 263.41 54.79 267.02 56.91 270.24 59.63 272.97 62.80 275.08 66.22 276.59 69.91 277.50 73.87 277.79 78.08 277.66 80.78 277.25 83.34 276.57 85.75 275.63 88.02 274.41 90.15 272.92 92.11 271.15 93.88 269.10 95.46 266.78 96.85 264.18 98.06 267.25 99.45 270.01 101.15 272.47 103.16 274.61 105.47 276.45 108.10 277.96 110.98 279.14 114.08 279.97 117.39 280.47 120.92 280.63 124.66 280.30 129.81 279.30 134.62 277.62 139.09 275.29 143.22 272.28 147.01 268.73 150.27 264.76 152.80 260.36 154.61 255.55 155.70 250.31 156.06 245.08 155.69 240.27 154.60 235.88 152.79 231.91 150.24 228.37 146.97 225.37 143.16 223.04 138.98 221.37 134.45 220.37 129.56 220.04 124.31 220.22 120.39 220.76 116.74 221.63 113.35 222.86 110.22 224.44 107.36 226.33 104.80 228.53 102.59 231.01 100.73 233.80 99.22 236.88 98.06 Z M 234.51 78.11 L 234.68 80.48 235.17 82.67 235.99 84.68 237.13 86.51 238.60 88.16 240.39 89.56 242.47 90.65 244.86 91.43 247.54 91.90 250.52 92.06 253.42 91.90 256.04 91.44 258.38 90.66 260.43 89.58 262.19 88.18 263.65 86.56 264.79 84.80 265.60 82.90 266.09 80.86 266.25 78.68 266.08 76.42 265.58 74.30 264.74 72.33 263.57 70.52 262.07 68.85 260.26 67.41 258.20 66.29 255.86 65.50 253.27 65.02 250.40 64.86 247.52 65.01 244.90 65.48 242.56 66.26 240.49 67.35 238.68 68.76 237.18 70.38 236.01 72.13 235.18 74.00 234.68 75.99 234.51 78.11 Z M 231.58 123.86 L 231.66 125.84 231.89 127.79 232.28 129.72 232.82 131.62 233.51 133.50 234.40 135.28 235.52 136.89 236.89 138.33 238.48 139.60 240.32 140.71 242.28 141.63 244.27 142.34 246.29 142.85 248.33 143.16 250.40 143.26 253.78 143.04 256.85 142.40 259.60 141.33 262.04 139.83 264.17 137.90 265.94 135.63 267.32 133.14 268.30 130.41 268.89 127.45 269.09 124.26 268.90 121.01 268.29 118.00 267.28 115.22 265.87 112.67 264.04 110.36 261.86 108.38 259.37 106.84 256.58 105.74 253.47 105.08 250.07 104.86 246.74 105.08 243.72 105.73 241.00 106.81 238.59 108.33 236.48 110.28 234.73 112.56 233.36 115.06 232.38 117.77 231.79 120.71 231.58 123.86 Z M 290.75 104.08 L 290.90 97.13 291.31 90.71 292.00 84.81 292.95 79.45 294.18 74.62 295.67 70.29 297.43 66.42 299.44 63.03 301.72 60.10 304.27 57.63 307.08 55.63 310.17 54.07 313.53 52.95 317.17 52.28 321.09 52.06 324.03 52.19 326.84 52.59 329.54 53.25 332.11 54.17 334.57 55.36 336.86 56.79 338.94 58.46 340.80 60.37 342.45 62.50 343.88 64.87 345.16 67.46 346.34 70.28 347.42 73.31 348.40 76.55 349.28 80.02 350.03 83.84 350.61 88.16 351.02 92.97 351.27 98.28 351.34 104.08 351.20 110.99 350.79 117.38 350.11 123.25 349.16 128.60 347.95 133.42 346.47 137.75 344.72 141.62 342.71 145.03 340.44 147.97 337.90 150.45 335.08 152.47 331.99 154.04 328.61 155.16 324.95 155.83 321.00 156.06 315.86 155.67 311.18 154.50 306.96 152.55 303.20 149.82 299.90 146.31 296.60 140.29 294.04 133.06 292.21 124.62 291.11 114.96 290.75 104.08 Z M 302.29 104.06 L 302.50 113.13 303.14 120.84 304.22 127.20 305.73 132.20 307.67 135.85 309.93 138.51 312.39 140.59 315.06 142.07 317.93 142.96 321.00 143.26 324.08 142.96 326.95 142.07 329.62 140.58 332.09 138.50 334.36 135.82 336.31 132.17 337.83 127.17 338.92 120.82 339.58 113.11 339.80 104.06 339.60 95.23 338.98 87.68 337.94 81.39 336.48 76.38 334.61 72.63 332.39 69.83 329.92 67.66 327.19 66.10 324.20 65.17 320.96 64.86 317.90 65.13 315.06 65.95 312.45 67.32 310.07 69.24 307.91 71.71 305.89 75.81 304.32 81.10 303.20 87.57 302.52 95.22 302.29 104.06 Z" />
</svg>
