<?xml version="1.0" encoding="utf-8"?>
<!-- Created with "sPlan" (http://www.abacom-online.de) -->
<svg version="1.1" baseProfile="full"
xmlns="http://www.w3.org/2000/svg"
width="50mm" height="50mm"
viewBox="0 0 500 500">
<title>HYBRID_90</title>
<defs>
<style type="text/css">
<![CDATA[
polyline {stroke-linecap:round; stroke-linejoin:round}
polygon {stroke-linecap:round; stroke-linejoin:round}
path {stroke-linecap:round; stroke-linejoin:round}
circle {stroke-linecap:round; stroke-linejoin:round}
]]>
</style>
</defs>
<polyline points="50.07 230.18 120.20 230.18 120.20 179.83 380.04 179.83 380.04 230.18 450.12 230.18 380.06 230.18 380.06 330.19 450.21 330.19 380.06 330.19 380.06 380.77 120.35 380.77 120.35 330.18 50.07 330.18 120.35 330.18 120.35 230.16" fill="none" stroke="rgb(0,0,255)" stroke-width="15" />
<path fill="rgb(255,0,0)" stroke="rgb(255,0,0)" stroke-width="10" d=" M 38 224 C 38 218 44 218 44 218 L 56 218 L 56 218 C 62 218 62 224 62 224 L 62 236 L 62 236 C 62 242 56 242 56 242 L 44 242 L 44 242 C 38 242 38 236 38 236 L 38 224 Z" />
<path fill="rgb(255,0,0)" stroke="rgb(255,0,0)" stroke-width="10" d=" M 438 224 C 438 218 444 218 444 218 L 456 218 L 456 218 C 462 218 462 224 462 224 L 462 236 L 462 236 C 462 242 456 242 456 242 L 444 242 L 444 242 C 438 242 438 236 438 236 L 438 224 Z" />
<path fill="rgb(255,0,0)" stroke="rgb(255,0,0)" stroke-width="10" d=" M 438 324 C 438 318 444 318 444 318 L 456 318 L 456 318 C 462 318 462 324 462 324 L 462 336 L 462 336 C 462 342 456 342 456 342 L 444 342 L 444 342 C 438 342 438 336 438 336 L 438 324 Z" />
<polyline points="100.12 214.76 83.92 245.52" fill="none" stroke="rgb(0,0,255)" stroke-width="15" />
<path fill="rgb(255,0,0)" stroke="rgb(255,0,0)" stroke-width="10" d=" M 38 324 C 38 318 44 318 44 318 L 56 318 L 56 318 C 62 318 62 324 62 324 L 62 336 L 62 336 C 62 342 56 342 56 342 L 44 342 L 44 342 C 38 342 38 336 38 336 L 38 324 Z" />
<path fill="rgb(0,0,0)" stroke="rgb(0,0,0)" stroke-width="0" d=" M 187.80 128.86 L 199.34 127.26 199.98 130.44 200.81 133.26 201.85 135.70 203.08 137.77 204.51 139.47 206.12 140.83 207.91 141.89 209.88 142.65 212.01 143.11 214.33 143.26 216.34 143.16 218.28 142.87 220.15 142.38 221.95 141.70 223.68 140.82 225.29 139.78 226.73 138.61 228.00 137.31 229.10 135.87 230.03 134.31 230.85 132.56 231.64 130.57 232.40 128.35 233.12 125.88 233.81 123.18 234.42 120.33 234.89 117.42 235.22 114.45 235.42 111.42 235.49 108.33 235.49 107.97 235.48 107.54 235.47 107.04 235.45 106.47 235.42 105.83 233.97 108.13 232.32 110.25 230.47 112.19 228.43 113.95 226.18 115.53 223.80 116.87 221.34 117.92 218.81 118.66 216.20 119.11 213.51 119.26 209.09 118.89 204.96 117.80 201.10 115.98 197.53 113.43 194.24 110.16 191.41 106.29 189.21 101.95 187.64 97.16 186.70 91.90 186.40 86.18 186.74 80.27 187.73 74.84 189.39 69.89 191.71 65.42 194.68 61.43 198.15 58.06 201.96 55.43 206.10 53.56 210.58 52.43 215.39 52.06 218.92 52.27 222.33 52.91 225.62 53.98 228.79 55.48 231.83 57.41 234.67 59.73 237.21 62.42 239.47 65.47 241.45 68.88 243.13 72.66 244.52 76.97 245.60 81.99 246.36 87.72 246.82 94.16 246.97 101.31 246.80 108.80 246.33 115.65 245.55 121.87 244.47 127.45 243.08 132.40 241.38 136.80 239.39 140.76 237.09 144.29 234.50 147.37 231.60 150.01 228.46 152.19 225.10 153.88 221.54 155.09 217.77 155.82 213.78 156.06 209.60 155.77 205.73 154.92 202.19 153.49 198.96 151.49 196.06 148.92 193.53 145.83 191.44 142.28 189.79 138.27 188.57 133.80 187.80 128.86 Z M 235.45 85.88 L 235.25 82.17 234.65 78.78 233.66 75.71 232.27 72.96 230.48 70.53 228.36 68.49 225.98 66.90 223.33 65.77 220.43 65.09 217.26 64.86 213.99 65.10 210.96 65.84 208.19 67.06 205.65 68.77 203.36 70.97 201.41 73.56 199.89 76.44 198.81 79.61 198.16 83.06 197.94 86.81 198.14 90.17 198.74 93.27 199.76 96.10 201.19 98.68 203.03 101.00 205.22 102.96 207.71 104.49 210.48 105.58 213.54 106.24 216.90 106.46 220.02 106.24 222.91 105.58 225.57 104.49 228.00 102.96 230.21 101.00 232.09 98.64 233.55 95.96 234.60 92.93 235.23 89.58 235.45 85.88 Z M 257.06 104.08 L 257.21 97.13 257.62 90.71 258.31 84.81 259.26 79.45 260.49 74.62 261.98 70.29 263.74 66.42 265.76 63.03 268.03 60.10 270.58 57.63 273.39 55.63 276.48 54.07 279.84 52.95 283.48 52.28 287.40 52.06 290.34 52.19 293.15 52.59 295.85 53.25 298.43 54.17 300.88 55.36 303.17 56.79 305.25 58.46 307.11 60.37 308.76 62.50 310.19 64.87 311.47 67.46 312.65 70.28 313.73 73.31 314.71 76.55 315.59 80.02 316.34 83.84 316.92 88.16 317.33 92.97 317.58 98.28 317.65 104.08 317.51 110.99 317.10 117.38 316.42 123.25 315.48 128.60 314.26 133.42 312.78 137.75 311.04 141.62 309.02 145.03 306.75 147.97 304.21 150.45 301.39 152.47 298.30 154.04 294.92 155.16 291.26 155.83 287.31 156.06 282.17 155.67 277.49 154.50 273.27 152.55 269.51 149.82 266.22 146.31 262.91 140.29 260.35 133.06 258.52 124.62 257.42 114.96 257.06 104.08 Z M 268.60 104.06 L 268.81 113.13 269.45 120.84 270.53 127.20 272.04 132.20 273.98 135.85 276.24 138.51 278.71 140.59 281.37 142.07 284.24 142.96 287.31 143.26 290.39 142.96 293.26 142.07 295.93 140.58 298.40 138.50 300.67 135.82 302.62 132.17 304.14 127.17 305.23 120.82 305.89 113.11 306.11 104.06 305.91 95.23 305.29 87.68 304.25 81.39 302.79 76.38 300.92 72.63 298.70 69.83 296.23 67.66 293.50 66.10 290.51 65.17 287.27 64.86 284.21 65.13 281.37 65.95 278.76 67.32 276.38 69.24 274.22 71.71 272.20 75.81 270.64 81.10 269.51 87.57 268.84 95.22 268.60 104.06 Z" />
<polyline points="156.30 207.12 344.55 207.12 156.30 344.00 344.55 344.00 156.30 207.12" fill="none" stroke="rgb(0,0,255)" stroke-width="12" />
</svg>
