<?xml version="1.0" encoding="utf-8"?>
<!-- Created with "sPlan" (http://www.abacom-online.de) -->
<svg version="1.1" baseProfile="full"
xmlns="http://www.w3.org/2000/svg"
width="19mm" height="20mm"
viewBox="0 0 196 207">
<title>MBEND2</title>
<defs>
<style type="text/css">
<![CDATA[
polyline {stroke-linecap:round; stroke-linejoin:round}
polygon {stroke-linecap:round; stroke-linejoin:round}
path {stroke-linecap:round; stroke-linejoin:round}
circle {stroke-linecap:round; stroke-linejoin:round}
]]>
</style>
</defs>
<polyline points="45.45 117.46 68.79 117.46 68.79 103.23 101.02 103.23 101.02 67.09 116.84 67.09 116.84 44.56 116.84 67.09 134.13 67.09 134.13 103.23 105.66 131.69 68.79 131.69 68.79 117.46" fill="none" stroke="rgb(0,0,0)" stroke-width="2" />
<path fill="rgb(0,0,0)" stroke="rgb(0,0,0)" stroke-width="0" d=" M 42.19 159.55 L 42.21 137.30 46.51 137.30 50.61 152.98 50.83 153.81 51.02 154.56 51.19 155.21 51.33 155.78 51.45 156.26 51.58 155.73 51.73 155.11 51.91 154.40 52.11 153.60 52.34 152.71 56.39 137.30 60.71 137.30 60.69 159.55 58.18 159.55 58.20 140.08 53.14 159.55 49.75 159.55 44.72 140.08 44.70 159.55 Z M 65.39 159.55 L 65.41 137.30 73.07 137.30 73.97 137.32 74.79 137.40 75.54 137.53 76.22 137.72 76.82 137.95 77.36 138.24 77.85 138.59 78.29 138.99 78.69 139.45 79.03 139.96 79.32 140.51 79.54 141.07 79.70 141.64 79.80 142.22 79.83 142.81 79.80 143.36 79.72 143.89 79.58 144.41 79.40 144.92 79.15 145.41 78.86 145.88 78.50 146.31 78.10 146.70 77.63 147.06 77.11 147.38 77.73 147.66 78.28 148.00 78.77 148.42 79.21 148.90 79.58 149.45 79.90 150.06 80.14 150.71 80.31 151.40 80.41 152.14 80.44 152.92 80.42 153.55 80.35 154.17 80.23 154.76 80.07 155.34 79.85 155.91 79.60 156.43 79.33 156.91 79.04 157.34 78.72 157.71 78.39 158.04 78.02 158.32 77.62 158.57 77.18 158.80 76.71 159.00 76.21 159.17 75.66 159.30 75.06 159.41 74.42 159.49 73.73 159.53 72.99 159.55 Z M 67.91 146.34 L 72.49 146.34 73.20 146.33 73.82 146.30 74.35 146.25 74.80 146.18 75.17 146.10 75.58 145.96 75.94 145.78 76.26 145.58 76.54 145.34 76.78 145.07 76.97 144.76 77.12 144.43 77.23 144.07 77.30 143.68 77.32 143.26 77.30 142.85 77.24 142.47 77.14 142.11 77.00 141.76 76.82 141.44 76.60 141.15 76.35 140.89 76.06 140.68 75.73 140.50 75.37 140.37 74.95 140.26 74.41 140.18 73.76 140.12 73.01 140.09 72.15 140.08 67.92 140.08 Z M 67.91 156.77 L 73.05 156.77 73.55 156.76 73.98 156.75 74.35 156.73 74.66 156.70 74.91 156.66 75.27 156.58 75.61 156.48 75.93 156.35 76.22 156.21 76.48 156.05 76.73 155.87 76.96 155.65 77.16 155.40 77.36 155.12 77.53 154.82 77.67 154.48 77.79 154.13 77.87 153.75 77.92 153.36 77.94 152.94 77.92 152.46 77.86 152.00 77.77 151.57 77.63 151.16 77.46 150.78 77.25 150.43 76.98 150.13 76.67 149.87 76.31 149.66 75.91 149.49 75.44 149.36 74.89 149.25 74.28 149.18 73.58 149.13 72.81 149.12 67.91 149.12 Z M 83.89 159.55 L 83.91 137.30 98.33 137.30 98.33 140.08 86.42 140.08 86.41 146.68 97.69 146.68 97.69 149.47 86.41 149.47 86.40 156.77 98.63 156.77 98.62 159.55 Z M 102.38 159.55 L 102.40 137.30 105.09 137.30 115.56 154.93 115.57 137.30 118.08 137.30 118.06 159.55 115.37 159.55 104.91 141.91 104.89 159.55 Z M 122.45 159.55 L 122.47 137.30 129.39 137.30 130.28 137.31 131.09 137.35 131.80 137.41 132.43 137.50 132.97 137.62 133.64 137.82 134.27 138.08 134.86 138.40 135.41 138.78 135.92 139.21 136.52 139.84 137.06 140.53 137.53 141.29 137.94 142.12 138.29 143.01 138.57 143.96 138.79 144.97 138.95 146.03 139.04 147.14 139.07 148.30 139.05 149.29 138.99 150.24 138.88 151.13 138.73 151.99 138.54 152.79 138.31 153.55 138.06 154.25 137.78 154.90 137.48 155.49 137.16 156.03 136.82 156.52 136.46 156.97 136.10 157.38 135.72 157.74 135.32 158.05 134.91 158.33 134.46 158.58 133.98 158.81 133.47 159.00 132.93 159.17 132.35 159.30 131.74 159.41 131.09 159.49 130.41 159.53 129.70 159.55 Z M 124.96 156.77 L 129.40 156.77 130.18 156.75 130.90 156.70 131.55 156.62 132.12 156.51 132.63 156.36 133.07 156.19 133.49 155.99 133.86 155.76 134.19 155.51 134.49 155.23 134.86 154.79 135.20 154.29 135.51 153.74 135.78 153.13 136.01 152.47 136.21 151.74 136.37 150.96 136.48 150.12 136.54 149.22 136.56 148.26 136.52 146.95 136.40 145.77 136.18 144.72 135.88 143.79 135.50 142.99 135.05 142.30 134.57 141.71 134.05 141.22 133.49 140.82 132.90 140.52 132.40 140.36 131.80 140.24 131.09 140.15 130.27 140.10 129.34 140.08 124.97 140.08 Z M 154.43 156.77 L 154.42 159.55 141.26 159.55 141.26 159.15 141.29 158.76 141.34 158.38 141.42 158.00 141.53 157.63 141.74 157.03 142.00 156.43 142.31 155.84 142.66 155.25 143.06 154.68 143.52 154.09 144.06 153.47 144.69 152.83 145.41 152.16 146.20 151.45 147.42 150.30 148.45 149.27 149.32 148.34 150.01 147.52 150.53 146.82 150.92 146.18 151.23 145.54 151.44 144.91 151.57 144.29 151.62 143.67 151.57 143.08 151.45 142.54 151.25 142.03 150.96 141.55 150.60 141.12 150.16 140.74 149.68 140.45 149.15 140.24 148.57 140.12 147.93 140.08 147.26 140.12 146.65 140.24 146.10 140.44 145.60 140.73 145.15 141.09 144.77 141.53 144.48 142.03 144.27 142.59 144.14 143.22 144.09 143.90 141.58 143.55 141.74 142.39 142.02 141.34 142.40 140.41 142.90 139.60 143.51 138.90 144.22 138.32 145.03 137.87 145.92 137.55 146.91 137.36 147.99 137.30 149.07 137.37 150.07 137.58 150.96 137.94 151.77 138.44 152.48 139.08 153.07 139.83 153.53 140.64 153.86 141.53 154.06 142.48 154.12 143.50 154.11 144.04 154.05 144.57 153.96 145.09 153.84 145.62 153.68 146.14 153.47 146.66 153.22 147.20 152.93 147.74 152.58 148.30 152.19 148.87 151.72 149.48 151.12 150.16 150.40 150.92 149.56 151.76 148.59 152.68 147.77 153.41 147.08 154.05 146.50 154.59 146.04 155.02 145.71 155.35 145.44 155.63 145.20 155.92 144.97 156.20 144.76 156.48 144.58 156.77 Z" />
<path fill="rgb(255,0,0)" stroke="rgb(255,0,0)" stroke-width="2" d=" M 42 116 C 42 114 44 114 44 114 L 47 114 L 47 114 C 49 114 49 116 49 116 L 49 119 L 49 119 C 49 121 47 121 47 121 L 44 121 L 44 121 C 42 121 42 119 42 119 L 42 116 Z" />
<polyline points="57.33 112.92 52.63 121.95" fill="none" stroke="rgb(0,0,0)" stroke-width="2" />
<path fill="rgb(255,0,0)" stroke="rgb(255,0,0)" stroke-width="2" d=" M 113 43 C 113 41 115 41 115 41 L 119 41 L 119 41 C 120 41 120 43 120 43 L 120 46 L 120 46 C 120 48 119 48 119 48 L 115 48 L 115 48 C 113 48 113 46 113 46 L 113 43 Z" />
</svg>
