<?xml version="1.0" encoding="utf-8"?>
<!-- Created with "sPlan" (http://www.abacom-online.de) -->
<svg version="1.1" baseProfile="full"
xmlns="http://www.w3.org/2000/svg"
width="18mm" height="20mm"
viewBox="0 0 187 207">
<title>MBEND</title>
<defs>
<style type="text/css">
<![CDATA[
polyline {stroke-linecap:round; stroke-linejoin:round}
polygon {stroke-linecap:round; stroke-linejoin:round}
path {stroke-linecap:round; stroke-linejoin:round}
circle {stroke-linecap:round; stroke-linejoin:round}
]]>
</style>
</defs>
<polyline points="44.56 117.46 67.90 117.46 67.90 103.23 100.13 103.23 100.13 67.09 115.95 67.09 115.95 44.56 115.95 67.09 133.23 67.09 133.23 103.23 133.23 131.69 104.77 131.69 67.90 131.69 67.90 117.46" fill="none" stroke="rgb(0,0,0)" stroke-width="2" />
<path fill="rgb(0,0,0)" stroke="rgb(0,0,0)" stroke-width="0" d=" M 49.30 159.55 L 49.32 137.30 53.62 137.30 57.72 152.98 57.94 153.81 58.13 154.56 58.30 155.21 58.44 155.78 58.55 156.26 58.68 155.73 58.84 155.11 59.02 154.40 59.22 153.60 59.45 152.71 63.50 137.30 67.82 137.30 67.80 159.55 65.29 159.55 65.31 140.08 60.25 159.55 56.86 159.55 51.83 140.08 51.81 159.55 Z M 72.50 159.55 L 72.52 137.30 80.18 137.30 81.07 137.32 81.90 137.40 82.65 137.53 83.32 137.72 83.93 137.95 84.47 138.24 84.96 138.59 85.40 138.99 85.79 139.45 86.14 139.96 86.43 140.51 86.65 141.07 86.81 141.64 86.90 142.22 86.94 142.81 86.91 143.36 86.83 143.89 86.69 144.41 86.50 144.92 86.26 145.41 85.96 145.88 85.61 146.31 85.20 146.70 84.74 147.06 84.22 147.38 84.83 147.66 85.39 148.00 85.88 148.42 86.32 148.90 86.69 149.45 87.00 150.06 87.25 150.71 87.42 151.40 87.52 152.14 87.55 152.92 87.53 153.55 87.46 154.17 87.34 154.76 87.17 155.34 86.96 155.91 86.71 156.43 86.44 156.91 86.15 157.34 85.83 157.71 85.50 158.04 85.13 158.32 84.73 158.57 84.29 158.80 83.82 159.00 83.31 159.17 82.76 159.30 82.17 159.41 81.53 159.49 80.84 159.53 80.10 159.55 Z M 75.02 146.34 L 79.60 146.34 80.31 146.33 80.93 146.30 81.46 146.25 81.91 146.18 82.28 146.10 82.68 145.96 83.05 145.78 83.37 145.58 83.65 145.34 83.89 145.07 84.08 144.76 84.23 144.43 84.34 144.07 84.41 143.68 84.43 143.26 84.41 142.85 84.35 142.47 84.25 142.11 84.11 141.76 83.93 141.44 83.71 141.15 83.45 140.89 83.16 140.68 82.84 140.50 82.48 140.37 82.05 140.26 81.52 140.18 80.87 140.12 80.12 140.09 79.26 140.08 75.03 140.08 Z M 75.01 156.77 L 80.16 156.77 80.65 156.76 81.09 156.75 81.46 156.73 81.77 156.70 82.02 156.66 82.38 156.58 82.72 156.48 83.04 156.35 83.33 156.21 83.59 156.05 83.84 155.87 84.06 155.65 84.27 155.40 84.46 155.12 84.64 154.82 84.78 154.48 84.90 154.13 84.98 153.75 85.03 153.36 85.04 152.94 85.03 152.46 84.97 152.00 84.88 151.57 84.74 151.16 84.57 150.78 84.35 150.43 84.09 150.13 83.78 149.87 83.42 149.66 83.01 149.49 82.55 149.36 82.00 149.25 81.38 149.18 80.69 149.13 79.92 149.12 75.02 149.12 Z M 91.00 159.55 L 91.02 137.30 105.44 137.30 105.44 140.08 93.52 140.08 93.51 146.68 104.80 146.68 104.80 149.47 93.51 149.47 93.51 156.77 105.73 156.77 105.73 159.55 Z M 109.49 159.55 L 109.51 137.30 112.20 137.30 122.66 154.93 122.68 137.30 125.19 137.30 125.17 159.55 122.48 159.55 112.01 141.91 112.00 159.55 Z M 129.55 159.55 L 129.57 137.30 136.50 137.30 137.39 137.31 138.19 137.35 138.91 137.41 139.54 137.50 140.08 137.62 140.75 137.82 141.38 138.08 141.97 138.40 142.51 138.78 143.02 139.21 143.63 139.84 144.17 140.53 144.64 141.29 145.05 142.12 145.40 143.01 145.68 143.96 145.90 144.97 146.06 146.03 146.15 147.14 146.18 148.30 146.16 149.29 146.09 150.24 145.99 151.13 145.84 151.99 145.64 152.79 145.42 153.55 145.17 154.25 144.89 154.90 144.59 155.49 144.27 156.03 143.92 156.52 143.57 156.97 143.20 157.38 142.82 157.74 142.43 158.05 142.02 158.33 141.57 158.58 141.09 158.81 140.58 159.00 140.03 159.17 139.46 159.30 138.84 159.41 138.20 159.49 137.52 159.53 136.81 159.55 Z M 132.07 156.77 L 136.51 156.77 137.29 156.75 138.01 156.70 138.65 156.62 139.23 156.51 139.73 156.36 140.18 156.19 140.59 155.99 140.96 155.76 141.30 155.51 141.59 155.23 141.97 154.79 142.31 154.29 142.61 153.74 142.89 153.13 143.12 152.47 143.32 151.74 143.47 150.96 143.58 150.12 143.65 149.22 143.67 148.26 143.63 146.95 143.50 145.77 143.29 144.72 142.99 143.79 142.61 142.99 142.16 142.30 141.68 141.71 141.16 141.22 140.60 140.82 140.01 140.52 139.51 140.36 138.91 140.24 138.20 140.15 137.38 140.10 136.45 140.08 132.08 140.08 Z" />
<path fill="rgb(255,0,0)" stroke="rgb(255,0,0)" stroke-width="2" d=" M 41 116 C 41 114 43 114 43 114 L 46 114 L 46 114 C 48 114 48 116 48 116 L 48 119 L 48 119 C 48 121 46 121 46 121 L 43 121 L 43 121 C 41 121 41 119 41 119 L 41 116 Z" />
<polyline points="56.44 112.92 51.73 121.95" fill="none" stroke="rgb(0,0,0)" stroke-width="2" />
<path fill="rgb(255,0,0)" stroke="rgb(255,0,0)" stroke-width="2" d=" M 112 43 C 112 41 114 41 114 41 L 118 41 L 118 41 C 120 41 120 43 120 43 L 120 46 L 120 46 C 120 48 118 48 118 48 L 114 48 L 114 48 C 112 48 112 46 112 46 L 112 43 Z" />
</svg>
