<?xml version="1.0" encoding="utf-8"?>
<!-- Created with "sPlan" (http://www.abacom-online.de) -->
<svg version="1.1" baseProfile="full"
xmlns="http://www.w3.org/2000/svg"
width="50mm" height="50mm"
viewBox="0 0 500 500">
<title>MCROS</title>
<defs>
<style type="text/css">
<![CDATA[
polyline {stroke-linecap:round; stroke-linejoin:round}
polygon {stroke-linecap:round; stroke-linejoin:round}
path {stroke-linecap:round; stroke-linejoin:round}
circle {stroke-linecap:round; stroke-linejoin:round}
]]>
</style>
</defs>
<polyline points="50.06 250.18 120.20 250.18 120.20 199.83 200.03 199.83 200.03 120.41 250.09 120.41 250.09 50.08 250.09 120.60 300.07 120.60 300.07 200.00 380.04 200.00 380.04 250.18 450.12 250.18 380.06 250.18 380.06 300.03 300.20 300.03 300.20 381.13 250.21 381.13 250.21 450.19 250.21 380.77 199.90 380.77 199.90 300.17 120.35 300.17 120.35 250.16" fill="none" stroke="rgb(0,0,255)" stroke-width="15" />
<path fill="rgb(255,0,0)" stroke="rgb(255,0,0)" stroke-width="10" d=" M 38 244 C 38 238 44 238 44 238 L 56 238 L 56 238 C 62 238 62 244 62 244 L 62 256 L 62 256 C 62 262 56 262 56 262 L 44 262 L 44 262 C 38 262 38 256 38 256 L 38 244 Z" />
<path fill="rgb(255,0,0)" stroke="rgb(255,0,0)" stroke-width="10" d=" M 238 44 C 238 38 244 38 244 38 L 256 38 L 256 38 C 262 38 262 44 262 44 L 262 56 L 262 56 C 262 62 256 62 256 62 L 244 62 L 244 62 C 238 62 238 56 238 56 L 238 44 Z" />
<path fill="rgb(255,0,0)" stroke="rgb(255,0,0)" stroke-width="10" d=" M 438 244 C 438 238 444 238 444 238 L 456 238 L 456 238 C 462 238 462 244 462 244 L 462 256 L 462 256 C 462 262 456 262 456 262 L 444 262 L 444 262 C 438 262 438 256 438 256 L 438 244 Z" />
<path fill="rgb(255,0,0)" stroke="rgb(255,0,0)" stroke-width="10" d=" M 238 444 C 238 438 244 438 244 438 L 256 438 L 256 438 C 262 438 262 444 262 444 L 262 456 L 262 456 C 262 462 256 462 256 462 L 244 462 L 244 462 C 238 462 238 456 238 456 L 238 444 Z" />
<polyline points="100.12 234.76 83.92 265.52" fill="none" stroke="rgb(0,0,255)" stroke-width="15" />
</svg>
