<?xml version="1.0" encoding="utf-8"?>
<!-- Created with "sPlan" (http://www.abacom-online.de) -->
<svg version="1.1" baseProfile="full"
xmlns="http://www.w3.org/2000/svg"
width="50mm" height="50mm"
viewBox="0 0 500 500">
<title>MLOCQS</title>
<defs>
<style type="text/css">
<![CDATA[
polyline {stroke-linecap:round; stroke-linejoin:round}
polygon {stroke-linecap:round; stroke-linejoin:round}
path {stroke-linecap:round; stroke-linejoin:round}
circle {stroke-linecap:round; stroke-linejoin:round}
]]>
</style>
</defs>
<polyline points="50.03 250.28 130.36 250.28 130.36 199.96 369.71 199.96 369.71 299.87 130.36 299.87 130.36 250.28" fill="none" stroke="rgb(0,0,255)" stroke-width="15" />
<path fill="rgb(255,0,0)" stroke="rgb(255,0,0)" stroke-width="10" d=" M 38 244 C 38 238 44 238 44 238 L 56 238 L 56 238 C 62 238 62 244 62 244 L 62 256 L 62 256 C 62 262 56 262 56 262 L 44 262 L 44 262 C 38 262 38 256 38 256 L 38 244 Z" />
<polyline points="100.12 234.76 83.92 265.52" fill="none" stroke="rgb(0,0,255)" stroke-width="15" />
<path fill="rgb(0,0,0)" stroke="rgb(0,0,0)" stroke-width="0" d=" M 387.04 451.18 L 390.08 453.95 393.04 456.40 395.89 458.53 398.66 460.35 401.33 461.86 398.22 471.23 394.41 469.54 390.60 467.49 386.80 465.10 383.01 462.35 379.22 459.26 375.07 461.35 370.76 462.97 366.27 464.13 361.62 464.83 356.79 465.06 351.93 464.79 347.25 463.99 342.76 462.65 338.45 460.78 334.32 458.37 330.46 455.48 326.99 452.15 323.88 448.39 321.15 444.20 318.80 439.57 316.84 434.60 315.33 429.39 314.24 423.93 313.59 418.23 313.38 412.28 313.60 406.35 314.26 400.64 315.35 395.14 316.88 389.86 318.84 384.80 321.20 380.08 323.93 375.83 327.03 372.06 330.49 368.76 334.32 365.93 338.42 363.60 342.72 361.79 347.21 360.49 351.89 359.72 356.77 359.46 361.68 359.72 366.40 360.52 370.92 361.84 375.24 363.70 379.36 366.08 383.20 368.95 386.65 372.23 389.71 375.94 392.39 380.08 394.69 384.63 396.59 389.53 398.06 394.66 399.10 400.04 399.73 405.67 399.93 411.53 399.80 416.41 399.42 421.09 398.78 425.56 397.88 429.84 396.72 433.91 395.31 437.78 393.63 441.44 391.69 444.89 389.50 448.14 387.04 451.18 Z M 359.99 434.16 L 364.10 435.60 367.90 437.29 371.41 439.23 374.62 441.43 377.53 443.88 381.43 439.24 384.47 433.75 386.64 427.41 387.95 420.22 388.39 412.18 388.25 407.49 387.79 403.05 387.03 398.85 385.96 394.89 384.58 391.17 382.91 387.74 380.95 384.62 378.71 381.83 376.19 379.37 373.38 377.22 370.36 375.43 367.19 374.04 363.88 373.05 360.43 372.46 356.83 372.26 351.52 372.66 346.58 373.86 342.02 375.87 337.83 378.68 334.01 382.30 330.74 386.71 328.20 391.91 326.38 397.90 325.29 404.68 324.92 412.26 325.27 419.63 326.33 426.28 328.12 432.21 330.62 437.43 333.84 441.92 337.62 445.64 341.80 448.54 346.37 450.60 351.35 451.84 356.72 452.26 359.33 452.15 361.88 451.84 364.37 451.31 366.80 450.58 369.16 449.63 366.84 448.13 364.46 446.82 362.03 445.68 359.55 444.73 357.01 443.96 Z M 412.89 428.26 L 424.43 428.26 424.84 431.27 425.41 434.05 426.15 436.61 427.07 438.95 428.15 441.07 429.45 443.00 431.01 444.77 432.83 446.39 434.90 447.86 437.23 449.17 439.75 450.28 442.39 451.15 445.15 451.76 448.04 452.13 451.06 452.26 453.72 452.16 456.27 451.88 458.68 451.42 460.97 450.76 463.13 449.92 465.12 448.92 466.89 447.77 468.45 446.49 469.79 445.06 470.93 443.50 471.85 441.84 472.56 440.16 473.07 438.44 473.38 436.69 473.48 434.91 473.41 433.12 473.18 431.43 472.80 429.84 472.26 428.33 471.58 426.92 470.66 425.60 469.41 424.35 467.84 423.19 465.96 422.11 463.75 421.11 461.86 420.41 459.24 419.57 455.88 418.59 451.78 417.48 446.94 416.22 442.05 414.91 437.80 413.62 434.18 412.36 431.20 411.12 428.85 409.91 426.35 408.30 424.12 406.54 422.16 404.63 420.47 402.58 419.05 400.38 417.89 398.06 416.98 395.62 416.34 393.08 415.95 390.42 415.82 387.66 415.99 384.60 416.48 381.62 417.28 378.72 418.41 375.91 419.85 373.17 421.60 370.61 423.64 368.30 425.98 366.26 428.61 364.47 431.53 362.95 434.68 361.69 437.96 360.71 441.38 360.02 444.94 359.60 448.64 359.46 452.68 359.60 456.53 360.04 460.18 360.77 463.64 361.79 466.90 363.11 469.92 364.71 472.65 366.58 475.08 368.72 477.22 371.14 479.06 373.83 480.60 376.74 481.83 379.79 482.75 383.00 483.34 386.35 483.63 389.86 472.09 389.86 471.52 386.55 470.58 383.58 469.27 380.95 467.60 378.66 465.56 376.71 463.12 375.11 460.26 373.86 456.97 372.97 453.24 372.44 449.09 372.26 444.80 372.43 441.01 372.96 437.70 373.84 434.88 375.07 432.56 376.66 430.69 378.49 429.24 380.47 428.20 382.60 427.57 384.87 427.36 387.28 427.51 389.37 427.95 391.30 428.69 393.07 429.72 394.69 431.04 396.16 432.95 397.56 435.78 398.98 439.55 400.41 444.25 401.85 449.87 403.31 455.56 404.73 460.45 406.09 464.53 407.37 467.81 408.59 470.28 409.73 473.15 411.46 475.71 413.36 477.94 415.44 479.85 417.69 481.45 420.11 482.75 422.70 483.75 425.44 484.46 428.33 484.89 431.38 485.02 434.58 484.86 437.80 484.36 440.93 483.53 444.00 482.37 446.98 480.88 449.90 479.07 452.64 476.98 455.13 474.60 457.37 471.93 459.35 468.96 461.07 465.78 462.51 462.44 463.62 458.95 464.42 455.31 464.90 451.51 465.06 446.74 464.89 442.30 464.37 438.18 463.51 434.38 462.31 430.89 460.76 427.71 458.86 424.82 456.62 422.22 454.03 419.90 451.09 417.86 447.81 416.15 444.26 414.80 440.53 413.81 436.62 413.17 432.53 412.89 428.26 Z" />
</svg>
