<?xml version="1.0" encoding="utf-8"?>
<!-- Created with "sPlan" (http://www.abacom-online.de) -->
<svg version="1.1" baseProfile="full"
xmlns="http://www.w3.org/2000/svg"
width="18mm" height="14mm"
viewBox="0 0 183 146">
<title>MLOC</title>
<defs>
<style type="text/css">
<![CDATA[
polyline {stroke-linecap:round; stroke-linejoin:round}
polygon {stroke-linecap:round; stroke-linejoin:round}
path {stroke-linecap:round; stroke-linejoin:round}
circle {stroke-linecap:round; stroke-linejoin:round}
]]>
</style>
</defs>
<polyline points="44.56 55.23 67.90 55.23 67.90 41.00 137.44 41.00 137.44 55.23 137.44 55.23 137.44 55.23 137.44 69.46 67.90 69.46 67.90 55.23" fill="none" stroke="rgb(0,0,0)" stroke-width="2" />
<path fill="rgb(0,0,0)" stroke="rgb(0,0,0)" stroke-width="0" d=" M 65.29 98.81 L 65.31 76.56 69.61 76.56 73.71 92.25 73.93 93.08 74.12 93.82 74.29 94.48 74.43 95.04 74.55 95.52 74.67 94.99 74.83 94.38 75.01 93.67 75.21 92.87 75.44 91.98 79.49 76.56 83.81 76.56 83.79 98.81 81.28 98.81 81.30 79.34 76.24 98.81 72.85 98.81 67.82 79.34 67.80 98.81 Z M 88.49 98.81 L 88.51 76.56 91.02 76.56 91.00 96.03 101.04 96.03 101.03 98.81 Z M 102.92 87.98 L 103.03 85.87 103.35 83.95 103.89 82.22 104.64 80.68 105.60 79.34 106.74 78.21 107.99 77.34 109.37 76.72 110.88 76.34 112.51 76.22 113.59 76.27 114.63 76.45 115.63 76.74 116.59 77.15 117.50 77.68 118.35 78.32 119.11 79.04 119.78 79.86 120.38 80.77 120.89 81.77 121.30 82.85 121.63 83.98 121.86 85.18 122.00 86.42 122.04 87.73 121.99 89.05 121.84 90.31 121.60 91.52 121.25 92.67 120.81 93.76 120.28 94.78 119.66 95.69 118.97 96.49 118.19 97.19 117.33 97.79 116.41 98.29 115.47 98.67 114.50 98.94 113.50 99.11 112.47 99.16 111.37 99.10 110.31 98.92 109.30 98.62 108.34 98.19 107.43 97.65 106.58 97.00 105.83 96.26 105.15 95.44 104.57 94.52 104.06 93.52 103.65 92.46 103.33 91.38 103.10 90.27 102.97 89.14 102.92 87.98 Z M 105.43 88.01 L 105.51 89.50 105.75 90.86 106.15 92.09 106.71 93.18 107.43 94.14 108.27 94.95 109.19 95.58 110.20 96.02 111.29 96.29 112.46 96.38 113.65 96.29 114.75 96.02 115.77 95.57 116.70 94.93 117.54 94.12 118.26 93.14 118.81 92.01 119.21 90.73 119.45 89.29 119.54 87.71 119.50 86.68 119.40 85.71 119.23 84.79 118.99 83.93 118.69 83.11 118.32 82.37 117.88 81.69 117.38 81.08 116.82 80.54 116.20 80.08 115.53 79.69 114.83 79.38 114.09 79.17 113.32 79.04 112.52 79.00 111.39 79.08 110.33 79.33 109.33 79.74 108.40 80.33 107.53 81.07 106.77 82.02 106.19 83.18 105.77 84.57 105.51 86.18 105.43 88.01 Z M 139.60 90.90 L 142.10 91.62 141.72 93.02 141.23 94.28 140.63 95.41 139.93 96.39 139.13 97.23 138.23 97.93 137.25 98.47 136.20 98.85 135.08 99.09 133.87 99.16 132.64 99.10 131.50 98.93 130.45 98.64 129.51 98.23 128.65 97.70 127.89 97.06 127.20 96.32 126.59 95.48 126.05 94.52 125.60 93.47 125.22 92.34 124.93 91.19 124.72 90.00 124.59 88.78 124.55 87.52 124.60 86.17 124.74 84.89 124.98 83.68 125.32 82.54 125.75 81.47 126.26 80.49 126.86 79.61 127.53 78.82 128.29 78.14 129.13 77.55 130.02 77.07 130.95 76.70 131.91 76.43 132.91 76.27 133.95 76.22 135.10 76.28 136.18 76.49 137.19 76.84 138.12 77.32 138.97 77.95 139.73 78.70 140.40 79.56 140.96 80.54 141.43 81.63 141.80 82.83 139.29 83.49 138.98 82.60 138.62 81.82 138.21 81.13 137.75 80.55 137.24 80.07 136.67 79.68 136.05 79.38 135.37 79.17 134.64 79.04 133.85 79.00 132.94 79.04 132.09 79.19 131.31 79.43 130.58 79.76 129.92 80.19 129.33 80.69 128.81 81.27 128.37 81.91 128.00 82.61 127.70 83.38 127.47 84.19 127.29 85.00 127.16 85.83 127.09 86.67 127.06 87.51 127.09 88.58 127.18 89.60 127.33 90.56 127.54 91.46 127.81 92.31 128.15 93.08 128.55 93.78 129.02 94.39 129.56 94.92 130.16 95.37 130.81 95.73 131.48 96.02 132.18 96.22 132.89 96.34 133.62 96.38 134.50 96.33 135.33 96.16 136.09 95.88 136.81 95.50 137.46 95.00 138.05 94.40 138.56 93.68 138.99 92.86 139.33 91.94 139.60 90.90 Z" />
<path fill="rgb(255,0,0)" stroke="rgb(255,0,0)" stroke-width="2" d=" M 41 53 C 41 52 43 52 43 52 L 46 52 L 46 52 C 48 52 48 53 48 53 L 48 57 L 48 57 C 48 59 46 59 46 59 L 43 59 L 43 59 C 41 59 41 57 41 57 L 41 53 Z" />
<polyline points="56.44 50.69 51.73 59.72" fill="none" stroke="rgb(0,0,0)" stroke-width="2" />
</svg>
