<?xml version="1.0" encoding="utf-8"?>
<!-- Created with "sPlan" (http://www.abacom-online.de) -->
<svg version="1.1" baseProfile="full"
xmlns="http://www.w3.org/2000/svg"
width="20mm" height="16mm"
viewBox="0 0 205 167">
<title>MSTEP</title>
<defs>
<style type="text/css">
<![CDATA[
polyline {stroke-linecap:round; stroke-linejoin:round}
polygon {stroke-linecap:round; stroke-linejoin:round}
path {stroke-linecap:round; stroke-linejoin:round}
circle {stroke-linecap:round; stroke-linejoin:round}
]]>
</style>
</defs>
<polyline points="160.78 66.31 149.11 66.31 137.44 66.31 137.44 56.15 119.71 56.34 104.59 56.34 104.59 41.00 67.90 41.00 67.90 66.31 44.56 66.31 67.90 66.31 67.90 90.54 104.45 90.54 104.45 76.25 137.44 76.25 137.44 66.31" fill="none" stroke="rgb(0,0,0)" stroke-width="2" />
<path fill="rgb(0,0,0)" stroke="rgb(0,0,0)" stroke-width="0" d=" M 58.29 119.90 L 58.31 97.64 62.61 97.64 66.71 113.33 66.93 114.16 67.12 114.90 67.29 115.56 67.43 116.12 67.55 116.60 67.67 116.08 67.83 115.46 68.01 114.75 68.21 113.95 68.44 113.06 72.49 97.64 76.81 97.64 76.79 119.90 74.28 119.90 74.30 100.42 69.24 119.90 65.85 119.90 60.82 100.42 60.80 119.90 Z M 80.56 112.25 L 83.06 112.25 83.15 112.90 83.27 113.51 83.44 114.06 83.64 114.57 83.87 115.03 84.15 115.45 84.49 115.83 84.89 116.19 85.34 116.51 85.84 116.79 86.39 117.03 86.96 117.22 87.57 117.35 88.19 117.43 88.85 117.46 89.43 117.44 89.98 117.38 90.50 117.28 91.00 117.14 91.47 116.95 91.90 116.74 92.29 116.49 92.63 116.21 92.92 115.90 93.17 115.56 93.37 115.20 93.52 114.83 93.63 114.46 93.70 114.08 93.72 113.69 93.71 113.30 93.66 112.94 93.57 112.59 93.46 112.26 93.31 111.96 93.11 111.67 92.84 111.40 92.50 111.14 92.09 110.91 91.61 110.69 91.20 110.54 90.63 110.36 89.90 110.15 89.01 109.90 87.95 109.63 86.89 109.35 85.97 109.07 85.18 108.79 84.53 108.52 84.02 108.26 83.48 107.91 83.00 107.53 82.57 107.11 82.20 106.67 81.89 106.19 81.64 105.68 81.44 105.15 81.30 104.60 81.22 104.02 81.19 103.42 81.23 102.76 81.33 102.11 81.51 101.48 81.75 100.87 82.07 100.28 82.45 99.72 82.89 99.22 83.40 98.77 83.97 98.39 84.61 98.05 85.29 97.78 86.00 97.57 86.75 97.42 87.52 97.33 88.32 97.30 89.20 97.33 90.04 97.42 90.83 97.58 91.58 97.80 92.29 98.09 92.95 98.44 93.54 98.84 94.07 99.31 94.53 99.83 94.93 100.42 95.27 101.05 95.54 101.71 95.73 102.41 95.86 103.14 95.93 103.90 93.42 103.90 93.29 103.18 93.09 102.54 92.81 101.97 92.44 101.47 92.00 101.04 91.47 100.70 90.85 100.43 90.13 100.23 89.32 100.12 88.42 100.08 87.49 100.12 86.66 100.23 85.95 100.42 85.33 100.69 84.83 101.03 84.42 101.43 84.11 101.86 83.88 102.32 83.74 102.82 83.70 103.34 83.73 103.79 83.83 104.21 83.99 104.60 84.21 104.95 84.50 105.27 84.91 105.58 85.53 105.88 86.35 106.20 87.37 106.51 88.59 106.82 89.83 107.13 90.89 107.43 91.78 107.71 92.49 107.97 93.03 108.22 93.65 108.60 94.20 109.01 94.69 109.46 95.11 109.95 95.45 110.48 95.73 111.04 95.95 111.63 96.11 112.26 96.20 112.92 96.23 113.62 96.19 114.32 96.09 115.00 95.90 115.67 95.65 116.32 95.33 116.95 94.94 117.55 94.48 118.09 93.96 118.57 93.38 119.00 92.74 119.38 92.05 119.69 91.32 119.93 90.56 120.10 89.77 120.21 88.95 120.24 87.91 120.21 86.95 120.09 86.05 119.91 85.22 119.64 84.47 119.31 83.78 118.90 83.15 118.41 82.58 117.85 82.08 117.21 81.64 116.49 81.26 115.72 80.97 114.91 80.75 114.06 80.62 113.17 80.56 112.25 Z M 105.00 119.90 L 105.02 100.42 98.44 100.42 98.44 97.64 114.11 97.64 114.11 100.42 107.53 100.42 107.51 119.90 Z M 116.91 119.90 L 116.93 97.64 131.35 97.64 131.35 100.42 119.44 100.42 119.43 107.03 130.72 107.03 130.72 109.81 119.43 109.81 119.43 117.11 131.65 117.11 131.65 119.90 Z M 135.41 119.90 L 135.43 97.64 142.87 97.64 143.61 97.65 144.29 97.68 144.89 97.72 145.41 97.78 145.86 97.86 146.43 97.98 146.95 98.15 147.44 98.36 147.89 98.61 148.30 98.90 148.68 99.23 149.02 99.61 149.34 100.04 149.62 100.52 149.88 101.05 150.09 101.61 150.26 102.20 150.38 102.80 150.45 103.43 150.47 104.08 150.41 105.18 150.21 106.21 149.89 107.18 149.44 108.07 148.86 108.89 148.11 109.60 147.15 110.15 145.98 110.54 144.61 110.78 143.03 110.86 137.93 110.86 137.92 119.90 Z M 137.93 108.07 L 143.17 108.07 144.15 108.03 145.01 107.91 145.75 107.71 146.37 107.42 146.87 107.05 147.26 106.61 147.57 106.10 147.79 105.53 147.92 104.89 147.96 104.18 147.94 103.66 147.86 103.16 147.73 102.70 147.55 102.27 147.32 101.88 147.05 101.52 146.74 101.21 146.41 100.96 146.04 100.76 145.63 100.62 145.31 100.55 144.90 100.49 144.40 100.46 143.81 100.43 143.12 100.42 137.94 100.42 Z" />
<path fill="rgb(255,0,0)" stroke="rgb(255,0,0)" stroke-width="2" d=" M 157 65 C 157 63 159 63 159 63 L 163 63 L 163 63 C 164 63 164 65 164 65 L 164 68 L 164 68 C 164 70 163 70 163 70 L 159 70 L 159 70 C 157 70 157 68 157 68 L 157 65 Z" />
<path fill="rgb(255,0,0)" stroke="rgb(255,0,0)" stroke-width="2" d=" M 41 65 C 41 63 43 63 43 63 L 46 63 L 46 63 C 48 63 48 65 48 65 L 48 68 L 48 68 C 48 70 46 70 46 70 L 43 70 L 43 70 C 41 70 41 68 41 68 L 41 65 Z" />
<polyline points="57.35 61.47 52.65 70.50" fill="none" stroke="rgb(0,0,0)" stroke-width="2" />
</svg>
