<?xml version="1.0" encoding="utf-8"?>
<!-- Created with "sPlan" (http://www.abacom-online.de) -->
<svg version="1.1" baseProfile="full"
xmlns="http://www.w3.org/2000/svg"
width="20mm" height="14mm"
viewBox="0 0 206 144">
<title>MSUB</title>
<defs>
<style type="text/css">
<![CDATA[
polyline {stroke-linecap:round; stroke-linejoin:round}
polygon {stroke-linecap:round; stroke-linejoin:round}
path {stroke-linecap:round; stroke-linejoin:round}
circle {stroke-linecap:round; stroke-linejoin:round}
]]>
</style>
</defs>
<path fill="rgb(0,0,0)" stroke="rgb(0,0,0)" stroke-width="0" d=" M 61.68 83.86 L 61.70 59.11 66.48 59.11 71.04 76.55 71.28 77.48 71.50 78.31 71.68 79.03 71.84 79.66 71.97 80.20 72.11 79.61 72.28 78.92 72.48 78.13 72.71 77.24 72.97 76.25 77.47 59.11 82.27 59.11 82.25 83.86 79.46 83.86 79.48 62.21 73.85 83.86 70.08 83.86 64.49 62.21 64.47 83.86 Z M 86.44 75.35 L 89.23 75.35 89.32 76.08 89.46 76.75 89.64 77.37 89.86 77.94 90.12 78.45 90.44 78.91 90.81 79.34 91.25 79.73 91.75 80.09 92.32 80.41 92.93 80.67 93.56 80.88 94.23 81.03 94.93 81.12 95.66 81.15 96.30 81.13 96.92 81.06 97.50 80.95 98.05 80.79 98.58 80.59 99.06 80.34 99.48 80.07 99.86 79.76 100.19 79.41 100.46 79.03 100.68 78.63 100.86 78.23 100.98 77.81 101.05 77.39 101.08 76.96 101.06 76.53 101.00 76.12 100.91 75.73 100.78 75.37 100.62 75.03 100.39 74.71 100.09 74.41 99.72 74.13 99.26 73.87 98.72 73.62 98.27 73.45 97.64 73.25 96.82 73.02 95.83 72.75 94.66 72.44 93.48 72.13 92.45 71.81 91.58 71.51 90.86 71.21 90.29 70.92 89.69 70.53 89.15 70.10 88.68 69.64 88.27 69.15 87.92 68.62 87.64 68.05 87.42 67.47 87.27 66.85 87.18 66.21 87.14 65.54 87.18 64.80 87.30 64.08 87.50 63.38 87.77 62.70 88.12 62.04 88.54 61.42 89.03 60.86 89.60 60.37 90.23 59.94 90.94 59.57 91.70 59.27 92.49 59.03 93.32 58.86 94.18 58.76 95.08 58.73 96.05 58.76 96.98 58.87 97.86 59.04 98.70 59.29 99.49 59.61 100.22 59.99 100.88 60.45 101.46 60.96 101.98 61.55 102.43 62.20 102.80 62.90 103.10 63.64 103.32 64.41 103.46 65.22 103.53 66.07 100.74 66.07 100.60 65.27 100.38 64.55 100.06 63.92 99.66 63.37 99.16 62.89 98.57 62.51 97.88 62.21 97.09 61.99 96.19 61.86 95.18 61.82 94.15 61.86 93.23 61.99 92.43 62.20 91.75 62.50 91.19 62.88 90.74 63.33 90.39 63.80 90.13 64.32 89.98 64.87 89.93 65.45 89.97 65.95 90.08 66.42 90.25 66.85 90.50 67.24 90.82 67.59 91.28 67.93 91.97 68.28 92.88 68.62 94.01 68.97 95.37 69.32 96.75 69.67 97.93 69.99 98.91 70.30 99.71 70.60 100.30 70.87 101.00 71.29 101.61 71.75 102.15 72.25 102.62 72.80 103.00 73.38 103.32 74.01 103.56 74.67 103.73 75.37 103.83 76.11 103.87 76.88 103.83 77.66 103.71 78.41 103.51 79.15 103.23 79.88 102.86 80.58 102.43 81.24 101.92 81.85 101.35 82.39 100.70 82.86 99.99 83.28 99.22 83.63 98.41 83.90 97.57 84.09 96.69 84.21 95.77 84.24 94.62 84.20 93.54 84.08 92.55 83.87 91.63 83.58 90.79 83.21 90.02 82.75 89.32 82.21 88.69 81.58 88.13 80.87 87.64 80.08 87.22 79.22 86.90 78.32 86.66 77.37 86.50 76.38 86.44 75.35 Z M 122.71 59.11 L 125.50 59.11 125.49 73.39 125.45 74.82 125.36 76.12 125.21 77.31 125.00 78.37 124.72 79.31 124.37 80.15 123.92 80.93 123.37 81.64 122.73 82.29 121.99 82.87 121.15 83.36 120.22 83.75 119.18 84.02 118.05 84.19 116.81 84.24 115.61 84.20 114.50 84.05 113.48 83.81 112.56 83.48 111.72 83.05 110.97 82.53 110.32 81.92 109.75 81.23 109.28 80.45 108.89 79.58 108.59 78.61 108.36 77.50 108.19 76.26 108.09 74.89 108.06 73.39 108.07 59.11 110.86 59.11 110.84 73.28 110.86 74.49 110.93 75.57 111.04 76.51 111.19 77.32 111.39 77.99 111.64 78.57 111.96 79.09 112.33 79.56 112.77 79.97 113.28 80.33 113.84 80.63 114.44 80.86 115.10 81.02 115.80 81.12 116.55 81.15 117.80 81.09 118.90 80.89 119.84 80.57 120.64 80.11 121.28 79.53 121.79 78.76 122.18 77.75 122.47 76.50 122.64 75.01 122.70 73.28 Z M 130.36 83.86 L 130.38 59.11 138.89 59.11 139.89 59.14 140.81 59.23 141.64 59.37 142.39 59.58 143.06 59.84 143.66 60.16 144.21 60.55 144.70 61.00 145.14 61.51 145.52 62.08 145.84 62.69 146.09 63.31 146.27 63.94 146.38 64.59 146.41 65.24 146.38 65.85 146.29 66.44 146.14 67.02 145.93 67.59 145.66 68.14 145.33 68.66 144.94 69.14 144.48 69.57 143.97 69.97 143.39 70.33 144.07 70.63 144.69 71.02 145.24 71.48 145.72 72.02 146.14 72.63 146.49 73.31 146.75 74.03 146.95 74.80 147.06 75.62 147.10 76.48 147.07 77.19 146.99 77.87 146.86 78.54 146.67 79.18 146.44 79.81 146.16 80.39 145.86 80.92 145.53 81.40 145.18 81.81 144.81 82.18 144.40 82.49 143.95 82.78 143.47 83.03 142.94 83.25 142.38 83.43 141.77 83.59 141.11 83.70 140.39 83.79 139.63 83.84 138.81 83.86 Z M 133.16 69.17 L 138.25 69.17 139.04 69.15 139.73 69.12 140.32 69.07 140.82 69.00 141.23 68.90 141.68 68.74 142.09 68.55 142.44 68.32 142.75 68.06 143.02 67.75 143.24 67.42 143.40 67.05 143.52 66.64 143.60 66.21 143.62 65.74 143.60 65.29 143.53 64.87 143.42 64.46 143.26 64.08 143.06 63.72 142.82 63.40 142.54 63.11 142.22 62.87 141.86 62.68 141.46 62.53 140.98 62.41 140.38 62.32 139.67 62.26 138.83 62.22 137.87 62.21 133.17 62.21 Z M 133.15 80.76 L 138.87 80.76 139.42 80.76 139.91 80.75 140.32 80.72 140.67 80.69 140.94 80.64 141.35 80.55 141.72 80.44 142.07 80.31 142.40 80.15 142.69 79.97 142.96 79.76 143.22 79.52 143.45 79.25 143.66 78.94 143.85 78.60 144.02 78.22 144.14 77.83 144.23 77.41 144.29 76.97 144.31 76.51 144.29 75.97 144.22 75.46 144.12 74.98 143.97 74.53 143.78 74.11 143.54 73.72 143.25 73.39 142.90 73.10 142.50 72.86 142.05 72.67 141.53 72.52 140.92 72.41 140.23 72.32 139.46 72.27 138.60 72.26 133.16 72.26 Z" />
<path fill="none" stroke="rgb(0,0,0)" stroke-width="2" d=" M 41 41 L 165 41 165 103 41 103 41 41 Z" />
</svg>
