<?xml version="1.0" encoding="utf-8"?>
<!-- Created with "sPlan" (http://www.abacom-online.de) -->
<svg version="1.1" baseProfile="full"
xmlns="http://www.w3.org/2000/svg"
width="50mm" height="50mm"
viewBox="0 0 500 500">
<title>MSUB</title>
<defs>
<style type="text/css">
<![CDATA[
polyline {stroke-linecap:round; stroke-linejoin:round}
polygon {stroke-linecap:round; stroke-linejoin:round}
path {stroke-linecap:round; stroke-linejoin:round}
circle {stroke-linecap:round; stroke-linejoin:round}
]]>
</style>
</defs>
<polyline points="49.08 50.46 49.08 450.46 449.08 450.46 449.08 50.46 49.08 50.46" fill="none" stroke="rgb(0,0,255)" stroke-width="10" />
<path fill="rgb(0,0,0)" stroke="rgb(0,0,0)" stroke-width="0" d=" M 76.18 299.23 L 76.27 196.83 96.06 196.83 114.92 269.00 115.92 272.83 116.80 276.25 117.57 279.27 118.22 281.88 118.76 284.08 119.35 281.65 120.05 278.80 120.88 275.54 121.82 271.85 122.88 267.75 141.52 196.83 161.38 196.83 161.29 299.23 149.75 299.23 149.84 209.63 126.55 299.23 110.93 299.23 87.81 209.63 87.72 299.23 Z M 178.62 264.03 L 190.17 264.03 190.57 267.04 191.14 269.82 191.88 272.39 192.80 274.72 193.88 276.84 195.19 278.77 196.74 280.54 198.56 282.16 200.63 283.63 202.96 284.94 205.48 286.05 208.12 286.92 210.88 287.53 213.77 287.91 216.79 288.03 219.45 287.94 222.00 287.65 224.41 287.19 226.70 286.53 228.86 285.69 230.85 284.69 232.62 283.54 234.18 282.26 235.53 280.83 236.66 279.27 237.58 277.61 238.29 275.93 238.81 274.21 239.11 272.46 239.21 270.68 239.14 268.90 238.91 267.20 238.53 265.61 238.00 264.10 237.31 262.69 236.39 261.37 235.14 260.12 233.58 258.96 231.69 257.88 229.48 256.88 227.59 256.18 224.97 255.34 221.61 254.36 217.51 253.25 212.67 251.99 207.78 250.68 203.53 249.39 199.91 248.13 196.93 246.89 194.58 245.68 192.09 244.07 189.86 242.31 187.89 240.40 186.20 238.35 184.78 236.15 183.62 233.83 182.72 231.39 182.07 228.85 181.68 226.19 181.55 223.43 181.72 220.37 182.21 217.39 183.01 214.49 184.14 211.68 185.58 208.94 187.33 206.38 189.37 204.07 191.71 202.03 194.34 200.24 197.27 198.72 200.41 197.46 203.69 196.48 207.11 195.79 210.68 195.37 214.37 195.23 218.42 195.37 222.26 195.81 225.91 196.54 229.37 197.56 232.63 198.88 235.65 200.48 238.38 202.35 240.81 204.49 242.95 206.91 244.79 209.60 246.34 212.51 247.56 215.56 248.48 218.77 249.07 222.12 249.36 225.63 237.82 225.63 237.25 222.32 236.31 219.35 235.00 216.72 233.33 214.43 231.29 212.48 228.85 210.88 225.99 209.63 222.70 208.74 218.98 208.21 214.83 208.03 210.54 208.20 206.74 208.73 203.43 209.61 200.62 210.84 198.29 212.43 196.42 214.26 194.97 216.24 193.93 218.37 193.30 220.64 193.10 223.05 193.24 225.14 193.68 227.07 194.42 228.84 195.45 230.46 196.77 231.93 198.68 233.33 201.51 234.75 205.28 236.18 209.98 237.62 215.60 239.08 221.29 240.50 226.18 241.86 230.26 243.14 233.54 244.36 236.01 245.50 238.88 247.23 241.44 249.13 243.67 251.21 245.59 253.46 247.18 255.88 248.48 258.47 249.48 261.21 250.19 264.10 250.62 267.15 250.76 270.35 250.59 273.57 250.09 276.70 249.26 279.77 248.10 282.75 246.61 285.67 244.80 288.41 242.71 290.90 240.33 293.14 237.66 295.12 234.70 296.84 231.51 298.28 228.17 299.39 224.68 300.19 221.04 300.67 217.24 300.83 212.47 300.66 208.03 300.14 203.91 299.28 200.11 298.08 196.62 296.53 193.44 294.63 190.55 292.39 187.95 289.80 185.63 286.86 183.59 283.58 181.88 280.03 180.53 276.30 179.54 272.39 178.90 268.30 178.62 264.03 Z M 328.72 196.83 L 340.27 196.83 340.22 255.90 340.09 261.82 339.70 267.23 339.07 272.12 338.19 276.51 337.05 280.39 335.60 283.88 333.74 287.10 331.47 290.05 328.81 292.73 325.75 295.14 322.28 297.19 318.41 298.78 314.12 299.92 309.43 300.60 304.34 300.83 299.37 300.63 294.77 300.04 290.56 299.05 286.71 297.66 283.25 295.88 280.16 293.72 277.45 291.21 275.11 288.34 273.15 285.12 271.56 281.54 270.30 277.51 269.33 272.93 268.63 267.81 268.22 262.13 268.09 255.90 268.13 196.83 279.68 196.83 279.63 255.45 279.71 260.47 279.98 264.94 280.43 268.84 281.07 272.18 281.88 274.97 282.93 277.36 284.23 279.52 285.79 281.45 287.61 283.15 289.70 284.63 292.01 285.85 294.52 286.80 297.23 287.48 300.14 287.89 303.25 288.03 308.42 287.76 312.96 286.95 316.87 285.61 320.15 283.72 322.81 281.30 324.91 278.12 326.56 273.94 327.73 268.77 328.44 262.61 328.68 255.45 Z M 360.37 299.23 L 360.46 196.83 395.69 196.83 399.83 196.95 403.62 197.31 407.07 197.91 410.18 198.76 412.95 199.84 415.44 201.18 417.70 202.77 419.74 204.62 421.55 206.73 423.14 209.10 424.46 211.63 425.49 214.20 426.23 216.82 426.66 219.49 426.80 222.20 426.68 224.71 426.30 227.17 425.68 229.56 424.82 231.89 423.70 234.17 422.33 236.32 420.71 238.31 418.83 240.12 416.70 241.76 414.31 243.23 417.13 244.51 419.68 246.10 421.96 248.01 423.96 250.24 425.68 252.78 427.12 255.58 428.23 258.57 429.02 261.75 429.49 265.13 429.64 268.70 429.53 271.62 429.20 274.46 428.66 277.21 427.90 279.88 426.91 282.47 425.77 284.89 424.53 287.09 423.18 289.05 421.73 290.77 420.17 292.27 418.49 293.57 416.64 294.75 414.63 295.79 412.46 296.69 410.13 297.47 407.61 298.10 404.87 298.59 401.91 298.95 398.73 299.16 395.33 299.23 Z M 371.98 238.43 L 393.06 238.43 396.30 238.38 399.15 238.25 401.61 238.03 403.68 237.72 405.36 237.33 407.23 236.68 408.91 235.89 410.39 234.94 411.68 233.84 412.77 232.59 413.67 231.20 414.36 229.67 414.86 228.00 415.16 226.20 415.26 224.25 415.17 222.40 414.89 220.64 414.43 218.97 413.78 217.39 412.95 215.90 411.94 214.55 410.78 213.39 409.45 212.40 407.96 211.59 406.31 210.97 404.33 210.48 401.86 210.11 398.89 209.84 395.43 209.68 391.48 209.63 372.00 209.63 Z M 371.94 286.43 L 395.60 286.43 397.89 286.41 399.90 286.35 401.61 286.25 403.03 286.11 404.17 285.93 405.84 285.55 407.41 285.09 408.86 284.53 410.19 283.88 411.42 283.14 412.54 282.29 413.59 281.29 414.55 280.15 415.42 278.87 416.22 277.45 416.90 275.92 417.42 274.29 417.80 272.56 418.02 270.74 418.10 268.83 418.02 266.60 417.76 264.49 417.32 262.50 416.71 260.63 415.91 258.88 414.92 257.29 413.71 255.90 412.28 254.71 410.63 253.73 408.76 252.94 406.60 252.32 404.10 251.85 401.25 251.50 398.05 251.30 394.50 251.23 371.96 251.23 Z" />
</svg>
