<?xml version="1.0" encoding="utf-8"?>
<!-- Created with "sPlan" (http://www.abacom-online.de) -->
<svg version="1.1" baseProfile="full"
xmlns="http://www.w3.org/2000/svg"
width="20mm" height="18mm"
viewBox="0 0 205 183">
<title>MTEE</title>
<defs>
<style type="text/css">
<![CDATA[
polyline {stroke-linecap:round; stroke-linejoin:round}
polygon {stroke-linecap:round; stroke-linejoin:round}
path {stroke-linecap:round; stroke-linejoin:round}
circle {stroke-linecap:round; stroke-linejoin:round}
]]>
</style>
</defs>
<polyline points="44.56 52.83 55.83 52.83 67.50 52.83 67.50 41.00 137.04 41.00 137.04 52.89 160.38 52.89 137.04 52.89 137.04 64.21 114.16 64.21 114.16 84.44 102.13 84.44 102.13 104.34 102.13 84.34 90.07 84.34 90.07 63.75 67.50 63.75 67.50 52.83" fill="none" stroke="rgb(0,0,0)" stroke-width="2" />
<path fill="rgb(255,0,0)" stroke="rgb(255,0,0)" stroke-width="2" d=" M 157 51 C 157 49 159 49 159 49 L 162 49 L 162 49 C 164 49 164 51 164 51 L 164 55 L 164 55 C 164 56 162 56 162 56 L 159 56 L 159 56 C 157 56 157 55 157 55 L 157 51 Z" />
<path fill="rgb(255,0,0)" stroke="rgb(255,0,0)" stroke-width="2" d=" M 41 51 C 41 49 43 49 43 49 L 46 49 L 46 49 C 48 49 48 51 48 51 L 48 55 L 48 55 C 48 56 46 56 46 56 L 43 56 L 43 56 C 41 56 41 55 41 55 L 41 51 Z" />
<path fill="rgb(255,0,0)" stroke="rgb(255,0,0)" stroke-width="2" d=" M 99 103 C 99 101 100 101 100 101 L 104 101 L 104 101 C 106 101 106 103 106 103 L 106 106 L 106 106 C 106 108 104 108 104 108 L 100 108 L 100 108 C 99 108 99 106 99 106 L 99 103 Z" />
<path fill="rgb(0,0,0)" stroke="rgb(0,0,0)" stroke-width="0" d=" M 65.90 136.40 L 65.92 114.15 70.22 114.15 74.32 129.83 74.54 130.66 74.73 131.41 74.89 132.06 75.03 132.63 75.15 133.11 75.28 132.58 75.43 131.96 75.61 131.25 75.82 130.45 76.05 129.56 80.10 114.15 84.41 114.15 84.39 136.40 81.89 136.40 81.91 116.93 76.85 136.40 73.45 136.40 68.43 116.93 68.41 136.40 Z M 94.11 136.40 L 94.13 116.93 87.55 116.93 87.55 114.15 103.22 114.15 103.22 116.93 96.64 116.93 96.62 136.40 Z M 106.02 136.40 L 106.04 114.15 120.46 114.15 120.46 116.93 108.55 116.93 108.54 123.53 119.83 123.53 119.83 126.32 108.54 126.32 108.54 133.62 120.76 133.62 120.76 136.40 Z M 124.52 136.40 L 124.54 114.15 138.96 114.15 138.96 116.93 127.05 116.93 127.04 123.53 138.32 123.53 138.32 126.32 127.04 126.32 127.03 133.62 139.26 133.62 139.25 136.40 Z" />
<polyline points="56.08 48.26 51.37 57.29" fill="none" stroke="rgb(0,0,0)" stroke-width="2" />
</svg>
