<?xml version="1.0" encoding="utf-8"?>
<!-- Created with "sPlan" (http://www.abacom-online.de) -->
<svg version="1.1" baseProfile="full"
xmlns="http://www.w3.org/2000/svg"
width="50mm" height="50mm"
viewBox="0 0 500 500">
<title>MUTIND</title>
<defs>
<style type="text/css">
<![CDATA[
polyline {stroke-linecap:round; stroke-linejoin:round}
polygon {stroke-linecap:round; stroke-linejoin:round}
path {stroke-linecap:round; stroke-linejoin:round}
circle {stroke-linecap:round; stroke-linejoin:round}
]]>
</style>
</defs>
<polyline points="50.03 150.28 130.36 150.28" fill="none" stroke="rgb(0,0,255)" stroke-width="15" />
<path fill="rgb(255,0,0)" stroke="rgb(255,0,0)" stroke-width="10" d=" M 38 144 C 38 138 44 138 44 138 L 56 138 L 56 138 C 62 138 62 144 62 144 L 62 156 L 62 156 C 62 162 56 162 56 162 L 44 162 L 44 162 C 38 162 38 156 38 156 L 38 144 Z" />
<polyline points="100.12 134.76 83.92 165.52" fill="none" stroke="rgb(0,0,255)" stroke-width="15" />
<path fill="none" stroke="rgb(0,0,255)" stroke-width="15" d=" M 210.16 150.28 Q 210.16 150.28 209.78 146.39 Q 209.39 142.49 208.26 138.75 Q 207.12 135.01 205.28 131.56 Q 203.43 128.11 200.95 125.09 Q 198.47 122.06 195.45 119.58 Q 192.43 117.10 188.98 115.26 Q 185.53 113.42 181.79 112.28 Q 178.04 111.14 174.15 110.76 Q 170.26 110.38 166.37 110.76 Q 162.47 111.14 158.73 112.28 Q 154.99 113.42 151.54 115.26 Q 148.09 117.10 145.07 119.58 Q 142.04 122.06 139.56 125.09 Q 137.08 128.11 135.24 131.56 Q 133.40 135.01 132.26 138.75 Q 131.12 142.49 130.74 146.39 Q 130.36 150.28 130.36 150.28" />
<path fill="none" stroke="rgb(0,0,255)" stroke-width="15" d=" M 289.96 150.28 Q 289.96 150.28 289.58 146.39 Q 289.20 142.49 288.06 138.75 Q 286.92 135.01 285.08 131.56 Q 283.24 128.11 280.76 125.09 Q 278.28 122.06 275.25 119.58 Q 272.23 117.10 268.78 115.26 Q 265.33 113.42 261.59 112.28 Q 257.85 111.14 253.95 110.76 Q 250.06 110.38 246.17 110.76 Q 242.28 111.14 238.53 112.28 Q 234.79 113.42 231.34 115.26 Q 227.89 117.10 224.87 119.58 Q 221.85 122.06 219.37 125.09 Q 216.89 128.11 215.04 131.56 Q 213.20 135.01 212.06 138.75 Q 210.93 142.49 210.54 146.39 Q 210.16 150.28 210.16 150.28" />
<path fill="none" stroke="rgb(0,0,255)" stroke-width="15" d=" M 369.76 150.28 Q 369.77 150.28 369.38 146.39 Q 369.00 142.49 367.86 138.75 Q 366.73 135.01 364.88 131.56 Q 363.04 128.11 360.56 125.09 Q 358.08 122.06 355.06 119.58 Q 352.03 117.10 348.58 115.26 Q 345.14 113.42 341.39 112.28 Q 337.65 111.14 333.76 110.76 Q 329.86 110.38 325.97 110.76 Q 322.08 111.14 318.34 112.28 Q 314.59 113.42 311.15 115.26 Q 307.70 117.10 304.67 119.58 Q 301.65 122.06 299.17 125.09 Q 296.69 128.11 294.85 131.56 Q 293.00 135.01 291.87 138.75 Q 290.73 142.49 290.35 146.39 Q 289.96 150.28 289.96 150.28" />
<polyline points="369.71 150.28 450.04 150.28 369.76 150.28" fill="none" stroke="rgb(0,0,255)" stroke-width="15" />
<polyline points="50.03 350.28 130.36 350.28" fill="none" stroke="rgb(0,0,255)" stroke-width="15" />
<path fill="none" stroke="rgb(0,0,255)" stroke-width="15" d=" M 210.16 350.28 Q 210.16 350.28 209.78 346.39 Q 209.39 342.49 208.26 338.75 Q 207.12 335.01 205.28 331.56 Q 203.43 328.11 200.95 325.09 Q 198.47 322.06 195.45 319.58 Q 192.43 317.10 188.98 315.26 Q 185.53 313.42 181.79 312.28 Q 178.04 311.14 174.15 310.76 Q 170.26 310.38 166.37 310.76 Q 162.47 311.14 158.73 312.28 Q 154.99 313.42 151.54 315.26 Q 148.09 317.10 145.07 319.58 Q 142.04 322.06 139.56 325.09 Q 137.08 328.11 135.24 331.56 Q 133.40 335.01 132.26 338.75 Q 131.12 342.49 130.74 346.39 Q 130.36 350.28 130.36 350.28" />
<path fill="none" stroke="rgb(0,0,255)" stroke-width="15" d=" M 289.96 350.28 Q 289.96 350.28 289.58 346.39 Q 289.20 342.49 288.06 338.75 Q 286.92 335.01 285.08 331.56 Q 283.24 328.11 280.76 325.09 Q 278.28 322.06 275.25 319.58 Q 272.23 317.10 268.78 315.26 Q 265.33 313.42 261.59 312.28 Q 257.85 311.14 253.95 310.76 Q 250.06 310.38 246.17 310.76 Q 242.28 311.14 238.53 312.28 Q 234.79 313.42 231.34 315.26 Q 227.89 317.10 224.87 319.58 Q 221.85 322.06 219.37 325.09 Q 216.89 328.11 215.04 331.56 Q 213.20 335.01 212.06 338.75 Q 210.93 342.49 210.54 346.39 Q 210.16 350.28 210.16 350.28" />
<path fill="none" stroke="rgb(0,0,255)" stroke-width="15" d=" M 369.76 350.28 Q 369.77 350.28 369.38 346.39 Q 369.00 342.49 367.86 338.75 Q 366.73 335.01 364.88 331.56 Q 363.04 328.11 360.56 325.09 Q 358.08 322.06 355.06 319.58 Q 352.03 317.10 348.58 315.26 Q 345.14 313.42 341.39 312.28 Q 337.65 311.14 333.76 310.76 Q 329.86 310.38 325.97 310.76 Q 322.08 311.14 318.34 312.28 Q 314.59 313.42 311.15 315.26 Q 307.70 317.10 304.67 319.58 Q 301.65 322.06 299.17 325.09 Q 296.69 328.11 294.85 331.56 Q 293.00 335.01 291.87 338.75 Q 290.73 342.49 290.35 346.39 Q 289.96 350.28 289.96 350.28" />
<polyline points="369.71 350.28 450.04 350.28 369.76 350.28" fill="none" stroke="rgb(0,0,255)" stroke-width="15" />
<path fill="rgb(255,0,0)" stroke="rgb(255,0,0)" stroke-width="10" d=" M 438 144 C 438 138 444 138 444 138 L 456 138 L 456 138 C 462 138 462 144 462 144 L 462 156 L 462 156 C 462 162 456 162 456 162 L 444 162 L 444 162 C 438 162 438 156 438 156 L 438 144 Z" />
<path fill="rgb(255,0,0)" stroke="rgb(255,0,0)" stroke-width="10" d=" M 438 344 C 438 338 444 338 444 338 L 456 338 L 456 338 C 462 338 462 344 462 344 L 462 356 L 462 356 C 462 362 456 362 456 362 L 444 362 L 444 362 C 438 362 438 356 438 356 L 438 344 Z" />
<path fill="rgb(255,0,0)" stroke="rgb(255,0,0)" stroke-width="10" d=" M 38 344 C 38 338 44 338 44 338 L 56 338 L 56 338 C 62 338 62 344 62 344 L 62 356 L 62 356 C 62 362 56 362 56 362 L 44 362 L 44 362 C 38 362 38 356 38 356 L 38 344 Z" />
<path fill="none" stroke="rgb(0,0,255)" stroke-width="8" d=" M 248 159 C 198 203 198 247 248 291" />
<polygon points="230.31 185.60 248.00 159.36 219.64 173.41" fill="rgb(0,0,255)" stroke="rgb(0,0,255)" stroke-width="8" />
<polygon points="219.64 276.59 248.00 290.64 230.31 264.40" fill="rgb(0,0,255)" stroke="rgb(0,0,255)" stroke-width="8" />
</svg>
