<?xml version="1.0" encoding="utf-8"?>
<!-- Created with "sPlan" (http://www.abacom-online.de) -->
<svg version="1.1" baseProfile="full"
xmlns="http://www.w3.org/2000/svg"
width="50mm" height="50mm"
viewBox="0 0 500 500">
<title>ports</title>
<defs>
<style type="text/css">
<![CDATA[
polyline {stroke-linecap:round; stroke-linejoin:round}
polygon {stroke-linecap:round; stroke-linejoin:round}
path {stroke-linecap:round; stroke-linejoin:round}
circle {stroke-linecap:round; stroke-linejoin:round}
]]>
</style>
</defs>
<polyline points="449.97 250.91 371.64 250.91 251.64 399.82 50.02 399.82 50.02 99.97 250.11 99.97 371.86 250.91" fill="none" stroke="rgb(0,0,0)" stroke-width="15" />
<path fill="rgb(0,0,0)" stroke="rgb(0,0,0)" stroke-width="0" d=" M 129.72 331.60 L 129.87 162.49 186.38 162.49 192.07 162.55 197.19 162.74 201.75 163.07 205.74 163.52 209.16 164.10 213.44 165.07 217.43 166.35 221.14 167.93 224.55 169.82 227.68 172.00 230.55 174.53 233.18 177.42 235.58 180.69 237.74 184.34 239.67 188.35 241.30 192.64 242.56 197.09 243.47 201.70 244.01 206.47 244.19 211.41 243.70 219.78 242.22 227.62 239.77 234.93 236.33 241.71 231.91 247.95 226.20 253.33 218.92 257.52 210.06 260.50 199.62 262.30 187.61 262.90 148.86 262.90 148.78 331.60 Z M 148.86 241.76 L 188.72 241.76 196.17 241.45 202.71 240.52 208.32 238.96 213.03 236.79 216.81 234.00 219.81 230.64 222.14 226.78 223.80 222.41 224.80 217.53 225.13 212.15 224.94 208.18 224.35 204.44 223.38 200.94 222.01 197.67 220.25 194.65 218.18 191.94 215.86 189.63 213.29 187.71 210.47 186.19 207.41 185.07 204.99 184.55 201.88 184.15 198.07 183.86 193.56 183.68 188.35 183.63 148.93 183.63 Z" />
</svg>
