<?xml version="1.0" encoding="utf-8"?>
<!-- Created with "sPlan" (http://www.abacom-online.de) -->
<svg version="1.1" baseProfile="full"
xmlns="http://www.w3.org/2000/svg"
width="50mm" height="50mm"
viewBox="0 0 500 500">
<title>PRL</title>
<defs>
<style type="text/css">
<![CDATA[
polyline {stroke-linecap:round; stroke-linejoin:round}
polygon {stroke-linecap:round; stroke-linejoin:round}
path {stroke-linecap:round; stroke-linejoin:round}
circle {stroke-linecap:round; stroke-linejoin:round}
]]>
</style>
</defs>
<polyline points="100.12 234.76 83.92 265.52" fill="none" stroke="rgb(0,0,255)" stroke-width="15" />
<polyline points="50.03 250.28 120.04 250.28" fill="none" stroke="rgb(0,0,255)" stroke-width="15" />
<path fill="rgb(255,0,0)" stroke="rgb(255,0,0)" stroke-width="10" d=" M 38 244 C 38 238 44 238 44 238 L 56 238 L 56 238 C 62 238 62 244 62 244 L 62 256 L 62 256 C 62 262 56 262 56 262 L 44 262 L 44 262 C 38 262 38 256 38 256 L 38 244 Z" />
<polyline points="380.02 249.92 450.07 249.92" fill="none" stroke="rgb(0,0,255)" stroke-width="15" />
<path fill="rgb(255,0,0)" stroke="rgb(255,0,0)" stroke-width="10" d=" M 438 244 C 438 238 444 238 444 238 L 456 238 L 456 238 C 462 238 462 244 462 244 L 462 256 L 462 256 C 462 262 456 262 456 262 L 444 262 L 444 262 C 438 262 438 256 438 256 L 438 244 Z" />
<polyline points="120.04 370.28 120.04 250.28" fill="none" stroke="rgb(0,0,255)" stroke-width="15" />
<polyline points="380.02 370.22 380.02 249.92" fill="none" stroke="rgb(0,0,255)" stroke-width="15" />
<polyline points="120.04 250.28 120.04 130.18 155.14 130.18" fill="none" stroke="rgb(0,0,255)" stroke-width="15" />
<polyline points="380.02 249.92 380.02 130.18 344.72 130.18" fill="none" stroke="rgb(0,0,255)" stroke-width="15" />
<polyline points="120.04 370.22 166.00 370.22 180.02 327.06 207.32 412.39 234.61 326.07 261.91 412.39 289.20 326.07 316.50 412.39 331.48 370.22 380.02 370.22" fill="none" stroke="rgb(0,0,255)" stroke-width="15" />
<path fill="none" stroke="rgb(0,0,255)" stroke-width="15" d=" M 218.44 130.18 Q 218.44 130.18 218.13 127.10 Q 217.83 124.02 216.93 121.06 Q 216.03 118.10 214.57 115.37 Q 213.12 112.64 211.15 110.25 Q 209.19 107.86 206.80 105.90 Q 204.41 103.93 201.68 102.48 Q 198.95 101.02 195.99 100.12 Q 193.03 99.22 189.95 98.92 Q 186.87 98.61 183.79 98.92 Q 180.71 99.22 177.75 100.12 Q 174.79 101.02 172.06 102.48 Q 169.33 103.93 166.94 105.90 Q 164.54 107.86 162.58 110.25 Q 160.62 112.64 159.16 115.37 Q 157.70 118.10 156.80 121.06 Q 155.90 124.02 155.60 127.10 Q 155.30 130.18 155.30 130.18" />
<path fill="none" stroke="rgb(0,0,255)" stroke-width="15" d=" M 281.58 130.18 Q 281.58 130.18 281.28 127.10 Q 280.97 124.02 280.07 121.06 Q 279.17 118.10 277.72 115.37 Q 276.26 112.64 274.29 110.25 Q 272.33 107.86 269.94 105.90 Q 267.55 103.93 264.82 102.48 Q 262.09 101.02 259.13 100.12 Q 256.17 99.22 253.09 98.92 Q 250.01 98.61 246.93 98.92 Q 243.85 99.22 240.89 100.12 Q 237.93 101.02 235.20 102.48 Q 232.47 103.93 230.08 105.90 Q 227.68 107.86 225.72 110.25 Q 223.76 112.64 222.30 115.37 Q 220.84 118.10 219.94 121.06 Q 219.05 124.02 218.74 127.10 Q 218.44 130.18 218.44 130.18" />
<path fill="none" stroke="rgb(0,0,255)" stroke-width="15" d=" M 344.57 130.18 Q 344.57 130.18 344.26 127.10 Q 343.96 124.02 343.06 121.06 Q 342.16 118.10 340.70 115.37 Q 339.25 112.64 337.28 110.25 Q 335.32 107.86 332.93 105.90 Q 330.54 103.93 327.81 102.48 Q 325.08 101.02 322.12 100.12 Q 319.16 99.22 316.08 98.92 Q 313.00 98.61 309.92 98.92 Q 306.84 99.22 303.88 100.12 Q 300.91 101.02 298.19 102.48 Q 295.46 103.93 293.06 105.90 Q 290.67 107.86 288.71 110.25 Q 286.75 112.64 285.29 115.37 Q 283.83 118.10 282.93 121.06 Q 282.03 124.02 281.73 127.10 Q 281.43 130.18 281.43 130.18" />
</svg>
