<?xml version="1.0" encoding="utf-8"?>
<!-- Created with "sPlan" (http://www.abacom-online.de) -->
<svg version="1.1" baseProfile="full"
xmlns="http://www.w3.org/2000/svg"
width="50mm" height="50mm"
viewBox="0 0 500 500">
<title>PRLC</title>
<defs>
<style type="text/css">
<![CDATA[
polyline {stroke-linecap:round; stroke-linejoin:round}
polygon {stroke-linecap:round; stroke-linejoin:round}
path {stroke-linecap:round; stroke-linejoin:round}
circle {stroke-linecap:round; stroke-linejoin:round}
]]>
</style>
</defs>
<polyline points="100.12 234.76 83.92 265.52" fill="none" stroke="rgb(0,0,255)" stroke-width="15" />
<polyline points="50.03 250.28 155.14 250.18" fill="none" stroke="rgb(0,0,255)" stroke-width="15" />
<path fill="rgb(255,0,0)" stroke="rgb(255,0,0)" stroke-width="10" d=" M 38 244 C 38 238 44 238 44 238 L 56 238 L 56 238 C 62 238 62 244 62 244 L 62 256 L 62 256 C 62 262 56 262 56 262 L 44 262 L 44 262 C 38 262 38 256 38 256 L 38 244 Z" />
<polyline points="344.72 250.18 450.07 249.92" fill="none" stroke="rgb(0,0,255)" stroke-width="15" />
<path fill="none" stroke="rgb(0,0,255)" stroke-width="15" d=" M 215 332 C 253 400 215 468 215 468" />
<polyline points="273.02 332.42 273.02 467.56" fill="none" stroke="rgb(0,0,255)" stroke-width="15" />
<path fill="rgb(255,0,0)" stroke="rgb(255,0,0)" stroke-width="10" d=" M 438 244 C 438 238 444 238 444 238 L 456 238 L 456 238 C 462 238 462 244 462 244 L 462 256 L 462 256 C 462 262 456 262 456 262 L 444 262 L 444 262 C 438 262 438 256 438 256 L 438 244 Z" />
<polyline points="230.04 400.28 120.04 400.28 120.04 250.28" fill="none" stroke="rgb(0,0,255)" stroke-width="15" />
<polyline points="274.21 400.22 380.02 400.22 380.02 249.92" fill="none" stroke="rgb(0,0,255)" stroke-width="15" />
<polyline points="120.04 250.28 120.04 100.18" fill="none" stroke="rgb(0,0,255)" stroke-width="15" />
<polyline points="380.02 249.92 380.02 100.18" fill="none" stroke="rgb(0,0,255)" stroke-width="15" />
<polyline points="120.04 98.56 166.00 98.56 180.02 55.40 207.32 140.72 234.61 54.41 261.91 140.72 289.20 54.41 316.50 140.72 331.48 98.56 380.02 98.56" fill="none" stroke="rgb(0,0,255)" stroke-width="15" />
<path fill="none" stroke="rgb(0,0,255)" stroke-width="15" d=" M 218.44 250.18 Q 218.44 250.18 218.13 247.10 Q 217.83 244.02 216.93 241.06 Q 216.03 238.10 214.57 235.37 Q 213.12 232.64 211.15 230.25 Q 209.19 227.86 206.80 225.90 Q 204.41 223.93 201.68 222.48 Q 198.95 221.02 195.99 220.12 Q 193.03 219.22 189.95 218.92 Q 186.87 218.61 183.79 218.92 Q 180.71 219.22 177.75 220.12 Q 174.79 221.02 172.06 222.48 Q 169.33 223.93 166.94 225.90 Q 164.54 227.86 162.58 230.25 Q 160.62 232.64 159.16 235.37 Q 157.70 238.10 156.80 241.06 Q 155.90 244.02 155.60 247.10 Q 155.30 250.18 155.30 250.18" />
<path fill="none" stroke="rgb(0,0,255)" stroke-width="15" d=" M 281.58 250.18 Q 281.58 250.18 281.28 247.10 Q 280.97 244.02 280.07 241.06 Q 279.17 238.10 277.72 235.37 Q 276.26 232.64 274.29 230.25 Q 272.33 227.86 269.94 225.90 Q 267.55 223.93 264.82 222.48 Q 262.09 221.02 259.13 220.12 Q 256.17 219.22 253.09 218.92 Q 250.01 218.61 246.93 218.92 Q 243.85 219.22 240.89 220.12 Q 237.93 221.02 235.20 222.48 Q 232.47 223.93 230.08 225.90 Q 227.68 227.86 225.72 230.25 Q 223.76 232.64 222.30 235.37 Q 220.84 238.10 219.94 241.06 Q 219.05 244.02 218.74 247.10 Q 218.44 250.18 218.44 250.18" />
<path fill="none" stroke="rgb(0,0,255)" stroke-width="15" d=" M 344.57 250.18 Q 344.57 250.18 344.26 247.10 Q 343.96 244.02 343.06 241.06 Q 342.16 238.10 340.70 235.37 Q 339.25 232.64 337.28 230.25 Q 335.32 227.86 332.93 225.90 Q 330.54 223.93 327.81 222.48 Q 325.08 221.02 322.12 220.12 Q 319.16 219.22 316.08 218.92 Q 313.00 218.61 309.92 218.92 Q 306.84 219.22 303.88 220.12 Q 300.91 221.02 298.19 222.48 Q 295.46 223.93 293.06 225.90 Q 290.67 227.86 288.71 230.25 Q 286.75 232.64 285.29 235.37 Q 283.83 238.10 282.93 241.06 Q 282.03 244.02 281.73 247.10 Q 281.43 250.18 281.43 250.18" />
</svg>
