<?xml version="1.0" encoding="utf-8"?>
<!-- Created with "sPlan" (http://www.abacom-online.de) -->
<svg version="1.1" baseProfile="full"
xmlns="http://www.w3.org/2000/svg"
width="50mm" height="50mm"
viewBox="0 0 500 500">
<title>quasistatic_models</title>
<defs>
<style type="text/css">
<![CDATA[
polyline {stroke-linecap:round; stroke-linejoin:round}
polygon {stroke-linecap:round; stroke-linejoin:round}
path {stroke-linecap:round; stroke-linejoin:round}
circle {stroke-linecap:round; stroke-linejoin:round}
]]>
</style>
</defs>
<polyline points="50.03 210.13 102.20 210.13 102.20 147.98 397.86 147.98 397.86 210.13 450.04 210.13 397.86 210.13 397.86 271.39 102.20 271.39 102.20 210.13" fill="none" stroke="rgb(0,0,0)" stroke-width="10" />
<path fill="rgb(0,0,0)" stroke="rgb(0,0,0)" stroke-width="0" d=" M 345.34 434.45 L 348.55 437.36 351.67 439.94 354.68 442.20 357.59 444.11 360.41 445.70 357.13 455.59 353.11 453.80 349.10 451.64 345.09 449.12 341.09 446.23 337.10 442.96 332.73 445.16 328.18 446.88 323.45 448.10 318.54 448.83 313.46 449.08 308.33 448.79 303.40 447.95 298.66 446.54 294.12 444.57 289.76 442.03 285.70 438.98 282.04 435.47 278.77 431.51 275.89 427.09 273.40 422.21 271.35 416.97 269.75 411.48 268.60 405.72 267.92 399.71 267.69 393.44 267.93 387.19 268.62 381.17 269.78 375.37 271.39 369.81 273.45 364.47 275.94 359.49 278.82 355.02 282.08 351.04 285.73 347.56 289.76 344.58 294.10 342.13 298.63 340.22 303.36 338.85 308.29 338.03 313.43 337.76 318.61 338.04 323.58 338.88 328.35 340.27 332.90 342.23 337.25 344.74 341.29 347.76 344.93 351.22 348.16 355.13 350.99 359.49 353.41 364.30 355.41 369.45 356.96 374.87 358.06 380.54 358.72 386.47 358.93 392.65 358.80 397.80 358.39 402.73 357.72 407.44 356.77 411.95 355.55 416.24 354.06 420.32 352.29 424.18 350.25 427.82 347.93 431.24 345.34 434.45 Z M 316.83 416.50 L 321.16 418.02 325.17 419.80 328.87 421.85 332.25 424.17 335.32 426.76 339.43 421.86 342.63 416.07 344.93 409.39 346.30 401.81 346.77 393.34 346.62 388.40 346.14 383.71 345.33 379.28 344.21 375.11 342.75 371.19 340.99 367.57 338.92 364.29 336.56 361.35 333.90 358.74 330.94 356.48 327.76 354.60 324.42 353.13 320.94 352.09 317.29 351.46 313.50 351.25 307.90 351.67 302.70 352.94 297.88 355.06 293.47 358.02 289.44 361.83 286.00 366.48 283.32 371.96 281.40 378.28 280.25 385.43 279.86 393.42 280.22 401.19 281.35 408.20 283.23 414.45 285.87 419.95 289.27 424.69 293.25 428.61 297.65 431.66 302.48 433.84 307.72 435.15 313.38 435.58 316.14 435.47 318.82 435.14 321.45 434.59 324.01 433.81 326.50 432.82 324.05 431.24 321.54 429.85 318.98 428.65 316.36 427.65 313.69 426.83 Z M 372.60 410.28 L 384.76 410.28 385.19 413.46 385.79 416.39 386.57 419.09 387.54 421.56 388.68 423.79 390.06 425.82 391.70 427.69 393.61 429.40 395.79 430.95 398.25 432.33 400.90 433.50 403.69 434.41 406.60 435.06 409.65 435.45 412.83 435.58 415.64 435.49 418.32 435.19 420.86 434.70 423.27 434.01 425.55 433.12 427.65 432.06 429.52 430.85 431.16 429.50 432.58 428.00 433.77 426.35 434.74 424.61 435.50 422.83 436.04 421.02 436.36 419.17 436.47 417.29 436.39 415.41 436.15 413.63 435.75 411.95 435.18 410.36 434.46 408.87 433.49 407.48 432.18 406.17 430.53 404.94 428.53 403.80 426.20 402.75 424.22 402.01 421.45 401.13 417.91 400.10 413.59 398.92 408.49 397.59 403.34 396.21 398.85 394.85 395.04 393.52 391.89 392.22 389.42 390.94 386.79 389.24 384.44 387.39 382.37 385.38 380.59 383.22 379.08 380.90 377.86 378.45 376.91 375.88 376.23 373.20 375.82 370.40 375.69 367.49 375.86 364.26 376.38 361.12 377.23 358.07 378.41 355.10 379.93 352.21 381.77 349.51 383.92 347.08 386.39 344.92 389.16 343.04 392.25 341.43 395.56 340.11 399.02 339.08 402.63 338.35 406.38 337.91 410.28 337.76 414.54 337.91 418.60 338.37 422.45 339.14 426.09 340.22 429.53 341.61 432.71 343.29 435.59 345.26 438.15 347.52 440.40 350.07 442.35 352.91 443.98 355.97 445.27 359.19 446.23 362.57 446.86 366.11 447.16 369.80 435.00 369.80 434.39 366.32 433.41 363.18 432.03 360.41 430.27 358.00 428.12 355.94 425.55 354.25 422.53 352.94 419.06 352.00 415.13 351.44 410.76 351.25 406.24 351.44 402.23 351.99 398.75 352.92 395.78 354.22 393.33 355.89 391.36 357.82 389.82 359.91 388.73 362.15 388.07 364.54 387.85 367.09 388.01 369.29 388.47 371.32 389.25 373.19 390.33 374.90 391.73 376.45 393.74 377.93 396.73 379.42 400.70 380.93 405.65 382.45 411.58 383.98 417.58 385.49 422.73 386.91 427.03 388.27 430.49 389.55 433.10 390.76 436.12 392.58 438.81 394.58 441.17 396.77 443.19 399.14 444.87 401.69 446.23 404.42 447.29 407.31 448.04 410.36 448.49 413.58 448.64 416.95 448.46 420.34 447.94 423.65 447.06 426.87 445.84 430.02 444.26 433.09 442.36 435.99 440.16 438.61 437.64 440.97 434.83 443.06 431.71 444.87 428.35 446.39 424.83 447.56 421.15 448.40 417.31 448.91 413.30 449.08 408.28 448.90 403.60 448.35 399.25 447.45 395.24 446.18 391.57 444.54 388.22 442.55 385.17 440.18 382.42 437.45 379.98 434.36 377.84 430.89 376.03 427.15 374.61 423.22 373.56 419.10 372.89 414.79 372.60 410.28 Z" />
</svg>
