<?xml version="1.0" encoding="utf-8"?>
<!-- Created with "sPlan" (http://www.abacom-online.de) -->
<svg version="1.1" baseProfile="full"
xmlns="http://www.w3.org/2000/svg"
width="20mm" height="14mm"
viewBox="0 0 205 147">
<title>R</title>
<defs>
<style type="text/css">
<![CDATA[
polyline {stroke-linecap:round; stroke-linejoin:round}
polygon {stroke-linecap:round; stroke-linejoin:round}
path {stroke-linecap:round; stroke-linejoin:round}
circle {stroke-linecap:round; stroke-linejoin:round}
]]>
</style>
</defs>
<path fill="rgb(0,0,0)" stroke="rgb(0,0,0)" stroke-width="0" d=" M 94.44 99.65 L 94.46 77.40 103.10 77.40 104.11 77.43 105.01 77.50 105.81 77.62 106.52 77.79 107.12 78.00 107.64 78.28 108.13 78.63 108.56 79.06 108.96 79.55 109.31 80.13 109.60 80.75 109.83 81.40 109.99 82.07 110.09 82.77 110.13 83.49 110.07 84.41 109.91 85.28 109.64 86.08 109.25 86.82 108.76 87.50 108.16 88.11 107.44 88.62 106.60 89.03 105.64 89.35 104.56 89.57 104.92 89.81 105.24 90.05 105.53 90.29 105.77 90.53 105.99 90.76 106.40 91.28 106.81 91.83 107.21 92.40 107.62 93.00 108.01 93.62 111.36 99.65 108.44 99.65 105.83 95.04 105.39 94.28 104.98 93.60 104.61 92.99 104.26 92.45 103.95 91.99 103.66 91.59 103.39 91.25 103.12 90.96 102.87 90.73 102.63 90.55 102.39 90.40 102.16 90.28 101.92 90.17 101.68 90.09 101.44 90.02 101.24 89.98 100.99 89.95 100.70 89.94 100.36 89.92 99.98 89.92 96.95 89.92 96.94 99.65 Z M 96.95 87.14 L 102.57 87.14 103.26 87.12 103.89 87.08 104.46 87.00 104.98 86.89 105.43 86.74 105.84 86.57 106.21 86.35 106.53 86.10 106.82 85.81 107.06 85.48 107.26 85.13 107.42 84.77 107.53 84.39 107.60 84.00 107.62 83.60 107.58 83.02 107.45 82.49 107.24 82.00 106.94 81.55 106.56 81.15 106.09 80.80 105.52 80.53 104.85 80.34 104.08 80.22 103.21 80.18 96.96 80.18 Z" />
<polyline points="44.56 51.23 71.86 51.23 77.00 41.23 87.00 61.00 97.00 41.00 107.00 61.00 117.00 41.00 127.00 61.00 132.49 51.23 160.78 51.23" fill="none" stroke="rgb(0,0,0)" stroke-width="2" />
<path fill="rgb(255,0,0)" stroke="rgb(255,0,0)" stroke-width="2" d=" M 157 49 C 157 48 159 48 159 48 L 163 48 L 163 48 C 164 48 164 49 164 49 L 164 53 L 164 53 C 164 55 163 55 163 55 L 159 55 L 159 55 C 157 55 157 53 157 53 L 157 49 Z" />
<path fill="rgb(255,0,0)" stroke="rgb(255,0,0)" stroke-width="2" d=" M 41 49 C 41 48 43 48 43 48 L 46 48 L 46 48 C 48 48 48 49 48 49 L 48 53 L 48 53 C 48 55 46 55 46 55 L 43 55 L 43 55 C 41 55 41 53 41 53 L 41 49 Z" />
<polyline points="57.97 46.61 53.27 55.64" fill="none" stroke="rgb(0,0,0)" stroke-width="2" />
</svg>
