<?xml version="1.0" encoding="utf-8"?>
<!-- Created with "sPlan" (http://www.abacom-online.de) -->
<svg version="1.1" baseProfile="full"
xmlns="http://www.w3.org/2000/svg"
width="17mm" height="21mm"
viewBox="0 0 175 219">
<title>TERM</title>
<defs>
<style type="text/css">
<![CDATA[
polyline {stroke-linecap:round; stroke-linejoin:round}
polygon {stroke-linecap:round; stroke-linejoin:round}
path {stroke-linecap:round; stroke-linejoin:round}
circle {stroke-linecap:round; stroke-linejoin:round}
]]>
</style>
</defs>
<path fill="rgb(255,0,0)" stroke="rgb(255,0,0)" stroke-width="2" d=" M 63 43 C 63 41 64 41 64 41 L 68 41 L 68 41 C 70 41 70 43 70 43 L 70 46 L 70 46 C 70 48 68 48 68 48 L 64 48 L 64 48 C 63 48 63 46 63 46 L 63 43 Z" />
<polyline points="66.06 44.56 66.06 69.54 76.06 74.53 56.00 84.53 76.00 94.53 56.00 104.53 76.00 114.53 56.00 124.53 66.00 129.97 66.00 174.56" fill="none" stroke="rgb(0,0,0)" stroke-width="2" />
<polyline points="41.00 60.53 91.00 60.53 91.00 160.53 41.00 160.53 41.00 60.53" fill="none" stroke="rgb(0,0,0)" stroke-width="2" />
<path fill="rgb(255,0,0)" stroke="rgb(255,0,0)" stroke-width="2" d=" M 62 173 C 62 171 64 171 64 171 L 68 171 L 68 171 C 70 171 70 173 70 173 L 70 176 L 70 176 C 70 178 68 178 68 178 L 64 178 L 64 178 C 62 178 62 176 62 176 L 62 173 Z" />
<path fill="rgb(0,0,0)" stroke="rgb(0,0,0)" stroke-width="0" d=" M 127.44 144.74 L 105.04 144.72 105.04 153.12 101.84 153.12 101.84 133.12 105.04 133.12 105.04 141.52 127.44 141.54 Z M 121.84 116.78 L 122.24 113.64 123.26 114.01 124.18 114.49 125.01 115.08 125.74 115.78 126.37 116.58 126.90 117.48 127.31 118.48 127.61 119.57 127.78 120.76 127.84 122.04 127.74 123.65 127.44 125.12 126.93 126.45 126.22 127.63 125.31 128.69 124.21 129.57 122.96 130.25 121.53 130.74 119.95 131.04 118.20 131.13 116.39 131.03 114.75 130.73 113.28 130.24 111.99 129.54 110.86 128.65 109.92 127.60 109.18 126.42 108.66 125.14 108.35 123.73 108.24 122.21 108.35 120.73 108.66 119.37 109.18 118.12 109.91 116.98 110.85 115.96 111.98 115.08 113.27 114.41 114.74 113.92 116.38 113.63 118.18 113.53 118.31 113.53 118.46 113.54 118.63 113.54 118.82 113.55 119.04 113.56 119.04 127.94 120.08 127.80 121.01 127.55 121.84 127.19 122.57 126.70 123.20 126.10 123.72 125.41 124.12 124.65 124.41 123.83 124.59 122.94 124.64 121.98 124.62 121.27 124.54 120.60 124.40 119.97 124.22 119.38 123.97 118.84 123.68 118.34 123.31 117.89 122.89 117.47 122.40 117.10 121.84 116.78 Z M 115.84 127.93 L 115.84 116.73 115.11 116.86 114.45 117.05 113.87 117.30 113.37 117.62 112.94 118.01 112.40 118.70 111.98 119.46 111.68 120.30 111.50 121.22 111.44 122.22 111.49 123.13 111.63 123.98 111.87 124.76 112.21 125.49 112.64 126.16 113.15 126.75 113.73 127.21 114.37 127.57 115.07 127.81 115.84 127.93 Z M 127.44 110.34 L 108.64 110.33 108.64 107.53 111.42 107.53 110.70 107.10 110.08 106.69 109.57 106.29 109.16 105.91 108.86 105.54 108.64 105.17 108.47 104.78 108.34 104.38 108.27 103.97 108.24 103.54 108.28 102.90 108.40 102.27 108.60 101.62 108.88 100.98 109.23 100.33 112.10 101.39 111.86 101.84 111.68 102.29 111.55 102.74 111.47 103.19 111.44 103.64 111.47 104.04 111.54 104.42 111.67 104.78 111.85 105.13 112.07 105.46 112.35 105.76 112.66 106.03 113.01 106.26 113.40 106.46 113.82 106.61 114.52 106.80 115.24 106.95 115.99 107.05 116.76 107.11 117.56 107.13 127.44 107.14 Z M 127.44 98.34 L 108.64 98.33 108.64 95.13 111.74 95.13 111.13 94.77 110.58 94.38 110.07 93.94 109.61 93.45 109.20 92.93 108.86 92.36 108.59 91.76 108.40 91.14 108.28 90.48 108.24 89.79 108.28 89.04 108.40 88.34 108.60 87.70 108.87 87.12 109.22 86.59 109.64 86.12 110.13 85.71 110.68 85.35 111.29 85.06 111.96 84.83 110.62 83.91 109.58 82.88 108.84 81.75 108.39 80.52 108.24 79.18 108.31 78.14 108.49 77.20 108.80 76.36 109.23 75.63 109.79 74.99 110.48 74.46 111.30 74.05 112.25 73.76 113.34 73.59 114.56 73.53 127.44 73.54 127.44 76.74 115.93 76.73 115.23 76.74 114.61 76.78 114.08 76.84 113.63 76.92 113.26 77.03 112.95 77.16 112.66 77.34 112.39 77.55 112.16 77.81 111.94 78.10 111.76 78.42 111.62 78.76 111.52 79.13 111.46 79.52 111.44 79.93 111.49 80.66 111.65 81.34 111.90 81.97 112.26 82.55 112.72 83.08 113.30 83.53 114.00 83.88 114.82 84.13 115.76 84.28 116.83 84.33 127.44 84.34 127.44 87.54 115.57 87.53 114.79 87.56 114.09 87.65 113.47 87.80 112.93 88.00 112.47 88.27 112.10 88.60 111.81 89.01 111.61 89.50 111.48 90.06 111.44 90.69 111.47 91.20 111.55 91.69 111.69 92.16 111.88 92.62 112.13 93.07 112.43 93.48 112.78 93.84 113.19 94.16 113.64 94.43 114.14 94.64 114.72 94.82 115.39 94.96 116.15 95.05 117.01 95.11 117.96 95.13 127.44 95.14 Z" />
<path fill="rgb(255,0,0)" stroke="rgb(255,0,0)" stroke-width="0" d=" M 50.40 56.53 L 50.41 53.13 47.01 53.13 47.01 51.53 50.41 51.53 50.41 48.13 52.01 48.13 52.01 51.53 55.41 51.53 55.41 53.13 52.01 53.13 52.00 56.53 Z" />
<path fill="rgb(0,0,0)" stroke="rgb(0,0,0)" stroke-width="0" d=" M 48.40 167.73 L 48.41 166.13 53.41 166.13 53.40 167.73 Z" />
<polyline points="61.51 56.02 70.54 51.32" fill="none" stroke="rgb(0,0,0)" stroke-width="2" />
</svg>
