<?xml version="1.0" encoding="utf-8"?>
<!-- Created with "sPlan" (http://www.abacom-online.de) -->
<svg version="1.1" baseProfile="full"
xmlns="http://www.w3.org/2000/svg"
width="17mm" height="20mm"
viewBox="0 0 170 202">
<title>TERMG</title>
<defs>
<style type="text/css">
<![CDATA[
polyline {stroke-linecap:round; stroke-linejoin:round}
polygon {stroke-linecap:round; stroke-linejoin:round}
path {stroke-linecap:round; stroke-linejoin:round}
circle {stroke-linecap:round; stroke-linejoin:round}
]]>
</style>
</defs>
<polyline points="66.06 44.56 65.85 67.39 74.00 71.46 57.65 79.61 73.95 87.75 57.65 95.90 73.95 104.05 57.65 112.20 65.80 116.63 65.80 137.70" fill="none" stroke="rgb(0,0,0)" stroke-width="2" />
<polyline points="41.00 60.53 91.00 60.53 91.00 160.53 41.00 160.53 41.00 60.53" fill="none" stroke="rgb(0,0,0)" stroke-width="2" />
<path fill="rgb(0,0,0)" stroke="rgb(0,0,0)" stroke-width="0" d=" M 123.41 151.01 L 103.83 150.98 103.83 158.33 101.04 158.33 101.04 140.85 103.83 140.85 103.83 148.19 123.41 148.21 Z M 118.52 126.56 L 118.87 123.82 119.76 124.14 120.56 124.56 121.29 125.08 121.92 125.69 122.48 126.39 122.94 127.18 123.30 128.05 123.56 129.01 123.71 130.04 123.76 131.16 123.67 132.57 123.41 133.85 122.97 135.01 122.35 136.05 121.55 136.97 120.59 137.74 119.49 138.34 118.25 138.77 116.86 139.02 115.33 139.11 113.75 139.02 112.32 138.76 111.04 138.33 109.90 137.72 108.91 136.94 108.09 136.02 107.45 134.99 107.00 133.87 106.72 132.64 106.63 131.31 106.72 130.02 107.00 128.83 107.45 127.74 108.09 126.74 108.91 125.84 109.89 125.08 111.03 124.49 112.31 124.06 113.74 123.81 115.32 123.72 115.43 123.73 115.56 123.73 115.71 123.73 115.88 123.74 116.07 123.75 116.07 136.32 116.98 136.20 117.79 135.98 118.52 135.66 119.16 135.24 119.70 134.71 120.16 134.10 120.51 133.44 120.76 132.72 120.92 131.94 120.97 131.11 120.94 130.49 120.87 129.90 120.76 129.35 120.59 128.84 120.38 128.37 120.12 127.93 119.80 127.53 119.43 127.17 119.00 126.85 118.52 126.56 Z M 113.27 136.31 L 113.27 126.52 112.63 126.63 112.06 126.79 111.55 127.02 111.11 127.30 110.74 127.64 110.27 128.24 109.90 128.91 109.64 129.64 109.48 130.45 109.43 131.32 109.47 132.11 109.60 132.85 109.81 133.54 110.10 134.18 110.47 134.76 110.92 135.27 111.42 135.68 111.98 135.99 112.60 136.20 113.27 136.31 Z M 123.41 120.94 L 106.98 120.92 106.98 118.47 109.41 118.47 108.78 118.10 108.24 117.75 107.79 117.40 107.43 117.06 107.17 116.74 106.98 116.41 106.83 116.07 106.72 115.73 106.65 115.36 106.63 114.99 106.67 114.43 106.77 113.88 106.94 113.31 107.18 112.75 107.49 112.18 110.00 113.12 109.80 113.51 109.63 113.90 109.52 114.30 109.45 114.69 109.43 115.08 109.45 115.43 109.52 115.76 109.63 116.07 109.78 116.38 109.98 116.67 110.22 116.93 110.49 117.17 110.80 117.37 111.14 117.54 111.51 117.68 112.12 117.84 112.75 117.97 113.40 118.06 114.08 118.11 114.78 118.13 123.41 118.14 Z M 123.41 110.45 L 106.98 110.43 106.98 107.64 109.69 107.64 109.16 107.33 108.67 106.98 108.23 106.60 107.83 106.17 107.47 105.71 107.17 105.22 106.93 104.70 106.77 104.15 106.66 103.58 106.63 102.98 106.67 102.32 106.77 101.71 106.94 101.15 107.18 100.64 107.49 100.17 107.86 99.76 108.28 99.40 108.76 99.09 109.29 98.84 109.88 98.63 108.71 97.83 107.80 96.93 107.15 95.95 106.76 94.87 106.63 93.69 106.69 92.79 106.85 91.97 107.12 91.24 107.50 90.59 107.98 90.04 108.58 89.58 109.30 89.22 110.13 88.96 111.08 88.81 112.15 88.76 123.41 88.77 123.41 91.57 113.35 91.56 112.74 91.57 112.20 91.60 111.73 91.65 111.34 91.72 111.02 91.82 110.74 91.94 110.49 92.09 110.26 92.28 110.05 92.50 109.87 92.75 109.71 93.03 109.59 93.33 109.50 93.65 109.45 93.99 109.43 94.35 109.47 94.99 109.61 95.59 109.83 96.14 110.15 96.64 110.55 97.10 111.05 97.50 111.66 97.81 112.38 98.03 113.20 98.16 114.14 98.20 123.41 98.21 123.41 101.01 113.04 101.00 112.35 101.02 111.74 101.10 111.20 101.23 110.73 101.41 110.33 101.64 110.01 101.93 109.75 102.29 109.57 102.72 109.46 103.21 109.43 103.76 109.45 104.20 109.52 104.63 109.64 105.05 109.81 105.45 110.03 105.84 110.29 106.20 110.60 106.51 110.95 106.79 111.35 107.02 111.79 107.22 112.29 107.37 112.88 107.49 113.55 107.57 114.30 107.62 115.13 107.64 123.41 107.65 Z M 114.67 73.73 L 111.88 73.73 111.88 64.64 120.24 64.64 120.91 65.52 121.50 66.41 122.03 67.31 122.49 68.22 122.88 69.14 123.20 70.07 123.44 71.01 123.62 71.95 123.73 72.91 123.76 73.88 123.71 75.17 123.54 76.42 123.26 77.61 122.86 78.76 122.36 79.85 121.74 80.88 121.03 81.79 120.22 82.60 119.30 83.30 118.28 83.90 117.19 84.39 116.05 84.77 114.86 85.05 113.62 85.21 112.33 85.27 111.05 85.21 109.80 85.04 108.58 84.77 107.40 84.39 106.25 83.89 105.18 83.30 104.23 82.61 103.39 81.83 102.67 80.95 102.06 79.97 101.57 78.92 101.18 77.80 100.91 76.62 100.74 75.38 100.69 74.08 100.72 73.13 100.81 72.22 100.97 71.35 101.20 70.51 101.48 69.71 101.83 68.96 102.22 68.28 102.66 67.66 103.15 67.12 103.70 66.64 104.30 66.22 104.97 65.84 105.71 65.50 106.52 65.21 107.40 64.95 108.12 67.53 107.49 67.75 106.91 67.98 106.40 68.24 105.94 68.51 105.54 68.81 105.18 69.14 104.85 69.52 104.55 69.95 104.28 70.44 104.04 70.98 103.84 71.56 103.69 72.17 103.57 72.80 103.51 73.45 103.48 74.13 103.51 74.93 103.58 75.69 103.70 76.41 103.87 77.08 104.09 77.71 104.34 78.29 104.63 78.82 104.95 79.31 105.30 79.75 105.67 80.15 106.07 80.50 106.49 80.82 106.92 81.11 107.37 81.37 107.83 81.59 108.65 81.90 109.50 82.15 110.38 82.33 111.29 82.43 112.22 82.47 113.35 82.43 114.40 82.30 115.37 82.09 116.27 81.80 117.10 81.42 117.84 80.96 118.51 80.43 119.09 79.82 119.59 79.13 120.01 78.37 120.36 77.55 120.62 76.72 120.81 75.87 120.93 75.00 120.97 74.10 120.94 73.32 120.85 72.55 120.71 71.78 120.51 71.03 120.25 70.28 119.96 69.56 119.66 68.92 119.35 68.36 119.04 67.86 118.72 67.44 114.67 67.43 Z" />
<path fill="rgb(255,0,0)" stroke="rgb(255,0,0)" stroke-width="0" d=" M 50.40 56.53 L 50.41 53.13 47.01 53.13 47.01 51.53 50.41 51.53 50.41 48.13 52.01 48.13 52.01 51.53 55.41 51.53 55.41 53.13 52.01 53.13 52.00 56.53 Z" />
<polyline points="61.51 56.02 70.54 51.32" fill="none" stroke="rgb(0,0,0)" stroke-width="2" />
<polyline points="65.80 137.70 79.68 137.70 51.49 137.70" fill="none" stroke="rgb(0,0,0)" stroke-width="2" />
<polyline points="74.30 144.47 57.11 144.47" fill="none" stroke="rgb(0,0,0)" stroke-width="2" />
<polyline points="69.48 150.91 61.87 150.91" fill="none" stroke="rgb(0,0,0)" stroke-width="2" />
<path fill="rgb(255,0,0)" stroke="rgb(255,0,0)" stroke-width="2" d=" M 63 43 C 63 41 64 41 64 41 L 68 41 L 68 41 C 70 41 70 43 70 43 L 70 46 L 70 46 C 70 48 68 48 68 48 L 64 48 L 64 48 C 63 48 63 46 63 46 L 63 43 Z" />
</svg>
