<?xml version="1.0" encoding="utf-8"?>
<!-- Created with "sPlan" (http://www.abacom-online.de) -->
<svg version="1.1" baseProfile="full"
xmlns="http://www.w3.org/2000/svg"
width="50mm" height="50mm"
viewBox="0 0 500 500">
<title>TF</title>
<defs>
<style type="text/css">
<![CDATA[
polyline {stroke-linecap:round; stroke-linejoin:round}
polygon {stroke-linecap:round; stroke-linejoin:round}
path {stroke-linecap:round; stroke-linejoin:round}
circle {stroke-linecap:round; stroke-linejoin:round}
]]>
</style>
</defs>
<path fill="none" stroke="rgb(0,0,255)" stroke-width="15" d=" M 360.29 96.13 Q 360.29 96.14 355.28 96.63 Q 350.27 97.12 345.46 98.58 Q 340.64 100.04 336.21 102.42 Q 331.77 104.79 327.88 107.98 Q 323.99 111.17 320.80 115.06 Q 317.61 118.95 315.24 123.38 Q 312.87 127.82 311.41 132.63 Q 309.95 137.45 309.45 142.45 Q 308.96 147.46 309.45 152.47 Q 309.95 157.47 311.41 162.29 Q 312.87 167.10 315.24 171.54 Q 317.61 175.97 320.80 179.86 Q 323.99 183.75 327.88 186.94 Q 331.77 190.13 336.21 192.51 Q 340.64 194.88 345.46 196.34 Q 350.27 197.80 355.28 198.29 Q 360.29 198.79 360.29 198.79" />
<path fill="none" stroke="rgb(0,0,255)" stroke-width="15" d=" M 360.29 199.30 Q 360.29 199.31 355.28 199.80 Q 350.27 200.30 345.46 201.76 Q 340.64 203.22 336.21 205.59 Q 331.77 207.96 327.88 211.15 Q 323.99 214.34 320.80 218.23 Q 317.61 222.12 315.24 226.55 Q 312.87 230.99 311.41 235.80 Q 309.95 240.62 309.45 245.63 Q 308.96 250.63 309.45 255.64 Q 309.95 260.65 311.41 265.46 Q 312.87 270.28 315.24 274.71 Q 317.61 279.15 320.80 283.04 Q 323.99 286.93 327.88 290.12 Q 331.77 293.31 336.21 295.68 Q 340.64 298.05 345.46 299.51 Q 350.27 300.97 355.28 301.47 Q 360.29 301.96 360.29 301.96" />
<polyline points="360.29 95.87 360.29 50.28 450.03 50.28" fill="none" stroke="rgb(0,0,255)" stroke-width="15" />
<path fill="none" stroke="rgb(0,0,255)" stroke-width="15" d=" M 360.29 302.48 Q 360.29 302.48 355.28 302.98 Q 350.27 303.47 345.46 304.93 Q 340.64 306.39 336.21 308.76 Q 331.77 311.13 327.88 314.32 Q 323.99 317.51 320.80 321.40 Q 317.61 325.29 315.24 329.73 Q 312.87 334.16 311.41 338.98 Q 309.95 343.79 309.45 348.80 Q 308.96 353.81 309.45 358.81 Q 309.95 363.82 311.41 368.64 Q 312.87 373.45 315.24 377.89 Q 317.61 382.32 320.80 386.21 Q 323.99 390.10 327.88 393.29 Q 331.77 396.48 336.21 398.85 Q 340.64 401.22 345.46 402.68 Q 350.27 404.14 355.28 404.64 Q 360.29 405.13 360.29 405.13" />
<polyline points="450.03 450.28 360.29 450.28 360.29 405.39" fill="none" stroke="rgb(0,0,255)" stroke-width="15" />
<polyline points="50.03 50.28 139.77 50.28 139.77 95.16" fill="none" stroke="rgb(0,0,255)" stroke-width="15" />
<path fill="rgb(255,0,0)" stroke="rgb(255,0,0)" stroke-width="10" d=" M 38 44 C 38 38 44 38 44 38 L 56 38 L 56 38 C 62 38 62 44 62 44 L 62 56 L 62 56 C 62 62 56 62 56 62 L 44 62 L 44 62 C 38 62 38 56 38 56 L 38 44 Z" />
<path fill="none" stroke="rgb(0,0,255)" stroke-width="15" d=" M 139.77 198.08 Q 139.77 198.07 144.78 197.58 Q 149.79 197.09 154.60 195.63 Q 159.42 194.16 163.85 191.79 Q 168.29 189.42 172.18 186.23 Q 176.07 183.04 179.26 179.15 Q 182.45 175.26 184.82 170.83 Q 187.19 166.39 188.65 161.58 Q 190.11 156.76 190.60 151.76 Q 191.10 146.75 190.60 141.74 Q 190.11 136.73 188.65 131.92 Q 187.19 127.11 184.82 122.67 Q 182.45 118.23 179.26 114.34 Q 176.07 110.46 172.18 107.26 Q 168.29 104.07 163.85 101.70 Q 159.42 99.33 154.60 97.87 Q 149.79 96.41 144.78 95.92 Q 139.77 95.42 139.77 95.42" />
<polyline points="139.77 404.68 139.77 450.28 50.03 450.28" fill="none" stroke="rgb(0,0,255)" stroke-width="15" />
<path fill="rgb(255,0,0)" stroke="rgb(255,0,0)" stroke-width="10" d=" M 38 444 C 38 438 44 438 44 438 L 56 438 L 56 438 C 62 438 62 444 62 444 L 62 456 L 62 456 C 62 462 56 462 56 462 L 44 462 L 44 462 C 38 462 38 456 38 456 L 38 444 Z" />
<path fill="rgb(255,0,0)" stroke="rgb(255,0,0)" stroke-width="10" d=" M 438 44 C 438 38 444 38 444 38 L 456 38 L 456 38 C 462 38 462 44 462 44 L 462 56 L 462 56 C 462 62 456 62 456 62 L 444 62 L 444 62 C 438 62 438 56 438 56 L 438 44 Z" />
<path fill="rgb(255,0,0)" stroke="rgb(255,0,0)" stroke-width="10" d=" M 438 444 C 438 438 444 438 444 438 L 456 438 L 456 438 C 462 438 462 444 462 444 L 462 456 L 462 456 C 462 462 456 462 456 462 L 444 462 L 444 462 C 438 462 438 456 438 456 L 438 444 Z" />
<polyline points="234.00 117.00 234.00 383.78" fill="none" stroke="rgb(0,0,255)" stroke-width="15" />
<polyline points="268.00 117.00 268.00 383.78" fill="none" stroke="rgb(0,0,255)" stroke-width="15" />
<path fill="none" stroke="rgb(0,0,255)" stroke-width="15" d=" M 139.77 301.25 Q 139.77 301.25 144.78 300.75 Q 149.79 300.26 154.60 298.80 Q 159.42 297.34 163.85 294.97 Q 168.29 292.60 172.18 289.41 Q 176.07 286.22 179.26 282.33 Q 182.45 278.44 184.82 274.00 Q 187.19 269.57 188.65 264.75 Q 190.11 259.94 190.60 254.93 Q 191.10 249.92 190.60 244.91 Q 190.11 239.91 188.65 235.09 Q 187.19 230.28 184.82 225.84 Q 182.45 221.41 179.26 217.52 Q 176.07 213.63 172.18 210.44 Q 168.29 207.25 163.85 204.88 Q 159.42 202.51 154.60 201.05 Q 149.79 199.58 144.78 199.09 Q 139.77 198.60 139.77 198.59" />
<path fill="none" stroke="rgb(0,0,255)" stroke-width="15" d=" M 139.77 404.43 Q 139.77 404.42 144.78 403.93 Q 149.79 403.43 154.60 401.97 Q 159.42 400.51 163.85 398.14 Q 168.29 395.77 172.18 392.58 Q 176.07 389.39 179.26 385.50 Q 182.45 381.61 184.82 377.17 Q 187.19 372.74 188.65 367.92 Q 190.11 363.11 190.60 358.10 Q 191.10 353.10 190.60 348.09 Q 190.11 343.08 188.65 338.27 Q 187.19 333.45 184.82 329.02 Q 182.45 324.58 179.26 320.69 Q 176.07 316.80 172.18 313.61 Q 168.29 310.42 163.85 308.05 Q 159.42 305.68 154.60 304.22 Q 149.79 302.76 144.78 302.26 Q 139.77 301.77 139.77 301.77" />
</svg>
