<?xml version="1.0" encoding="utf-8"?>
<!-- Created with "sPlan" (http://www.abacom-online.de) -->
<svg version="1.1" baseProfile="full"
xmlns="http://www.w3.org/2000/svg"
width="50mm" height="50mm"
viewBox="0 0 500 500">
<title>TLSCP</title>
<defs>
<style type="text/css">
<![CDATA[
polyline {stroke-linecap:round; stroke-linejoin:round}
polygon {stroke-linecap:round; stroke-linejoin:round}
path {stroke-linecap:round; stroke-linejoin:round}
circle {stroke-linecap:round; stroke-linejoin:round}
]]>
</style>
</defs>
<polyline points="50.28 449.97 180.28 449.97 180.28 369.64 129.96 369.64 129.96 150.29 229.87 150.29 229.87 369.64 180.28 369.64" fill="none" stroke="rgb(0,0,255)" stroke-width="15" />
<path fill="rgb(255,0,0)" stroke="rgb(255,0,0)" stroke-width="10" d=" M 44 462 C 38 462 38 456 38 456 L 38 444 L 38 444 C 38 438 44 438 44 438 L 56 438 L 56 438 C 62 438 62 444 62 444 L 62 456 L 62 456 C 62 462 56 462 56 462 L 44 462 Z" />
<polyline points="100.12 434.76 83.92 465.52" fill="none" stroke="rgb(0,0,255)" stroke-width="15" />
<polyline points="450.28 449.97 320.00 449.97 320.00 50.00" fill="none" stroke="rgb(0,0,255)" stroke-width="20" />
<path fill="rgb(255,0,0)" stroke="rgb(255,0,0)" stroke-width="10" d=" M 444 462 C 438 462 438 456 438 456 L 438 444 L 438 444 C 438 438 444 438 444 438 L 456 438 L 456 438 C 462 438 462 444 462 444 L 462 456 L 462 456 C 462 462 456 462 456 462 L 444 462 Z" />
<polyline points="180.00 150.00 180.00 90.00 320.00 90.00" fill="none" stroke="rgb(0,0,255)" stroke-width="15" />
<path fill="rgb(0,0,0)" stroke="rgb(0,0,0)" stroke-width="0" d=" M 417.66 123.46 L 417.75 21.06 451.97 21.06 455.41 21.10 458.51 21.21 461.27 21.41 463.69 21.68 465.76 22.03 468.35 22.62 470.77 23.40 473.01 24.36 475.08 25.50 476.97 26.82 478.71 28.35 480.31 30.10 481.76 32.08 483.07 34.29 484.23 36.72 485.22 39.32 485.99 42.01 486.53 44.80 486.86 47.69 486.97 50.68 486.67 55.75 485.78 60.50 484.29 64.92 482.21 69.03 479.53 72.81 476.08 76.07 471.67 78.60 466.31 80.41 459.99 81.50 452.71 81.86 429.24 81.86 429.20 123.46 Z M 429.24 69.06 L 453.39 69.06 457.90 68.87 461.85 68.31 465.25 67.37 468.10 66.05 470.39 64.36 472.21 62.33 473.62 59.99 474.62 57.34 475.23 54.39 475.43 51.13 475.31 48.73 474.96 46.46 474.37 44.34 473.54 42.37 472.48 40.53 471.22 38.89 469.82 37.49 468.26 36.33 466.56 35.41 464.70 34.73 463.24 34.42 461.35 34.17 459.04 34.00 456.31 33.89 453.16 33.86 429.29 33.86 Z" />
</svg>
