<?xml version="1.0" encoding="utf-8"?>
<!-- Created with "sPlan" (http://www.abacom-online.de) -->
<svg version="1.1" baseProfile="full"
xmlns="http://www.w3.org/2000/svg"
width="50mm" height="50mm"
viewBox="0 0 500 500">
<title>transformator</title>
<defs>
<style type="text/css">
<![CDATA[
polyline {stroke-linecap:round; stroke-linejoin:round}
polygon {stroke-linecap:round; stroke-linejoin:round}
path {stroke-linecap:round; stroke-linejoin:round}
circle {stroke-linecap:round; stroke-linejoin:round}
]]>
</style>
</defs>
<polyline points="450.28 449.97 350.28 449.97 350.28 375.84" fill="none" stroke="rgb(0,0,0)" stroke-width="10" />
<path fill="none" stroke="rgb(0,0,0)" stroke-width="10" d=" M 350.28 292.87 Q 350.28 292.88 346.24 293.27 Q 342.20 293.67 338.32 294.85 Q 334.44 296.03 330.87 297.94 Q 327.29 299.85 324.16 302.42 Q 321.02 304.99 318.45 308.13 Q 315.88 311.26 313.96 314.84 Q 312.05 318.42 310.88 322.30 Q 309.70 326.18 309.30 330.21 Q 308.90 334.25 309.30 338.29 Q 309.70 342.32 310.88 346.21 Q 312.05 350.09 313.96 353.66 Q 315.88 357.24 318.45 360.37 Q 321.02 363.51 324.16 366.08 Q 327.29 368.65 330.87 370.56 Q 334.44 372.48 338.32 373.65 Q 342.20 374.83 346.24 375.23 Q 350.28 375.63 350.28 375.63" />
<path fill="none" stroke="rgb(0,0,0)" stroke-width="10" d=" M 350.28 210.12 Q 342.20 210.92 338.32 212.10 Q 334.44 213.27 330.87 215.19 Q 327.29 217.10 324.16 219.67 Q 321.02 222.24 318.45 225.38 Q 315.88 228.51 313.96 232.09 Q 312.05 235.66 310.88 239.54 Q 309.70 243.43 309.30 247.46 Q 308.90 251.50 309.30 255.54 Q 309.70 259.57 310.88 263.45 Q 312.05 267.33 313.96 270.91 Q 315.88 274.49 318.45 277.62 Q 321.02 280.76 324.16 283.33 Q 327.29 285.90 330.87 287.81 Q 334.44 289.72 338.32 290.90 Q 342.20 292.08 346.24 292.48" />
<path fill="none" stroke="rgb(0,0,0)" stroke-width="10" d=" M 350.28 127.37 Q 350.28 127.37 346.24 127.77 Q 342.20 128.17 338.32 129.34 Q 334.44 130.52 330.87 132.43 Q 327.29 134.34 324.16 136.92 Q 321.02 139.49 318.45 142.62 Q 315.88 145.76 313.96 149.34 Q 312.05 152.91 310.88 156.79 Q 309.70 160.67 309.30 164.71 Q 308.90 168.75 309.30 172.78 Q 309.70 176.82 310.88 180.70 Q 312.05 184.58 313.96 188.16 Q 315.88 191.73 318.45 194.87 Q 321.02 198.01 324.16 200.58 Q 327.29 203.15 330.87 205.06 Q 334.44 206.97 338.32 208.15 Q 342.20 209.33 346.24 209.72 Q 350.28 210.12 350.28 210.12" />
<polyline points="350.28 127.57 350.28 50.07 450.28 50.07" fill="none" stroke="rgb(0,0,0)" stroke-width="10" />
<polyline points="49.72 50.03 149.72 50.03 149.72 124.16" fill="none" stroke="rgb(0,0,0)" stroke-width="10" />
<path fill="none" stroke="rgb(0,0,0)" stroke-width="10" d=" M 149.72 207.13 Q 149.72 207.12 153.76 206.73 Q 157.80 206.33 161.68 205.15 Q 165.56 203.97 169.13 202.06 Q 172.71 200.15 175.84 197.58 Q 178.98 195.01 181.55 191.87 Q 184.12 188.74 186.04 185.16 Q 187.95 181.58 189.12 177.70 Q 190.30 173.82 190.70 169.79 Q 191.10 165.75 190.70 161.71 Q 190.30 157.68 189.12 153.79 Q 187.95 149.91 186.04 146.34 Q 184.12 142.76 181.55 139.63 Q 178.98 136.49 175.84 133.92 Q 172.71 131.35 169.13 129.44 Q 165.56 127.52 161.68 126.35 Q 157.80 125.17 153.76 124.77 Q 149.72 124.37 149.72 124.37" />
<path fill="none" stroke="rgb(0,0,0)" stroke-width="10" d=" M 149.72 289.88 Q 157.80 289.08 161.68 287.90 Q 165.56 286.73 169.13 284.81 Q 172.71 282.90 175.84 280.33 Q 178.98 277.76 181.55 274.62 Q 184.12 271.49 186.04 267.91 Q 187.95 264.34 189.12 260.46 Q 190.30 256.57 190.70 252.54 Q 191.10 248.50 190.70 244.46 Q 190.30 240.43 189.12 236.55 Q 187.95 232.67 186.04 229.09 Q 184.12 225.51 181.55 222.38 Q 178.98 219.24 175.84 216.67 Q 172.71 214.10 169.13 212.19 Q 165.56 210.28 161.68 209.10 Q 157.80 207.92 153.76 207.52" />
<path fill="none" stroke="rgb(0,0,0)" stroke-width="10" d=" M 149.72 372.63 Q 149.72 372.63 153.76 372.23 Q 157.80 371.83 161.68 370.66 Q 165.56 369.48 169.13 367.57 Q 172.71 365.66 175.84 363.08 Q 178.98 360.51 181.55 357.38 Q 184.12 354.24 186.04 350.66 Q 187.95 347.09 189.12 343.21 Q 190.30 339.33 190.70 335.29 Q 191.10 331.25 190.70 327.22 Q 190.30 323.18 189.12 319.30 Q 187.95 315.42 186.04 311.84 Q 184.12 308.27 181.55 305.13 Q 178.98 301.99 175.84 299.42 Q 172.71 296.85 169.13 294.94 Q 165.56 293.03 161.68 291.85 Q 157.80 290.67 153.76 290.28 Q 149.72 289.88 149.72 289.88" />
<polyline points="149.72 372.43 149.72 449.93 49.72 449.93" fill="none" stroke="rgb(0,0,0)" stroke-width="10" />
<polyline points="265.72 131.03 265.72 375.16" fill="none" stroke="rgb(0,0,0)" stroke-width="10" />
<polyline points="235.72 131.03 235.72 375.16" fill="none" stroke="rgb(0,0,0)" stroke-width="10" />
</svg>
