<?xml version="1.0" encoding="utf-8"?>
<!-- Created with "sPlan" (http://www.abacom-online.de) -->
<svg version="1.1" baseProfile="full"
xmlns="http://www.w3.org/2000/svg"
width="17mm" height="21mm"
viewBox="0 0 174 219">
<title>V_AC</title>
<defs>
<style type="text/css">
<![CDATA[
polyline {stroke-linecap:round; stroke-linejoin:round}
polygon {stroke-linecap:round; stroke-linejoin:round}
path {stroke-linecap:round; stroke-linejoin:round}
circle {stroke-linecap:round; stroke-linejoin:round}
]]>
</style>
</defs>
<path fill="rgb(0,0,0)" stroke="rgb(0,0,0)" stroke-width="0" d=" M 126.44 143.59 L 100.84 153.74 100.84 150.32 119.28 143.52 120.16 143.20 121.01 142.90 121.84 142.63 122.65 142.37 123.44 142.14 122.61 141.90 121.77 141.64 120.94 141.37 120.11 141.08 119.28 140.78 100.84 133.92 100.84 130.50 126.44 140.29 Z M 133.64 130.75 L 130.44 130.75 130.44 109.95 133.64 109.95 Z M 126.44 110.92 L 100.84 100.68 100.84 97.95 126.44 87.76 126.44 91.14 118.44 94.06 118.44 104.61 126.44 107.54 Z M 115.24 103.43 L 115.24 95.23 108.94 97.53 107.72 97.98 106.61 98.39 105.63 98.74 104.77 99.05 104.04 99.32 104.83 99.61 105.67 99.92 106.54 100.24 107.45 100.57 108.39 100.92 Z M 117.34 66.33 L 118.16 63.14 119.78 63.63 121.23 64.25 122.52 65.01 123.65 65.91 124.62 66.94 125.42 68.08 126.04 69.32 126.48 70.66 126.75 72.10 126.84 73.64 126.77 75.21 126.57 76.67 126.23 78.00 125.76 79.21 125.16 80.30 124.42 81.27 123.57 82.15 122.60 82.93 121.50 83.61 120.29 84.20 119.00 84.68 117.66 85.05 116.29 85.32 114.89 85.48 113.44 85.53 111.89 85.47 110.42 85.29 109.03 84.98 107.72 84.55 106.49 84.01 105.36 83.35 104.34 82.59 103.44 81.73 102.65 80.76 101.98 79.69 101.42 78.55 100.99 77.37 100.69 76.14 100.50 74.86 100.44 73.54 100.52 72.07 100.76 70.69 101.16 69.41 101.71 68.22 102.43 67.14 103.29 66.16 104.29 65.31 105.41 64.59 106.66 63.99 108.04 63.53 108.81 66.73 107.79 67.12 106.88 67.58 106.10 68.10 105.43 68.69 104.87 69.35 104.43 70.07 104.08 70.86 103.84 71.73 103.69 72.66 103.64 73.67 103.69 74.83 103.86 75.91 104.13 76.91 104.51 77.83 105.01 78.68 105.59 79.44 106.25 80.10 106.99 80.67 107.80 81.14 108.68 81.51 109.61 81.80 110.55 82.03 111.50 82.20 112.46 82.30 113.44 82.33 114.67 82.29 115.84 82.18 116.94 81.99 117.98 81.72 118.95 81.37 119.85 80.94 120.65 80.43 121.35 79.83 121.96 79.14 122.47 78.37 122.89 77.54 123.22 76.69 123.45 75.80 123.59 74.89 123.64 73.96 123.58 72.84 123.38 71.78 123.07 70.80 122.62 69.90 122.05 69.06 121.35 68.31 120.54 67.66 119.59 67.11 118.53 66.67 117.34 66.33 Z" />
<path fill="rgb(255,0,0)" stroke="rgb(255,0,0)" stroke-width="0" d=" M 49.40 56.53 L 49.40 53.13 46.00 53.13 46.00 51.53 49.40 51.53 49.41 48.13 51.01 48.13 51.00 51.53 54.40 51.53 54.40 53.13 51.00 53.13 51.00 56.53 Z" />
<path fill="rgb(0,0,0)" stroke="rgb(0,0,0)" stroke-width="0" d=" M 47.40 167.73 L 47.40 166.13 52.40 166.13 52.40 167.73 Z" />
<polyline points="65.06 44.56 65.06 84.53" fill="none" stroke="rgb(0,0,0)" stroke-width="2" />
<polyline points="65.00 134.53 65.00 174.56" fill="none" stroke="rgb(0,0,0)" stroke-width="2" />
<path fill="rgb(255,0,0)" stroke="rgb(255,0,0)" stroke-width="2" d=" M 61 43 C 61 41 63 41 63 41 L 67 41 L 67 41 C 69 41 69 43 69 43 L 69 46 L 69 46 C 69 48 67 48 67 48 L 63 48 L 63 48 C 61 48 61 46 61 46 L 61 43 Z" />
<path fill="rgb(255,0,0)" stroke="rgb(255,0,0)" stroke-width="2" d=" M 61 173 C 61 171 63 171 63 171 L 67 171 L 67 171 C 69 171 69 173 69 173 L 69 176 L 69 176 C 69 178 67 178 67 178 L 63 178 L 63 178 C 61 178 61 176 61 176 L 61 173 Z" />
<circle cx="65.14" cy="109.13" r="24.14" fill="none" stroke="rgb(0,0,0)" stroke-width="2" />
<polyline points="60.50 57.35 69.53 52.64" fill="none" stroke="rgb(0,0,0)" stroke-width="2" />
<path fill="none" stroke="rgb(0,0,0)" stroke-width="2" d=" M 45 109 C 53 120 58 120 65 109 C 73 98 78 98 85 109" />
</svg>
