<?xml version="1.0" encoding="utf-8"?>
<!-- Created with "sPlan" (http://www.abacom-online.de) -->
<svg version="1.1" baseProfile="full"
xmlns="http://www.w3.org/2000/svg"
width="17mm" height="23mm"
viewBox="0 0 170 239">
<title>V_DC</title>
<defs>
<style type="text/css">
<![CDATA[
polyline {stroke-linecap:round; stroke-linejoin:round}
polygon {stroke-linecap:round; stroke-linejoin:round}
path {stroke-linecap:round; stroke-linejoin:round}
circle {stroke-linecap:round; stroke-linejoin:round}
]]>
</style>
</defs>
<path fill="rgb(255,0,0)" stroke="rgb(255,0,0)" stroke-width="2" d=" M 57 43 C 57 41 59 41 59 41 L 63 41 L 63 41 C 65 41 65 43 65 43 L 65 46 L 65 46 C 65 48 63 48 63 48 L 59 48 L 59 48 C 57 48 57 46 57 46 L 57 43 Z" />
<path fill="rgb(0,0,0)" stroke="rgb(0,0,0)" stroke-width="0" d=" M 122.44 163.59 L 96.84 173.74 96.84 170.32 115.29 163.52 116.16 163.20 117.02 162.90 117.85 162.63 118.66 162.37 119.44 162.14 118.61 161.90 117.78 161.64 116.95 161.37 116.12 161.08 115.29 160.78 96.84 153.92 96.84 150.50 122.44 160.29 Z M 129.64 150.75 L 126.44 150.75 126.44 129.95 129.64 129.95 Z M 122.44 127.94 L 96.84 127.92 96.84 119.09 96.86 117.95 96.90 116.92 96.98 116.01 97.08 115.21 97.21 114.52 97.45 113.67 97.75 112.86 98.11 112.11 98.55 111.41 99.04 110.76 99.77 109.99 100.57 109.30 101.44 108.70 102.39 108.17 103.42 107.73 104.51 107.37 105.67 107.09 106.89 106.89 108.17 106.77 109.51 106.73 110.64 106.76 111.73 106.84 112.76 106.98 113.74 107.17 114.67 107.42 115.54 107.71 116.35 108.03 117.10 108.38 117.78 108.76 118.40 109.17 118.96 109.61 119.48 110.06 119.94 110.53 120.36 111.01 120.72 111.51 121.04 112.04 121.33 112.61 121.59 113.22 121.81 113.88 122.01 114.57 122.16 115.31 122.29 116.09 122.37 116.91 122.43 117.78 122.44 118.69 Z M 119.24 124.74 L 119.24 119.08 119.22 118.07 119.17 117.16 119.08 116.33 118.95 115.60 118.78 114.96 118.58 114.38 118.35 113.86 118.09 113.39 117.80 112.96 117.47 112.58 116.97 112.10 116.40 111.67 115.76 111.28 115.06 110.93 114.30 110.63 113.46 110.38 112.56 110.18 111.60 110.04 110.56 109.96 109.46 109.93 107.95 109.98 106.59 110.15 105.38 110.42 104.31 110.80 103.39 111.29 102.60 111.86 101.92 112.47 101.35 113.14 100.90 113.85 100.56 114.61 100.37 115.24 100.23 116.01 100.13 116.92 100.06 117.96 100.04 119.14 100.04 124.72 Z M 113.34 84.33 L 114.17 81.14 115.78 81.63 117.23 82.25 118.52 83.01 119.65 83.91 120.62 84.94 121.42 86.08 122.04 87.32 122.49 88.66 122.75 90.10 122.84 91.64 122.78 93.21 122.57 94.67 122.24 96.00 121.77 97.21 121.16 98.30 120.43 99.27 119.58 100.15 118.60 100.93 117.51 101.61 116.29 102.20 115.00 102.68 113.67 103.05 112.30 103.32 110.89 103.48 109.45 103.53 107.90 103.47 106.42 103.29 105.03 102.98 103.72 102.55 102.49 102.01 101.36 101.35 100.35 100.59 99.45 99.73 98.66 98.76 97.98 97.69 97.43 96.55 97.00 95.37 96.69 94.14 96.51 92.86 96.44 91.54 96.52 90.07 96.76 88.69 97.16 87.41 97.72 86.22 98.44 85.14 99.30 84.16 100.29 83.31 101.41 82.59 102.67 81.99 104.05 81.53 104.81 84.73 103.79 85.12 102.89 85.58 102.10 86.10 101.43 86.69 100.88 87.35 100.43 88.07 100.09 88.86 99.84 89.73 99.69 90.66 99.64 91.67 99.70 92.83 99.86 93.91 100.14 94.91 100.52 95.83 101.01 96.68 101.60 97.44 102.26 98.10 102.99 98.67 103.80 99.14 104.69 99.51 105.62 99.80 106.56 100.03 107.51 100.20 108.47 100.30 109.44 100.33 110.67 100.29 111.84 100.18 112.94 99.99 113.98 99.72 114.96 99.37 115.85 98.94 116.65 98.43 117.35 97.83 117.96 97.14 118.48 96.37 118.90 95.54 119.22 94.69 119.46 93.80 119.60 92.89 119.64 91.96 119.58 90.84 119.39 89.78 119.07 88.80 118.63 87.90 118.06 87.06 117.36 86.31 116.54 85.66 115.60 85.11 114.53 84.67 113.34 84.33 Z" />
<path fill="rgb(255,0,0)" stroke="rgb(255,0,0)" stroke-width="0" d=" M 45.40 76.53 L 45.41 73.13 42.01 73.13 42.01 71.53 45.41 71.53 45.41 68.13 47.01 68.13 47.01 71.53 50.41 71.53 50.41 73.13 47.01 73.13 47.00 76.53 Z" />
<path fill="rgb(0,0,0)" stroke="rgb(0,0,0)" stroke-width="0" d=" M 43.40 187.73 L 43.41 186.13 48.41 186.13 48.40 187.73 Z" />
<polyline points="61.06 64.56 61.06 114.53" fill="none" stroke="rgb(0,0,0)" stroke-width="2" />
<polyline points="41.00 114.53 81.00 114.53" fill="none" stroke="rgb(0,0,0)" stroke-width="2" />
<polyline points="51.00 124.53 71.00 124.53" fill="none" stroke="rgb(0,0,0)" stroke-width="2" />
<polyline points="41.00 134.53 81.00 134.53" fill="none" stroke="rgb(0,0,0)" stroke-width="2" />
<polyline points="51.00 144.53 71.00 144.53" fill="none" stroke="rgb(0,0,0)" stroke-width="2" />
<polyline points="61.00 144.53 61.00 194.56" fill="none" stroke="rgb(0,0,0)" stroke-width="2" />
<path fill="rgb(255,0,0)" stroke="rgb(255,0,0)" stroke-width="2" d=" M 58 63 C 58 61 59 61 59 61 L 63 61 L 63 61 C 65 61 65 63 65 63 L 65 66 L 65 66 C 65 68 63 68 63 68 L 59 68 L 59 68 C 58 68 58 66 58 66 L 58 63 Z" />
<path fill="rgb(255,0,0)" stroke="rgb(255,0,0)" stroke-width="2" d=" M 57 193 C 57 191 59 191 59 191 L 63 191 L 63 191 C 65 191 65 193 65 193 L 65 196 L 65 196 C 65 198 63 198 63 198 L 59 198 L 59 198 C 57 198 57 196 57 196 L 57 193 Z" />
<polyline points="56.51 77.35 65.54 72.64" fill="none" stroke="rgb(0,0,0)" stroke-width="2" />
</svg>
