<?xml version="1.0" encoding="utf-8"?>
<!-- Created with "sPlan" (http://www.abacom-online.de) -->
<svg version="1.1" baseProfile="full"
xmlns="http://www.w3.org/2000/svg"
width="50mm" height="50mm"
viewBox="0 0 500 500">
<title>V_PULSE</title>
<defs>
<style type="text/css">
<![CDATA[
polyline {stroke-linecap:round; stroke-linejoin:round}
polygon {stroke-linecap:round; stroke-linejoin:round}
path {stroke-linecap:round; stroke-linejoin:round}
circle {stroke-linecap:round; stroke-linejoin:round}
]]>
</style>
</defs>
<polyline points="265.24 83.88 234.48 100.08" fill="none" stroke="rgb(0,0,255)" stroke-width="15" />
<path fill="rgb(255,0,0)" stroke="rgb(255,0,0)" stroke-width="0" d=" M 161.62 156.92 L 161.63 139.92 144.63 139.92 144.63 131.92 161.63 131.92 161.66 114.92 169.66 114.92 169.63 131.92 186.63 131.92 186.63 139.92 169.63 139.92 169.62 156.92 Z" />
<polyline points="250.03 147.78 250.03 50.28" fill="none" stroke="rgb(0,0,255)" stroke-width="15" />
<polyline points="250.03 450.28 250.03 350.10" fill="none" stroke="rgb(0,0,255)" stroke-width="15" />
<path fill="rgb(255,0,0)" stroke="rgb(255,0,0)" stroke-width="10" d=" M 238 444 C 238 438 244 438 244 438 L 256 438 L 256 438 C 262 438 262 444 262 444 L 262 456 L 262 456 C 262 462 256 462 256 462 L 244 462 L 244 462 C 238 462 238 456 238 456 L 238 444 Z" />
<path fill="rgb(0,0,0)" stroke="rgb(0,0,0)" stroke-width="0" d=" M 142.96 367.92 L 142.99 359.92 184.65 359.92 184.63 367.92 Z" />
<path fill="rgb(255,0,0)" stroke="rgb(255,0,0)" stroke-width="10" d=" M 238 44 C 238 38 244 38 244 38 L 256 38 L 256 38 C 262 38 262 44 262 44 L 262 56 L 262 56 C 262 62 256 62 256 62 L 244 62 L 244 62 C 238 62 238 56 238 56 L 238 44 Z" />
<circle cx="250.55" cy="248.57" r="101.05" fill="none" stroke="rgb(0,0,255)" stroke-width="15" />
<path fill="rgb(0,0,0)" stroke="rgb(0,0,0)" stroke-width="0" d=" M 259.23 305.43 L 260.18 312.74 258.93 313.04 257.73 313.26 256.59 313.43 255.50 313.52 254.47 313.55 252.89 313.50 251.46 313.33 250.18 313.05 249.05 312.65 248.06 312.15 247.21 311.55 246.46 310.88 245.83 310.14 245.29 309.34 244.87 308.46 244.54 307.34 244.28 305.82 244.10 303.90 243.99 301.57 243.96 298.84 243.99 271.19 238.26 271.19 238.26 262.71 243.99 262.71 244.01 250.61 251.65 245.63 251.63 262.71 259.27 262.71 259.27 271.19 251.63 271.19 251.60 298.59 251.62 299.85 251.67 300.92 251.75 301.79 251.86 302.48 252.00 302.96 252.18 303.34 252.40 303.68 252.66 303.99 252.96 304.27 253.30 304.51 253.69 304.72 254.15 304.88 254.67 304.99 255.25 305.06 255.90 305.08 256.43 305.09 257.03 305.14 257.70 305.21 258.43 305.30 259.23 305.43 Z" />
<polyline points="170.00 269.38 209.69 269.38 209.69 190.00 289.07 190.00 289.07 269.38 328.77 269.38" fill="none" stroke="rgb(0,0,255)" stroke-width="12" />
</svg>
