<?xml version="1.0" encoding="utf-8"?>
<!-- Created with "sPlan" (http://www.abacom-online.de) -->
<svg version="1.1" baseProfile="full"
xmlns="http://www.w3.org/2000/svg"
width="16mm" height="21mm"
viewBox="0 0 167 219">
<title>V_PULSE</title>
<defs>
<style type="text/css">
<![CDATA[
polyline {stroke-linecap:round; stroke-linejoin:round}
polygon {stroke-linecap:round; stroke-linejoin:round}
path {stroke-linecap:round; stroke-linejoin:round}
circle {stroke-linecap:round; stroke-linejoin:round}
]]>
</style>
</defs>
<path fill="rgb(0,0,0)" stroke="rgb(0,0,0)" stroke-width="0" d=" M 120.41 165.54 L 99.63 173.78 99.63 171.00 114.60 165.48 115.31 165.23 116.00 164.98 116.68 164.76 117.34 164.55 117.97 164.36 117.30 164.17 116.62 163.96 115.95 163.74 115.27 163.50 114.60 163.26 99.63 157.69 99.63 154.92 120.41 162.86 Z M 126.25 155.12 L 123.65 155.12 123.65 138.24 126.25 138.24 Z M 120.41 136.61 L 99.63 136.59 99.63 128.89 99.64 128.12 99.66 127.42 99.70 126.80 99.76 126.26 99.83 125.79 99.95 125.21 100.11 124.66 100.30 124.16 100.53 123.69 100.80 123.27 101.11 122.87 101.47 122.52 101.87 122.19 102.32 121.89 102.81 121.63 103.34 121.41 103.88 121.24 104.45 121.11 105.04 121.04 105.64 121.02 106.67 121.08 107.63 121.28 108.53 121.62 109.37 122.09 110.13 122.69 110.79 123.47 111.31 124.46 111.67 125.67 111.89 127.09 111.97 128.73 111.97 134.01 120.41 134.02 Z M 109.37 134.01 L 109.37 128.57 109.33 127.56 109.22 126.67 109.03 125.90 108.76 125.26 108.42 124.75 108.01 124.34 107.53 124.02 106.99 123.79 106.40 123.66 105.73 123.61 105.25 123.64 104.79 123.72 104.36 123.85 103.96 124.04 103.58 124.28 103.25 124.56 102.97 124.88 102.73 125.23 102.55 125.61 102.41 126.03 102.34 126.36 102.29 126.78 102.26 127.30 102.24 127.92 102.23 128.62 102.23 134.00 Z M 99.63 103.81 L 99.63 101.21 111.62 101.22 112.82 101.25 113.92 101.34 114.91 101.48 115.80 101.68 116.59 101.93 117.29 102.26 117.95 102.68 118.55 103.19 119.09 103.79 119.58 104.48 119.99 105.26 120.32 106.13 120.55 107.09 120.69 108.15 120.73 109.29 120.69 110.41 120.57 111.45 120.37 112.39 120.09 113.26 119.73 114.04 119.29 114.73 118.78 115.34 118.20 115.87 117.55 116.31 116.82 116.67 116.00 116.95 115.07 117.17 114.03 117.33 112.88 117.42 111.62 117.45 99.63 117.44 99.63 114.84 111.53 114.85 112.55 114.83 113.45 114.77 114.24 114.67 114.92 114.53 115.49 114.35 115.97 114.11 116.41 113.82 116.80 113.47 117.15 113.06 117.45 112.59 117.69 112.07 117.89 111.50 118.03 110.89 118.11 110.24 118.14 109.54 118.08 108.37 117.92 107.35 117.65 106.47 117.26 105.73 116.77 105.14 116.13 104.66 115.28 104.29 114.23 104.03 112.98 103.87 111.53 103.82 Z M 120.41 96.68 L 99.63 96.66 99.63 94.07 117.81 94.08 117.81 83.69 120.41 83.70 Z M 113.27 81.75 L 113.27 79.15 113.88 79.06 114.44 78.93 114.96 78.76 115.44 78.56 115.87 78.31 116.26 78.02 116.62 77.67 116.95 77.26 117.24 76.80 117.51 76.27 117.74 75.70 117.91 75.11 118.04 74.49 118.11 73.84 118.14 73.16 118.12 72.56 118.06 71.99 117.97 71.44 117.83 70.93 117.66 70.44 117.46 70.00 117.23 69.60 116.97 69.25 116.68 68.94 116.36 68.69 116.02 68.48 115.68 68.32 115.33 68.20 114.98 68.14 114.62 68.11 114.25 68.13 113.91 68.18 113.59 68.27 113.28 68.39 113.00 68.54 112.73 68.75 112.47 69.03 112.24 69.38 112.02 69.81 111.82 70.30 111.67 70.73 111.50 71.32 111.31 72.07 111.08 73.00 110.82 74.09 110.56 75.19 110.30 76.14 110.04 76.96 109.79 77.63 109.54 78.16 109.22 78.72 108.86 79.22 108.47 79.66 108.06 80.04 107.61 80.36 107.14 80.62 106.65 80.83 106.13 80.97 105.59 81.06 105.03 81.09 104.41 81.05 103.80 80.94 103.22 80.76 102.65 80.51 102.09 80.18 101.57 79.79 101.10 79.33 100.69 78.80 100.33 78.21 100.02 77.55 99.76 76.84 99.56 76.11 99.42 75.34 99.34 74.53 99.31 73.70 99.34 72.79 99.43 71.93 99.57 71.11 99.78 70.33 100.05 69.59 100.37 68.91 100.75 68.30 101.19 67.75 101.68 67.27 102.22 66.86 102.81 66.51 103.43 66.23 104.08 66.03 104.76 65.89 105.48 65.83 105.48 68.43 104.80 68.56 104.20 68.77 103.67 69.06 103.20 69.44 102.81 69.90 102.48 70.44 102.23 71.09 102.05 71.83 101.94 72.67 101.91 73.60 101.94 74.57 102.05 75.42 102.23 76.16 102.48 76.80 102.80 77.32 103.17 77.74 103.57 78.07 104.00 78.30 104.46 78.44 104.95 78.49 105.38 78.46 105.77 78.36 106.13 78.19 106.46 77.96 106.75 77.66 107.04 77.23 107.33 76.60 107.62 75.75 107.91 74.69 108.20 73.43 108.49 72.15 108.77 71.05 109.03 70.13 109.28 69.39 109.51 68.83 109.86 68.19 110.24 67.61 110.67 67.11 111.12 66.68 111.61 66.32 112.14 66.03 112.69 65.80 113.28 65.64 113.90 65.55 114.55 65.52 115.20 65.55 115.84 65.66 116.46 65.85 117.07 66.11 117.66 66.45 118.21 66.85 118.72 67.33 119.17 67.86 119.57 68.46 119.92 69.13 120.22 69.85 120.44 70.60 120.60 71.38 120.70 72.20 120.73 73.06 120.70 74.13 120.59 75.13 120.42 76.06 120.17 76.91 119.86 77.70 119.48 78.41 119.02 79.06 118.50 79.65 117.90 80.17 117.23 80.63 116.51 81.01 115.76 81.32 114.96 81.54 114.13 81.68 113.27 81.75 Z M 120.41 61.63 L 99.63 61.60 99.63 46.67 102.23 46.67 102.23 59.01 108.40 59.02 108.40 47.33 110.99 47.33 110.99 59.02 117.81 59.02 117.81 46.36 120.41 46.37 Z" />
<path fill="rgb(255,0,0)" stroke="rgb(255,0,0)" stroke-width="0" d=" M 49.40 56.53 L 49.40 53.13 46.00 53.13 46.00 51.53 49.40 51.53 49.41 48.13 51.01 48.13 51.00 51.53 54.40 51.53 54.40 53.13 51.00 53.13 51.00 56.53 Z" />
<path fill="rgb(0,0,0)" stroke="rgb(0,0,0)" stroke-width="0" d=" M 47.40 167.73 L 47.40 166.13 52.40 166.13 52.40 167.73 Z" />
<polyline points="65.06 44.56 65.06 84.53" fill="none" stroke="rgb(0,0,0)" stroke-width="2" />
<polyline points="65.00 134.53 65.00 174.56" fill="none" stroke="rgb(0,0,0)" stroke-width="2" />
<path fill="rgb(255,0,0)" stroke="rgb(255,0,0)" stroke-width="2" d=" M 61 43 C 61 41 63 41 63 41 L 67 41 L 67 41 C 69 41 69 43 69 43 L 69 46 L 69 46 C 69 48 67 48 67 48 L 63 48 L 63 48 C 61 48 61 46 61 46 L 61 43 Z" />
<path fill="rgb(255,0,0)" stroke="rgb(255,0,0)" stroke-width="2" d=" M 61 173 C 61 171 63 171 63 171 L 67 171 L 67 171 C 69 171 69 173 69 173 L 69 176 L 69 176 C 69 178 67 178 67 178 L 63 178 L 63 178 C 61 178 61 176 61 176 L 61 173 Z" />
<circle cx="65.14" cy="109.13" r="24.14" fill="none" stroke="rgb(0,0,0)" stroke-width="2" />
<path fill="rgb(0,0,0)" stroke="rgb(0,0,0)" stroke-width="0" d=" M 70.00 121.34 L 71.49 121.14 71.55 121.40 71.60 121.64 71.63 121.88 71.65 122.10 71.66 122.31 71.65 122.64 71.61 122.93 71.56 123.19 71.48 123.42 71.37 123.62 71.25 123.80 71.11 123.95 70.96 124.08 70.80 124.19 70.62 124.27 70.39 124.34 70.08 124.39 69.69 124.43 69.21 124.45 68.65 124.46 63.00 124.45 63.00 125.62 61.27 125.62 61.27 124.45 58.80 124.45 57.78 122.89 61.27 122.89 61.27 121.33 63.00 121.33 63.00 122.89 68.60 122.90 68.86 122.90 69.08 122.89 69.26 122.87 69.40 122.85 69.49 122.82 69.57 122.78 69.64 122.73 69.70 122.68 69.76 122.62 69.81 122.55 69.85 122.47 69.89 122.38 69.91 122.27 69.92 122.15 69.93 122.02 69.93 121.91 69.94 121.79 69.95 121.65 69.97 121.50 70.00 121.34 Z" />
<polyline points="45.00 114.53 55.00 114.53 55.00 94.53 75.00 94.53 75.00 114.53 85.00 114.53" fill="none" stroke="rgb(0,0,0)" stroke-width="2" />
<polyline points="60.50 57.35 69.53 52.64" fill="none" stroke="rgb(0,0,0)" stroke-width="2" />
</svg>
