<?xml version="1.0" encoding="utf-8"?>
<!-- Created with "sPlan" (http://www.abacom-online.de) -->
<svg version="1.1" baseProfile="full"
xmlns="http://www.w3.org/2000/svg"
width="50mm" height="50mm"
viewBox="0 0 500 500">
<title>AC</title>
<defs>
<style type="text/css">
<![CDATA[
polyline {stroke-linecap:round; stroke-linejoin:round}
polygon {stroke-linecap:round; stroke-linejoin:round}
path {stroke-linecap:round; stroke-linejoin:round}
circle {stroke-linecap:round; stroke-linejoin:round}
]]>
</style>
</defs>
<polyline points="49.08 50.46 49.08 450.46 449.08 450.46 449.08 50.46 49.08 50.46" fill="none" stroke="rgb(0,0,255)" stroke-width="10" />
<path fill="rgb(0,0,0)" stroke="rgb(0,0,0)" stroke-width="0" d=" M 163.91 299.23 L 200.85 196.83 210.68 196.83 247.42 299.23 235.22 299.23 224.70 267.23 186.65 267.23 176.08 299.23 Z M 190.91 254.43 L 220.51 254.43 212.19 229.25 210.57 224.34 209.11 219.92 207.82 216.00 206.70 212.57 205.74 209.63 204.69 212.81 203.58 216.14 202.43 219.62 201.23 223.26 199.97 227.05 Z M 324.71 262.83 L 336.23 266.13 334.46 272.58 332.21 278.38 329.47 283.55 326.25 288.06 322.54 291.94 318.41 295.14 313.92 297.63 309.09 299.41 303.90 300.47 298.36 300.83 292.68 300.56 287.43 299.75 282.63 298.41 278.27 296.52 274.34 294.10 270.82 291.17 267.65 287.76 264.84 283.86 262.38 279.49 260.28 274.63 258.55 269.45 257.20 264.13 256.24 258.65 255.66 253.03 255.47 247.25 255.69 241.04 256.36 235.15 257.46 229.58 258.99 224.34 260.97 219.43 263.34 214.91 266.08 210.84 269.19 207.24 272.67 204.08 276.52 201.39 280.63 199.17 284.90 197.45 289.34 196.21 293.94 195.48 298.70 195.23 304.02 195.55 309.00 196.50 313.62 198.10 317.89 200.33 321.82 203.20 325.33 206.65 328.39 210.62 331.00 215.11 333.14 220.12 334.83 225.65 323.29 228.70 321.87 224.62 320.21 221.00 318.32 217.85 316.19 215.18 313.84 212.97 311.23 211.19 308.37 209.81 305.25 208.82 301.88 208.23 298.25 208.03 294.07 208.25 290.18 208.90 286.56 210.00 283.23 211.53 280.18 213.50 277.45 215.84 275.06 218.48 273.02 221.42 271.32 224.66 269.97 228.20 268.91 231.92 268.09 235.68 267.49 239.48 267.13 243.33 267.01 247.23 267.15 252.15 267.56 256.82 268.26 261.23 269.23 265.38 270.48 269.28 272.02 272.86 273.88 276.06 276.04 278.87 278.51 281.31 281.30 283.37 284.29 285.04 287.37 286.35 290.55 287.28 293.83 287.84 297.21 288.03 301.26 287.77 305.05 287.01 308.58 285.74 311.86 283.96 314.88 281.68 317.59 278.89 319.93 275.61 321.90 271.84 323.49 267.58 324.71 262.83 Z" />
</svg>
