<?xml version="1.0" encoding="utf-8"?>
<!-- Created with "sPlan" (http://www.abacom-online.de) -->
<svg version="1.1" baseProfile="full"
xmlns="http://www.w3.org/2000/svg"
width="50mm" height="50mm"
viewBox="0 0 500 500">
<title>CAPQ</title>
<defs>
<style type="text/css">
<![CDATA[
polyline {stroke-linecap:round; stroke-linejoin:round}
polygon {stroke-linecap:round; stroke-linejoin:round}
path {stroke-linecap:round; stroke-linejoin:round}
circle {stroke-linecap:round; stroke-linejoin:round}
]]>
</style>
</defs>
<polyline points="100.12 234.76 83.92 265.52" fill="none" stroke="rgb(0,0,255)" stroke-width="15" />
<polyline points="50.03 250.28 221.24 250.28" fill="none" stroke="rgb(0,0,255)" stroke-width="15" />
<path fill="rgb(255,0,0)" stroke="rgb(255,0,0)" stroke-width="10" d=" M 38 244 C 38 238 44 238 44 238 L 56 238 L 56 238 C 62 238 62 244 62 244 L 62 256 L 62 256 C 62 262 56 262 56 262 L 44 262 L 44 262 C 38 262 38 256 38 256 L 38 244 Z" />
<polyline points="292.43 250.28 449.93 250.28" fill="none" stroke="rgb(0,0,255)" stroke-width="15" />
<path fill="rgb(255,0,0)" stroke="rgb(255,0,0)" stroke-width="10" d=" M 438 244 C 438 238 444 238 444 238 L 456 238 L 456 238 C 462 238 462 244 462 244 L 462 256 L 462 256 C 462 262 456 262 456 262 L 444 262 L 444 262 C 438 262 438 256 438 256 L 438 244 Z" />
<path fill="none" stroke="rgb(0,0,255)" stroke-width="15" d=" M 200 160 C 250 250 200 340 200 340" />
<polyline points="289.71 160.00 289.71 339.96" fill="none" stroke="rgb(0,0,255)" stroke-width="15" />
<path fill="rgb(0,0,0)" stroke="rgb(0,0,0)" stroke-width="0" d=" M 477.04 111.18 L 480.08 113.95 483.04 116.40 485.89 118.53 488.66 120.35 491.33 121.86 488.22 131.23 484.41 129.54 480.60 127.49 476.80 125.10 473.01 122.35 469.22 119.26 465.07 121.35 460.76 122.97 456.27 124.13 451.62 124.83 446.79 125.06 441.93 124.79 437.25 123.99 432.76 122.65 428.45 120.78 424.32 118.37 420.46 115.48 416.99 112.15 413.88 108.39 411.15 104.20 408.80 99.57 406.84 94.60 405.33 89.39 404.24 83.93 403.59 78.23 403.38 72.28 403.60 66.35 404.26 60.64 405.35 55.14 406.88 49.86 408.84 44.80 411.20 40.08 413.93 35.83 417.03 32.06 420.49 28.76 424.32 25.93 428.42 23.60 432.72 21.79 437.21 20.49 441.89 19.72 446.77 19.46 451.68 19.72 456.40 20.52 460.92 21.84 465.24 23.70 469.36 26.08 473.20 28.95 476.65 32.23 479.71 35.94 482.39 40.08 484.69 44.63 486.59 49.53 488.06 54.66 489.10 60.04 489.73 65.67 489.93 71.53 489.80 76.41 489.42 81.09 488.78 85.56 487.88 89.84 486.72 93.91 485.31 97.78 483.63 101.44 481.69 104.89 479.50 108.14 477.04 111.18 Z M 449.99 94.16 L 454.10 95.60 457.90 97.29 461.41 99.23 464.62 101.43 467.53 103.88 471.43 99.24 474.47 93.75 476.64 87.41 477.95 80.22 478.39 72.18 478.25 67.49 477.79 63.05 477.03 58.85 475.96 54.89 474.58 51.17 472.91 47.74 470.95 44.62 468.71 41.83 466.19 39.37 463.38 37.22 460.36 35.43 457.19 34.04 453.88 33.05 450.43 32.46 446.83 32.26 441.52 32.66 436.58 33.86 432.02 35.87 427.83 38.68 424.01 42.30 420.74 46.71 418.20 51.91 416.38 57.90 415.29 64.68 414.92 72.26 415.27 79.63 416.33 86.28 418.12 92.21 420.62 97.43 423.84 101.92 427.62 105.64 431.80 108.54 436.37 110.60 441.35 111.84 446.72 112.26 449.33 112.15 451.88 111.84 454.37 111.31 456.80 110.58 459.16 109.63 456.84 108.13 454.46 106.82 452.03 105.68 449.55 104.73 447.01 103.96 Z" />
</svg>
