<?xml version="1.0" encoding="utf-8"?>
<!-- Created with "sPlan" (http://www.abacom-online.de) -->
<svg version="1.1" baseProfile="full"
xmlns="http://www.w3.org/2000/svg"
width="50mm" height="50mm"
viewBox="0 0 500 500">
<title>DC</title>
<defs>
<style type="text/css">
<![CDATA[
polyline {stroke-linecap:round; stroke-linejoin:round}
polygon {stroke-linecap:round; stroke-linejoin:round}
path {stroke-linecap:round; stroke-linejoin:round}
circle {stroke-linecap:round; stroke-linejoin:round}
]]>
</style>
</defs>
<polyline points="49.08 50.46 49.08 450.46 449.08 450.46 449.08 50.46 49.08 50.46" fill="none" stroke="rgb(0,0,255)" stroke-width="10" />
<path fill="rgb(0,0,0)" stroke="rgb(0,0,0)" stroke-width="0" d=" M 167.63 299.23 L 167.72 196.83 199.58 196.83 203.69 196.89 207.39 197.06 210.69 197.36 213.58 197.77 216.05 198.30 219.13 199.24 222.03 200.45 224.75 201.91 227.28 203.64 229.62 205.63 232.40 208.52 234.88 211.72 237.06 215.22 238.95 219.02 240.54 223.13 241.84 227.51 242.86 232.14 243.57 237.01 244.00 242.12 244.14 247.48 244.04 252.03 243.74 256.38 243.25 260.51 242.56 264.43 241.67 268.14 240.63 271.62 239.47 274.85 238.21 277.84 236.83 280.57 235.34 283.05 233.76 285.31 232.13 287.37 230.44 289.23 228.70 290.89 226.89 292.34 224.99 293.63 222.93 294.79 220.73 295.82 218.37 296.71 215.86 297.48 213.20 298.11 210.39 298.60 207.42 298.95 204.29 299.16 201.02 299.23 Z M 179.20 286.43 L 199.62 286.43 203.24 286.35 206.54 286.13 209.51 285.76 212.16 285.24 214.47 284.58 216.54 283.78 218.43 282.85 220.14 281.81 221.68 280.64 223.04 279.35 224.76 277.33 226.33 275.05 227.74 272.51 228.98 269.71 230.07 266.64 230.98 263.31 231.69 259.71 232.19 255.84 232.50 251.69 232.60 247.28 232.41 241.26 231.83 235.83 230.85 230.98 229.47 226.71 227.71 223.03 225.66 219.86 223.43 217.14 221.04 214.87 218.47 213.05 215.74 211.68 213.45 210.94 210.67 210.37 207.40 209.96 203.63 209.71 199.37 209.63 179.27 209.63 Z M 324.93 262.83 L 336.44 266.13 334.68 272.58 332.42 278.38 329.69 283.55 326.46 288.06 322.75 291.94 318.62 295.14 314.14 297.63 309.30 299.41 304.12 300.47 298.57 300.83 292.89 300.56 287.65 299.75 282.84 298.41 278.48 296.52 274.56 294.10 271.03 291.17 267.87 287.76 265.05 283.86 262.59 279.49 260.49 274.63 258.76 269.45 257.41 264.13 256.45 258.65 255.87 253.03 255.68 247.25 255.91 241.04 256.57 235.15 257.67 229.58 259.21 224.34 261.18 219.43 263.55 214.91 266.30 210.84 269.41 207.24 272.89 204.08 276.73 201.39 280.84 199.17 285.12 197.45 289.55 196.21 294.15 195.48 298.91 195.23 304.24 195.55 309.21 196.50 313.83 198.10 318.11 200.33 322.03 203.20 325.55 206.65 328.61 210.62 331.21 215.11 333.36 220.12 335.05 225.65 323.51 228.70 322.08 224.62 320.42 221.00 318.53 217.85 316.41 215.18 314.05 212.97 311.45 211.19 308.59 209.81 305.47 208.82 302.09 208.23 298.46 208.03 294.28 208.25 290.39 208.90 286.78 210.00 283.44 211.53 280.40 213.50 277.66 215.84 275.27 218.48 273.23 221.42 271.53 224.66 270.18 228.20 269.12 231.92 268.30 235.68 267.71 239.48 267.35 243.33 267.22 247.23 267.36 252.15 267.78 256.82 268.47 261.23 269.44 265.38 270.69 269.28 272.24 272.86 274.09 276.06 276.25 278.87 278.73 281.31 281.51 283.37 284.50 285.04 287.58 286.35 290.77 287.28 294.05 287.84 297.43 288.03 301.47 287.77 305.26 287.01 308.80 285.74 312.08 283.96 315.10 281.68 317.81 278.89 320.14 275.61 322.11 271.84 323.70 267.58 324.93 262.83 Z" />
</svg>
