<?xml version="1.0" encoding="utf-8"?>
<!-- Created with "sPlan" (http://www.abacom-online.de) -->
<svg version="1.1" baseProfile="full"
xmlns="http://www.w3.org/2000/svg"
width="50mm" height="50mm"
viewBox="0 0 500 500">
<title>HB</title>
<defs>
<style type="text/css">
<![CDATA[
polyline {stroke-linecap:round; stroke-linejoin:round}
polygon {stroke-linecap:round; stroke-linejoin:round}
path {stroke-linecap:round; stroke-linejoin:round}
circle {stroke-linecap:round; stroke-linejoin:round}
]]>
</style>
</defs>
<polyline points="49.08 50.46 49.08 450.46 449.08 450.46 449.08 50.46 49.08 50.46" fill="none" stroke="rgb(0,0,255)" stroke-width="10" />
<path fill="rgb(0,0,0)" stroke="rgb(0,0,0)" stroke-width="0" d=" M 171.63 299.23 L 171.72 196.83 183.27 196.83 183.24 238.43 232.29 238.43 232.31 196.83 243.86 196.83 243.77 299.23 232.22 299.23 232.27 251.23 183.22 251.23 183.18 299.23 Z M 263.96 299.23 L 264.05 196.83 299.28 196.83 303.41 196.95 307.21 197.31 310.66 197.91 313.77 198.76 316.54 199.84 319.03 201.18 321.29 202.77 323.33 204.62 325.14 206.73 326.73 209.10 328.05 211.63 329.08 214.20 329.82 216.82 330.25 219.49 330.39 222.20 330.27 224.71 329.89 227.17 329.27 229.56 328.41 231.89 327.29 234.17 325.92 236.32 324.30 238.31 322.42 240.12 320.29 241.76 317.90 243.23 320.72 244.51 323.27 246.10 325.55 248.01 327.55 250.24 329.27 252.78 330.71 255.58 331.82 258.57 332.61 261.75 333.08 265.13 333.23 268.70 333.12 271.62 332.79 274.46 332.25 277.21 331.49 279.88 330.50 282.47 329.36 284.89 328.12 287.09 326.77 289.05 325.32 290.77 323.76 292.27 322.08 293.57 320.23 294.75 318.22 295.79 316.05 296.69 313.72 297.47 311.20 298.10 308.46 298.59 305.50 298.95 302.32 299.16 298.92 299.23 Z M 275.57 238.43 L 296.65 238.43 299.89 238.38 302.74 238.25 305.20 238.03 307.27 237.72 308.95 237.33 310.82 236.68 312.50 235.89 313.98 234.94 315.27 233.84 316.36 232.59 317.26 231.20 317.95 229.67 318.45 228.00 318.75 226.20 318.85 224.25 318.76 222.40 318.48 220.64 318.02 218.97 317.37 217.39 316.54 215.90 315.53 214.55 314.37 213.39 313.04 212.40 311.55 211.59 309.90 210.97 307.92 210.48 305.45 210.11 302.48 209.84 299.02 209.68 295.07 209.63 275.59 209.63 Z M 275.53 286.43 L 299.19 286.43 301.48 286.41 303.49 286.35 305.20 286.25 306.62 286.11 307.76 285.93 309.43 285.55 311.00 285.09 312.45 284.53 313.78 283.88 315.01 283.14 316.13 282.29 317.18 281.29 318.14 280.15 319.01 278.87 319.81 277.45 320.49 275.92 321.01 274.29 321.39 272.56 321.61 270.74 321.69 268.83 321.61 266.60 321.35 264.49 320.91 262.50 320.30 260.63 319.50 258.88 318.51 257.29 317.30 255.90 315.87 254.71 314.22 253.73 312.35 252.94 310.19 252.32 307.69 251.85 304.84 251.50 301.64 251.30 298.09 251.23 275.55 251.23 Z" />
</svg>
