<?xml version="1.0" encoding="utf-8"?>
<!-- Created with "sPlan" (http://www.abacom-online.de) -->
<svg version="1.1" baseProfile="full"
xmlns="http://www.w3.org/2000/svg"
width="50mm" height="50mm"
viewBox="0 0 500 500">
<title>inductor</title>
<defs>
<style type="text/css">
<![CDATA[
polyline {stroke-linecap:round; stroke-linejoin:round}
polygon {stroke-linecap:round; stroke-linejoin:round}
path {stroke-linecap:round; stroke-linejoin:round}
circle {stroke-linecap:round; stroke-linejoin:round}
]]>
</style>
</defs>
<polyline points="50.03 250.28 124.16 250.28" fill="none" stroke="rgb(0,0,0)" stroke-width="10" />
<path fill="none" stroke="rgb(0,0,0)" stroke-width="10" d=" M 207.13 250.28 Q 207.12 250.28 206.73 246.24 Q 206.33 242.20 205.15 238.32 Q 203.97 234.44 202.06 230.87 Q 200.15 227.29 197.58 224.16 Q 195.01 221.02 191.87 218.45 Q 188.74 215.88 185.16 213.96 Q 181.58 212.05 177.70 210.88 Q 173.82 209.70 169.79 209.30 Q 165.75 208.90 161.71 209.30 Q 157.68 209.70 153.79 210.88 Q 149.91 212.05 146.34 213.96 Q 142.76 215.88 139.63 218.45 Q 136.49 221.02 133.92 224.16 Q 131.35 227.29 129.44 230.87 Q 127.52 234.44 126.35 238.32 Q 125.17 242.20 124.77 246.24 Q 124.37 250.28 124.37 250.28" />
<path fill="none" stroke="rgb(0,0,0)" stroke-width="10" d=" M 289.88 250.28 Q 289.88 250.28 289.48 246.24 Q 289.08 242.20 287.90 238.32 Q 286.73 234.44 284.81 230.87 Q 282.90 227.29 280.33 224.16 Q 277.76 221.02 274.62 218.45 Q 271.49 215.88 267.91 213.96 Q 264.34 212.05 260.46 210.88 Q 256.57 209.70 252.54 209.30 Q 248.50 208.90 244.46 209.30 Q 240.43 209.70 236.55 210.88 Q 232.67 212.05 229.09 213.96 Q 225.51 215.88 222.38 218.45 Q 219.24 221.02 216.67 224.16 Q 214.10 227.29 212.19 230.87 Q 210.28 234.44 209.10 238.32 Q 207.92 242.20 207.52 246.24 Q 207.12 250.28 207.12 250.28" />
<path fill="none" stroke="rgb(0,0,0)" stroke-width="10" d=" M 372.63 250.28 Q 372.63 250.28 372.23 246.24 Q 371.83 242.20 370.66 238.32 Q 369.48 234.44 367.57 230.87 Q 365.66 227.29 363.08 224.16 Q 360.51 221.02 357.38 218.45 Q 354.24 215.88 350.66 213.96 Q 347.09 212.05 343.21 210.88 Q 339.33 209.70 335.29 209.30 Q 331.25 208.90 327.22 209.30 Q 323.18 209.70 319.30 210.88 Q 315.42 212.05 311.84 213.96 Q 308.27 215.88 305.13 218.45 Q 301.99 221.02 299.42 224.16 Q 296.85 227.29 294.94 230.87 Q 293.03 234.44 291.85 238.32 Q 290.67 242.20 290.28 246.24 Q 289.88 250.28 289.88 250.28" />
<polyline points="372.43 250.28 449.93 250.28" fill="none" stroke="rgb(0,0,0)" stroke-width="10" />
</svg>
