<?xml version="1.0" encoding="utf-8"?>
<!-- Created with "sPlan" (http://www.abacom-online.de) -->
<svg version="1.1" baseProfile="full"
xmlns="http://www.w3.org/2000/svg"
width="50mm" height="50mm"
viewBox="0 0 500 500">
<title>L</title>
<defs>
<style type="text/css">
<![CDATA[
polyline {stroke-linecap:round; stroke-linejoin:round}
polygon {stroke-linecap:round; stroke-linejoin:round}
path {stroke-linecap:round; stroke-linejoin:round}
circle {stroke-linecap:round; stroke-linejoin:round}
]]>
</style>
</defs>
<polyline points="100.12 234.76 83.92 265.52" fill="none" stroke="rgb(0,0,255)" stroke-width="15" />
<polyline points="50.03 250.28 124.16 250.28" fill="none" stroke="rgb(0,0,255)" stroke-width="15" />
<path fill="rgb(255,0,0)" stroke="rgb(255,0,0)" stroke-width="10" d=" M 38 244 C 38 238 44 238 44 238 L 56 238 L 56 238 C 62 238 62 244 62 244 L 62 256 L 62 256 C 62 262 56 262 56 262 L 44 262 L 44 262 C 38 262 38 256 38 256 L 38 244 Z" />
<path fill="none" stroke="rgb(0,0,255)" stroke-width="15" d=" M 206.92 250.28 Q 206.92 250.28 206.52 246.24 Q 206.12 242.20 204.94 238.32 Q 203.77 234.44 201.86 230.87 Q 199.94 227.29 197.37 224.16 Q 194.80 221.02 191.66 218.45 Q 188.53 215.88 184.95 213.96 Q 181.38 212.05 177.50 210.88 Q 173.61 209.70 169.58 209.30 Q 165.54 208.90 161.51 209.30 Q 157.47 209.70 153.59 210.88 Q 149.71 212.05 146.13 213.96 Q 142.55 215.88 139.42 218.45 Q 136.28 221.02 133.71 224.16 Q 131.14 227.29 129.23 230.87 Q 127.32 234.44 126.14 238.32 Q 124.96 242.20 124.56 246.24 Q 124.17 250.28 124.16 250.28" />
<path fill="none" stroke="rgb(0,0,255)" stroke-width="15" d=" M 289.67 250.28 Q 289.67 250.28 289.27 246.24 Q 288.87 242.20 287.70 238.32 Q 286.52 234.44 284.61 230.87 Q 282.70 227.29 280.12 224.16 Q 277.55 221.02 274.42 218.45 Q 271.28 215.88 267.71 213.96 Q 264.13 212.05 260.25 210.88 Q 256.37 209.70 252.33 209.30 Q 248.29 208.90 244.26 209.30 Q 240.22 209.70 236.34 210.88 Q 232.46 212.05 228.88 213.96 Q 225.31 215.88 222.17 218.45 Q 219.04 221.02 216.46 224.16 Q 213.89 227.29 211.98 230.87 Q 210.07 234.44 208.89 238.32 Q 207.71 242.20 207.32 246.24 Q 206.92 250.28 206.92 250.28" />
<path fill="none" stroke="rgb(0,0,255)" stroke-width="15" d=" M 372.43 250.28 Q 372.42 250.28 372.02 246.24 Q 371.63 242.20 370.45 238.32 Q 369.27 234.44 367.36 230.87 Q 365.45 227.29 362.88 224.16 Q 360.30 221.02 357.17 218.45 Q 354.03 215.88 350.46 213.96 Q 346.88 212.05 343.00 210.88 Q 339.12 209.70 335.08 209.30 Q 331.05 208.90 327.01 209.30 Q 322.97 209.70 319.09 210.88 Q 315.21 212.05 311.64 213.96 Q 308.06 215.88 304.92 218.45 Q 301.79 221.02 299.22 224.16 Q 296.64 227.29 294.73 230.87 Q 292.82 234.44 291.64 238.32 Q 290.47 242.20 290.07 246.24 Q 289.67 250.28 289.67 250.28" />
<polyline points="372.43 250.28 449.93 250.28" fill="none" stroke="rgb(0,0,255)" stroke-width="15" />
<path fill="rgb(255,0,0)" stroke="rgb(255,0,0)" stroke-width="10" d=" M 438 244 C 438 238 444 238 444 238 L 456 238 L 456 238 C 462 238 462 244 462 244 L 462 256 L 462 256 C 462 262 456 262 456 262 L 444 262 L 444 262 C 438 262 438 256 438 256 L 438 244 Z" />
</svg>
