<?xml version="1.0" encoding="utf-8"?>
<!-- Created with "sPlan" (http://www.abacom-online.de) -->
<svg version="1.1" baseProfile="full"
xmlns="http://www.w3.org/2000/svg"
width="19mm" height="20mm"
viewBox="0 0 191 209">
<title>MCROSS</title>
<defs>
<style type="text/css">
<![CDATA[
polyline {stroke-linecap:round; stroke-linejoin:round}
polygon {stroke-linecap:round; stroke-linejoin:round}
path {stroke-linecap:round; stroke-linejoin:round}
circle {stroke-linecap:round; stroke-linejoin:round}
]]>
</style>
</defs>
<polyline points="44.56 88.22 61.65 88.22 61.65 78.95 83.47 78.95 83.47 59.05 96.42 59.05 108.11 59.05 108.11 78.79 131.19 78.79 131.19 88.22 146.92 88.22 131.19 88.22 131.19 98.61 108.31 98.61 108.31 118.84 96.29 118.75 84.22 118.75 84.22 98.95 61.65 98.95 61.65 88.22" fill="none" stroke="rgb(0,0,0)" stroke-width="2" />
<path fill="rgb(0,0,0)" stroke="rgb(0,0,0)" stroke-width="0" d=" M 45.75 162.99 L 45.77 143.79 49.48 143.79 53.01 157.32 53.20 158.04 53.37 158.68 53.51 159.24 53.63 159.73 53.73 160.15 53.84 159.69 53.98 159.16 54.13 158.54 54.31 157.85 54.51 157.08 58.00 143.79 61.73 143.79 61.71 162.99 59.54 162.99 59.56 146.19 55.20 162.99 52.27 162.99 47.93 146.19 47.91 162.99 Z M 77.95 156.16 L 80.11 156.78 79.77 157.99 79.35 159.08 78.84 160.05 78.23 160.89 77.54 161.62 76.76 162.22 75.92 162.69 75.02 163.02 74.04 163.22 73.01 163.29 71.94 163.24 70.96 163.08 70.06 162.83 69.24 162.48 68.50 162.03 67.84 161.48 67.25 160.84 66.72 160.11 66.26 159.28 65.86 158.37 65.54 157.40 65.29 156.40 65.11 155.38 65.00 154.32 64.96 153.24 65.01 152.08 65.13 150.97 65.34 149.93 65.62 148.94 65.99 148.02 66.44 147.18 66.95 146.41 67.54 145.74 68.19 145.15 68.91 144.64 69.68 144.23 70.48 143.90 71.31 143.67 72.18 143.53 73.07 143.49 74.07 143.55 75.00 143.73 75.87 144.02 76.67 144.44 77.40 144.98 78.06 145.63 78.64 146.37 79.12 147.21 79.53 148.15 79.84 149.19 77.68 149.76 77.41 149.00 77.10 148.32 76.75 147.73 76.35 147.23 75.91 146.81 75.42 146.48 74.88 146.22 74.30 146.03 73.67 145.92 72.98 145.89 72.20 145.93 71.47 146.05 70.79 146.26 70.17 146.54 69.60 146.91 69.08 147.35 68.64 147.85 68.25 148.40 67.94 149.01 67.68 149.67 67.48 150.37 67.33 151.07 67.22 151.78 67.15 152.51 67.13 153.24 67.15 154.16 67.23 155.03 67.36 155.86 67.54 156.64 67.78 157.37 68.07 158.04 68.41 158.64 68.82 159.17 69.28 159.63 69.81 160.01 70.37 160.33 70.94 160.57 71.54 160.75 72.16 160.85 72.79 160.89 73.55 160.84 74.26 160.70 74.92 160.46 75.54 160.12 76.10 159.70 76.61 159.17 77.05 158.56 77.42 157.85 77.72 157.05 77.95 156.16 Z M 83.08 162.99 L 83.09 143.79 90.55 143.79 91.42 143.81 92.20 143.87 92.89 143.97 93.50 144.12 94.02 144.30 94.47 144.54 94.89 144.85 95.27 145.21 95.61 145.64 95.91 146.14 96.16 146.67 96.36 147.23 96.50 147.81 96.59 148.42 96.61 149.04 96.57 149.84 96.43 150.58 96.19 151.27 95.86 151.91 95.44 152.50 94.92 153.02 94.30 153.46 93.57 153.82 92.74 154.09 91.81 154.29 92.12 154.49 92.40 154.70 92.65 154.91 92.86 155.11 93.04 155.31 93.40 155.76 93.75 156.23 94.10 156.73 94.45 157.24 94.79 157.78 97.68 162.99 95.16 162.99 92.91 159.01 92.53 158.35 92.18 157.76 91.85 157.23 91.56 156.77 91.29 156.37 91.04 156.03 90.80 155.73 90.57 155.49 90.35 155.28 90.15 155.13 89.94 155.00 89.74 154.90 89.53 154.80 89.33 154.73 89.12 154.67 88.94 154.64 88.73 154.62 88.48 154.60 88.19 154.59 87.86 154.59 85.25 154.59 85.24 162.99 Z M 85.25 152.19 L 90.09 152.19 90.69 152.17 91.23 152.13 91.73 152.06 92.17 151.97 92.57 151.85 92.92 151.69 93.23 151.51 93.52 151.29 93.76 151.04 93.97 150.76 94.14 150.45 94.28 150.14 94.37 149.81 94.43 149.48 94.45 149.13 94.41 148.63 94.30 148.18 94.12 147.75 93.87 147.37 93.54 147.02 93.13 146.72 92.64 146.48 92.06 146.32 91.40 146.22 90.65 146.19 85.26 146.19 Z M 99.59 153.64 L 99.68 151.82 99.96 150.16 100.42 148.67 101.07 147.34 101.90 146.18 102.88 145.21 103.96 144.46 105.15 143.92 106.45 143.59 107.86 143.49 108.79 143.54 109.69 143.69 110.55 143.94 111.38 144.30 112.16 144.75 112.89 145.30 113.55 145.92 114.14 146.63 114.65 147.42 115.09 148.28 115.45 149.21 115.73 150.19 115.93 151.22 116.05 152.29 116.09 153.42 116.04 154.56 115.91 155.65 115.70 156.69 115.40 157.68 115.02 158.63 114.56 159.50 114.03 160.29 113.43 160.98 112.76 161.59 112.02 162.10 111.23 162.53 110.41 162.86 109.58 163.10 108.71 163.24 107.83 163.29 106.87 163.23 105.96 163.08 105.09 162.82 104.26 162.45 103.48 161.98 102.75 161.42 102.09 160.78 101.51 160.07 101.00 159.28 100.57 158.42 100.22 157.50 99.94 156.57 99.74 155.61 99.63 154.64 99.59 153.64 Z M 101.75 153.66 L 101.82 154.95 102.02 156.12 102.37 157.18 102.85 158.13 103.47 158.95 104.20 159.65 105.00 160.19 105.87 160.58 106.81 160.81 107.81 160.89 108.84 160.81 109.79 160.57 110.67 160.18 111.47 159.64 112.20 158.94 112.82 158.09 113.30 157.11 113.64 156.01 113.85 154.77 113.92 153.40 113.89 152.52 113.81 151.68 113.66 150.89 113.46 150.14 113.19 149.44 112.87 148.79 112.49 148.21 112.06 147.68 111.58 147.22 111.04 146.82 110.46 146.48 109.86 146.22 109.22 146.03 108.56 145.92 107.87 145.89 106.90 145.96 105.98 146.17 105.12 146.53 104.31 147.03 103.56 147.68 102.91 148.49 102.40 149.50 102.04 150.69 101.82 152.08 101.75 153.66 Z M 118.25 156.39 L 120.41 156.39 120.48 156.95 120.59 157.47 120.73 157.95 120.90 158.39 121.11 158.79 121.35 159.15 121.64 159.48 121.98 159.79 122.37 160.06 122.81 160.31 123.28 160.52 123.78 160.68 124.29 160.79 124.84 160.86 125.40 160.89 125.90 160.87 126.38 160.82 126.83 160.73 127.26 160.61 127.66 160.45 128.04 160.26 128.37 160.04 128.66 159.80 128.91 159.54 129.13 159.24 129.30 158.93 129.43 158.62 129.53 158.30 129.59 157.97 129.61 157.63 129.59 157.30 129.55 156.98 129.48 156.68 129.38 156.40 129.25 156.14 129.08 155.89 128.84 155.65 128.55 155.44 128.19 155.23 127.78 155.05 127.43 154.91 126.94 154.76 126.31 154.57 125.54 154.36 124.63 154.13 123.71 153.88 122.92 153.64 122.24 153.40 121.68 153.17 121.24 152.95 120.77 152.64 120.35 152.31 119.98 151.96 119.67 151.57 119.40 151.16 119.18 150.72 119.01 150.27 118.89 149.79 118.82 149.29 118.79 148.77 118.83 148.20 118.92 147.64 119.07 147.10 119.28 146.57 119.55 146.06 119.88 145.58 120.26 145.14 120.70 144.76 121.19 144.43 121.74 144.14 122.33 143.90 122.95 143.72 123.59 143.59 124.25 143.51 124.95 143.49 125.71 143.51 126.43 143.60 127.11 143.73 127.76 143.92 128.37 144.17 128.94 144.47 129.45 144.82 129.90 145.22 130.31 145.68 130.65 146.18 130.94 146.73 131.17 147.30 131.34 147.90 131.45 148.53 131.51 149.19 129.34 149.19 129.24 148.57 129.06 148.01 128.82 147.52 128.50 147.09 128.12 146.72 127.66 146.42 127.13 146.19 126.51 146.02 125.81 145.92 125.03 145.89 124.23 145.92 123.52 146.02 122.90 146.18 122.37 146.41 121.93 146.71 121.58 147.05 121.31 147.43 121.11 147.82 121.00 148.25 120.96 148.70 120.99 149.09 121.07 149.46 121.21 149.79 121.40 150.09 121.65 150.37 122.01 150.63 122.54 150.90 123.24 151.16 124.12 151.44 125.18 151.71 126.25 151.98 127.16 152.23 127.93 152.47 128.54 152.70 129.01 152.91 129.54 153.24 130.02 153.59 130.44 153.98 130.80 154.40 131.10 154.86 131.34 155.34 131.53 155.86 131.66 156.40 131.74 156.97 131.77 157.57 131.74 158.17 131.65 158.76 131.49 159.34 131.27 159.90 130.99 160.44 130.65 160.96 130.26 161.43 129.81 161.84 129.31 162.22 128.76 162.54 128.16 162.81 127.54 163.02 126.88 163.17 126.20 163.26 125.49 163.29 124.59 163.25 123.76 163.16 122.99 163.00 122.27 162.77 121.62 162.48 121.02 162.12 120.48 161.70 119.99 161.22 119.56 160.67 119.18 160.05 118.86 159.39 118.60 158.69 118.42 157.95 118.30 157.19 118.25 156.39 Z M 134.20 156.39 L 136.37 156.39 136.44 156.95 136.55 157.47 136.69 157.95 136.86 158.39 137.07 158.79 137.31 159.15 137.60 159.48 137.94 159.79 138.33 160.06 138.77 160.31 139.24 160.52 139.73 160.68 140.25 160.79 140.79 160.86 141.36 160.89 141.86 160.87 142.34 160.82 142.79 160.73 143.22 160.61 143.62 160.45 144.00 160.26 144.33 160.04 144.62 159.80 144.87 159.54 145.09 159.24 145.26 158.93 145.39 158.62 145.49 158.30 145.55 157.97 145.56 157.63 145.55 157.30 145.51 156.98 145.44 156.68 145.34 156.40 145.21 156.14 145.03 155.89 144.80 155.65 144.51 155.44 144.15 155.23 143.74 155.05 143.39 154.91 142.89 154.76 142.26 154.57 141.50 154.36 140.59 154.13 139.67 153.88 138.87 153.64 138.20 153.40 137.64 153.17 137.20 152.95 136.73 152.64 136.31 152.31 135.94 151.96 135.63 151.57 135.36 151.16 135.14 150.72 134.97 150.27 134.85 149.79 134.78 149.29 134.75 148.77 134.79 148.20 134.88 147.64 135.03 147.10 135.24 146.57 135.51 146.06 135.84 145.58 136.22 145.14 136.66 144.76 137.15 144.43 137.70 144.14 138.29 143.90 138.90 143.72 139.55 143.59 140.21 143.51 140.91 143.49 141.67 143.51 142.39 143.60 143.07 143.73 143.72 143.92 144.33 144.17 144.90 144.47 145.41 144.82 145.86 145.22 146.26 145.68 146.61 146.18 146.90 146.73 147.13 147.30 147.30 147.90 147.41 148.53 147.47 149.19 145.30 149.19 145.20 148.57 145.02 148.01 144.78 147.52 144.46 147.09 144.08 146.72 143.62 146.42 143.09 146.19 142.47 146.02 141.77 145.92 140.99 145.89 140.19 145.92 139.48 146.02 138.86 146.18 138.33 146.41 137.89 146.71 137.54 147.05 137.27 147.43 137.07 147.82 136.96 148.25 136.92 148.70 136.95 149.09 137.03 149.46 137.17 149.79 137.36 150.09 137.61 150.37 137.96 150.63 138.50 150.90 139.20 151.16 140.08 151.44 141.14 151.71 142.20 151.98 143.12 152.23 143.89 152.47 144.50 152.70 144.96 152.91 145.50 153.24 145.98 153.59 146.40 153.98 146.76 154.40 147.06 154.86 147.30 155.34 147.49 155.86 147.62 156.40 147.70 156.97 147.73 157.57 147.70 158.17 147.60 158.76 147.45 159.34 147.23 159.90 146.95 160.44 146.61 160.96 146.22 161.43 145.77 161.84 145.27 162.22 144.72 162.54 144.12 162.81 143.49 163.02 142.84 163.17 142.16 163.26 141.44 163.29 140.55 163.25 139.72 163.16 138.95 163.00 138.23 162.77 137.58 162.48 136.98 162.12 136.44 161.70 135.95 161.22 135.52 160.67 135.14 160.05 134.82 159.39 134.56 158.69 134.38 157.95 134.26 157.19 134.20 156.39 Z" />
<path fill="rgb(255,0,0)" stroke="rgb(255,0,0)" stroke-width="2" d=" M 143 86 C 143 85 145 85 145 85 L 149 85 L 149 85 C 150 85 150 86 150 86 L 150 90 L 150 90 C 150 92 149 92 149 92 L 145 92 L 145 92 C 143 92 143 90 143 90 L 143 86 Z" />
<path fill="rgb(255,0,0)" stroke="rgb(255,0,0)" stroke-width="2" d=" M 41 86 C 41 85 43 85 43 85 L 46 85 L 46 85 C 48 85 48 86 48 86 L 48 90 L 48 90 C 48 92 46 92 46 92 L 43 92 L 43 92 C 41 92 41 90 41 90 L 41 86 Z" />
<polyline points="96.42 59.05 96.42 44.56" fill="none" stroke="rgb(0,0,0)" stroke-width="2" />
<path fill="rgb(255,0,0)" stroke="rgb(255,0,0)" stroke-width="2" d=" M 93 43 C 93 41 95 41 95 41 L 98 41 L 98 41 C 100 41 100 43 100 43 L 100 46 L 100 46 C 100 48 98 48 98 48 L 95 48 L 95 48 C 93 48 93 46 93 46 L 93 43 Z" />
<polyline points="96.29 118.75 96.29 134.90" fill="none" stroke="rgb(0,0,0)" stroke-width="2" />
<path fill="rgb(255,0,0)" stroke="rgb(255,0,0)" stroke-width="2" d=" M 93 133 C 93 131 95 131 95 131 L 98 131 L 98 131 C 100 131 100 133 100 133 L 100 137 L 100 137 C 100 138 98 138 98 138 L 95 138 L 95 138 C 93 138 93 137 93 137 L 93 133 Z" />
<polyline points="56.28 83.75 51.57 92.78" fill="none" stroke="rgb(0,0,0)" stroke-width="2" />
</svg>
