<?xml version="1.0" encoding="utf-8"?>
<!-- Created with "sPlan" (http://www.abacom-online.de) -->
<svg version="1.1" baseProfile="full"
xmlns="http://www.w3.org/2000/svg"
width="50mm" height="50mm"
viewBox="0 0 500 500">
<title>MSUBQS</title>
<defs>
<style type="text/css">
<![CDATA[
polyline {stroke-linecap:round; stroke-linejoin:round}
polygon {stroke-linecap:round; stroke-linejoin:round}
path {stroke-linecap:round; stroke-linejoin:round}
circle {stroke-linecap:round; stroke-linejoin:round}
]]>
</style>
</defs>
<polyline points="49.08 50.46 49.08 450.46 449.08 450.46 449.08 50.46 49.08 50.46" fill="none" stroke="rgb(0,0,255)" stroke-width="10" />
<path fill="rgb(0,0,0)" stroke="rgb(0,0,0)" stroke-width="0" d=" M 76.18 245.23 L 76.27 142.83 96.06 142.83 114.92 215.00 115.92 218.83 116.80 222.25 117.57 225.27 118.22 227.88 118.76 230.08 119.35 227.65 120.05 224.80 120.88 221.54 121.82 217.85 122.88 213.75 141.52 142.83 161.38 142.83 161.29 245.23 149.75 245.23 149.84 155.63 126.55 245.23 110.93 245.23 87.81 155.63 87.72 245.23 Z M 178.62 210.03 L 190.17 210.03 190.57 213.04 191.14 215.82 191.88 218.39 192.80 220.72 193.88 222.84 195.19 224.77 196.74 226.54 198.56 228.16 200.63 229.63 202.96 230.94 205.48 232.05 208.12 232.92 210.88 233.53 213.77 233.91 216.79 234.03 219.45 233.94 222.00 233.65 224.41 233.19 226.70 232.53 228.86 231.69 230.85 230.69 232.62 229.54 234.18 228.26 235.53 226.83 236.66 225.27 237.58 223.61 238.29 221.93 238.81 220.21 239.11 218.46 239.21 216.68 239.14 214.90 238.91 213.20 238.53 211.61 238.00 210.10 237.31 208.69 236.39 207.37 235.14 206.12 233.58 204.96 231.69 203.88 229.48 202.88 227.59 202.18 224.97 201.34 221.61 200.36 217.51 199.25 212.67 197.99 207.78 196.68 203.53 195.39 199.91 194.13 196.93 192.89 194.58 191.68 192.09 190.07 189.86 188.31 187.89 186.40 186.20 184.35 184.78 182.15 183.62 179.83 182.72 177.39 182.07 174.85 181.68 172.19 181.55 169.43 181.72 166.37 182.21 163.39 183.01 160.49 184.14 157.68 185.58 154.94 187.33 152.38 189.37 150.07 191.71 148.03 194.34 146.24 197.27 144.72 200.41 143.46 203.69 142.48 207.11 141.79 210.68 141.37 214.37 141.23 218.42 141.37 222.26 141.81 225.91 142.54 229.37 143.56 232.63 144.88 235.65 146.48 238.38 148.35 240.81 150.49 242.95 152.91 244.79 155.60 246.34 158.51 247.56 161.56 248.48 164.77 249.07 168.12 249.36 171.63 237.82 171.63 237.25 168.32 236.31 165.35 235.00 162.72 233.33 160.43 231.29 158.48 228.85 156.88 225.99 155.63 222.70 154.74 218.98 154.21 214.83 154.03 210.54 154.20 206.74 154.73 203.43 155.61 200.62 156.84 198.29 158.43 196.42 160.26 194.97 162.24 193.93 164.37 193.30 166.64 193.10 169.05 193.24 171.14 193.68 173.07 194.42 174.84 195.45 176.46 196.77 177.93 198.68 179.33 201.51 180.75 205.28 182.18 209.98 183.62 215.60 185.08 221.29 186.50 226.18 187.86 230.26 189.14 233.54 190.36 236.01 191.50 238.88 193.23 241.44 195.13 243.67 197.21 245.59 199.46 247.18 201.88 248.48 204.47 249.48 207.21 250.19 210.10 250.62 213.15 250.76 216.35 250.59 219.57 250.09 222.70 249.26 225.77 248.10 228.75 246.61 231.67 244.80 234.41 242.71 236.90 240.33 239.14 237.66 241.12 234.70 242.84 231.51 244.28 228.17 245.39 224.68 246.19 221.04 246.67 217.24 246.83 212.47 246.66 208.03 246.14 203.91 245.28 200.11 244.08 196.62 242.53 193.44 240.63 190.55 238.39 187.95 235.80 185.63 232.86 183.59 229.58 181.88 226.03 180.53 222.30 179.54 218.39 178.90 214.30 178.62 210.03 Z M 328.72 142.83 L 340.27 142.83 340.22 201.90 340.09 207.82 339.70 213.23 339.07 218.12 338.19 222.51 337.05 226.39 335.60 229.88 333.74 233.10 331.47 236.05 328.81 238.73 325.75 241.14 322.28 243.19 318.41 244.78 314.12 245.92 309.43 246.60 304.34 246.83 299.37 246.63 294.77 246.04 290.56 245.05 286.71 243.66 283.25 241.88 280.16 239.72 277.45 237.21 275.11 234.34 273.15 231.12 271.56 227.54 270.30 223.51 269.33 218.93 268.63 213.81 268.22 208.13 268.09 201.90 268.13 142.83 279.68 142.83 279.63 201.45 279.71 206.47 279.98 210.94 280.43 214.84 281.07 218.18 281.88 220.97 282.93 223.36 284.23 225.52 285.79 227.45 287.61 229.15 289.70 230.63 292.01 231.85 294.52 232.80 297.23 233.48 300.14 233.89 303.25 234.03 308.42 233.76 312.96 232.95 316.87 231.61 320.15 229.72 322.81 227.30 324.91 224.12 326.56 219.94 327.73 214.77 328.44 208.61 328.68 201.45 Z M 360.37 245.23 L 360.46 142.83 395.69 142.83 399.83 142.95 403.62 143.31 407.07 143.91 410.18 144.76 412.95 145.84 415.44 147.18 417.70 148.77 419.74 150.62 421.55 152.73 423.14 155.10 424.46 157.63 425.49 160.20 426.23 162.82 426.66 165.49 426.80 168.20 426.68 170.71 426.30 173.17 425.68 175.56 424.82 177.89 423.70 180.17 422.33 182.32 420.71 184.31 418.83 186.12 416.70 187.76 414.31 189.23 417.13 190.51 419.68 192.10 421.96 194.01 423.96 196.24 425.68 198.78 427.12 201.58 428.23 204.57 429.02 207.75 429.49 211.13 429.64 214.70 429.53 217.62 429.20 220.46 428.66 223.21 427.90 225.88 426.91 228.47 425.77 230.89 424.53 233.09 423.18 235.05 421.73 236.77 420.17 238.27 418.49 239.57 416.64 240.75 414.63 241.79 412.46 242.69 410.13 243.47 407.61 244.10 404.87 244.59 401.91 244.95 398.73 245.16 395.33 245.23 Z M 371.98 184.43 L 393.06 184.43 396.30 184.38 399.15 184.25 401.61 184.03 403.68 183.72 405.36 183.33 407.23 182.68 408.91 181.89 410.39 180.94 411.68 179.84 412.77 178.59 413.67 177.20 414.36 175.67 414.86 174.00 415.16 172.20 415.26 170.25 415.17 168.40 414.89 166.64 414.43 164.97 413.78 163.39 412.95 161.90 411.94 160.55 410.78 159.39 409.45 158.40 407.96 157.59 406.31 156.97 404.33 156.48 401.86 156.11 398.89 155.84 395.43 155.68 391.48 155.63 372.00 155.63 Z M 371.94 232.43 L 395.60 232.43 397.89 232.41 399.90 232.35 401.61 232.25 403.03 232.11 404.17 231.93 405.84 231.55 407.41 231.09 408.86 230.53 410.19 229.88 411.42 229.14 412.54 228.29 413.59 227.29 414.55 226.15 415.42 224.87 416.22 223.45 416.90 221.92 417.42 220.29 417.80 218.56 418.02 216.74 418.10 214.83 418.02 212.60 417.76 210.49 417.32 208.50 416.71 206.63 415.91 204.88 414.92 203.29 413.71 201.90 412.28 200.71 410.63 199.73 408.76 198.94 406.60 198.32 404.10 197.85 401.25 197.50 398.05 197.30 394.50 197.23 371.96 197.23 Z" />
<path fill="rgb(0,0,0)" stroke="rgb(0,0,0)" stroke-width="0" d=" M 339.56 420.52 L 342.60 423.29 345.55 425.74 348.41 427.87 351.18 429.69 353.85 431.20 350.74 440.57 346.93 438.88 343.12 436.83 339.32 434.44 335.52 431.69 331.74 428.60 327.59 430.69 323.28 432.31 318.79 433.47 314.14 434.17 309.31 434.40 304.45 434.13 299.77 433.33 295.28 431.99 290.96 430.12 286.83 427.71 282.98 424.82 279.50 421.49 276.40 417.73 273.67 413.54 271.31 408.91 269.36 403.94 267.84 398.73 266.76 393.27 266.11 387.57 265.89 381.62 266.12 375.69 266.78 369.98 267.87 364.48 269.40 359.20 271.36 354.14 273.72 349.42 276.45 345.17 279.54 341.40 283.00 338.10 286.83 335.27 290.94 332.94 295.24 331.13 299.73 329.83 304.41 329.06 309.28 328.80 314.20 329.06 318.92 329.86 323.44 331.18 327.76 333.04 331.88 335.42 335.72 338.29 339.17 341.57 342.23 345.28 344.91 349.42 347.21 353.97 349.10 358.87 350.57 364.00 351.62 369.38 352.25 375.01 352.45 380.87 352.32 385.75 351.94 390.43 351.29 394.90 350.39 399.18 349.24 403.25 347.82 407.12 346.15 410.78 344.21 414.23 342.01 417.48 339.56 420.52 Z M 312.51 403.50 L 316.61 404.94 320.42 406.63 323.93 408.57 327.14 410.77 330.04 413.22 333.95 408.58 336.99 403.09 339.16 396.75 340.47 389.56 340.91 381.52 340.76 376.84 340.31 372.39 339.55 368.19 338.48 364.23 337.10 360.51 335.43 357.08 333.47 353.97 331.23 351.18 328.70 348.71 325.90 346.56 322.88 344.77 319.71 343.39 316.40 342.39 312.95 341.80 309.35 341.60 304.04 342.00 299.10 343.20 294.54 345.21 290.35 348.02 286.53 351.64 283.26 356.05 280.72 361.25 278.90 367.24 277.80 374.02 277.43 381.60 277.78 388.97 278.85 395.62 280.64 401.55 283.14 406.77 286.36 411.26 290.14 414.98 294.32 417.88 298.89 419.94 303.87 421.19 309.24 421.60 311.85 421.49 314.40 421.18 316.89 420.65 319.32 419.92 321.68 418.97 319.36 417.47 316.98 416.16 314.55 415.02 312.07 414.07 309.53 413.30 Z M 365.41 397.60 L 376.95 397.60 377.35 400.61 377.93 403.39 378.67 405.96 379.59 408.29 380.67 410.41 381.97 412.34 383.53 414.11 385.34 415.73 387.42 417.20 389.74 418.51 392.26 419.62 394.91 420.49 397.67 421.10 400.56 421.48 403.57 421.60 406.24 421.51 408.78 421.22 411.20 420.76 413.48 420.10 415.64 419.26 417.63 418.26 419.41 417.11 420.97 415.83 422.31 414.40 423.44 412.84 424.36 411.18 425.08 409.50 425.59 407.78 425.90 406.03 426.00 404.25 425.93 402.47 425.70 400.77 425.32 399.18 424.78 397.67 424.10 396.26 423.17 394.94 421.93 393.69 420.36 392.53 418.47 391.45 416.26 390.45 414.38 389.75 411.76 388.91 408.40 387.93 404.30 386.82 399.46 385.56 394.57 384.25 390.32 382.96 386.70 381.70 383.72 380.46 381.37 379.25 378.87 377.64 376.64 375.88 374.68 373.97 372.99 371.92 371.57 369.72 370.40 367.40 369.50 364.96 368.86 362.42 368.47 359.76 368.34 357.00 368.51 353.94 369.00 350.96 369.80 348.06 370.92 345.25 372.37 342.51 374.11 339.95 376.16 337.64 378.49 335.60 381.13 333.81 384.05 332.29 387.20 331.03 390.48 330.05 393.90 329.36 397.46 328.94 401.16 328.80 405.20 328.94 409.05 329.38 412.70 330.11 416.16 331.13 419.42 332.45 422.44 334.05 425.16 335.92 427.60 338.06 429.73 340.48 431.58 343.17 433.12 346.08 434.35 349.13 435.26 352.34 435.86 355.69 436.14 359.20 424.60 359.20 424.03 355.89 423.09 352.92 421.79 350.29 420.12 348.00 418.08 346.05 415.64 344.45 412.78 343.20 409.48 342.31 405.76 341.78 401.61 341.60 397.32 341.77 393.52 342.30 390.22 343.18 387.40 344.41 385.08 346.00 383.21 347.83 381.75 349.81 380.71 351.94 380.09 354.21 379.88 356.62 380.03 358.71 380.47 360.64 381.21 362.41 382.23 364.03 383.56 365.50 385.46 366.90 388.30 368.32 392.07 369.75 396.76 371.19 402.39 372.65 408.08 374.07 412.96 375.43 417.05 376.71 420.33 377.93 422.80 379.07 425.67 380.80 428.22 382.70 430.46 384.78 432.37 387.03 433.97 389.45 435.26 392.04 436.27 394.78 436.98 397.67 437.41 400.72 437.54 403.92 437.38 407.14 436.88 410.27 436.05 413.34 434.89 416.32 433.40 419.24 431.59 421.98 429.50 424.47 427.12 426.71 424.44 428.69 421.48 430.41 418.30 431.85 414.96 432.96 411.47 433.76 407.82 434.24 404.02 434.40 399.26 434.23 394.82 433.71 390.70 432.85 386.89 431.65 383.41 430.10 380.23 428.20 377.34 425.96 374.73 423.37 372.41 420.43 370.38 417.15 368.67 413.60 367.32 409.87 366.33 405.96 365.69 401.87 365.41 397.60 Z" />
</svg>
