<?xml version="1.0" encoding="utf-8"?>
<!-- Created with "sPlan" (http://www.abacom-online.de) -->
<svg version="1.1" baseProfile="full"
xmlns="http://www.w3.org/2000/svg"
width="50mm" height="50mm"
viewBox="0 0 500 500">
<title>NOISE</title>
<defs>
<style type="text/css">
<![CDATA[
polyline {stroke-linecap:round; stroke-linejoin:round}
polygon {stroke-linecap:round; stroke-linejoin:round}
path {stroke-linecap:round; stroke-linejoin:round}
circle {stroke-linecap:round; stroke-linejoin:round}
]]>
</style>
</defs>
<polyline points="49.08 50.46 49.08 450.46 449.08 450.46 449.08 50.46 49.08 50.46" fill="none" stroke="rgb(0,0,255)" stroke-width="10" />
<path fill="rgb(0,0,0)" stroke="rgb(0,0,0)" stroke-width="0" d=" M 59.18 299.23 L 59.27 196.83 71.62 196.83 119.79 277.95 119.86 196.83 131.40 196.83 131.31 299.23 118.95 299.23 70.78 218.08 70.72 299.23 Z M 147.22 249.38 L 147.72 239.66 149.21 230.82 151.67 222.87 155.13 215.79 159.56 209.60 164.77 204.43 170.56 200.40 176.91 197.53 183.84 195.80 191.33 195.23 196.33 195.50 201.12 196.31 205.72 197.66 210.11 199.55 214.30 201.98 218.20 204.89 221.71 208.23 224.83 212.00 227.55 216.19 229.89 220.80 231.82 225.76 233.31 230.98 234.38 236.46 235.01 242.20 235.22 248.20 234.99 254.28 234.30 260.10 233.17 265.65 231.58 270.95 229.54 275.98 227.09 280.64 224.26 284.83 221.06 288.54 217.48 291.77 213.53 294.53 209.32 296.80 204.98 298.56 200.51 299.82 195.91 300.58 191.18 300.83 186.09 300.55 181.23 299.71 176.59 298.32 172.17 296.37 167.97 293.87 164.08 290.88 160.59 287.48 157.49 283.68 154.79 279.48 152.48 274.87 150.59 269.99 149.12 265.01 148.06 259.91 147.43 254.70 147.22 249.38 Z M 158.76 249.50 L 159.12 256.37 160.22 262.62 162.06 268.27 164.64 273.30 167.96 277.73 171.83 281.44 176.09 284.32 180.72 286.38 185.72 287.62 191.11 288.03 196.59 287.61 201.66 286.36 206.34 284.28 210.61 281.37 214.48 277.63 217.79 273.12 220.36 267.91 222.20 262.01 223.30 255.40 223.68 248.10 223.53 243.39 223.07 238.92 222.29 234.69 221.19 230.71 219.78 226.98 218.07 223.53 216.07 220.41 213.78 217.61 211.20 215.14 208.33 212.99 205.24 211.20 202.01 209.82 198.62 208.82 195.09 208.23 191.40 208.03 186.21 208.41 181.32 209.56 176.72 211.47 172.42 214.15 168.42 217.59 164.95 221.93 162.25 227.29 160.32 233.67 159.16 241.08 158.76 249.50 Z M 252.49 299.23 L 252.58 196.83 264.12 196.83 264.03 299.23 Z M 282.80 264.03 L 294.35 264.03 294.75 267.04 295.32 269.82 296.06 272.39 296.98 274.72 298.07 276.84 299.37 278.77 300.92 280.54 302.74 282.16 304.81 283.63 307.14 284.94 309.66 286.05 312.30 286.92 315.06 287.53 317.95 287.91 320.97 288.03 323.64 287.94 326.18 287.65 328.59 287.19 330.88 286.53 333.04 285.69 335.03 284.69 336.80 283.54 338.36 282.26 339.71 280.83 340.84 279.27 341.76 277.61 342.47 275.93 342.99 274.21 343.29 272.46 343.39 270.68 343.32 268.90 343.09 267.20 342.71 265.61 342.18 264.10 341.49 262.69 340.57 261.37 339.32 260.12 337.76 258.96 335.87 257.88 333.66 256.88 331.77 256.18 329.15 255.34 325.79 254.36 321.69 253.25 316.85 251.99 311.96 250.68 307.71 249.39 304.09 248.13 301.11 246.89 298.76 245.68 296.27 244.07 294.04 242.31 292.07 240.40 290.38 238.35 288.96 236.15 287.80 233.83 286.90 231.39 286.25 228.85 285.86 226.19 285.74 223.43 285.90 220.37 286.39 217.39 287.19 214.49 288.32 211.68 289.76 208.94 291.51 206.38 293.55 204.07 295.89 202.03 298.52 200.24 301.45 198.72 304.59 197.46 307.87 196.48 311.29 195.79 314.86 195.37 318.55 195.23 322.60 195.37 326.44 195.81 330.09 196.54 333.55 197.56 336.81 198.88 339.83 200.48 342.56 202.35 344.99 204.49 347.13 206.91 348.97 209.60 350.52 212.51 351.74 215.56 352.66 218.77 353.25 222.12 353.54 225.63 342.00 225.63 341.43 222.32 340.49 219.35 339.18 216.72 337.51 214.43 335.47 212.48 333.04 210.88 330.17 209.63 326.88 208.74 323.16 208.21 319.01 208.03 314.72 208.20 310.92 208.73 307.61 209.61 304.80 210.84 302.47 212.43 300.60 214.26 299.15 216.24 298.11 218.37 297.48 220.64 297.28 223.05 297.42 225.14 297.86 227.07 298.60 228.84 299.63 230.46 300.95 231.93 302.86 233.33 305.69 234.75 309.46 236.18 314.16 237.62 319.78 239.08 325.47 240.50 330.36 241.86 334.44 243.14 337.72 244.36 340.19 245.50 343.06 247.23 345.62 249.13 347.85 251.21 349.77 253.46 351.36 255.88 352.66 258.47 353.66 261.21 354.38 264.10 354.80 267.15 354.94 270.35 354.77 273.57 354.27 276.70 353.44 279.77 352.28 282.75 350.79 285.67 348.98 288.41 346.89 290.90 344.51 293.14 341.84 295.12 338.88 296.84 335.69 298.28 332.35 299.39 328.86 300.19 325.22 300.67 321.42 300.83 316.65 300.66 312.21 300.14 308.09 299.28 304.29 298.08 300.80 296.53 297.62 294.63 294.73 292.39 292.13 289.80 289.81 286.86 287.78 283.58 286.07 280.03 284.71 276.30 283.72 272.39 283.08 268.30 282.80 264.03 Z M 372.22 299.23 L 372.32 196.83 438.68 196.83 438.68 209.63 383.86 209.63 383.81 240.03 435.75 240.03 435.75 252.83 383.81 252.83 383.79 286.43 440.05 286.43 440.03 299.23 Z" />
</svg>
