<?xml version="1.0" encoding="utf-8"?>
<!-- Created with "sPlan" (http://www.abacom-online.de) -->
<svg version="1.1" baseProfile="full"
xmlns="http://www.w3.org/2000/svg"
width="50mm" height="50mm"
viewBox="0 0 500 500">
<title>PLCQ</title>
<defs>
<style type="text/css">
<![CDATA[
polyline {stroke-linecap:round; stroke-linejoin:round}
polygon {stroke-linecap:round; stroke-linejoin:round}
path {stroke-linecap:round; stroke-linejoin:round}
circle {stroke-linecap:round; stroke-linejoin:round}
]]>
</style>
</defs>
<polyline points="100.12 234.76 83.92 265.52" fill="none" stroke="rgb(0,0,255)" stroke-width="15" />
<polyline points="50.03 250.28 120.04 250.28" fill="none" stroke="rgb(0,0,255)" stroke-width="15" />
<path fill="rgb(255,0,0)" stroke="rgb(255,0,0)" stroke-width="10" d=" M 38 244 C 38 238 44 238 44 238 L 56 238 L 56 238 C 62 238 62 244 62 244 L 62 256 L 62 256 C 62 262 56 262 56 262 L 44 262 L 44 262 C 38 262 38 256 38 256 L 38 244 Z" />
<path fill="none" stroke="rgb(0,0,255)" stroke-width="15" d=" M 218.44 130.18 Q 218.44 130.18 218.13 127.10 Q 217.83 124.02 216.93 121.06 Q 216.03 118.10 214.57 115.37 Q 213.12 112.64 211.15 110.25 Q 209.19 107.86 206.80 105.90 Q 204.41 103.93 201.68 102.48 Q 198.95 101.02 195.99 100.12 Q 193.03 99.22 189.95 98.92 Q 186.87 98.61 183.79 98.92 Q 180.71 99.22 177.75 100.12 Q 174.79 101.02 172.06 102.48 Q 169.33 103.93 166.94 105.90 Q 164.54 107.86 162.58 110.25 Q 160.62 112.64 159.16 115.37 Q 157.70 118.10 156.80 121.06 Q 155.90 124.02 155.60 127.10 Q 155.30 130.18 155.30 130.18" />
<path fill="none" stroke="rgb(0,0,255)" stroke-width="15" d=" M 281.58 130.18 Q 281.58 130.18 281.28 127.10 Q 280.97 124.02 280.07 121.06 Q 279.17 118.10 277.72 115.37 Q 276.26 112.64 274.29 110.25 Q 272.33 107.86 269.94 105.90 Q 267.55 103.93 264.82 102.48 Q 262.09 101.02 259.13 100.12 Q 256.17 99.22 253.09 98.92 Q 250.01 98.61 246.93 98.92 Q 243.85 99.22 240.89 100.12 Q 237.93 101.02 235.20 102.48 Q 232.47 103.93 230.08 105.90 Q 227.68 107.86 225.72 110.25 Q 223.76 112.64 222.30 115.37 Q 220.84 118.10 219.94 121.06 Q 219.05 124.02 218.74 127.10 Q 218.44 130.18 218.44 130.18" />
<path fill="none" stroke="rgb(0,0,255)" stroke-width="15" d=" M 344.57 130.18 Q 344.57 130.18 344.26 127.10 Q 343.96 124.02 343.06 121.06 Q 342.16 118.10 340.70 115.37 Q 339.25 112.64 337.28 110.25 Q 335.32 107.86 332.93 105.90 Q 330.54 103.93 327.81 102.48 Q 325.08 101.02 322.12 100.12 Q 319.16 99.22 316.08 98.92 Q 313.00 98.61 309.92 98.92 Q 306.84 99.22 303.88 100.12 Q 300.91 101.02 298.19 102.48 Q 295.46 103.93 293.06 105.90 Q 290.67 107.86 288.71 110.25 Q 286.75 112.64 285.29 115.37 Q 283.83 118.10 282.93 121.06 Q 282.03 124.02 281.73 127.10 Q 281.43 130.18 281.43 130.18" />
<polyline points="380.02 249.92 450.07 249.92" fill="none" stroke="rgb(0,0,255)" stroke-width="15" />
<path fill="none" stroke="rgb(0,0,255)" stroke-width="15" d=" M 215 302 C 253 370 215 438 215 438" />
<polyline points="273.02 302.42 273.02 437.56" fill="none" stroke="rgb(0,0,255)" stroke-width="15" />
<path fill="rgb(255,0,0)" stroke="rgb(255,0,0)" stroke-width="10" d=" M 438 244 C 438 238 444 238 444 238 L 456 238 L 456 238 C 462 238 462 244 462 244 L 462 256 L 462 256 C 462 262 456 262 456 262 L 444 262 L 444 262 C 438 262 438 256 438 256 L 438 244 Z" />
<polyline points="230.04 370.28 120.04 370.28 120.04 250.28" fill="none" stroke="rgb(0,0,255)" stroke-width="15" />
<polyline points="274.21 370.22 380.02 370.22 380.02 249.92" fill="none" stroke="rgb(0,0,255)" stroke-width="15" />
<polyline points="120.04 250.28 120.04 130.18 155.14 130.18" fill="none" stroke="rgb(0,0,255)" stroke-width="15" />
<polyline points="380.02 249.92 380.02 130.18 344.72 130.18" fill="none" stroke="rgb(0,0,255)" stroke-width="15" />
<path fill="rgb(0,0,0)" stroke="rgb(0,0,0)" stroke-width="0" d=" M 477.04 111.18 L 480.08 113.95 483.04 116.40 485.89 118.53 488.66 120.35 491.33 121.86 488.22 131.23 484.41 129.54 480.60 127.49 476.80 125.10 473.01 122.35 469.22 119.26 465.07 121.35 460.76 122.97 456.27 124.13 451.62 124.83 446.79 125.06 441.93 124.79 437.25 123.99 432.76 122.65 428.45 120.78 424.32 118.37 420.46 115.48 416.99 112.15 413.88 108.39 411.15 104.20 408.80 99.57 406.84 94.60 405.33 89.39 404.24 83.93 403.59 78.23 403.38 72.28 403.60 66.35 404.26 60.64 405.35 55.14 406.88 49.86 408.84 44.80 411.20 40.08 413.93 35.83 417.03 32.06 420.49 28.76 424.32 25.93 428.42 23.60 432.72 21.79 437.21 20.49 441.89 19.72 446.77 19.46 451.68 19.72 456.40 20.52 460.92 21.84 465.24 23.70 469.36 26.08 473.20 28.95 476.65 32.23 479.71 35.94 482.39 40.08 484.69 44.63 486.59 49.53 488.06 54.66 489.10 60.04 489.73 65.67 489.93 71.53 489.80 76.41 489.42 81.09 488.78 85.56 487.88 89.84 486.72 93.91 485.31 97.78 483.63 101.44 481.69 104.89 479.50 108.14 477.04 111.18 Z M 449.99 94.16 L 454.10 95.60 457.90 97.29 461.41 99.23 464.62 101.43 467.53 103.88 471.43 99.24 474.47 93.75 476.64 87.41 477.95 80.22 478.39 72.18 478.25 67.49 477.79 63.05 477.03 58.85 475.96 54.89 474.58 51.17 472.91 47.74 470.95 44.62 468.71 41.83 466.19 39.37 463.38 37.22 460.36 35.43 457.19 34.04 453.88 33.05 450.43 32.46 446.83 32.26 441.52 32.66 436.58 33.86 432.02 35.87 427.83 38.68 424.01 42.30 420.74 46.71 418.20 51.91 416.38 57.90 415.29 64.68 414.92 72.26 415.27 79.63 416.33 86.28 418.12 92.21 420.62 97.43 423.84 101.92 427.62 105.64 431.80 108.54 436.37 110.60 441.35 111.84 446.72 112.26 449.33 112.15 451.88 111.84 454.37 111.31 456.80 110.58 459.16 109.63 456.84 108.13 454.46 106.82 452.03 105.68 449.55 104.73 447.01 103.96 Z" />
</svg>
