<?xml version="1.0" encoding="utf-8"?>
<!-- Created with "sPlan" (http://www.abacom-online.de) -->
<svg version="1.1" baseProfile="full"
xmlns="http://www.w3.org/2000/svg"
width="50mm" height="50mm"
viewBox="0 0 500 500">
<title>simulations</title>
<defs>
<style type="text/css">
<![CDATA[
polyline {stroke-linecap:round; stroke-linejoin:round}
polygon {stroke-linecap:round; stroke-linejoin:round}
path {stroke-linecap:round; stroke-linejoin:round}
circle {stroke-linecap:round; stroke-linejoin:round}
]]>
</style>
</defs>
<polyline points="49.08 50.46 49.08 450.46 449.08 450.46 449.08 50.46 49.08 50.46" fill="none" stroke="rgb(0,0,0)" stroke-width="10" />
<path fill="rgb(0,0,0)" stroke="rgb(0,0,0)" stroke-width="0" d=" M 71.61 272.47 L 90.67 272.47 91.33 277.43 92.28 282.03 93.51 286.27 95.02 290.13 96.81 293.62 98.96 296.81 101.53 299.74 104.53 302.41 107.95 304.84 111.80 307.00 115.96 308.84 120.32 310.27 124.89 311.28 129.66 311.90 134.63 312.10 139.04 311.95 143.24 311.48 147.23 310.71 151.00 309.63 154.57 308.24 157.85 306.58 160.78 304.69 163.36 302.57 165.58 300.21 167.45 297.63 168.97 294.90 170.15 292.12 171.00 289.28 171.51 286.39 171.67 283.45 171.55 280.50 171.17 277.71 170.54 275.07 169.66 272.59 168.53 270.26 167.00 268.07 164.95 266.02 162.36 264.10 159.24 262.31 155.59 260.66 152.48 259.50 148.15 258.12 142.60 256.50 135.83 254.66 127.84 252.59 119.77 250.42 112.74 248.29 106.77 246.21 101.84 244.16 97.97 242.16 93.84 239.50 90.16 236.59 86.92 233.45 84.13 230.06 81.77 226.43 79.86 222.59 78.37 218.57 77.30 214.37 76.66 209.98 76.45 205.42 76.73 200.36 77.53 195.44 78.86 190.66 80.72 186.01 83.10 181.49 85.98 177.25 89.36 173.45 93.22 170.07 97.56 167.12 102.40 164.60 107.59 162.53 113.01 160.92 118.66 159.77 124.54 159.07 130.65 158.84 137.33 159.09 143.68 159.81 149.71 161.01 155.42 162.70 160.80 164.87 165.79 167.51 170.29 170.60 174.31 174.14 177.84 178.14 180.89 182.58 183.43 187.38 185.46 192.43 186.97 197.72 187.96 203.26 188.43 209.05 169.37 209.05 168.42 203.58 166.87 198.68 164.72 194.33 161.96 190.55 158.59 187.33 154.57 184.69 149.83 182.63 144.40 181.16 138.25 180.28 131.40 179.98 124.31 180.27 118.04 181.15 112.58 182.60 107.93 184.63 104.09 187.25 101.00 190.28 98.60 193.55 96.88 197.05 95.85 200.80 95.51 204.80 95.75 208.24 96.48 211.42 97.69 214.35 99.39 217.03 101.58 219.45 104.73 221.78 109.41 224.12 115.63 226.48 123.39 228.86 132.68 231.26 142.08 233.61 150.14 235.85 156.89 237.97 162.30 239.98 166.39 241.87 171.13 244.72 175.34 247.86 179.03 251.29 182.20 255.00 184.83 259.01 186.97 263.28 188.63 267.81 189.81 272.59 190.51 277.62 190.73 282.91 190.46 288.22 189.64 293.40 188.27 298.46 186.35 303.39 183.88 308.20 180.91 312.74 177.45 316.85 173.51 320.54 169.10 323.81 164.21 326.65 158.95 329.02 153.44 330.87 147.68 332.19 141.65 332.98 135.38 333.24 127.51 332.96 120.18 332.10 113.37 330.68 107.09 328.69 101.34 326.14 96.09 323.01 91.31 319.31 87.01 315.03 83.18 310.18 79.82 304.75 77.00 298.89 74.76 292.73 73.12 286.27 72.07 279.52 71.61 272.47 Z M 221.67 330.60 L 221.82 161.49 240.88 161.49 240.73 330.60 Z M 278.85 330.60 L 279.00 161.49 311.68 161.49 342.84 280.68 344.48 287.00 345.94 292.65 347.21 297.63 348.28 301.94 349.17 305.58 350.14 301.57 351.31 296.86 352.67 291.47 354.23 285.39 355.98 278.62 386.76 161.49 419.56 161.49 419.41 330.60 400.35 330.60 400.50 182.63 362.05 330.60 336.25 330.60 298.06 182.63 297.91 330.60 Z" />
</svg>
