<?xml version="1.0" encoding="utf-8"?>
<!-- Created with "sPlan" (http://www.abacom-online.de) -->
<svg version="1.1" baseProfile="full"
xmlns="http://www.w3.org/2000/svg"
width="50mm" height="50mm"
viewBox="0 0 500 500">
<title>SLCQ</title>
<defs>
<style type="text/css">
<![CDATA[
polyline {stroke-linecap:round; stroke-linejoin:round}
polygon {stroke-linecap:round; stroke-linejoin:round}
path {stroke-linecap:round; stroke-linejoin:round}
circle {stroke-linecap:round; stroke-linejoin:round}
]]>
</style>
</defs>
<polyline points="100.12 234.76 83.92 265.52" fill="none" stroke="rgb(0,0,255)" stroke-width="15" />
<polyline points="50.03 250.28 118.70 250.28" fill="none" stroke="rgb(0,0,255)" stroke-width="15" />
<path fill="rgb(255,0,0)" stroke="rgb(255,0,0)" stroke-width="10" d=" M 38 244 C 38 238 44 238 44 238 L 56 238 L 56 238 C 62 238 62 244 62 244 L 62 256 L 62 256 C 62 262 56 262 56 262 L 44 262 L 44 262 C 38 262 38 256 38 256 L 38 244 Z" />
<path fill="none" stroke="rgb(0,0,255)" stroke-width="15" d=" M 181.00 250.28 Q 181.00 250.28 180.70 247.25 Q 180.40 244.22 179.52 241.30 Q 178.63 238.39 177.20 235.70 Q 175.76 233.02 173.83 230.66 Q 171.90 228.31 169.54 226.37 Q 167.19 224.44 164.50 223.01 Q 161.82 221.57 158.90 220.69 Q 155.99 219.80 152.96 219.50 Q 149.93 219.21 146.90 219.50 Q 143.86 219.80 140.95 220.69 Q 138.03 221.57 135.35 223.01 Q 132.66 224.44 130.31 226.37 Q 127.95 228.31 126.02 230.66 Q 124.09 233.02 122.66 235.70 Q 121.22 238.39 120.34 241.30 Q 119.45 244.22 119.15 247.25 Q 118.85 250.28 118.86 250.28" />
<path fill="none" stroke="rgb(0,0,255)" stroke-width="15" d=" M 243.14 250.28 Q 243.14 250.28 242.85 247.25 Q 242.55 244.22 241.66 241.30 Q 240.78 238.39 239.34 235.70 Q 237.91 233.02 235.98 230.66 Q 234.04 228.31 231.69 226.37 Q 229.33 224.44 226.65 223.01 Q 223.96 221.57 221.05 220.69 Q 218.13 219.80 215.10 219.50 Q 212.07 219.21 209.04 219.50 Q 206.01 219.80 203.09 220.69 Q 200.18 221.57 197.49 223.01 Q 194.81 224.44 192.45 226.37 Q 190.10 228.31 188.17 230.66 Q 186.24 233.02 184.80 235.70 Q 183.37 238.39 182.48 241.30 Q 181.60 244.22 181.30 247.25 Q 181.00 250.28 181.00 250.28" />
<path fill="none" stroke="rgb(0,0,255)" stroke-width="15" d=" M 305.14 250.28 Q 305.14 250.28 304.84 247.25 Q 304.54 244.22 303.66 241.30 Q 302.77 238.39 301.34 235.70 Q 299.90 233.02 297.97 230.66 Q 296.04 228.31 293.68 226.37 Q 291.33 224.44 288.64 223.01 Q 285.96 221.57 283.04 220.69 Q 280.13 219.80 277.10 219.50 Q 274.07 219.21 271.04 219.50 Q 268.00 219.80 265.09 220.69 Q 262.17 221.57 259.49 223.01 Q 256.80 224.44 254.45 226.37 Q 252.09 228.31 250.16 230.66 Q 248.23 233.02 246.80 235.70 Q 245.36 238.39 244.48 241.30 Q 243.59 244.22 243.29 247.25 Q 242.99 250.28 243.00 250.28" />
<polyline points="305.29 250.28 352.45 250.28" fill="none" stroke="rgb(0,0,255)" stroke-width="15" />
<polyline points="394.01 249.92 450.07 249.92" fill="none" stroke="rgb(0,0,255)" stroke-width="15" />
<path fill="none" stroke="rgb(0,0,255)" stroke-width="15" d=" M 336 182 C 373 250 336 317 336 317" />
<polyline points="393.21 182.13 393.21 317.27" fill="none" stroke="rgb(0,0,255)" stroke-width="15" />
<path fill="rgb(255,0,0)" stroke="rgb(255,0,0)" stroke-width="10" d=" M 438 244 C 438 238 444 238 444 238 L 456 238 L 456 238 C 462 238 462 244 462 244 L 462 256 L 462 256 C 462 262 456 262 456 262 L 444 262 L 444 262 C 438 262 438 256 438 256 L 438 244 Z" />
<path fill="rgb(0,0,0)" stroke="rgb(0,0,0)" stroke-width="0" d=" M 477.04 111.18 L 480.08 113.95 483.04 116.40 485.89 118.53 488.66 120.35 491.33 121.86 488.22 131.23 484.41 129.54 480.60 127.49 476.80 125.10 473.01 122.35 469.22 119.26 465.07 121.35 460.76 122.97 456.27 124.13 451.62 124.83 446.79 125.06 441.93 124.79 437.25 123.99 432.76 122.65 428.45 120.78 424.32 118.37 420.46 115.48 416.99 112.15 413.88 108.39 411.15 104.20 408.80 99.57 406.84 94.60 405.33 89.39 404.24 83.93 403.59 78.23 403.38 72.28 403.60 66.35 404.26 60.64 405.35 55.14 406.88 49.86 408.84 44.80 411.20 40.08 413.93 35.83 417.03 32.06 420.49 28.76 424.32 25.93 428.42 23.60 432.72 21.79 437.21 20.49 441.89 19.72 446.77 19.46 451.68 19.72 456.40 20.52 460.92 21.84 465.24 23.70 469.36 26.08 473.20 28.95 476.65 32.23 479.71 35.94 482.39 40.08 484.69 44.63 486.59 49.53 488.06 54.66 489.10 60.04 489.73 65.67 489.93 71.53 489.80 76.41 489.42 81.09 488.78 85.56 487.88 89.84 486.72 93.91 485.31 97.78 483.63 101.44 481.69 104.89 479.50 108.14 477.04 111.18 Z M 449.99 94.16 L 454.10 95.60 457.90 97.29 461.41 99.23 464.62 101.43 467.53 103.88 471.43 99.24 474.47 93.75 476.64 87.41 477.95 80.22 478.39 72.18 478.25 67.49 477.79 63.05 477.03 58.85 475.96 54.89 474.58 51.17 472.91 47.74 470.95 44.62 468.71 41.83 466.19 39.37 463.38 37.22 460.36 35.43 457.19 34.04 453.88 33.05 450.43 32.46 446.83 32.26 441.52 32.66 436.58 33.86 432.02 35.87 427.83 38.68 424.01 42.30 420.74 46.71 418.20 51.91 416.38 57.90 415.29 64.68 414.92 72.26 415.27 79.63 416.33 86.28 418.12 92.21 420.62 97.43 423.84 101.92 427.62 105.64 431.80 108.54 436.37 110.60 441.35 111.84 446.72 112.26 449.33 112.15 451.88 111.84 454.37 111.31 456.80 110.58 459.16 109.63 456.84 108.13 454.46 106.82 452.03 105.68 449.55 104.73 447.01 103.96 Z" />
</svg>
