<?xml version="1.0" encoding="utf-8"?>
<!-- Created with "sPlan" (http://www.abacom-online.de) -->
<svg version="1.1" baseProfile="full"
xmlns="http://www.w3.org/2000/svg"
width="50mm" height="50mm"
viewBox="0 0 500 500">
<title>SP</title>
<defs>
<style type="text/css">
<![CDATA[
polyline {stroke-linecap:round; stroke-linejoin:round}
polygon {stroke-linecap:round; stroke-linejoin:round}
path {stroke-linecap:round; stroke-linejoin:round}
circle {stroke-linecap:round; stroke-linejoin:round}
]]>
</style>
</defs>
<polyline points="49.08 50.46 49.08 450.46 449.08 450.46 449.08 50.46 49.08 50.46" fill="none" stroke="rgb(0,0,255)" stroke-width="10" />
<path fill="rgb(0,0,0)" stroke="rgb(0,0,0)" stroke-width="0" d=" M 171.33 264.03 L 182.87 264.03 183.27 267.04 183.84 269.82 184.59 272.39 185.50 274.72 186.59 276.84 187.89 278.77 189.45 280.54 191.26 282.16 193.33 283.63 195.66 284.94 198.18 286.05 200.82 286.92 203.59 287.53 206.48 287.91 209.49 288.03 212.16 287.94 214.70 287.65 217.11 287.19 219.40 286.53 221.56 285.69 223.55 284.69 225.33 283.54 226.89 282.26 228.23 280.83 229.36 279.27 230.28 277.61 231.00 275.93 231.51 274.21 231.82 272.46 231.92 270.68 231.84 268.90 231.61 267.20 231.23 265.61 230.70 264.10 230.01 262.69 229.09 261.37 227.85 260.12 226.28 258.96 224.39 257.88 222.18 256.88 220.30 256.18 217.68 255.34 214.31 254.36 210.22 253.25 205.38 251.99 200.49 250.68 196.23 249.39 192.62 248.13 189.63 246.89 187.29 245.68 184.79 244.07 182.56 242.31 180.60 240.40 178.91 238.35 177.48 236.15 176.32 233.83 175.42 231.39 174.78 228.85 174.39 226.19 174.26 223.43 174.43 220.37 174.91 217.39 175.72 214.49 176.84 211.68 178.28 208.94 180.03 206.38 182.07 204.07 184.41 202.03 187.04 200.24 189.97 198.72 193.11 197.46 196.40 196.48 199.82 195.79 203.38 195.37 207.08 195.23 211.12 195.37 214.97 195.81 218.62 196.54 222.08 197.56 225.34 198.88 228.36 200.48 231.08 202.35 233.51 204.49 235.65 206.91 237.50 209.60 239.04 212.51 240.27 215.56 241.18 218.77 241.78 222.12 242.06 225.63 230.52 225.63 229.95 222.32 229.01 219.35 227.71 216.72 226.04 214.43 224.00 212.48 221.56 210.88 218.69 209.63 215.40 208.74 211.68 208.21 207.53 208.03 203.24 208.20 199.44 208.73 196.14 209.61 193.32 210.84 191.00 212.43 189.13 214.26 187.67 216.24 186.63 218.37 186.01 220.64 185.80 223.05 185.95 225.14 186.39 227.07 187.12 228.84 188.15 230.46 189.47 231.93 191.38 233.33 194.22 234.75 197.99 236.18 202.68 237.62 208.31 239.08 214.00 240.50 218.88 241.86 222.96 243.14 226.24 244.36 228.72 245.50 231.59 247.23 234.14 249.13 236.37 251.21 238.29 253.46 239.89 255.88 241.18 258.47 242.18 261.21 242.90 264.10 243.32 267.15 243.46 270.35 243.29 273.57 242.80 276.70 241.97 279.77 240.81 282.75 239.31 285.67 237.51 288.41 235.42 290.90 233.03 293.14 230.36 295.12 227.40 296.84 224.22 298.28 220.88 299.39 217.39 300.19 213.74 300.67 209.94 300.83 205.18 300.66 200.74 300.14 196.61 299.28 192.81 298.08 189.33 296.53 186.15 294.63 183.26 292.39 180.65 289.80 178.33 286.86 176.30 283.58 174.59 280.03 173.24 276.30 172.24 272.39 171.61 268.30 171.33 264.03 Z M 260.75 299.23 L 260.84 196.83 295.06 196.83 298.50 196.87 301.60 196.98 304.36 197.18 306.78 197.45 308.85 197.80 311.44 198.40 313.86 199.17 316.10 200.13 318.17 201.27 320.07 202.59 321.80 204.12 323.40 205.87 324.85 207.85 326.16 210.06 327.32 212.49 328.31 215.09 329.08 217.78 329.62 220.57 329.95 223.46 330.06 226.45 329.77 231.52 328.87 236.27 327.38 240.69 325.30 244.80 322.62 248.58 319.17 251.84 314.76 254.37 309.40 256.18 303.08 257.27 295.80 257.63 272.34 257.63 272.29 299.23 Z M 272.34 244.83 L 296.48 244.83 300.99 244.64 304.94 244.08 308.34 243.14 311.19 241.82 313.48 240.13 315.30 238.10 316.71 235.76 317.72 233.11 318.32 230.16 318.52 226.90 318.40 224.50 318.05 222.23 317.46 220.11 316.63 218.14 315.57 216.30 314.31 214.66 312.91 213.26 311.35 212.10 309.65 211.18 307.79 210.50 306.33 210.19 304.44 209.94 302.13 209.77 299.40 209.66 296.25 209.63 272.38 209.63 Z" />
</svg>
