<?xml version="1.0" encoding="utf-8"?>
<!-- Created with "sPlan" (http://www.abacom-online.de) -->
<svg version="1.1" baseProfile="full"
xmlns="http://www.w3.org/2000/svg"
width="50mm" height="50mm"
viewBox="0 0 500 500">
<title>SRL</title>
<defs>
<style type="text/css">
<![CDATA[
polyline {stroke-linecap:round; stroke-linejoin:round}
polygon {stroke-linecap:round; stroke-linejoin:round}
path {stroke-linecap:round; stroke-linejoin:round}
circle {stroke-linecap:round; stroke-linejoin:round}
]]>
</style>
</defs>
<polyline points="97.12 234.76 80.92 265.52" fill="none" stroke="rgb(0,0,255)" stroke-width="15" />
<polyline points="411.35 249.78 450.07 249.92" fill="none" stroke="rgb(0,0,255)" stroke-width="15" />
<path fill="rgb(255,0,0)" stroke="rgb(255,0,0)" stroke-width="10" d=" M 438 244 C 438 238 444 238 444 238 L 456 238 L 456 238 C 462 238 462 244 462 244 L 462 256 L 462 256 C 462 262 456 262 456 262 L 444 262 L 444 262 C 438 262 438 256 438 256 L 438 244 Z" />
<polyline points="50.03 249.85 114.20 249.85 125.47 215.18 147.39 283.73 169.32 214.38 191.25 283.73 213.18 214.38 235.10 283.73 247.14 249.85 265.01 249.78" fill="none" stroke="rgb(0,0,255)" stroke-width="15" />
<path fill="rgb(255,0,0)" stroke="rgb(255,0,0)" stroke-width="10" d=" M 38 244 C 38 238 44 238 44 238 L 56 238 L 56 238 C 62 238 62 244 62 244 L 62 256 L 62 256 C 62 262 56 262 56 262 L 44 262 L 44 262 C 38 262 38 256 38 256 L 38 244 Z" />
<path fill="none" stroke="rgb(0,0,255)" stroke-width="15" d=" M 313.83 249.78 Q 313.83 249.78 313.60 247.40 Q 313.36 245.02 312.67 242.73 Q 311.97 240.44 310.84 238.33 Q 309.72 236.22 308.20 234.37 Q 306.68 232.52 304.83 231.01 Q 302.98 229.49 300.87 228.36 Q 298.76 227.23 296.47 226.54 Q 294.18 225.84 291.80 225.61 Q 289.42 225.37 287.04 225.61 Q 284.66 225.84 282.37 226.54 Q 280.08 227.23 277.97 228.36 Q 275.86 229.49 274.01 231.01 Q 272.16 232.52 270.64 234.37 Q 269.13 236.22 268.00 238.33 Q 266.87 240.44 266.18 242.73 Q 265.48 245.02 265.25 247.40 Q 265.01 249.78 265.01 249.78" />
<path fill="none" stroke="rgb(0,0,255)" stroke-width="15" d=" M 362.65 249.78 Q 362.65 249.78 362.41 247.40 Q 362.18 245.02 361.48 242.73 Q 360.79 240.44 359.66 238.33 Q 358.53 236.22 357.02 234.37 Q 355.50 232.52 353.65 231.01 Q 351.80 229.49 349.69 228.36 Q 347.58 227.23 345.29 226.54 Q 343.00 225.84 340.62 225.61 Q 338.24 225.37 335.86 225.61 Q 333.48 225.84 331.19 226.54 Q 328.90 227.23 326.79 228.36 Q 324.68 229.49 322.83 231.01 Q 320.98 232.52 319.46 234.37 Q 317.94 236.22 316.82 238.33 Q 315.69 240.44 314.99 242.73 Q 314.30 245.02 314.06 247.40 Q 313.83 249.78 313.83 249.78" />
<path fill="none" stroke="rgb(0,0,255)" stroke-width="15" d=" M 411.35 249.78 Q 411.35 249.78 411.11 247.40 Q 410.88 245.02 410.18 242.73 Q 409.49 240.44 408.36 238.33 Q 407.23 236.22 405.72 234.37 Q 404.20 232.52 402.35 231.01 Q 400.50 229.49 398.39 228.36 Q 396.28 227.23 393.99 226.54 Q 391.70 225.84 389.32 225.61 Q 386.94 225.37 384.56 225.61 Q 382.18 225.84 379.89 226.54 Q 377.60 227.23 375.49 228.36 Q 373.38 229.49 371.53 231.01 Q 369.68 232.52 368.16 234.37 Q 366.64 236.22 365.52 238.33 Q 364.39 240.44 363.69 242.73 Q 363.00 245.02 362.76 247.40 Q 362.53 249.78 362.53 249.78" />
</svg>
