<?xml version="1.0" encoding="utf-8"?>
<!-- Created with "sPlan" (http://www.abacom-online.de) -->
<svg version="1.1" baseProfile="full"
xmlns="http://www.w3.org/2000/svg"
width="50mm" height="50mm"
viewBox="0 0 500 500">
<title>SRLC</title>
<defs>
<style type="text/css">
<![CDATA[
polyline {stroke-linecap:round; stroke-linejoin:round}
polygon {stroke-linecap:round; stroke-linejoin:round}
path {stroke-linecap:round; stroke-linejoin:round}
circle {stroke-linecap:round; stroke-linejoin:round}
]]>
</style>
</defs>
<polyline points="90.12 234.76 73.92 265.52" fill="none" stroke="rgb(0,0,255)" stroke-width="15" />
<polyline points="414.28 249.92 450.07 249.92" fill="none" stroke="rgb(0,0,255)" stroke-width="15" />
<path fill="rgb(255,0,0)" stroke="rgb(255,0,0)" stroke-width="10" d=" M 438 244 C 438 238 444 238 444 238 L 456 238 L 456 238 C 462 238 462 244 462 244 L 462 256 L 462 256 C 462 262 456 262 456 262 L 444 262 L 444 262 C 438 262 438 256 438 256 L 438 244 Z" />
<polyline points="50.03 249.85 103.74 249.85 112.84 221.87 130.53 277.19 148.23 221.23 165.93 277.19 183.62 221.23 201.32 277.19 211.03 249.85 225.45 249.80" fill="none" stroke="rgb(0,0,255)" stroke-width="15" />
<path fill="rgb(255,0,0)" stroke="rgb(255,0,0)" stroke-width="10" d=" M 38 244 C 38 238 44 238 44 238 L 56 238 L 56 238 C 62 238 62 244 62 244 L 62 256 L 62 256 C 62 262 56 262 56 262 L 44 262 L 44 262 C 38 262 38 256 38 256 L 38 244 Z" />
<path fill="none" stroke="rgb(0,0,255)" stroke-width="15" d=" M 270.93 249.80 Q 270.94 249.80 270.72 247.58 Q 270.50 245.36 269.85 243.23 Q 269.20 241.09 268.15 239.13 Q 267.10 237.16 265.69 235.44 Q 264.27 233.71 262.55 232.30 Q 260.83 230.89 258.86 229.84 Q 256.90 228.79 254.76 228.14 Q 252.63 227.49 250.41 227.27 Q 248.19 227.05 245.97 227.27 Q 243.75 227.49 241.62 228.14 Q 239.49 228.79 237.52 229.84 Q 235.56 230.89 233.83 232.30 Q 232.11 233.71 230.70 235.44 Q 229.28 237.16 228.23 239.13 Q 227.18 241.09 226.53 243.23 Q 225.89 245.36 225.67 247.58 Q 225.45 249.80 225.45 249.80" />
<path fill="none" stroke="rgb(0,0,255)" stroke-width="15" d=" M 316.42 249.80 Q 316.42 249.80 316.20 247.58 Q 315.98 245.36 315.34 243.23 Q 314.69 241.09 313.64 239.13 Q 312.59 237.16 311.17 235.44 Q 309.76 233.71 308.04 232.30 Q 306.31 230.89 304.35 229.84 Q 302.38 228.79 300.25 228.14 Q 298.12 227.49 295.90 227.27 Q 293.68 227.05 291.46 227.27 Q 289.24 227.49 287.11 228.14 Q 284.97 228.79 283.01 229.84 Q 281.04 230.89 279.32 232.30 Q 277.60 233.71 276.18 235.44 Q 274.77 237.16 273.72 239.13 Q 272.67 241.09 272.02 243.23 Q 271.37 245.36 271.15 247.58 Q 270.94 249.80 270.94 249.80" />
<path fill="none" stroke="rgb(0,0,255)" stroke-width="15" d=" M 361.80 249.80 Q 361.80 249.80 361.58 247.58 Q 361.36 245.36 360.71 243.23 Q 360.07 241.09 359.02 239.13 Q 357.97 237.16 356.55 235.44 Q 355.14 233.71 353.41 232.30 Q 351.69 230.89 349.73 229.84 Q 347.76 228.79 345.63 228.14 Q 343.49 227.49 341.27 227.27 Q 339.06 227.05 336.84 227.27 Q 334.62 227.49 332.48 228.14 Q 330.35 228.79 328.39 229.84 Q 326.42 230.89 324.70 232.30 Q 322.97 233.71 321.56 235.44 Q 320.15 237.16 319.10 239.13 Q 318.04 241.09 317.40 243.23 Q 316.75 245.36 316.53 247.58 Q 316.31 249.80 316.31 249.80" />
<path fill="none" stroke="rgb(0,0,255)" stroke-width="15" d=" M 376 202 C 400 246 376 290 376 290" />
<polyline points="413.21 202.12 413.21 290.35" fill="none" stroke="rgb(0,0,255)" stroke-width="15" />
<polyline points="361.80 249.80 386.03 249.80" fill="none" stroke="rgb(0,0,255)" stroke-width="15" />
</svg>
