<?xml version="1.0" encoding="utf-8"?>
<!-- Created with "sPlan" (http://www.abacom-online.de) -->
<svg version="1.1" baseProfile="full"
xmlns="http://www.w3.org/2000/svg"
width="50mm" height="50mm"
viewBox="0 0 500 500">
<title>TF3</title>
<defs>
<style type="text/css">
<![CDATA[
polyline {stroke-linecap:round; stroke-linejoin:round}
polygon {stroke-linecap:round; stroke-linejoin:round}
path {stroke-linecap:round; stroke-linejoin:round}
circle {stroke-linecap:round; stroke-linejoin:round}
]]>
</style>
</defs>
<path fill="none" stroke="rgb(0,0,255)" stroke-width="15" d=" M 167.21 331.74 Q 167.21 331.74 169.64 331.49 Q 172.08 331.25 174.42 330.54 Q 176.76 329.83 178.92 328.68 Q 181.07 327.53 182.97 325.98 Q 184.86 324.43 186.41 322.53 Q 187.96 320.64 189.11 318.49 Q 190.27 316.33 190.98 313.99 Q 191.69 311.65 191.93 309.21 Q 192.17 306.78 191.93 304.34 Q 191.69 301.91 190.98 299.56 Q 190.27 297.22 189.11 295.07 Q 187.96 292.91 186.41 291.02 Q 184.86 289.13 182.97 287.57 Q 181.07 286.02 178.92 284.87 Q 176.76 283.72 174.42 283.01 Q 172.08 282.30 169.64 282.06 Q 167.21 281.82 167.21 281.82" />
<path fill="none" stroke="rgb(0,0,255)" stroke-width="15" d=" M 167.21 381.91 Q 167.21 381.90 169.64 381.66 Q 172.08 381.42 174.42 380.71 Q 176.76 380.00 178.92 378.85 Q 181.07 377.70 182.97 376.15 Q 184.86 374.59 186.41 372.70 Q 187.96 370.81 189.11 368.65 Q 190.27 366.50 190.98 364.16 Q 191.69 361.82 191.93 359.38 Q 192.17 356.95 191.93 354.51 Q 191.69 352.08 190.98 349.73 Q 190.27 347.39 189.11 345.24 Q 187.96 343.08 186.41 341.19 Q 184.86 339.30 182.97 337.74 Q 181.07 336.19 178.92 335.04 Q 176.76 333.89 174.42 333.18 Q 172.08 332.47 169.64 332.23 Q 167.21 331.99 167.21 331.99" />
<polyline points="167.21 432.20 167.21 450.06 50.49 450.06" fill="none" stroke="rgb(0,0,255)" stroke-width="15" />
<path fill="none" stroke="rgb(0,0,255)" stroke-width="15" d=" M 167.21 432.07 Q 167.21 432.07 169.64 431.83 Q 172.08 431.59 174.42 430.88 Q 176.76 430.17 178.92 429.02 Q 181.07 427.87 182.97 426.32 Q 184.86 424.76 186.41 422.87 Q 187.96 420.98 189.11 418.82 Q 190.27 416.67 190.98 414.33 Q 191.69 411.98 191.93 409.55 Q 192.17 407.11 191.93 404.68 Q 191.69 402.24 190.98 399.90 Q 190.27 397.56 189.11 395.41 Q 187.96 393.25 186.41 391.36 Q 184.86 389.47 182.97 387.91 Q 181.07 386.36 178.92 385.21 Q 176.76 384.06 174.42 383.35 Q 172.08 382.64 169.64 382.40 Q 167.21 382.16 167.21 382.15" />
<polyline points="50.49 263.82 167.21 263.82 167.21 281.69" fill="none" stroke="rgb(0,0,255)" stroke-width="15" />
<path fill="none" stroke="rgb(0,0,255)" stroke-width="15" d=" M 167.21 117.74 Q 167.21 117.74 169.64 117.49 Q 172.08 117.25 174.42 116.54 Q 176.76 115.83 178.92 114.68 Q 181.07 113.53 182.97 111.98 Q 184.86 110.43 186.41 108.53 Q 187.96 106.64 189.11 104.49 Q 190.27 102.33 190.98 99.99 Q 191.69 97.65 191.93 95.21 Q 192.17 92.78 191.93 90.34 Q 191.69 87.91 190.98 85.56 Q 190.27 83.22 189.11 81.07 Q 187.96 78.91 186.41 77.02 Q 184.86 75.13 182.97 73.57 Q 181.07 72.02 178.92 70.87 Q 176.76 69.72 174.42 69.01 Q 172.08 68.30 169.64 68.06 Q 167.21 67.82 167.21 67.82" />
<path fill="none" stroke="rgb(0,0,255)" stroke-width="15" d=" M 167.21 167.91 Q 167.21 167.90 169.64 167.66 Q 172.08 167.42 174.42 166.71 Q 176.76 166.00 178.92 164.85 Q 181.07 163.70 182.97 162.15 Q 184.86 160.59 186.41 158.70 Q 187.96 156.81 189.11 154.65 Q 190.27 152.50 190.98 150.16 Q 191.69 147.82 191.93 145.38 Q 192.17 142.95 191.93 140.51 Q 191.69 138.08 190.98 135.73 Q 190.27 133.39 189.11 131.24 Q 187.96 129.08 186.41 127.19 Q 184.86 125.30 182.97 123.74 Q 181.07 122.19 178.92 121.04 Q 176.76 119.89 174.42 119.18 Q 172.08 118.47 169.64 118.23 Q 167.21 117.99 167.21 117.99" />
<polyline points="167.21 218.20 167.21 236.06 50.49 236.06" fill="none" stroke="rgb(0,0,255)" stroke-width="15" />
<path fill="none" stroke="rgb(0,0,255)" stroke-width="15" d=" M 167.21 218.07 Q 167.21 218.07 169.64 217.83 Q 172.08 217.59 174.42 216.88 Q 176.76 216.17 178.92 215.02 Q 181.07 213.87 182.97 212.32 Q 184.86 210.76 186.41 208.87 Q 187.96 206.98 189.11 204.82 Q 190.27 202.67 190.98 200.33 Q 191.69 197.98 191.93 195.55 Q 192.17 193.11 191.93 190.68 Q 191.69 188.24 190.98 185.90 Q 190.27 183.56 189.11 181.41 Q 187.96 179.25 186.41 177.36 Q 184.86 175.47 182.97 173.91 Q 181.07 172.36 178.92 171.21 Q 176.76 170.06 174.42 169.35 Q 172.08 168.64 169.64 168.40 Q 167.21 168.16 167.21 168.15" />
<polyline points="50.49 49.82 167.21 49.82 167.21 67.69" fill="none" stroke="rgb(0,0,255)" stroke-width="15" />
<path fill="rgb(255,0,0)" stroke="rgb(255,0,0)" stroke-width="10" d=" M 45 47 C 45 44 48 44 48 44 L 53 44 L 53 44 C 56 44 56 47 56 47 L 56 53 L 56 53 C 56 55 53 55 53 55 L 48 55 L 48 55 C 45 55 45 53 45 53 L 45 47 Z" />
<path fill="rgb(255,0,0)" stroke="rgb(255,0,0)" stroke-width="10" d=" M 45 233 C 45 230 48 230 48 230 L 53 230 L 53 230 C 56 230 56 233 56 233 L 56 239 L 56 239 C 56 242 53 242 53 242 L 48 242 L 48 242 C 45 242 45 239 45 239 L 45 233 Z" />
<path fill="rgb(255,0,0)" stroke="rgb(255,0,0)" stroke-width="10" d=" M 45 261 C 45 258 48 258 48 258 L 53 258 L 53 258 C 56 258 56 261 56 261 L 56 267 L 56 267 C 56 269 53 269 53 269 L 48 269 L 48 269 C 45 269 45 267 45 267 L 45 261 Z" />
<path fill="rgb(255,0,0)" stroke="rgb(255,0,0)" stroke-width="10" d=" M 45 447 C 45 444 48 444 48 444 L 53 444 L 53 444 C 56 444 56 447 56 447 L 56 453 L 56 453 C 56 456 53 456 53 456 L 48 456 L 48 456 C 45 456 45 453 45 453 L 45 447 Z" />
<polyline points="265.00 409.00 265.00 93.82" fill="none" stroke="rgb(0,0,255)" stroke-width="15" />
<polyline points="233.00 409.00 233.00 93.82" fill="none" stroke="rgb(0,0,255)" stroke-width="15" />
<polyline points="449.51 343.18 332.79 343.18 332.79 325.31" fill="none" stroke="rgb(0,0,255)" stroke-width="15" />
<path fill="none" stroke="rgb(0,0,255)" stroke-width="15" d=" M 332.79 174.93 Q 332.79 174.93 330.36 175.17 Q 327.92 175.41 325.58 176.12 Q 323.24 176.83 321.08 177.98 Q 318.93 179.13 317.03 180.68 Q 315.14 182.24 313.59 184.13 Q 312.04 186.02 310.89 188.18 Q 309.73 190.33 309.02 192.67 Q 308.31 195.02 308.07 197.45 Q 307.83 199.89 308.07 202.32 Q 308.31 204.76 309.02 207.10 Q 309.73 209.44 310.89 211.59 Q 312.04 213.75 313.59 215.64 Q 315.14 217.53 317.03 219.09 Q 318.93 220.64 321.08 221.79 Q 323.24 222.94 325.58 223.65 Q 327.92 224.36 330.36 224.60 Q 332.79 224.84 332.79 224.85" />
<polyline points="332.79 174.80 332.79 156.94 449.51 156.94" fill="none" stroke="rgb(0,0,255)" stroke-width="15" />
<path fill="rgb(255,0,0)" stroke="rgb(255,0,0)" stroke-width="10" d=" M 457 161 C 457 164 453 164 453 164 L 446 164 L 446 164 C 442 164 442 161 442 161 L 442 153 L 442 153 C 442 150 446 150 446 150 L 453 150 L 453 150 C 457 150 457 153 457 153 L 457 161 Z" />
<path fill="rgb(255,0,0)" stroke="rgb(255,0,0)" stroke-width="10" d=" M 457 347 C 457 350 453 350 453 350 L 446 350 L 446 350 C 442 350 442 347 442 347 L 442 340 L 442 340 C 442 336 446 336 446 336 L 453 336 L 453 336 C 457 336 457 340 457 340 L 457 347 Z" />
<path fill="none" stroke="rgb(0,0,255)" stroke-width="15" d=" M 332.79 225.09 Q 332.79 225.10 330.36 225.34 Q 327.92 225.58 325.58 226.29 Q 323.24 227.00 321.08 228.15 Q 318.93 229.30 317.03 230.85 Q 315.14 232.41 313.59 234.30 Q 312.04 236.19 310.89 238.35 Q 309.73 240.50 309.02 242.84 Q 308.31 245.18 308.07 247.62 Q 307.83 250.05 308.07 252.49 Q 308.31 254.92 309.02 257.27 Q 309.73 259.61 310.89 261.76 Q 312.04 263.92 313.59 265.81 Q 315.14 267.70 317.03 269.26 Q 318.93 270.81 321.08 271.96 Q 323.24 273.11 325.58 273.82 Q 327.92 274.53 330.36 274.77 Q 332.79 275.01 332.79 275.01" />
<path fill="none" stroke="rgb(0,0,255)" stroke-width="15" d=" M 332.79 275.26 Q 332.79 275.26 330.36 275.51 Q 327.92 275.75 325.58 276.46 Q 323.24 277.17 321.08 278.32 Q 318.93 279.47 317.03 281.02 Q 315.14 282.57 313.59 284.47 Q 312.04 286.36 310.89 288.51 Q 309.73 290.67 309.02 293.01 Q 308.31 295.35 308.07 297.79 Q 307.83 300.22 308.07 302.66 Q 308.31 305.09 309.02 307.44 Q 309.73 309.78 310.89 311.93 Q 312.04 314.09 313.59 315.98 Q 315.14 317.87 317.03 319.43 Q 318.93 320.98 321.08 322.13 Q 323.24 323.28 325.58 323.99 Q 327.92 324.70 330.36 324.94 Q 332.79 325.18 332.79 325.18" />
</svg>
