<?xml version="1.0" encoding="utf-8"?>
<!-- Created with "sPlan" (http://www.abacom-online.de) -->
<svg version="1.1" baseProfile="full"
xmlns="http://www.w3.org/2000/svg"
width="50mm" height="50mm"
viewBox="0 0 500 500">
<title>TRAN</title>
<defs>
<style type="text/css">
<![CDATA[
polyline {stroke-linecap:round; stroke-linejoin:round}
polygon {stroke-linecap:round; stroke-linejoin:round}
path {stroke-linecap:round; stroke-linejoin:round}
circle {stroke-linecap:round; stroke-linejoin:round}
]]>
</style>
</defs>
<polyline points="49.08 50.46 49.08 450.46 449.08 450.46 449.08 50.46 49.08 50.46" fill="none" stroke="rgb(0,0,255)" stroke-width="10" />
<path fill="rgb(0,0,0)" stroke="rgb(0,0,0)" stroke-width="0" d=" M 110.26 299.23 L 110.35 209.63 80.05 209.63 80.05 196.83 152.18 196.83 152.18 209.63 121.89 209.63 121.80 299.23 Z M 165.08 299.23 L 165.17 196.83 204.95 196.83 209.58 196.94 213.74 197.27 217.43 197.82 220.66 198.60 223.42 199.59 225.85 200.87 228.07 202.48 230.09 204.44 231.90 206.73 233.51 209.37 234.87 212.23 235.92 215.21 236.67 218.31 237.13 221.52 237.28 224.85 237.03 229.10 236.27 233.06 235.02 236.75 233.27 240.17 231.01 243.30 228.23 246.08 224.91 248.43 221.04 250.33 216.63 251.80 211.67 252.83 213.32 253.94 214.80 255.04 216.11 256.13 217.25 257.22 218.23 258.30 220.12 260.70 222.01 263.22 223.87 265.85 225.72 268.61 227.56 271.48 242.93 299.23 229.52 299.23 217.53 278.00 215.50 274.51 213.61 271.35 211.88 268.54 210.30 266.08 208.86 263.95 207.53 262.13 206.26 260.55 205.04 259.22 203.88 258.15 202.78 257.32 201.70 256.65 200.61 256.08 199.51 255.59 198.40 255.19 197.29 254.88 196.36 254.72 195.23 254.59 193.89 254.50 192.35 254.45 190.59 254.43 176.66 254.43 176.62 299.23 Z M 176.66 241.63 L 202.50 241.63 205.66 241.56 208.57 241.34 211.20 240.98 213.57 240.47 215.68 239.82 217.56 239.00 219.25 238.02 220.75 236.86 222.06 235.52 223.18 234.02 224.10 232.39 224.81 230.71 225.33 228.97 225.63 227.18 225.74 225.33 225.54 222.69 224.96 220.24 223.98 217.98 222.62 215.92 220.87 214.05 218.69 212.46 216.06 211.22 212.98 210.34 209.44 209.81 205.45 209.63 176.71 209.63 Z M 246.68 299.23 L 283.62 196.83 293.45 196.83 330.19 299.23 318.00 299.23 307.47 267.23 269.42 267.23 258.85 299.23 Z M 273.68 254.43 L 303.28 254.43 294.96 229.25 293.34 224.34 291.88 219.92 290.59 216.00 289.47 212.57 288.51 209.63 287.46 212.81 286.36 216.14 285.20 219.62 284.00 223.26 282.74 227.05 Z M 342.52 299.23 L 342.61 196.83 354.96 196.83 403.13 277.95 403.20 196.83 414.74 196.83 414.65 299.23 402.30 299.23 354.13 218.08 354.06 299.23 Z" />
</svg>
