<?xml version="1.0" encoding="utf-8"?>
<!-- Created with "sPlan" (http://www.abacom-online.de) -->
<svg version="1.1" baseProfile="full"
xmlns="http://www.w3.org/2000/svg"
width="50mm" height="50mm"
viewBox="0 0 500 500">
<title>V_AC</title>
<defs>
<style type="text/css">
<![CDATA[
polyline {stroke-linecap:round; stroke-linejoin:round}
polygon {stroke-linecap:round; stroke-linejoin:round}
path {stroke-linecap:round; stroke-linejoin:round}
circle {stroke-linecap:round; stroke-linejoin:round}
]]>
</style>
</defs>
<polyline points="265.24 83.88 234.48 100.08" fill="none" stroke="rgb(0,0,255)" stroke-width="15" />
<path fill="rgb(255,0,0)" stroke="rgb(255,0,0)" stroke-width="0" d=" M 161.62 156.92 L 161.63 139.92 144.63 139.92 144.63 131.92 161.63 131.92 161.66 114.92 169.66 114.92 169.63 131.92 186.63 131.92 186.63 139.92 169.63 139.92 169.62 156.92 Z" />
<polyline points="250.03 147.78 250.03 50.28" fill="none" stroke="rgb(0,0,255)" stroke-width="15" />
<polyline points="250.03 450.28 250.03 350.10" fill="none" stroke="rgb(0,0,255)" stroke-width="15" />
<path fill="rgb(255,0,0)" stroke="rgb(255,0,0)" stroke-width="10" d=" M 238 444 C 238 438 244 438 244 438 L 256 438 L 256 438 C 262 438 262 444 262 444 L 262 456 L 262 456 C 262 462 256 462 256 462 L 244 462 L 244 462 C 238 462 238 456 238 456 L 238 444 Z" />
<path fill="rgb(0,0,0)" stroke="rgb(0,0,0)" stroke-width="0" d=" M 142.96 367.92 L 142.99 359.92 184.65 359.92 184.63 367.92 Z" />
<path fill="rgb(255,0,0)" stroke="rgb(255,0,0)" stroke-width="10" d=" M 238 44 C 238 38 244 38 244 38 L 256 38 L 256 38 C 262 38 262 44 262 44 L 262 56 L 262 56 C 262 62 256 62 256 62 L 244 62 L 244 62 C 238 62 238 56 238 56 L 238 44 Z" />
<circle cx="250.55" cy="248.57" r="101.05" fill="none" stroke="rgb(0,0,255)" stroke-width="15" />
<path fill="none" stroke="rgb(0,0,255)" stroke-width="15" d=" M 182 249 C 201 205 235 205 250 249 C 266 292 299 292 319 249" />
</svg>
