<?xml version="1.0" encoding="utf-8"?>
<!-- Created with "sPlan" (http://www.abacom-online.de) -->
<svg version="1.1" baseProfile="full"
xmlns="http://www.w3.org/2000/svg"
width="50mm" height="50mm"
viewBox="0 0 500 500">
<title>VIAGND</title>
<defs>
<style type="text/css">
<![CDATA[
polyline {stroke-linecap:round; stroke-linejoin:round}
polygon {stroke-linecap:round; stroke-linejoin:round}
path {stroke-linecap:round; stroke-linejoin:round}
circle {stroke-linecap:round; stroke-linejoin:round}
]]>
</style>
</defs>
<polyline points="265.24 79.88 234.48 96.08" fill="none" stroke="rgb(0,0,255)" stroke-width="15" />
<polyline points="249.65 50.26 249.90 162.84" fill="none" stroke="rgb(0,0,255)" stroke-width="15" />
<path fill="none" stroke="rgb(0,0,255)" stroke-width="10" d=" M 315.63 164.74 Q 316.27 163.48 315.63 162.23 Q 314.99 160.97 313.09 159.76 Q 311.20 158.56 308.11 157.44 Q 305.03 156.33 300.89 155.36 Q 296.74 154.38 291.69 153.58 Q 286.64 152.78 280.88 152.18 Q 275.11 151.59 268.86 151.22 Q 262.60 150.86 256.10 150.73 Q 249.60 150.61 243.10 150.73 Q 236.60 150.86 230.34 151.22 Q 224.09 151.59 218.33 152.18 Q 212.56 152.78 207.51 153.58 Q 202.46 154.38 198.32 155.36 Q 194.17 156.33 191.09 157.44 Q 188.01 158.56 186.11 159.76 Q 184.21 160.97 183.57 162.23 Q 182.93 163.48 183.57 164.74 Q 184.21 166.00 186.11 167.20 Q 188.01 168.41 191.09 169.53 Q 194.17 170.64 198.32 171.61 Q 202.46 172.59 207.51 173.39 Q 212.56 174.19 218.33 174.78 Q 224.09 175.38 230.34 175.75 Q 236.60 176.11 243.10 176.24 Q 249.60 176.36 256.10 176.24 Q 262.60 176.11 268.86 175.75 Q 275.11 175.38 280.88 174.78 Q 286.64 174.19 291.69 173.39 Q 296.74 172.59 300.89 171.61 Q 305.03 170.64 308.11 169.53 Q 311.20 168.41 313.09 167.20 Q 314.99 166.00 315.63 164.74 Z" />
<path fill="none" stroke="rgb(0,0,255)" stroke-width="15" d=" M 334.50 165.04 Q 335.32 162.84 334.50 160.64 Q 333.68 158.44 331.25 156.33 Q 328.82 154.22 324.87 152.27 Q 320.93 150.32 315.61 148.61 Q 310.30 146.91 303.83 145.51 Q 297.35 144.10 289.97 143.06 Q 282.59 142.02 274.57 141.38 Q 266.56 140.74 258.23 140.53 Q 249.90 140.31 241.56 140.53 Q 233.23 140.74 225.22 141.38 Q 217.21 142.02 209.82 143.06 Q 202.44 144.10 195.97 145.51 Q 189.49 146.91 184.18 148.61 Q 178.87 150.32 174.92 152.27 Q 170.98 154.22 168.54 156.33 Q 166.11 158.44 165.29 160.64 Q 164.47 162.84 165.29 165.04 Q 166.11 167.24 168.54 169.35 Q 170.98 171.46 174.92 173.41 Q 178.87 175.36 184.18 177.07 Q 189.49 178.77 195.97 180.18 Q 202.44 181.58 209.82 182.62 Q 217.21 183.66 225.22 184.30 Q 233.23 184.94 241.56 185.16 Q 249.90 185.37 258.23 185.16 Q 266.56 184.94 274.57 184.30 Q 282.59 183.66 289.97 182.62 Q 297.35 181.58 303.83 180.18 Q 310.30 178.77 315.61 177.07 Q 320.93 175.36 324.87 173.41 Q 328.82 171.46 331.25 169.35 Q 333.68 167.24 334.50 165.04 Z" />
<polyline points="335.49 339.53 335.49 163.14" fill="none" stroke="rgb(0,0,255)" stroke-width="15" />
<polyline points="164.55 339.53 164.55 163.41" fill="none" stroke="rgb(0,0,255)" stroke-width="15" />
<path fill="none" stroke="rgb(0,0,255)" stroke-width="15" d=" M 165 340 C 165 372 336 372 335 340" />
<path fill="rgb(255,0,0)" stroke="rgb(255,0,0)" stroke-width="10" d=" M 237 44 C 237 38 243 38 243 38 L 256 38 L 256 38 C 262 38 262 44 262 44 L 262 56 L 262 56 C 262 62 256 62 256 62 L 243 62 L 243 62 C 237 62 237 56 237 56 L 237 44 Z" />
<polyline points="249.87 370.08 249.87 404.92 318.88 404.92 180.69 404.92" fill="none" stroke="rgb(0,0,255)" stroke-width="15" />
<polyline points="268.39 450.28 231.12 450.28" fill="none" stroke="rgb(0,0,255)" stroke-width="15" />
<polyline points="292.01 429.75 207.70 429.75" fill="none" stroke="rgb(0,0,255)" stroke-width="15" />
</svg>
