<?xml version="1.0" encoding="utf-8"?>
<!-- Created with "sPlan" (http://www.abacom-online.de) -->
<svg version="1.1" baseProfile="full"
xmlns="http://www.w3.org/2000/svg"
width="80mm" height="80mm"
viewBox="0 0 800 800">
<title>MBEND2</title>
<defs>
<style type="text/css">
<![CDATA[
polyline {stroke-linecap:round; stroke-linejoin:round}
polygon {stroke-linecap:round; stroke-linejoin:round}
path {stroke-linecap:round; stroke-linejoin:round}
circle {stroke-linecap:round; stroke-linejoin:round}
]]>
</style>
</defs>
<polyline points="0.00 200.00 150.00 200.00 150.00 70.00 550.00 70.00 730.00 250.00 730.00 650.00 600.00 650.00 600.00 800.00 600.00 650.00 470.00 650.00 470.00 330.00 150.00 330.00 150.00 200.00" fill="none" stroke="rgb(0,0,255)" stroke-width="2" />
<polyline points="100.00 150.00 50.00 250.00" fill="none" stroke="rgb(0,0,255)" stroke-width="2" />
<path fill="rgb(0,0,255)" stroke="rgb(0,0,255)" stroke-width="0" d=" M 217.32 239.93 L 207.13 239.93 207.19 176.38 205.62 177.76 203.87 179.13 201.94 180.51 199.83 181.89 197.53 183.26 195.19 184.56 192.95 185.73 190.80 186.76 188.75 187.65 186.80 188.41 186.80 178.77 190.13 177.13 193.29 175.35 196.28 173.45 199.10 171.41 201.75 169.23 204.17 167.01 206.28 164.81 208.10 162.64 209.61 160.50 210.83 158.39 217.40 158.39 Z" />
<path fill="rgb(0,0,255)" stroke="rgb(0,0,255)" stroke-width="0" d=" M 626.35 600.73 L 626.33 610.93 572.82 610.93 572.83 609.47 572.95 608.04 573.17 606.64 573.49 605.26 573.92 603.90 574.79 601.68 575.85 599.49 577.09 597.33 578.52 595.19 580.14 593.08 582.02 590.93 584.23 588.67 586.79 586.31 589.69 583.84 592.93 581.26 597.86 577.05 602.08 573.24 605.60 569.85 608.41 566.86 610.53 564.28 612.11 561.92 613.34 559.59 614.22 557.28 614.75 554.99 614.93 552.74 614.76 550.59 614.26 548.58 613.44 546.72 612.28 544.98 610.79 543.39 609.03 542.02 607.07 540.95 604.90 540.19 602.53 539.73 599.96 539.58 597.24 539.73 594.75 540.17 592.49 540.92 590.46 541.96 588.65 543.30 587.12 544.90 585.93 546.73 585.07 548.79 584.54 551.08 584.35 553.59 574.16 552.32 574.81 548.06 575.92 544.22 577.48 540.81 579.51 537.82 581.99 535.26 584.89 533.14 588.15 531.50 591.79 530.32 595.80 529.62 600.17 529.39 604.59 529.65 608.63 530.43 612.28 531.74 615.54 533.56 618.42 535.91 620.84 538.65 622.72 541.64 624.06 544.88 624.86 548.37 625.12 552.12 625.05 554.08 624.83 556.03 624.46 557.96 623.95 559.88 623.30 561.78 622.47 563.70 621.46 565.66 620.25 567.66 618.85 569.70 617.27 571.78 615.33 574.01 612.90 576.53 609.98 579.32 606.56 582.39 602.64 585.74 599.31 588.45 596.48 590.78 594.13 592.74 592.28 594.33 590.92 595.55 589.84 596.58 588.84 597.61 587.92 598.65 587.08 599.69 586.32 600.73 Z" />
</svg>
