<?xml version="1.0" encoding="utf-8"?>
<!-- Created with "sPlan" (http://www.abacom-online.de) -->
<svg version="1.1" baseProfile="full"
xmlns="http://www.w3.org/2000/svg"
width="120mm" height="80mm"
viewBox="0 0 1200 800">
<title>MTEE</title>
<defs>
<style type="text/css">
<![CDATA[
polyline {stroke-linecap:round; stroke-linejoin:round}
polygon {stroke-linecap:round; stroke-linejoin:round}
path {stroke-linecap:round; stroke-linejoin:round}
circle {stroke-linecap:round; stroke-linejoin:round}
]]>
</style>
</defs>
<path fill="rgb(0,0,255)" stroke="rgb(0,0,255)" stroke-width="0" d=" M 222.32 241.93 L 212.13 241.93 212.19 178.38 210.62 179.76 208.87 181.13 206.94 182.51 204.83 183.89 202.53 185.26 200.19 186.56 197.95 187.73 195.80 188.76 193.75 189.65 191.80 190.41 191.80 180.77 195.13 179.13 198.29 177.35 201.28 175.45 204.10 173.41 206.75 171.23 209.17 169.01 211.28 166.81 213.10 164.64 214.61 162.50 215.83 160.39 222.40 160.39 Z" />
<path fill="rgb(0,0,255)" stroke="rgb(0,0,255)" stroke-width="0" d=" M 1019.35 230.73 L 1019.33 240.93 965.82 240.93 965.83 239.47 965.95 238.04 966.17 236.64 966.49 235.26 966.92 233.90 967.79 231.68 968.85 229.49 970.09 227.33 971.52 225.19 973.14 223.08 975.02 220.93 977.23 218.67 979.79 216.31 982.69 213.84 985.93 211.26 990.86 207.05 995.08 203.24 998.60 199.85 1001.41 196.86 1003.53 194.28 1005.11 191.92 1006.34 189.59 1007.22 187.28 1007.75 184.99 1007.93 182.74 1007.76 180.59 1007.26 178.58 1006.44 176.72 1005.28 174.98 1003.79 173.39 1002.03 172.02 1000.07 170.95 997.90 170.19 995.53 169.73 992.96 169.58 990.24 169.73 987.75 170.17 985.49 170.92 983.46 171.96 981.65 173.30 980.12 174.90 978.93 176.73 978.07 178.79 977.54 181.08 977.35 183.59 967.16 182.32 967.81 178.06 968.92 174.22 970.48 170.81 972.51 167.82 974.99 165.26 977.89 163.14 981.15 161.50 984.79 160.32 988.80 159.62 993.17 159.39 997.59 159.65 1001.63 160.43 1005.28 161.74 1008.54 163.56 1011.42 165.91 1013.84 168.65 1015.72 171.64 1017.06 174.88 1017.86 178.37 1018.12 182.12 1018.05 184.08 1017.83 186.03 1017.46 187.96 1016.95 189.88 1016.30 191.78 1015.47 193.70 1014.46 195.66 1013.25 197.66 1011.85 199.70 1010.27 201.78 1008.33 204.01 1005.90 206.53 1002.98 209.32 999.56 212.39 995.64 215.74 992.31 218.45 989.48 220.78 987.13 222.74 985.28 224.33 983.92 225.55 982.84 226.58 981.84 227.61 980.92 228.65 980.08 229.69 979.32 230.73 Z" />
<path fill="rgb(0,0,255)" stroke="rgb(0,0,255)" stroke-width="0" d=" M 575.12 588.27 L 585.31 586.99 586.09 589.80 587.05 592.28 588.17 594.43 589.46 596.24 590.92 597.72 592.58 598.90 594.46 599.82 596.56 600.48 598.89 600.88 601.43 601.01 604.42 600.83 607.15 600.28 609.63 599.38 611.86 598.11 613.83 596.49 615.48 594.59 616.78 592.53 617.70 590.29 618.25 587.88 618.43 585.30 618.26 582.84 617.72 580.56 616.81 578.45 615.54 576.52 613.90 574.76 611.97 573.26 609.85 572.09 607.54 571.26 605.02 570.76 602.31 570.59 601.11 570.63 599.79 570.77 598.36 570.99 596.82 571.30 595.16 571.70 596.32 561.51 596.71 561.55 597.07 561.59 597.39 561.61 597.69 561.63 597.95 561.63 600.47 561.51 602.89 561.16 605.20 560.58 607.41 559.76 609.52 558.70 611.36 557.41 612.80 555.86 613.83 554.06 614.45 552.01 614.65 549.71 614.50 547.85 614.06 546.12 613.32 544.52 612.28 543.06 610.94 541.73 609.37 540.60 607.62 539.71 605.71 539.08 603.62 538.70 601.35 538.58 599.10 538.70 597.00 539.09 595.05 539.72 593.26 540.62 591.63 541.76 590.18 543.16 588.96 544.82 587.96 546.73 587.18 548.90 586.62 551.32 576.43 550.04 577.36 546.10 578.66 542.54 580.33 539.34 582.37 536.51 584.79 534.06 587.52 532.02 590.51 530.43 593.75 529.29 597.25 528.61 601.00 528.38 603.62 528.50 606.16 528.83 608.62 529.39 611.00 530.17 613.29 531.18 615.43 532.38 617.36 533.75 619.08 535.28 620.59 536.97 621.89 538.83 622.96 540.79 623.79 542.80 624.38 544.85 624.73 546.96 624.84 549.11 624.73 551.13 624.39 553.09 623.82 554.97 623.03 556.77 622.01 558.50 620.77 560.13 619.31 561.62 617.63 562.97 615.74 564.18 613.64 565.25 616.39 566.07 618.87 567.17 621.09 568.56 623.05 570.25 624.74 572.22 626.15 574.45 627.24 576.88 628.02 579.54 628.48 582.40 628.63 585.48 628.31 589.65 627.38 593.56 625.81 597.20 623.63 600.59 620.81 603.71 617.52 606.41 613.90 608.50 609.96 610.00 605.68 610.90 601.08 611.20 596.91 610.94 593.05 610.18 589.47 608.90 586.19 607.11 583.21 604.81 580.61 602.10 578.51 599.09 576.89 595.79 575.76 592.18 575.12 588.27 Z" />
<polyline points="0.00 200.00 149.07 200.00 149.07 70.56 1050.14 70.56 1050.14 200.00 1199.63 200.00 1049.97 200.00 1049.97 329.44 730.00 329.44 730.00 649.78 599.90 649.78 599.90 799.57 599.90 649.92 469.92 649.92 469.92 329.44 149.07 329.44 149.07 200.00" fill="none" stroke="rgb(0,0,255)" stroke-width="2" />
<polyline points="100.00 150.00 50.19 249.63" fill="none" stroke="rgb(0,0,255)" stroke-width="2" />
</svg>
