<?xml version="1.0" encoding="utf-8"?>
<!-- Created with "sPlan" (http://www.abacom-online.de) -->
<svg version="1.1" baseProfile="full"
xmlns="http://www.w3.org/2000/svg"
width="240mm" height="80mm"
viewBox="0 0 2400 800">
<title>SRL</title>
<defs>
<style type="text/css">
<![CDATA[
polyline {stroke-linecap:round; stroke-linejoin:round}
polygon {stroke-linecap:round; stroke-linejoin:round}
path {stroke-linecap:round; stroke-linejoin:round}
circle {stroke-linecap:round; stroke-linejoin:round}
]]>
</style>
</defs>
<polyline points="200.00 300.00 100.00 500.00" fill="none" stroke="rgb(0,0,255)" stroke-width="2" />
<polyline points="0.00 400.00 270.00 400.00" fill="none" stroke="rgb(0,0,255)" stroke-width="2" />
<polyline points="270.00 400.00 337.96 219.28 470.22 576.55 602.48 215.11 734.74 576.55 867.00 215.11 999.26 576.55 1071.86 400.00" fill="none" stroke="rgb(0,0,255)" stroke-width="2" />
<path fill="none" stroke="rgb(0,0,255)" stroke-width="2" d=" M 1590.10 400.00 Q 1590.10 400.00 1588.80 386.86 Q 1587.51 373.71 1583.67 361.08 Q 1579.84 348.44 1573.61 336.80 Q 1567.39 325.16 1559.02 314.95 Q 1550.64 304.74 1540.44 296.37 Q 1530.23 287.99 1518.58 281.77 Q 1506.94 275.55 1494.30 271.71 Q 1481.67 267.88 1468.53 266.58 Q 1455.38 265.29 1442.24 266.58 Q 1429.10 267.88 1416.46 271.71 Q 1403.83 275.55 1392.18 281.77 Q 1380.54 287.99 1370.33 296.37 Q 1360.12 304.74 1351.75 314.95 Q 1343.38 325.16 1337.15 336.80 Q 1330.93 348.44 1327.10 361.08 Q 1323.26 373.71 1321.96 386.86 Q 1320.67 400.00 1320.67 400.00" />
<path fill="none" stroke="rgb(0,0,255)" stroke-width="2" d=" M 1859.52 400.00 Q 1859.53 400.00 1858.23 386.86 Q 1856.94 373.71 1853.10 361.08 Q 1849.27 348.44 1843.04 336.80 Q 1836.82 325.16 1828.45 314.95 Q 1820.07 304.74 1809.87 296.37 Q 1799.66 287.99 1788.01 281.77 Q 1776.37 275.55 1763.73 271.71 Q 1751.10 267.88 1737.96 266.58 Q 1724.81 265.29 1711.67 266.58 Q 1698.53 267.88 1685.89 271.71 Q 1673.26 275.55 1661.61 281.77 Q 1649.97 287.99 1639.76 296.37 Q 1629.55 304.74 1621.18 314.95 Q 1612.81 325.16 1606.58 336.80 Q 1600.36 348.44 1596.53 361.08 Q 1592.69 373.71 1591.39 386.86 Q 1590.10 400.00 1590.10 400.00" />
<path fill="none" stroke="rgb(0,0,255)" stroke-width="2" d=" M 2128.95 400.00 Q 2128.96 400.00 2127.66 386.86 Q 2126.37 373.71 2122.53 361.08 Q 2118.70 348.44 2112.47 336.80 Q 2106.25 325.16 2097.88 314.95 Q 2089.50 304.74 2079.30 296.37 Q 2069.09 287.99 2057.44 281.77 Q 2045.80 275.55 2033.16 271.71 Q 2020.53 267.88 2007.39 266.58 Q 1994.24 265.29 1981.10 266.58 Q 1967.96 267.88 1955.32 271.71 Q 1942.69 275.55 1931.04 281.77 Q 1919.40 287.99 1909.19 296.37 Q 1898.98 304.74 1890.61 314.95 Q 1882.24 325.16 1876.01 336.80 Q 1869.79 348.44 1865.95 361.08 Q 1862.12 373.71 1860.82 386.86 Q 1859.53 400.00 1859.53 400.00" />
<polyline points="1071.86 400.00 1320.00 400.00" fill="none" stroke="rgb(0,0,255)" stroke-width="2" />
<polyline points="2129.63 400.00 2399.63 400.00" fill="none" stroke="rgb(0,0,255)" stroke-width="2" />
</svg>
