<?xml version="1.0" encoding="utf-8"?>
<!-- Created with "sPlan" (http://www.abacom-online.de) -->
<svg version="1.1" baseProfile="full"
xmlns="http://www.w3.org/2000/svg"
width="20mm" height="15mm"
viewBox="0 0 205 157">
<title>C</title>
<defs>
<style type="text/css">
<![CDATA[
polyline {stroke-linecap:round; stroke-linejoin:round}
polygon {stroke-linecap:round; stroke-linejoin:round}
path {stroke-linecap:round; stroke-linejoin:round}
circle {stroke-linecap:round; stroke-linejoin:round}
]]>
</style>
</defs>
<path fill="rgb(0,0,0)" stroke="rgb(0,0,0)" stroke-width="0" d=" M 108.55 102.47 L 111.06 103.19 110.67 104.59 110.18 105.85 109.59 106.97 108.89 107.95 108.08 108.79 107.18 109.49 106.21 110.03 105.16 110.42 104.03 110.65 102.83 110.73 101.59 110.67 100.45 110.49 99.41 110.20 98.46 109.79 97.61 109.26 96.84 108.63 96.15 107.89 95.54 107.04 95.01 106.09 94.55 105.03 94.18 103.91 93.88 102.75 93.67 101.56 93.55 100.34 93.51 99.08 93.56 97.73 93.70 96.45 93.94 95.24 94.27 94.11 94.70 93.04 95.22 92.06 95.81 91.17 96.49 90.39 97.25 89.70 98.08 89.12 98.97 88.64 99.90 88.26 100.87 87.99 101.87 87.83 102.90 87.78 104.06 87.85 105.14 88.06 106.14 88.40 107.07 88.89 107.92 89.51 108.69 90.26 109.35 91.12 109.92 92.10 110.39 93.19 110.75 94.39 108.24 95.05 107.94 94.17 107.58 93.38 107.16 92.70 106.70 92.11 106.19 91.63 105.62 91.25 105.00 90.95 104.33 90.73 103.59 90.60 102.80 90.56 101.90 90.61 101.05 90.75 100.26 90.99 99.54 91.32 98.88 91.75 98.28 92.26 97.76 92.83 97.32 93.47 96.95 94.18 96.66 94.94 96.43 95.75 96.25 96.57 96.12 97.39 96.04 98.23 96.01 99.08 96.04 100.15 96.13 101.16 96.29 102.12 96.50 103.02 96.77 103.87 97.10 104.65 97.51 105.34 97.98 105.96 98.51 106.48 99.12 106.93 99.77 107.30 100.44 107.58 101.13 107.78 101.84 107.90 102.58 107.94 103.46 107.89 104.28 107.72 105.05 107.45 105.76 107.06 106.42 106.56 107.01 105.96 107.51 105.25 107.94 104.43 108.29 103.50 108.55 102.47 Z" />
<polyline points="160.78 61.23 111.88 61.23" fill="none" stroke="rgb(0,0,0)" stroke-width="2" />
<polyline points="44.56 61.23 95.78 61.23" fill="none" stroke="rgb(0,0,0)" stroke-width="2" />
<path fill="rgb(255,0,0)" stroke="rgb(255,0,0)" stroke-width="2" d=" M 157 59 C 157 58 159 58 159 58 L 163 58 L 163 58 C 164 58 164 59 164 59 L 164 63 L 164 63 C 164 65 163 65 163 65 L 159 65 L 159 65 C 157 65 157 63 157 63 L 157 59 Z" />
<path fill="rgb(255,0,0)" stroke="rgb(255,0,0)" stroke-width="2" d=" M 41 59 C 41 58 43 58 43 58 L 46 58 L 46 58 C 48 58 48 59 48 59 L 48 63 L 48 63 C 48 65 46 65 46 65 L 43 65 L 43 65 C 41 65 41 63 41 63 L 41 59 Z" />
<path fill="none" stroke="rgb(0,0,0)" stroke-width="2" d=" M 92 41 C 102 61 92 81 92 81" />
<polyline points="111.71 41.00 111.71 81.00" fill="none" stroke="rgb(0,0,0)" stroke-width="2" />
</svg>

