<?xml version="1.0" encoding="utf-8"?>
<svg version="1.1" baseProfile="full"
xmlns="http://www.w3.org/2000/svg"
width="65mm" height="36mm"
viewBox="0 0 652 367">
<title>MSUB</title>
<path fill="rgb(0,0,255)" stroke="rgb(0,0,255)" stroke-width="0" d=" M 83.57 258.35 L 83.70 103.28 111.27 103.28 137.56 212.58 138.95 218.37 140.18 223.55 141.25 228.12 142.16 232.07 142.90 235.41 143.73 231.73 144.71 227.42 145.86 222.47 147.17 216.90 148.65 210.69 174.63 103.28 202.30 103.28 202.17 258.35 186.09 258.35 186.22 122.67 153.77 258.35 132.00 258.35 99.78 122.67 99.65 258.35 Z M 226.33 205.04 L 242.41 205.04 242.97 209.60 243.76 213.82 244.80 217.70 246.08 221.24 247.59 224.45 249.40 227.37 251.57 230.05 254.10 232.51 256.99 234.73 260.23 236.71 263.74 238.40 267.42 239.70 271.28 240.64 275.30 241.20 279.50 241.39 283.22 241.25 286.76 240.82 290.12 240.11 293.31 239.12 296.32 237.85 299.09 236.33 301.57 234.59 303.74 232.65 305.61 230.49 307.19 228.12 308.47 225.62 309.47 223.07 310.18 220.47 310.61 217.82 310.75 215.11 310.65 212.41 310.33 209.85 309.80 207.43 309.05 205.16 308.10 203.02 306.81 201.01 305.08 199.13 302.90 197.37 300.26 195.73 297.18 194.22 294.56 193.16 290.91 191.89 286.22 190.41 280.51 188.72 273.77 186.82 266.96 184.83 261.03 182.88 255.99 180.97 251.83 179.09 248.56 177.26 245.08 174.81 241.97 172.15 239.24 169.27 236.88 166.16 234.90 162.83 233.28 159.31 232.03 155.62 231.13 151.77 230.59 147.75 230.41 143.56 230.64 138.93 231.32 134.42 232.44 130.03 234.01 125.77 236.02 121.62 238.45 117.74 241.30 114.25 244.55 111.15 248.22 108.45 252.30 106.14 256.68 104.24 261.26 102.76 266.02 101.70 270.99 101.07 276.14 100.86 281.77 101.08 287.13 101.74 292.22 102.85 297.04 104.40 301.58 106.39 305.79 108.81 309.59 111.64 312.97 114.89 315.95 118.55 318.53 122.63 320.68 127.03 322.39 131.65 323.66 136.51 324.49 141.59 324.89 146.89 308.81 146.89 308.01 141.88 306.70 137.39 304.88 133.40 302.55 129.93 299.71 126.98 296.32 124.56 292.33 122.67 287.74 121.32 282.55 120.51 276.77 120.24 270.79 120.51 265.50 121.31 260.89 122.64 256.97 124.51 253.73 126.91 251.12 129.68 249.10 132.68 247.65 135.90 246.78 139.34 246.49 143.00 246.69 146.15 247.31 149.07 248.33 151.76 249.77 154.21 251.61 156.44 254.27 158.56 258.22 160.71 263.47 162.88 270.01 165.06 277.85 167.26 285.78 169.42 292.59 171.47 298.28 173.42 302.84 175.26 306.29 176.99 310.29 179.61 313.85 182.49 316.96 185.63 319.63 189.03 321.86 192.70 323.66 196.62 325.06 200.77 326.05 205.15 326.65 209.77 326.84 214.62 326.60 219.49 325.91 224.24 324.75 228.88 323.14 233.40 321.06 237.81 318.54 241.97 315.63 245.74 312.31 249.13 308.58 252.12 304.46 254.73 300.02 256.91 295.37 258.60 290.50 259.80 285.42 260.53 280.13 260.77 273.49 260.51 267.30 259.73 261.56 258.43 256.26 256.60 251.41 254.26 246.98 251.39 242.95 248.00 239.31 244.07 236.08 239.63 233.25 234.65 230.87 229.27 228.98 223.63 227.60 217.70 226.71 211.51 226.33 205.04 Z M 435.48 103.28 L 451.56 103.28 451.50 192.74 451.31 201.70 450.78 209.89 449.89 217.30 448.66 223.95 447.09 229.82 445.05 235.11 442.46 239.98 439.31 244.45 435.60 248.51 431.33 252.16 426.50 255.26 421.10 257.67 415.13 259.39 408.60 260.43 401.49 260.77 394.57 260.47 388.17 259.57 382.29 258.07 376.94 255.97 372.11 253.28 367.81 250.01 364.03 246.20 360.77 241.86 358.04 236.98 355.83 231.56 354.07 225.46 352.71 218.53 351.75 210.76 351.17 202.17 350.99 192.74 351.05 103.28 367.13 103.28 367.07 192.06 367.19 199.66 367.56 206.42 368.19 212.33 369.07 217.39 370.21 221.61 371.66 225.23 373.48 228.50 375.65 231.43 378.19 234.01 381.09 236.24 384.32 238.09 387.82 239.53 391.60 240.56 395.65 241.18 399.99 241.39 407.19 240.98 413.51 239.76 418.96 237.72 423.54 234.87 427.23 231.20 430.17 226.38 432.46 220.05 434.09 212.22 435.08 202.89 435.42 192.06 Z M 479.58 258.35 L 479.70 103.28 528.80 103.28 534.55 103.47 539.83 104.01 544.64 104.92 548.98 106.20 552.84 107.84 556.31 109.87 559.46 112.28 562.30 115.08 564.83 118.28 567.04 121.87 568.88 125.69 570.32 129.59 571.34 133.56 571.95 137.60 572.14 141.71 571.97 145.51 571.45 149.22 570.59 152.85 569.38 156.38 567.82 159.82 565.92 163.09 563.66 166.10 561.04 168.84 558.07 171.33 554.74 173.55 558.67 175.48 562.22 177.90 565.39 180.79 568.18 184.16 570.59 188.01 572.58 192.24 574.13 196.77 575.23 201.60 575.89 206.71 576.10 212.12 575.95 216.54 575.49 220.84 574.73 225.01 573.67 229.05 572.30 232.96 570.71 236.64 568.97 239.96 567.09 242.93 565.07 245.55 562.91 247.80 560.56 249.79 557.98 251.56 555.19 253.14 552.16 254.51 548.91 255.68 545.40 256.64 541.58 257.39 537.46 257.92 533.03 258.24 528.29 258.35 Z M 495.75 166.28 L 525.12 166.28 529.64 166.21 533.61 166.01 537.04 165.68 539.93 165.21 542.27 164.61 544.87 163.63 547.21 162.43 549.27 160.99 551.07 159.33 552.59 157.44 553.84 155.33 554.81 153.01 555.50 150.49 555.92 147.75 556.06 144.81 555.93 142.01 555.54 139.34 554.90 136.81 554.00 134.42 552.84 132.17 551.44 130.12 549.81 128.36 547.96 126.86 545.89 125.64 543.59 124.69 540.83 123.96 537.39 123.40 533.26 122.99 528.43 122.75 522.92 122.67 495.79 122.67 Z M 495.69 238.97 L 528.67 238.97 531.86 238.93 534.65 238.84 537.04 238.69 539.02 238.48 540.61 238.21 542.94 237.64 545.12 236.93 547.14 236.09 549.00 235.11 550.70 233.99 552.27 232.69 553.73 231.18 555.07 229.46 556.29 227.52 557.39 225.37 558.34 223.05 559.07 220.58 559.60 217.96 559.91 215.21 560.02 212.31 559.91 208.94 559.54 205.74 558.94 202.73 558.08 199.90 556.97 197.25 555.59 194.84 553.90 192.74 551.90 190.94 549.60 189.44 547.00 188.25 544.00 187.32 540.51 186.59 536.54 186.08 532.08 185.76 527.13 185.66 495.72 185.66 Z" />
<polyline points="41.00 41.00 611.00 41.00 611.00 326.00 41.00 326.00 41.00 41.00" fill="none" stroke="rgb(0,0,255)" stroke-width="1" />
</svg>
