<?xml version="1.0" encoding="utf-8"?>
<!-- Created with "sPlan" (http://www.abacom-online.de) -->
<svg version="1.1" baseProfile="full"
xmlns="http://www.w3.org/2000/svg"
width="80mm" height="80mm"
viewBox="0 0 800 800">
<title>PRC</title>
<defs>
<style type="text/css">
<![CDATA[
polyline {stroke-linecap:round; stroke-linejoin:round}
polygon {stroke-linecap:round; stroke-linejoin:round}
path {stroke-linecap:round; stroke-linejoin:round}
circle {stroke-linecap:round; stroke-linejoin:round}
]]>
</style>
</defs>
<polyline points="100.00 350.00 50.00 450.00" fill="none" stroke="rgb(0,0,255)" stroke-width="2" />
<path fill="none" stroke="rgb(0,0,255)" stroke-width="2" d=" M 335 470 C 400 600 335 730 335 730" />
<polyline points="464.77 470.04 464.77 730.00" fill="none" stroke="rgb(0,0,255)" stroke-width="2" />
<polyline points="-0.37 400.00 169.63 400.00" fill="none" stroke="rgb(0,0,255)" stroke-width="2" />
<polyline points="629.63 400.00 799.63 400.00" fill="none" stroke="rgb(0,0,255)" stroke-width="2" />
<polyline points="172.58 599.94 363.63 600.00" fill="none" stroke="rgb(0,0,255)" stroke-width="2" />
<polyline points="465.26 600.03 629.97 599.91" fill="none" stroke="rgb(0,0,255)" stroke-width="2" />
<polyline points="629.97 200.08 629.97 599.91" fill="none" stroke="rgb(0,0,255)" stroke-width="2" />
<polyline points="172.58 199.97 172.58 599.94" fill="none" stroke="rgb(0,0,255)" stroke-width="2" />
<polyline points="172.58 199.97 200.39 200.00" fill="none" stroke="rgb(0,0,255)" stroke-width="2" />
<polyline points="600.03 200.10 629.97 200.08" fill="none" stroke="rgb(0,0,255)" stroke-width="2" />
<polyline points="200.39 200.00 234.45 119.39 300.74 278.75 367.03 117.53 433.33 278.75 499.62 117.53 565.91 278.75 600.03 200.10" fill="none" stroke="rgb(0,0,255)" stroke-width="2" />
</svg>
