<?xml version="1.0" encoding="utf-8"?>
<!-- Created with "sPlan" (http://www.abacom-online.de) -->
<svg version="1.1" baseProfile="full"
xmlns="http://www.w3.org/2000/svg"
width="240mm" height="80mm"
viewBox="0 0 2400 800">
<title>SRLC</title>
<defs>
<style type="text/css">
<![CDATA[
polyline {stroke-linecap:round; stroke-linejoin:round}
polygon {stroke-linecap:round; stroke-linejoin:round}
path {stroke-linecap:round; stroke-linejoin:round}
circle {stroke-linecap:round; stroke-linejoin:round}
]]>
</style>
</defs>
<polyline points="200.00 300.00 100.00 500.00" fill="none" stroke="rgb(0,0,255)" stroke-width="2" />
<polyline points="0.00 400.00 270.00 400.00" fill="none" stroke="rgb(0,0,255)" stroke-width="2" />
<polyline points="270.00 400.00 337.96 219.28 470.22 576.55 602.48 215.11 734.74 576.55 867.00 215.11 999.26 576.55 1071.86 400.00" fill="none" stroke="rgb(0,0,255)" stroke-width="2" />
<path fill="none" stroke="rgb(0,0,255)" stroke-width="2" d=" M 1400.10 400.00 Q 1400.10 400.00 1398.80 386.86 Q 1397.51 373.71 1393.67 361.08 Q 1389.84 348.44 1383.61 336.80 Q 1377.39 325.16 1369.02 314.95 Q 1360.64 304.74 1350.44 296.37 Q 1340.23 287.99 1328.58 281.77 Q 1316.94 275.55 1304.30 271.71 Q 1291.67 267.88 1278.53 266.58 Q 1265.38 265.29 1252.24 266.58 Q 1239.10 267.88 1226.46 271.71 Q 1213.83 275.55 1202.18 281.77 Q 1190.54 287.99 1180.33 296.37 Q 1170.12 304.74 1161.75 314.95 Q 1153.38 325.16 1147.15 336.80 Q 1140.93 348.44 1137.10 361.08 Q 1133.26 373.71 1131.96 386.86 Q 1130.67 400.00 1130.67 400.00" />
<path fill="none" stroke="rgb(0,0,255)" stroke-width="2" d=" M 1669.52 400.00 Q 1669.53 400.00 1668.23 386.86 Q 1666.94 373.71 1663.10 361.08 Q 1659.27 348.44 1653.04 336.80 Q 1646.82 325.16 1638.45 314.95 Q 1630.07 304.74 1619.87 296.37 Q 1609.66 287.99 1598.01 281.77 Q 1586.37 275.55 1573.73 271.71 Q 1561.10 267.88 1547.96 266.58 Q 1534.81 265.29 1521.67 266.58 Q 1508.53 267.88 1495.89 271.71 Q 1483.26 275.55 1471.61 281.77 Q 1459.97 287.99 1449.76 296.37 Q 1439.55 304.74 1431.18 314.95 Q 1422.81 325.16 1416.58 336.80 Q 1410.36 348.44 1406.53 361.08 Q 1402.69 373.71 1401.39 386.86 Q 1400.10 400.00 1400.10 400.00" />
<path fill="none" stroke="rgb(0,0,255)" stroke-width="2" d=" M 1938.95 400.00 Q 1938.96 400.00 1937.66 386.86 Q 1936.37 373.71 1932.53 361.08 Q 1928.70 348.44 1922.47 336.80 Q 1916.25 325.16 1907.88 314.95 Q 1899.50 304.74 1889.30 296.37 Q 1879.09 287.99 1867.44 281.77 Q 1855.80 275.55 1843.16 271.71 Q 1830.53 267.88 1817.39 266.58 Q 1804.24 265.29 1791.10 266.58 Q 1777.96 267.88 1765.32 271.71 Q 1752.69 275.55 1741.04 281.77 Q 1729.40 287.99 1719.19 296.37 Q 1708.98 304.74 1700.61 314.95 Q 1692.24 325.16 1686.01 336.80 Q 1679.79 348.44 1675.95 361.08 Q 1672.12 373.71 1670.82 386.86 Q 1669.53 400.00 1669.53 400.00" />
<polyline points="1071.86 400.00 1130.00 400.00" fill="none" stroke="rgb(0,0,255)" stroke-width="2" />
<polyline points="1939.63 400.00 1999.63 400.00" fill="none" stroke="rgb(0,0,255)" stroke-width="2" />
<polyline points="2125.30 400.00 2400.00 400.00" fill="none" stroke="rgb(0,0,255)" stroke-width="2" />
<polyline points="2124.77 150.00 2124.77 650.00" fill="none" stroke="rgb(0,0,255)" stroke-width="2" />
<path fill="none" stroke="rgb(0,0,255)" stroke-width="2" d=" M 1945 150 C 2070 400 1945 650 1945 650" />
</svg>
