<?xml version="1.0" encoding="utf-8"?>
<!-- Created with "sPlan" (http://www.abacom-online.de) -->
<svg version="1.1" baseProfile="full"
xmlns="http://www.w3.org/2000/svg"
width="80mm" height="160mm"
viewBox="0 0 800 1600">
<title>VIA</title>
<defs>
<style type="text/css">
<![CDATA[
polyline {stroke-linecap:round; stroke-linejoin:round}
polygon {stroke-linecap:round; stroke-linejoin:round}
path {stroke-linecap:round; stroke-linejoin:round}
circle {stroke-linecap:round; stroke-linejoin:round}
]]>
</style>
</defs>
<polyline points="400.00 0.00 399.16 572.62" fill="none" stroke="rgb(0,0,255)" stroke-width="2" />
<polyline points="400.00 1100.00 400.00 1600.00" fill="none" stroke="rgb(0,0,255)" stroke-width="2" />
<polyline points="300.00 200.00 500.00 100.00" fill="none" stroke="rgb(0,0,255)" stroke-width="2" />
<path fill="none" stroke="rgb(0,0,255)" stroke-width="2" d=" M 591.43 578.52 Q 593.30 574.62 591.43 570.71 Q 589.56 566.81 584.01 563.06 Q 578.46 559.31 569.45 555.85 Q 560.44 552.39 548.31 549.36 Q 536.19 546.33 521.41 543.84 Q 506.64 541.36 489.78 539.51 Q 472.93 537.66 454.64 536.52 Q 436.34 535.38 417.32 535.00 Q 398.30 534.62 379.28 535.00 Q 360.26 535.38 341.97 536.52 Q 323.68 537.66 306.82 539.51 Q 289.97 541.36 275.19 543.84 Q 260.42 546.33 248.29 549.36 Q 236.17 552.39 227.16 555.85 Q 218.15 559.31 212.60 563.06 Q 207.05 566.81 205.18 570.71 Q 203.30 574.62 205.18 578.52 Q 207.05 582.42 212.60 586.17 Q 218.15 589.92 227.16 593.38 Q 236.17 596.84 248.29 599.87 Q 260.42 602.90 275.19 605.39 Q 289.97 607.87 306.82 609.72 Q 323.68 611.57 341.97 612.71 Q 360.26 613.85 379.28 614.23 Q 398.30 614.62 417.32 614.23 Q 436.34 613.85 454.64 612.71 Q 472.93 611.57 489.78 609.72 Q 506.64 607.87 521.41 605.39 Q 536.19 602.90 548.31 599.87 Q 560.44 596.84 569.45 593.38 Q 578.46 589.92 584.01 586.17 Q 589.56 582.42 591.43 578.52 Z" />
<path fill="none" stroke="rgb(0,0,255)" stroke-width="2" d=" M 646.63 579.44 Q 649.03 572.62 646.63 565.79 Q 644.23 558.96 637.12 552.39 Q 630.01 545.83 618.46 539.78 Q 606.92 533.73 591.38 528.42 Q 575.84 523.12 556.91 518.77 Q 537.98 514.41 516.38 511.18 Q 494.78 507.94 471.35 505.95 Q 447.91 503.96 423.54 503.29 Q 399.16 502.62 374.79 503.29 Q 350.42 503.96 326.98 505.95 Q 303.55 507.94 281.95 511.18 Q 260.35 514.41 241.42 518.77 Q 222.49 523.12 206.95 528.42 Q 191.41 533.73 179.87 539.78 Q 168.32 545.83 161.21 552.39 Q 154.10 558.96 151.70 565.79 Q 149.30 572.62 151.70 579.44 Q 154.10 586.27 161.21 592.84 Q 168.32 599.40 179.87 605.45 Q 191.41 611.51 206.95 616.81 Q 222.49 622.11 241.42 626.47 Q 260.35 630.82 281.95 634.05 Q 303.55 637.29 326.98 639.28 Q 350.42 641.27 374.79 641.94 Q 399.16 642.62 423.54 641.94 Q 447.91 641.27 471.35 639.28 Q 494.78 637.29 516.38 634.05 Q 537.98 630.82 556.91 626.47 Q 575.84 622.11 591.38 616.81 Q 606.92 611.51 618.46 605.45 Q 630.01 599.40 637.12 592.84 Q 644.23 586.27 646.63 579.44 Z" />
<polyline points="649.53 1023.18 649.53 573.55" fill="none" stroke="rgb(0,0,255)" stroke-width="2" />
<polyline points="149.53 1023.18 149.53 574.39" fill="none" stroke="rgb(0,0,255)" stroke-width="2" />
<path fill="none" stroke="rgb(0,0,255)" stroke-width="2" d=" M 150 1023 C 150 1124 650 1124 650 1023" />
</svg>
