<?xml version="1.0" encoding="utf-8"?>
<!-- Created with "sPlan" (http://www.abacom-online.de) -->
<svg version="1.1" baseProfile="full"
xmlns="http://www.w3.org/2000/svg"
width="120mm" height="120mm"
viewBox="0 0 1200 1200">
<title>MCROS</title>
<defs>
<style type="text/css">
<![CDATA[
polyline {stroke-linecap:round; stroke-linejoin:round}
polygon {stroke-linecap:round; stroke-linejoin:round}
path {stroke-linecap:round; stroke-linejoin:round}
circle {stroke-linecap:round; stroke-linejoin:round}
]]>
</style>
</defs>
<path fill="rgb(0,0,255)" stroke="rgb(0,0,255)" stroke-width="0" d=" M 222.32 641.93 L 212.13 641.93 212.19 578.38 210.62 579.76 208.87 581.13 206.94 582.51 204.83 583.89 202.53 585.26 200.19 586.56 197.95 587.73 195.80 588.76 193.75 589.65 191.80 590.41 191.80 580.77 195.13 579.13 198.29 577.35 201.28 575.45 204.10 573.41 206.75 571.23 209.17 569.01 211.28 566.81 213.10 564.64 214.61 562.50 215.83 560.39 222.40 560.39 Z" />
<path fill="rgb(0,0,255)" stroke="rgb(0,0,255)" stroke-width="0" d=" M 627.35 257.73 L 627.33 267.93 573.82 267.93 573.83 266.47 573.95 265.04 574.17 263.64 574.49 262.26 574.92 260.90 575.79 258.68 576.85 256.49 578.09 254.33 579.52 252.19 581.14 250.08 583.02 247.93 585.23 245.67 587.79 243.31 590.69 240.84 593.93 238.26 598.86 234.05 603.08 230.24 606.60 226.85 609.41 223.86 611.53 221.28 613.11 218.92 614.34 216.59 615.22 214.28 615.75 211.99 615.93 209.74 615.76 207.59 615.26 205.58 614.44 203.72 613.28 201.98 611.79 200.39 610.03 199.02 608.07 197.95 605.90 197.19 603.53 196.73 600.96 196.58 598.24 196.73 595.75 197.17 593.49 197.92 591.46 198.96 589.65 200.30 588.12 201.90 586.93 203.73 586.07 205.79 585.54 208.08 585.35 210.59 575.16 209.32 575.81 205.06 576.92 201.22 578.48 197.81 580.51 194.82 582.99 192.26 585.89 190.14 589.15 188.50 592.79 187.32 596.80 186.62 601.17 186.39 605.59 186.65 609.63 187.43 613.28 188.74 616.54 190.56 619.42 192.91 621.84 195.65 623.72 198.64 625.06 201.88 625.86 205.37 626.12 209.12 626.05 211.08 625.83 213.03 625.46 214.96 624.95 216.88 624.30 218.78 623.47 220.70 622.46 222.66 621.25 224.66 619.85 226.70 618.27 228.78 616.33 231.01 613.90 233.53 610.98 236.32 607.56 239.39 603.64 242.74 600.31 245.45 597.48 247.78 595.13 249.74 593.28 251.33 591.92 252.55 590.84 253.58 589.84 254.61 588.92 255.65 588.08 256.69 587.32 257.73 Z" />
<path fill="rgb(0,0,255)" stroke="rgb(0,0,255)" stroke-width="0" d=" M 968.12 620.27 L 978.31 618.99 979.09 621.80 980.05 624.28 981.17 626.43 982.46 628.24 983.92 629.72 985.58 630.90 987.46 631.82 989.56 632.48 991.89 632.88 994.43 633.01 997.42 632.83 1000.15 632.28 1002.63 631.38 1004.86 630.11 1006.83 628.49 1008.48 626.59 1009.78 624.53 1010.70 622.29 1011.25 619.88 1011.43 617.30 1011.26 614.84 1010.72 612.56 1009.81 610.45 1008.54 608.52 1006.90 606.76 1004.97 605.26 1002.85 604.09 1000.54 603.26 998.02 602.76 995.31 602.59 994.11 602.63 992.79 602.77 991.36 602.99 989.82 603.30 988.16 603.70 989.32 593.51 989.71 593.55 990.07 593.59 990.39 593.61 990.69 593.63 990.95 593.63 993.47 593.51 995.89 593.16 998.20 592.58 1000.41 591.76 1002.52 590.70 1004.36 589.41 1005.80 587.86 1006.83 586.06 1007.45 584.01 1007.65 581.71 1007.50 579.85 1007.06 578.12 1006.32 576.52 1005.28 575.06 1003.94 573.73 1002.37 572.60 1000.62 571.71 998.71 571.08 996.62 570.70 994.35 570.58 992.10 570.70 990.00 571.09 988.05 571.72 986.26 572.62 984.63 573.76 983.18 575.16 981.96 576.82 980.96 578.73 980.18 580.90 979.62 583.32 969.43 582.04 970.36 578.10 971.66 574.54 973.33 571.34 975.37 568.51 977.79 566.06 980.52 564.02 983.51 562.43 986.75 561.29 990.25 560.61 994.00 560.39 996.62 560.50 999.16 560.83 1001.62 561.39 1004.00 562.18 1006.29 563.18 1008.43 564.38 1010.36 565.75 1012.08 567.28 1013.59 568.97 1014.89 570.83 1015.96 572.79 1016.79 574.80 1017.38 576.85 1017.73 578.96 1017.84 581.11 1017.73 583.13 1017.39 585.09 1016.82 586.97 1016.03 588.77 1015.01 590.50 1013.77 592.13 1012.31 593.62 1010.63 594.97 1008.74 596.18 1006.64 597.25 1009.39 598.07 1011.87 599.17 1014.09 600.56 1016.05 602.25 1017.74 604.22 1019.15 606.45 1020.24 608.88 1021.02 611.54 1021.48 614.40 1021.63 617.48 1021.31 621.65 1020.38 625.56 1018.81 629.20 1016.63 632.59 1013.81 635.71 1010.52 638.41 1006.90 640.50 1002.96 642.00 998.68 642.90 994.08 643.20 989.91 642.94 986.05 642.18 982.47 640.90 979.19 639.11 976.21 636.81 973.61 634.10 971.51 631.09 969.89 627.79 968.76 624.18 968.12 620.27 Z" />
<path fill="rgb(0,0,255)" stroke="rgb(0,0,255)" stroke-width="0" d=" M 608.22 1009.93 L 608.24 990.81 571.29 990.81 571.31 980.62 610.85 929.66 618.49 929.66 618.45 980.62 628.65 980.62 628.63 990.81 618.43 990.81 618.41 1009.93 Z M 608.26 980.62 L 608.28 949.13 583.86 980.62 Z" />
<polyline points="0.00 600.00 149.07 600.00 149.07 470.56 469.77 470.56 469.77 150.00 600.00 150.00 600.00 0.70 600.00 149.97 730.22 149.97 730.22 470.56 1050.14 470.56 1050.14 600.00 1199.63 600.00 1049.97 600.00 1049.97 729.44 730.00 729.44 730.00 1050.24 599.90 1050.24 599.90 1199.57 599.90 1049.92 470.71 1049.92 470.71 729.44 149.07 729.44 149.07 600.00" fill="none" stroke="rgb(0,0,255)" stroke-width="2" />
<polyline points="100.00 550.00 50.19 649.63" fill="none" stroke="rgb(0,0,255)" stroke-width="2" />
</svg>
