<?xml version="1.0" encoding="utf-8"?>
<!-- Created with "sPlan" (http://www.abacom-online.de) -->
<svg version="1.1" baseProfile="full"
xmlns="http://www.w3.org/2000/svg"
width="160mm" height="80mm"
viewBox="0 0 1600 800">
<title>MRIND</title>
<defs>
<style type="text/css">
<![CDATA[
polyline {stroke-linecap:round; stroke-linejoin:round}
polygon {stroke-linecap:round; stroke-linejoin:round}
path {stroke-linecap:round; stroke-linejoin:round}
circle {stroke-linecap:round; stroke-linejoin:round}
]]>
</style>
</defs>
<polyline points="101.00 500.00 201.00 300.00" fill="none" stroke="rgb(0,0,255)" stroke-width="2" />
<polyline points="1601.00 400.00 996.13 400.00" fill="none" stroke="rgb(0,0,255)" stroke-width="2" />
<polyline points="1.00 400.00 351.00 400.00" fill="none" stroke="rgb(0,0,255)" stroke-width="2" />
<path fill="rgb(0,0,255)" stroke="rgb(0,0,255)" stroke-width="0" d=" M 1435.35 351.73 L 1435.33 361.93 1381.82 361.93 1381.83 360.47 1381.95 359.04 1382.17 357.64 1382.49 356.26 1382.92 354.90 1383.79 352.68 1384.85 350.49 1386.09 348.33 1387.52 346.19 1389.14 344.08 1391.02 341.93 1393.23 339.67 1395.79 337.31 1398.69 334.84 1401.93 332.26 1406.86 328.05 1411.08 324.24 1414.60 320.85 1417.41 317.86 1419.53 315.28 1421.11 312.92 1422.34 310.59 1423.22 308.28 1423.75 305.99 1423.93 303.74 1423.76 301.59 1423.26 299.58 1422.44 297.72 1421.28 295.98 1419.79 294.39 1418.03 293.02 1416.07 291.95 1413.90 291.19 1411.53 290.73 1408.96 290.58 1406.24 290.73 1403.75 291.17 1401.49 291.92 1399.46 292.96 1397.65 294.30 1396.12 295.90 1394.93 297.73 1394.07 299.79 1393.54 302.08 1393.35 304.59 1383.16 303.32 1383.81 299.06 1384.92 295.22 1386.48 291.81 1388.51 288.82 1390.99 286.26 1393.89 284.14 1397.15 282.50 1400.79 281.32 1404.80 280.62 1409.17 280.39 1413.59 280.65 1417.63 281.43 1421.28 282.74 1424.54 284.56 1427.42 286.91 1429.84 289.65 1431.72 292.64 1433.06 295.88 1433.86 299.37 1434.12 303.12 1434.05 305.08 1433.83 307.03 1433.46 308.96 1432.95 310.88 1432.30 312.78 1431.47 314.70 1430.46 316.66 1429.25 318.66 1427.85 320.70 1426.27 322.78 1424.33 325.01 1421.90 327.53 1418.98 330.32 1415.56 333.39 1411.64 336.74 1408.31 339.45 1405.48 341.78 1403.13 343.74 1401.28 345.33 1399.92 346.55 1398.84 347.58 1397.84 348.61 1396.92 349.65 1396.08 350.69 1395.32 351.73 Z" />
<path fill="rgb(0,0,255)" stroke="rgb(0,0,255)" stroke-width="0" d=" M 254.32 360.93 L 244.13 360.93 244.19 297.38 242.62 298.76 240.87 300.13 238.94 301.51 236.83 302.89 234.53 304.26 232.19 305.56 229.95 306.73 227.80 307.76 225.75 308.65 223.80 309.41 223.80 299.77 227.13 298.13 230.29 296.35 233.28 294.45 236.10 292.41 238.75 290.23 241.17 288.01 243.28 285.81 245.10 283.64 246.61 281.50 247.83 279.39 254.40 279.39 Z" />
<polyline points="351.00 400.00 351.00 797.72 1150.00 797.72 1150.00 2.80 450.00 2.80 450.00 700.00 1050.00 700.00 1050.00 100.00 550.00 100.00 550.00 600.00 950.00 600.00 950.00 400.00 996.13 400.00" fill="none" stroke="rgb(0,0,255)" stroke-width="2" />
</svg>
