<?xml version="1.0" encoding="utf-8"?>
<!-- Created with "sPlan" (http://www.abacom-online.de) -->
<svg version="1.1" baseProfile="full"
xmlns="http://www.w3.org/2000/svg"
width="160mm" height="80mm"
viewBox="0 0 1600 800">
<title>MSIND</title>
<defs>
<style type="text/css">
<![CDATA[
polyline {stroke-linecap:round; stroke-linejoin:round}
polygon {stroke-linecap:round; stroke-linejoin:round}
path {stroke-linecap:round; stroke-linejoin:round}
circle {stroke-linecap:round; stroke-linejoin:round}
]]>
</style>
</defs>
<polyline points="1500.00 300.00 1400.00 500.00" fill="none" stroke="rgb(0,0,255)" stroke-width="2" />
<polyline points="0.00 400.00 604.87 400.00" fill="none" stroke="rgb(0,0,255)" stroke-width="2" />
<polyline points="1600.00 400.00 1250.00 400.00" fill="none" stroke="rgb(0,0,255)" stroke-width="2" />
<path fill="none" stroke="rgb(0,0,255)" stroke-width="2" d=" M 605 400 C 605 658 992 658 992 400 C 992 13 476 13 476 400 C 476 787 1121 787 1121 400 C 1121 -116 347 -116 347 400 C 347 916 1250 916 1250 400" />
<path fill="rgb(0,0,255)" stroke="rgb(0,0,255)" stroke-width="0" d=" M 1422.32 361.93 L 1412.13 361.93 1412.19 298.38 1410.62 299.76 1408.87 301.13 1406.94 302.51 1404.83 303.89 1402.53 305.26 1400.19 306.56 1397.95 307.73 1395.80 308.76 1393.75 309.65 1391.80 310.41 1391.80 300.77 1395.13 299.13 1398.29 297.35 1401.28 295.45 1404.10 293.41 1406.75 291.23 1409.17 289.01 1411.28 286.81 1413.10 284.64 1414.61 282.50 1415.83 280.39 1422.40 280.39 Z" />
<path fill="rgb(0,0,255)" stroke="rgb(0,0,255)" stroke-width="0" d=" M 219.35 350.73 L 219.33 360.93 165.82 360.93 165.83 359.47 165.95 358.04 166.17 356.64 166.49 355.26 166.92 353.90 167.79 351.68 168.85 349.49 170.09 347.33 171.52 345.19 173.14 343.08 175.02 340.93 177.23 338.67 179.79 336.31 182.69 333.84 185.93 331.26 190.86 327.05 195.08 323.24 198.60 319.85 201.41 316.86 203.53 314.28 205.11 311.92 206.34 309.59 207.22 307.28 207.75 304.99 207.93 302.74 207.76 300.59 207.26 298.58 206.44 296.72 205.28 294.98 203.79 293.39 202.03 292.02 200.07 290.95 197.90 290.19 195.53 289.73 192.96 289.58 190.24 289.73 187.75 290.17 185.49 290.92 183.46 291.96 181.65 293.30 180.12 294.90 178.93 296.73 178.07 298.79 177.54 301.08 177.35 303.59 167.16 302.32 167.81 298.06 168.92 294.22 170.48 290.81 172.51 287.82 174.99 285.26 177.89 283.14 181.15 281.50 184.79 280.32 188.80 279.62 193.17 279.39 197.59 279.65 201.63 280.43 205.28 281.74 208.54 283.56 211.42 285.91 213.84 288.65 215.72 291.64 217.06 294.88 217.86 298.37 218.12 302.12 218.05 304.08 217.83 306.03 217.46 307.96 216.95 309.88 216.30 311.78 215.47 313.70 214.46 315.66 213.25 317.66 211.85 319.70 210.27 321.78 208.33 324.01 205.90 326.53 202.98 329.32 199.56 332.39 195.64 335.74 192.31 338.45 189.48 340.78 187.13 342.74 185.28 344.33 183.92 345.55 182.84 346.58 181.84 347.61 180.92 348.65 180.08 349.69 179.32 350.73 Z" />
</svg>
