<?xml version="1.0" encoding="utf-8"?>
<!-- Created with "sPlan" (http://www.abacom-online.de) -->
<svg version="1.1" baseProfile="full"
xmlns="http://www.w3.org/2000/svg"
width="80mm" height="80mm"
viewBox="0 0 800 800">
<title>PRL</title>
<defs>
<style type="text/css">
<![CDATA[
polyline {stroke-linecap:round; stroke-linejoin:round}
polygon {stroke-linecap:round; stroke-linejoin:round}
path {stroke-linecap:round; stroke-linejoin:round}
circle {stroke-linecap:round; stroke-linejoin:round}
]]>
</style>
</defs>
<polyline points="100.00 350.00 50.00 450.00" fill="none" stroke="rgb(0,0,255)" stroke-width="2" />
<path fill="none" stroke="rgb(0,0,255)" stroke-width="2" d=" M 333.21 200.00 Q 333.21 200.00 332.57 193.52 Q 331.93 187.04 330.04 180.81 Q 328.15 174.58 325.08 168.84 Q 322.01 163.11 317.88 158.07 Q 313.76 153.04 308.72 148.91 Q 303.69 144.78 297.95 141.72 Q 292.21 138.65 285.98 136.76 Q 279.75 134.87 273.28 134.23 Q 266.80 133.59 260.32 134.23 Q 253.84 134.87 247.61 136.76 Q 241.38 138.65 235.64 141.72 Q 229.90 144.78 224.87 148.91 Q 219.84 153.04 215.71 158.07 Q 211.58 163.11 208.51 168.84 Q 205.45 174.58 203.56 180.81 Q 201.67 187.04 201.03 193.52 Q 200.39 200.00 200.39 200.00" />
<path fill="none" stroke="rgb(0,0,255)" stroke-width="2" d=" M 466.02 200.00 Q 466.02 200.00 465.38 193.52 Q 464.75 187.04 462.86 180.81 Q 460.96 174.58 457.90 168.84 Q 454.83 163.11 450.70 158.07 Q 446.57 153.04 441.54 148.91 Q 436.51 144.78 430.77 141.72 Q 425.03 138.65 418.80 136.76 Q 412.57 134.87 406.09 134.23 Q 399.61 133.59 393.14 134.23 Q 386.66 134.87 380.43 136.76 Q 374.20 138.65 368.46 141.72 Q 362.72 144.78 357.69 148.91 Q 352.65 153.04 348.53 158.07 Q 344.40 163.11 341.33 168.84 Q 338.26 174.58 336.37 180.81 Q 334.48 187.04 333.84 193.52 Q 333.21 200.00 333.20 200.00" />
<path fill="none" stroke="rgb(0,0,255)" stroke-width="2" d=" M 598.84 200.00 Q 598.84 200.00 598.20 193.52 Q 597.56 187.04 595.67 180.81 Q 593.78 174.58 590.71 168.84 Q 587.65 163.11 583.52 158.07 Q 579.39 153.04 574.36 148.91 Q 569.33 144.78 563.59 141.72 Q 557.85 138.65 551.62 136.76 Q 545.39 134.87 538.91 134.23 Q 532.43 133.59 525.95 134.23 Q 519.47 134.87 513.24 136.76 Q 507.02 138.65 501.28 141.72 Q 495.54 144.78 490.50 148.91 Q 485.47 153.04 481.34 158.07 Q 477.22 163.11 474.15 168.84 Q 471.08 174.58 469.19 180.81 Q 467.30 187.04 466.66 193.52 Q 466.02 200.00 466.02 200.00" />
<polyline points="-0.37 400.00 169.63 400.00" fill="none" stroke="rgb(0,0,255)" stroke-width="2" />
<polyline points="629.63 400.00 799.63 400.00" fill="none" stroke="rgb(0,0,255)" stroke-width="2" />
<polyline points="629.97 200.08 629.97 599.91" fill="none" stroke="rgb(0,0,255)" stroke-width="2" />
<polyline points="172.58 199.97 172.58 599.94" fill="none" stroke="rgb(0,0,255)" stroke-width="2" />
<polyline points="172.58 199.97 200.39 200.00" fill="none" stroke="rgb(0,0,255)" stroke-width="2" />
<polyline points="598.84 200.00 629.97 200.08" fill="none" stroke="rgb(0,0,255)" stroke-width="2" />
<polyline points="172.58 599.94 200.39 599.96" fill="none" stroke="rgb(0,0,255)" stroke-width="2" />
<polyline points="600.03 600.06 629.97 600.04" fill="none" stroke="rgb(0,0,255)" stroke-width="2" />
<polyline points="200.39 599.96 234.45 519.36 300.74 678.71 367.03 517.50 433.33 678.71 499.62 517.50 565.91 678.71 600.03 600.04" fill="none" stroke="rgb(0,0,255)" stroke-width="2" />
</svg>
