<?xml version="1.0" encoding="utf-8"?>
<!-- Created with "sPlan" (http://www.abacom-online.de) -->
<svg version="1.1" baseProfile="full"
xmlns="http://www.w3.org/2000/svg"
width="80mm" height="160mm"
viewBox="0 0 800 1600">
<title>TERM</title>
<defs>
<style type="text/css">
<![CDATA[
polyline {stroke-linecap:round; stroke-linejoin:round}
polygon {stroke-linecap:round; stroke-linejoin:round}
path {stroke-linecap:round; stroke-linejoin:round}
circle {stroke-linecap:round; stroke-linejoin:round}
]]>
</style>
</defs>
<polyline points="400.00 0.00 400.00 300.00 660.00 300.00 660.00 1300.00 400.00 1300.00 400.00 1600.00 400.00 1300.00 140.00 1300.00 140.00 300.00 400.00 300.00" fill="none" stroke="rgb(0,0,255)" stroke-width="2" />
<polyline points="400.00 300.00 400.00 537.83 545.72 581.88 257.64 667.60 549.08 753.32 257.64 839.04 549.08 924.76 257.64 1010.48 400.00 1057.53 400.00 1300.00" fill="none" stroke="rgb(0,0,255)" stroke-width="2" />
<path fill="rgb(0,0,255)" stroke="rgb(0,0,255)" stroke-width="0" d=" M 225.06 447.18 L 225.09 413.63 191.53 413.63 191.53 397.83 225.09 397.83 225.15 364.27 240.95 364.27 240.88 397.83 274.44 397.83 274.44 413.63 240.88 413.63 240.85 447.18 Z" />
<polyline points="300.00 200.00 500.00 100.00" fill="none" stroke="rgb(0,0,255)" stroke-width="2" />
</svg>
