<?xml version="1.0" encoding="utf-8"?>
<!-- Created with "sPlan" (http://www.abacom-online.de) -->
<svg version="1.1" baseProfile="full"
xmlns="http://www.w3.org/2000/svg"
width="80mm" height="160mm"
viewBox="0 0 800 1600">
<title>TERMG</title>
<defs>
<style type="text/css">
<![CDATA[
polyline {stroke-linecap:round; stroke-linejoin:round}
polygon {stroke-linecap:round; stroke-linejoin:round}
path {stroke-linecap:round; stroke-linejoin:round}
circle {stroke-linecap:round; stroke-linejoin:round}
]]>
</style>
</defs>
<polyline points="400.03 1.00 400.03 301.00 660.03 301.00 660.03 1301.00 400.03 1301.00 140.03 1301.00 140.03 301.00 400.03 301.00" fill="none" stroke="rgb(0,0,255)" stroke-width="2" />
<polyline points="400.03 301.00 400.03 483.34 545.75 517.11 257.67 582.82 549.11 648.54 257.67 714.26 549.11 779.98 257.67 845.70 400.03 881.77 400.03 1049.86" fill="none" stroke="rgb(0,0,255)" stroke-width="2" />
<path fill="rgb(0,0,255)" stroke="rgb(0,0,255)" stroke-width="0" d=" M 226.48 458.18 L 226.51 424.63 192.95 424.63 192.95 408.83 226.51 408.83 226.57 375.27 242.36 375.27 242.30 408.83 275.86 408.83 275.86 424.63 242.30 424.63 242.27 458.18 Z" />
<polyline points="575.00 1050.00 225.00 1050.00" fill="none" stroke="rgb(0,0,255)" stroke-width="2" />
<polyline points="505.00 1125.00 295.00 1125.00" fill="none" stroke="rgb(0,0,255)" stroke-width="2" />
<polyline points="435.00 1200.00 365.00 1200.00" fill="none" stroke="rgb(0,0,255)" stroke-width="2" />
</svg>
