<?xml version="1.0" encoding="utf-8"?>
<!-- Created with "sPlan" (http://www.abacom-online.de) -->
<svg version="1.1" baseProfile="full"
xmlns="http://www.w3.org/2000/svg"
width="80mm" height="200mm"
viewBox="0 0 800 2000">
<title>TF3</title>
<defs>
<style type="text/css">
<![CDATA[
polyline {stroke-linecap:round; stroke-linejoin:round}
polygon {stroke-linecap:round; stroke-linejoin:round}
path {stroke-linecap:round; stroke-linejoin:round}
circle {stroke-linecap:round; stroke-linejoin:round}
]]>
</style>
</defs>
<path fill="rgb(0,0,255)" stroke="rgb(0,0,255)" stroke-width="0" d=" M 95.46 439.93 L 95.54 368.58 68.78 368.58 68.78 358.39 132.49 358.39 132.49 368.58 105.73 368.58 105.65 439.93 Z M 178.27 439.93 L 168.08 439.93 168.14 376.38 166.58 377.76 164.83 379.13 162.90 380.51 160.78 381.89 158.49 383.26 156.15 384.56 153.90 385.73 151.76 386.76 149.71 387.65 147.76 388.41 147.76 378.77 151.09 377.13 154.25 375.35 157.24 373.45 160.06 371.41 162.71 369.23 165.12 367.01 167.24 364.81 169.05 362.64 170.57 360.50 171.78 358.39 178.35 358.39 Z" />
<polyline points="360.00 200.00 360.00 1800.00" fill="none" stroke="rgb(0,0,255)" stroke-width="2" />
<polyline points="440.00 200.00 440.00 1800.00" fill="none" stroke="rgb(0,0,255)" stroke-width="2" />
<path fill="rgb(0,0,255)" stroke="rgb(0,0,255)" stroke-width="0" d=" M 95.46 1639.88 L 95.54 1568.53 68.78 1568.53 68.78 1558.34 132.49 1558.34 132.49 1568.53 105.73 1568.53 105.65 1639.88 Z M 192.31 1629.68 L 192.29 1639.88 138.78 1639.88 138.79 1638.42 138.91 1636.99 139.12 1635.59 139.45 1634.21 139.87 1632.85 140.75 1630.63 141.80 1628.44 143.05 1626.28 144.48 1624.14 146.09 1622.03 147.97 1619.88 150.19 1617.62 152.75 1615.26 155.65 1612.79 158.88 1610.22 163.81 1606.00 168.04 1602.20 171.55 1598.80 174.37 1595.81 176.48 1593.23 178.07 1590.87 179.30 1588.54 180.18 1586.23 180.71 1583.95 180.88 1581.69 180.72 1579.54 180.22 1577.54 179.39 1575.67 178.23 1573.94 176.74 1572.34 174.98 1570.97 173.02 1569.90 170.86 1569.14 168.49 1568.68 165.91 1568.53 163.20 1568.68 160.71 1569.13 158.45 1569.87 156.41 1570.91 154.60 1572.25 153.08 1573.86 151.88 1575.69 151.02 1577.74 150.50 1580.03 150.30 1582.54 140.11 1581.27 140.76 1577.01 141.87 1573.17 143.44 1569.76 145.46 1566.77 147.95 1564.21 150.84 1562.10 154.11 1560.45 157.75 1559.28 161.75 1558.57 166.13 1558.34 170.55 1558.60 174.58 1559.38 178.23 1560.69 181.50 1562.52 184.38 1564.87 186.79 1567.60 188.67 1570.59 190.01 1573.83 190.81 1577.33 191.07 1581.07 191.00 1583.03 190.78 1584.98 190.42 1586.91 189.91 1588.83 189.25 1590.74 188.43 1592.66 187.41 1594.61 186.21 1596.61 184.81 1598.65 183.22 1600.73 181.29 1602.97 178.86 1605.48 175.94 1608.28 172.52 1611.35 168.60 1614.69 165.27 1617.40 162.43 1619.73 160.09 1621.69 158.23 1623.28 156.87 1624.50 155.80 1625.53 154.80 1626.57 153.88 1627.60 153.04 1628.64 152.28 1629.68 Z" />
<path fill="rgb(0,0,255)" stroke="rgb(0,0,255)" stroke-width="0" d=" M 686.47 1038.74 L 676.28 1038.74 676.34 975.19 674.78 976.57 673.03 977.95 671.10 979.32 668.98 980.70 666.69 982.07 664.35 983.38 662.10 984.54 659.96 985.57 657.91 986.46 655.96 987.22 655.96 977.58 659.29 975.94 662.45 974.16 665.44 972.26 668.26 970.22 670.91 968.05 673.32 965.82 675.44 963.63 677.25 961.46 678.77 959.31 679.98 957.20 686.55 957.20 Z" />
<polyline points="0.00 1.03 200.05 1.03 200.05 100.04" fill="none" stroke="rgb(0,0,255)" stroke-width="2" />
<polyline points="200.05 700.50 200.00 800.00 0.00 800.00" fill="none" stroke="rgb(0,0,255)" stroke-width="2" />
<circle cx="150.09" cy="50.04" r="20.09" fill="none" stroke="rgb(0,0,255)" stroke-width="2" />
<path fill="none" stroke="rgb(0,0,255)" stroke-width="2" d=" M 200.05 499.85 Q 200.05 499.85 209.76 498.89 Q 219.48 497.93 228.82 495.10 Q 238.16 492.26 246.76 487.66 Q 255.37 483.06 262.91 476.87 Q 270.46 470.68 276.65 463.14 Q 282.84 455.59 287.44 446.99 Q 292.04 438.38 294.87 429.04 Q 297.71 419.70 298.66 409.99 Q 299.62 400.27 298.66 390.56 Q 297.71 380.84 294.87 371.50 Q 292.04 362.16 287.44 353.56 Q 282.84 344.95 276.65 337.40 Q 270.46 329.86 262.91 323.67 Q 255.37 317.48 246.76 312.88 Q 238.16 308.28 228.82 305.45 Q 219.48 302.61 209.76 301.65 Q 200.05 300.70 200.05 300.69" />
<path fill="none" stroke="rgb(0,0,255)" stroke-width="2" d=" M 200.05 299.70 Q 200.05 299.69 209.76 298.73 Q 219.48 297.78 228.82 294.94 Q 238.16 292.11 246.76 287.51 Q 255.37 282.91 262.91 276.72 Q 270.46 270.53 276.65 262.98 Q 282.84 255.44 287.44 246.83 Q 292.04 238.22 294.87 228.88 Q 297.71 219.54 298.66 209.83 Q 299.62 200.12 298.66 190.40 Q 297.71 180.69 294.87 171.35 Q 292.04 162.01 287.44 153.40 Q 282.84 144.79 276.65 137.25 Q 270.46 129.70 262.91 123.51 Q 255.37 117.32 246.76 112.72 Q 238.16 108.12 228.82 105.29 Q 219.48 102.46 209.76 101.50 Q 200.05 100.54 200.05 100.54" />
<path fill="none" stroke="rgb(0,0,255)" stroke-width="2" d=" M 200.05 700.01 Q 200.05 700.00 209.76 699.04 Q 219.48 698.09 228.82 695.25 Q 238.16 692.42 246.76 687.82 Q 255.37 683.22 262.91 677.03 Q 270.46 670.84 276.65 663.29 Q 282.84 655.75 287.44 647.14 Q 292.04 638.54 294.87 629.20 Q 297.71 619.86 298.66 610.14 Q 299.62 600.43 298.66 590.71 Q 297.71 581.00 294.87 571.66 Q 292.04 562.32 287.44 553.71 Q 282.84 545.11 276.65 537.56 Q 270.46 530.01 262.91 523.82 Q 255.37 517.64 246.76 513.04 Q 238.16 508.44 228.82 505.60 Q 219.48 502.77 209.76 501.81 Q 200.05 500.85 200.05 500.85" />
<polyline points="0.00 1200.00 199.98 1200.00 200.05 1300.04" fill="none" stroke="rgb(0,0,255)" stroke-width="2" />
<polyline points="200.05 1900.51 200.05 1998.93 0.00 1998.93" fill="none" stroke="rgb(0,0,255)" stroke-width="2" />
<circle cx="150.09" cy="1250.04" r="20.09" fill="none" stroke="rgb(0,0,255)" stroke-width="2" />
<path fill="none" stroke="rgb(0,0,255)" stroke-width="2" d=" M 200.05 1699.85 Q 200.05 1699.85 209.76 1698.89 Q 219.48 1697.93 228.82 1695.10 Q 238.16 1692.26 246.76 1687.66 Q 255.37 1683.06 262.91 1676.87 Q 270.46 1670.68 276.65 1663.14 Q 282.84 1655.59 287.44 1646.99 Q 292.04 1638.38 294.87 1629.04 Q 297.71 1619.70 298.66 1609.99 Q 299.62 1600.27 298.66 1590.56 Q 297.71 1580.84 294.87 1571.50 Q 292.04 1562.16 287.44 1553.56 Q 282.84 1544.95 276.65 1537.40 Q 270.46 1529.86 262.91 1523.67 Q 255.37 1517.48 246.76 1512.88 Q 238.16 1508.28 228.82 1505.45 Q 219.48 1502.61 209.76 1501.65 Q 200.05 1500.70 200.05 1500.69" />
<path fill="none" stroke="rgb(0,0,255)" stroke-width="2" d=" M 200.05 1499.70 Q 200.05 1499.69 209.76 1498.73 Q 219.48 1497.78 228.82 1494.94 Q 238.16 1492.11 246.76 1487.51 Q 255.37 1482.91 262.91 1476.72 Q 270.46 1470.53 276.65 1462.98 Q 282.84 1455.44 287.44 1446.83 Q 292.04 1438.22 294.87 1428.88 Q 297.71 1419.54 298.66 1409.83 Q 299.62 1400.12 298.66 1390.40 Q 297.71 1380.69 294.87 1371.35 Q 292.04 1362.01 287.44 1353.40 Q 282.84 1344.79 276.65 1337.25 Q 270.46 1329.70 262.91 1323.51 Q 255.37 1317.32 246.76 1312.72 Q 238.16 1308.12 228.82 1305.29 Q 219.48 1302.46 209.76 1301.50 Q 200.05 1300.54 200.05 1300.54" />
<path fill="none" stroke="rgb(0,0,255)" stroke-width="2" d=" M 200.05 1900.01 Q 200.05 1900.00 209.76 1899.04 Q 219.48 1898.09 228.82 1895.25 Q 238.16 1892.42 246.76 1887.82 Q 255.37 1883.22 262.91 1877.03 Q 270.46 1870.84 276.65 1863.29 Q 282.84 1855.75 287.44 1847.14 Q 292.04 1838.54 294.87 1829.20 Q 297.71 1819.86 298.66 1810.14 Q 299.62 1800.43 298.66 1790.71 Q 297.71 1781.00 294.87 1771.66 Q 292.04 1762.32 287.44 1753.71 Q 282.84 1745.11 276.65 1737.56 Q 270.46 1730.01 262.91 1723.82 Q 255.37 1717.64 246.76 1713.04 Q 238.16 1708.44 228.82 1705.60 Q 219.48 1702.77 209.76 1701.81 Q 200.05 1700.85 200.05 1700.85" />
<polyline points="800.00 1400.00 600.02 1400.00 599.95 1299.96" fill="none" stroke="rgb(0,0,255)" stroke-width="2" />
<polyline points="599.95 699.50 600.00 600.00 800.00 600.00" fill="none" stroke="rgb(0,0,255)" stroke-width="2" />
<circle cx="649.91" cy="649.96" r="20.09" fill="none" stroke="rgb(0,0,255)" stroke-width="2" />
<path fill="none" stroke="rgb(0,0,255)" stroke-width="2" d=" M 599.95 900.15 Q 599.95 900.15 590.24 901.11 Q 580.52 902.07 571.18 904.90 Q 561.84 907.74 553.24 912.34 Q 544.63 916.94 537.09 923.13 Q 529.54 929.32 523.35 936.86 Q 517.16 944.41 512.56 953.01 Q 507.96 961.62 505.13 970.96 Q 502.29 980.30 501.34 990.01 Q 500.38 999.73 501.34 1009.44 Q 502.29 1019.16 505.13 1028.50 Q 507.96 1037.84 512.56 1046.44 Q 517.16 1055.05 523.35 1062.60 Q 529.54 1070.14 537.09 1076.33 Q 544.63 1082.52 553.24 1087.12 Q 561.84 1091.72 571.18 1094.55 Q 580.52 1097.39 590.24 1098.35 Q 599.95 1099.30 599.95 1099.31" />
<path fill="none" stroke="rgb(0,0,255)" stroke-width="2" d=" M 599.95 1100.30 Q 599.95 1100.31 590.24 1101.27 Q 580.52 1102.22 571.18 1105.06 Q 561.84 1107.89 553.24 1112.49 Q 544.63 1117.09 537.09 1123.28 Q 529.54 1129.47 523.35 1137.02 Q 517.16 1144.56 512.56 1153.17 Q 507.96 1161.78 505.13 1171.12 Q 502.29 1180.46 501.34 1190.17 Q 500.38 1199.88 501.34 1209.60 Q 502.29 1219.31 505.13 1228.65 Q 507.96 1237.99 512.56 1246.60 Q 517.16 1255.21 523.35 1262.75 Q 529.54 1270.30 537.09 1276.49 Q 544.63 1282.68 553.24 1287.28 Q 561.84 1291.88 571.18 1294.71 Q 580.52 1297.54 590.24 1298.50 Q 599.95 1299.46 599.95 1299.46" />
<path fill="none" stroke="rgb(0,0,255)" stroke-width="2" d=" M 599.95 699.99 Q 599.95 700.00 590.24 700.96 Q 580.52 701.91 571.18 704.75 Q 561.84 707.58 553.24 712.18 Q 544.63 716.78 537.09 722.97 Q 529.54 729.16 523.35 736.71 Q 517.16 744.25 512.56 752.86 Q 507.96 761.46 505.13 770.80 Q 502.29 780.14 501.34 789.86 Q 500.38 799.57 501.34 809.29 Q 502.29 819.00 505.13 828.34 Q 507.96 837.68 512.56 846.29 Q 517.16 854.89 523.35 862.44 Q 529.54 869.99 537.09 876.18 Q 544.63 882.36 553.24 886.96 Q 561.84 891.56 571.18 894.40 Q 580.52 897.23 590.24 898.19 Q 599.95 899.15 599.95 899.15" />
</svg>
