<?xml version="1.0" encoding="utf-8"?>
<!-- Created with "sPlan" (http://www.abacom-online.de) -->
<svg version="1.1" baseProfile="full"
xmlns="http://www.w3.org/2000/svg"
width="160mm" height="80mm"
viewBox="0 0 1600 800">
<title>WIRE</title>
<defs>
<style type="text/css">
<![CDATA[
polyline {stroke-linecap:round; stroke-linejoin:round}
polygon {stroke-linecap:round; stroke-linejoin:round}
path {stroke-linecap:round; stroke-linejoin:round}
circle {stroke-linecap:round; stroke-linejoin:round}
]]>
</style>
</defs>
<polyline points="200.00 300.00 100.00 500.00" fill="none" stroke="rgb(0,0,255)" stroke-width="2" />
<polyline points="0.00 400.00 459.24 399.79" fill="none" stroke="rgb(0,0,255)" stroke-width="2" />
<polyline points="1140.03 399.79 1600.00 400.00" fill="none" stroke="rgb(0,0,255)" stroke-width="2" />
<path fill="none" stroke="rgb(0,0,255)" stroke-width="2" d=" M 1138.34 399.79 Q 1138.33 399.79 1135.08 381.77 Q 1131.82 363.75 1122.18 346.42 Q 1112.54 329.09 1096.89 313.13 Q 1081.25 297.17 1060.19 283.17 Q 1039.14 269.17 1013.47 257.69 Q 987.81 246.21 958.53 237.67 Q 929.26 229.14 897.49 223.88 Q 865.72 218.63 832.68 216.85 Q 799.64 215.07 766.59 216.85 Q 733.55 218.63 701.78 223.88 Q 670.01 229.14 640.74 237.67 Q 611.47 246.21 585.80 257.69 Q 560.13 269.17 539.08 283.17 Q 518.03 297.17 502.39 313.13 Q 486.74 329.09 477.10 346.42 Q 467.46 363.75 464.20 381.77 Q 460.94 399.79 460.94 399.79" />
</svg>
