<svg fill="#005aeb" width="170.00000000000003" height="124" xmlns="http://www.w3.org/2000/svg" baseProfile="full" version="1.1">
 <title>folde</title>

 <g>
  <title>Layer 1</title>
  <g stroke="null">
   <path stroke="null" d="m113.60258,82.30029l-59.12557,0c-1.58372,0 -2.87181,-1.15217 -2.87181,-2.56878l0,-41.55374c0,-1.4166 1.28809,-2.56878 2.87181,-2.56878l17.94883,0c0.89744,0 1.75899,0.38343 2.29745,1.02562l2.99006,4.19882c0.21961,0.26066 0.62293,0.44198 1.04737,0.44198l34.84186,0c1.58372,0 2.87181,1.15217 2.87181,2.56878l0,35.88732c0,1.4166 -1.28809,2.56878 -2.87181,2.56878zm-59.12557,-45.33136c-0.7454,0 -1.35144,0.54209 -1.35144,1.20884l0,41.55374c0,0.66675 0.60604,1.20884 1.35144,1.20884l59.12557,0c0.7454,0 1.35144,-0.54209 1.35144,-1.20884l0,-35.88732c0,-0.66675 -0.60604,-1.20884 -1.35144,-1.20884l-34.84186,0c-0.89955,0 -1.75899,-0.38343 -2.29745,-1.02751l-2.99006,-4.19882c-0.21961,-0.25877 -0.62504,-0.44009 -1.04737,-0.44009l-17.94883,0z" id="svg_29"/>
   <rect stroke="null" x="50.25375" y="30.62255" fill="none" height="60.44181" width="67.57208" id="svg_28"/>
  </g>
 </g>
</svg>