<?xml version="1.0" encoding="utf-8"?>
<!-- Created with "sPlan" (http://www.abacom-online.de) -->
<svg version="1.1" baseProfile="full"
xmlns="http://www.w3.org/2000/svg"
width="80mm" height="160mm"
viewBox="0 0 800 1600">
<title>ANG_FET</title>
<defs>
<style type="text/css">
<![CDATA[
polyline {stroke-linecap:round; stroke-linejoin:round}
polygon {stroke-linecap:round; stroke-linejoin:round}
path {stroke-linecap:round; stroke-linejoin:round}
circle {stroke-linecap:round; stroke-linejoin:round}
]]>
</style>
</defs>
<polyline points="798.96 0.00 798.96 550.00" fill="none" stroke="rgb(0,0,255)" stroke-width="2" />
<polyline points="798.93 800.10 798.93 1600.00" fill="none" stroke="rgb(0,0,255)" stroke-width="2" />
<polyline points="250.00 800.00 0.00 800.00" fill="none" stroke="rgb(0,0,255)" stroke-width="2" />
<polyline points="350.00 450.00 350.00 1150.00" fill="none" stroke="rgb(0,0,255)" stroke-width="2" />
<polyline points="350.12 550.00 798.96 550.00" fill="none" stroke="rgb(0,0,255)" stroke-width="2" />
<polyline points="350.12 800.00 798.93 800.10" fill="none" stroke="rgb(0,0,255)" stroke-width="2" />
<polygon points="411.33 783.81 350.12 800.00 411.32 816.21" fill="rgb(0,0,255)" stroke="rgb(0,0,255)" stroke-width="2" />
<path fill="rgb(0,0,255)" stroke="rgb(0,0,255)" stroke-width="0" d=" M 97.32 769.93 L 87.13 769.93 87.19 706.38 85.62 707.76 83.87 709.13 81.94 710.51 79.83 711.89 77.53 713.26 75.19 714.56 72.95 715.73 70.80 716.76 68.75 717.65 66.80 718.41 66.80 708.77 70.13 707.13 73.29 705.35 76.28 703.45 79.10 701.41 81.75 699.23 84.17 697.01 86.28 694.81 88.10 692.64 89.61 690.50 90.83 688.39 97.40 688.39 Z" />
<path fill="rgb(0,0,255)" stroke="rgb(0,0,255)" stroke-width="0" d=" M 761.35 159.73 L 761.33 169.93 707.82 169.93 707.83 168.47 707.95 167.04 708.17 165.64 708.49 164.26 708.92 162.90 709.79 160.68 710.85 158.49 712.09 156.33 713.52 154.19 715.14 152.08 717.02 149.93 719.23 147.67 721.79 145.31 724.69 142.84 727.93 140.26 732.86 136.05 737.08 132.24 740.60 128.85 743.41 125.86 745.53 123.28 747.11 120.92 748.34 118.59 749.22 116.28 749.75 113.99 749.93 111.74 749.76 109.59 749.26 107.58 748.44 105.72 747.28 103.98 745.79 102.39 744.03 101.02 742.07 99.95 739.90 99.19 737.53 98.73 734.96 98.58 732.24 98.73 729.75 99.17 727.49 99.92 725.46 100.96 723.65 102.30 722.12 103.90 720.93 105.73 720.07 107.79 719.54 110.08 719.35 112.59 709.16 111.32 709.81 107.06 710.92 103.22 712.48 99.81 714.51 96.82 716.99 94.26 719.89 92.14 723.15 90.50 726.79 89.32 730.80 88.62 735.17 88.39 739.59 88.65 743.63 89.43 747.28 90.74 750.54 92.56 753.42 94.91 755.84 97.65 757.72 100.64 759.06 103.88 759.86 107.37 760.12 111.12 760.05 113.08 759.83 115.03 759.46 116.96 758.95 118.88 758.30 120.78 757.47 122.70 756.46 124.66 755.25 126.66 753.85 128.70 752.27 130.78 750.33 133.01 747.90 135.53 744.98 138.32 741.56 141.39 737.64 144.74 734.31 147.45 731.48 149.78 729.13 151.74 727.28 153.33 725.92 154.55 724.84 155.58 723.84 156.61 722.92 157.65 722.08 158.69 721.32 159.73 Z" />
<path fill="rgb(0,0,255)" stroke="rgb(0,0,255)" stroke-width="0" d=" M 709.12 1488.27 L 719.31 1486.99 720.09 1489.80 721.05 1492.28 722.17 1494.43 723.46 1496.24 724.92 1497.72 726.58 1498.90 728.46 1499.82 730.56 1500.48 732.89 1500.88 735.43 1501.01 738.42 1500.83 741.15 1500.28 743.63 1499.38 745.86 1498.11 747.83 1496.49 749.49 1494.59 750.78 1492.53 751.70 1490.29 752.25 1487.88 752.43 1485.30 752.26 1482.84 751.72 1480.56 750.81 1478.45 749.54 1476.52 747.90 1474.76 745.97 1473.26 743.85 1472.09 741.54 1471.26 739.02 1470.76 736.31 1470.59 735.11 1470.63 733.79 1470.77 732.36 1470.99 730.82 1471.30 729.16 1471.70 730.32 1461.51 730.71 1461.55 731.07 1461.59 731.39 1461.61 731.69 1461.63 731.95 1461.63 734.47 1461.51 736.89 1461.16 739.20 1460.58 741.41 1459.76 743.52 1458.70 745.37 1457.41 746.80 1455.86 747.83 1454.06 748.45 1452.01 748.65 1449.71 748.50 1447.85 748.06 1446.12 747.32 1444.52 746.28 1443.06 744.94 1441.73 743.37 1440.60 741.62 1439.71 739.71 1439.08 737.62 1438.70 735.35 1438.58 733.10 1438.70 731.00 1439.09 729.05 1439.72 727.26 1440.62 725.63 1441.76 724.18 1443.16 722.96 1444.82 721.96 1446.73 721.18 1448.90 720.62 1451.32 710.43 1450.04 711.36 1446.10 712.66 1442.54 714.33 1439.34 716.37 1436.51 718.79 1434.06 721.52 1432.02 724.51 1430.43 727.75 1429.29 731.25 1428.61 735.00 1428.39 737.62 1428.50 740.16 1428.83 742.62 1429.39 745.00 1430.18 747.29 1431.18 749.43 1432.38 751.36 1433.75 753.08 1435.28 754.59 1436.97 755.89 1438.83 756.96 1440.79 757.79 1442.80 758.38 1444.85 758.73 1446.96 758.84 1449.11 758.73 1451.13 758.39 1453.09 757.82 1454.97 757.03 1456.77 756.01 1458.50 754.77 1460.13 753.31 1461.62 751.63 1462.97 749.74 1464.18 747.64 1465.25 750.39 1466.07 752.87 1467.17 755.09 1468.56 757.05 1470.25 758.75 1472.22 760.15 1474.45 761.24 1476.88 762.02 1479.54 762.48 1482.40 762.63 1485.48 762.31 1489.65 761.38 1493.56 759.81 1497.20 757.63 1500.59 754.81 1503.71 751.52 1506.41 747.90 1508.50 743.96 1510.00 739.68 1510.90 735.08 1511.20 730.91 1510.94 727.05 1510.18 723.47 1508.90 720.19 1507.11 717.21 1504.81 714.61 1502.10 712.51 1499.09 710.89 1495.79 709.76 1492.18 709.12 1488.27 Z" />
<polyline points="350.12 1050.00 798.73 1050.00" fill="none" stroke="rgb(0,0,255)" stroke-width="2" />
<polyline points="250.00 650.00 250.00 950.00" fill="none" stroke="rgb(0,0,255)" stroke-width="2" />
</svg>
