<?xml version="1.0" encoding="utf-8"?>
<!-- Created with "sPlan" (http://www.abacom-online.de) -->
<svg version="1.1" baseProfile="full"
xmlns="http://www.w3.org/2000/svg"
width="160mm" height="80mm"
viewBox="0 0 1600 800">
<title>DC_FEED</title>
<defs>
<style type="text/css">
<![CDATA[
polyline {stroke-linecap:round; stroke-linejoin:round}
polygon {stroke-linecap:round; stroke-linejoin:round}
path {stroke-linecap:round; stroke-linejoin:round}
circle {stroke-linecap:round; stroke-linejoin:round}
]]>
</style>
</defs>
<polyline points="200.00 300.00 100.00 500.00" fill="none" stroke="rgb(0,0,255)" stroke-width="2" />
<polyline points="0.00 400.00 400.50 399.79" fill="none" stroke="rgb(0,0,255)" stroke-width="2" />
<polyline points="1208.78 399.79 1600.00 400.00" fill="none" stroke="rgb(0,0,255)" stroke-width="2" />
<path fill="none" stroke="rgb(0,0,255)" stroke-width="2" d=" M 669.93 399.79 Q 669.92 399.79 668.63 386.64 Q 667.33 373.50 663.50 360.87 Q 659.66 348.23 653.44 336.59 Q 647.22 324.94 638.84 314.74 Q 630.47 304.53 620.26 296.15 Q 610.05 287.78 598.41 281.56 Q 586.77 275.33 574.13 271.50 Q 561.49 267.66 548.35 266.37 Q 535.21 265.07 522.07 266.37 Q 508.92 267.66 496.29 271.50 Q 483.65 275.33 472.01 281.56 Q 460.36 287.78 450.16 296.15 Q 439.95 304.53 431.57 314.74 Q 423.20 324.94 416.98 336.59 Q 410.75 348.23 406.92 360.87 Q 403.08 373.50 401.79 386.64 Q 400.49 399.79 400.50 399.79" />
<path fill="none" stroke="rgb(0,0,255)" stroke-width="2" d=" M 939.35 399.79 Q 939.35 399.79 938.06 386.64 Q 936.76 373.50 932.93 360.87 Q 929.09 348.23 922.87 336.59 Q 916.65 324.94 908.27 314.74 Q 899.90 304.53 889.69 296.15 Q 879.48 287.78 867.84 281.56 Q 856.20 275.33 843.56 271.50 Q 830.92 267.66 817.78 266.37 Q 804.64 265.07 791.50 266.37 Q 778.35 267.66 765.72 271.50 Q 753.08 275.33 741.44 281.56 Q 729.79 287.78 719.59 296.15 Q 709.38 304.53 701.00 314.74 Q 692.63 324.94 686.41 336.59 Q 680.18 348.23 676.35 360.87 Q 672.51 373.50 671.22 386.64 Q 669.92 399.79 669.93 399.79" />
<path fill="none" stroke="rgb(0,0,255)" stroke-width="2" d=" M 1208.78 399.79 Q 1208.78 399.79 1207.49 386.64 Q 1206.19 373.50 1202.36 360.87 Q 1198.52 348.23 1192.30 336.59 Q 1186.08 324.94 1177.70 314.74 Q 1169.33 304.53 1159.12 296.15 Q 1148.91 287.78 1137.27 281.56 Q 1125.62 275.33 1112.99 271.50 Q 1100.35 267.66 1087.21 266.37 Q 1074.07 265.07 1060.92 266.37 Q 1047.78 267.66 1035.15 271.50 Q 1022.51 275.33 1010.87 281.56 Q 999.22 287.78 989.02 296.15 Q 978.81 304.53 970.43 314.74 Q 962.06 324.94 955.84 336.59 Q 949.61 348.23 945.78 360.87 Q 941.94 373.50 940.65 386.64 Q 939.35 399.79 939.35 399.79" />
<polyline points="300.61 3.17 1300.50 3.17 1300.50 798.37 300.50 798.37 300.50 3.34" fill="none" stroke="rgb(0,0,255)" stroke-width="2" />
</svg>
