<?xml version="1.0" encoding="utf-8"?>
<!-- Created with "sPlan" (http://www.abacom-online.de) -->
<svg version="1.1" baseProfile="full"
xmlns="http://www.w3.org/2000/svg"
width="120mm" height="80mm"
viewBox="0 0 1200 800">
<title>HYBRID_180</title>
<defs>
<style type="text/css">
<![CDATA[
polyline {stroke-linecap:round; stroke-linejoin:round}
polygon {stroke-linecap:round; stroke-linejoin:round}
path {stroke-linecap:round; stroke-linejoin:round}
circle {stroke-linecap:round; stroke-linejoin:round}
]]>
</style>
</defs>
<path fill="rgb(0,0,255)" stroke="rgb(0,0,255)" stroke-width="0" d=" M 119.32 162.93 L 109.13 162.93 109.19 99.38 107.62 100.76 105.87 102.13 103.94 103.51 101.83 104.89 99.53 106.26 97.19 107.56 94.95 108.73 92.80 109.76 90.75 110.65 88.80 111.41 88.80 101.77 92.13 100.13 95.29 98.35 98.28 96.45 101.10 94.41 103.75 92.23 106.17 90.01 108.28 87.81 110.10 85.64 111.61 83.50 112.83 81.39 119.40 81.39 Z" />
<path fill="rgb(0,0,255)" stroke="rgb(0,0,255)" stroke-width="0" d=" M 1120.35 151.73 L 1120.33 161.93 1066.82 161.93 1066.83 160.47 1066.95 159.04 1067.17 157.64 1067.49 156.26 1067.92 154.90 1068.79 152.68 1069.85 150.49 1071.09 148.33 1072.52 146.19 1074.14 144.08 1076.02 141.93 1078.23 139.67 1080.79 137.31 1083.69 134.84 1086.93 132.26 1091.86 128.05 1096.08 124.24 1099.60 120.85 1102.41 117.86 1104.53 115.28 1106.11 112.92 1107.34 110.59 1108.22 108.28 1108.75 105.99 1108.93 103.74 1108.76 101.59 1108.26 99.58 1107.44 97.72 1106.28 95.98 1104.79 94.39 1103.03 93.02 1101.07 91.95 1098.90 91.19 1096.53 90.73 1093.96 90.58 1091.24 90.73 1088.75 91.17 1086.49 91.92 1084.46 92.96 1082.65 94.30 1081.12 95.90 1079.93 97.73 1079.07 99.79 1078.54 102.08 1078.35 104.59 1068.16 103.32 1068.81 99.06 1069.92 95.22 1071.48 91.81 1073.51 88.82 1075.99 86.26 1078.89 84.14 1082.15 82.50 1085.79 81.32 1089.80 80.62 1094.17 80.39 1098.59 80.65 1102.63 81.43 1106.28 82.74 1109.54 84.56 1112.42 86.91 1114.84 89.65 1116.72 92.64 1118.06 95.88 1118.86 99.37 1119.12 103.12 1119.05 105.08 1118.83 107.03 1118.46 108.96 1117.95 110.88 1117.30 112.78 1116.47 114.70 1115.46 116.66 1114.25 118.66 1112.85 120.70 1111.27 122.78 1109.33 125.01 1106.90 127.53 1103.98 130.32 1100.56 133.39 1096.64 136.74 1093.31 139.45 1090.48 141.78 1088.13 143.74 1086.28 145.33 1084.92 146.55 1083.84 147.58 1082.84 148.61 1081.92 149.65 1081.08 150.69 1080.32 151.73 Z" />
<path fill="rgb(0,0,255)" stroke="rgb(0,0,255)" stroke-width="0" d=" M 1068.12 692.27 L 1078.31 690.99 1079.09 693.80 1080.05 696.28 1081.17 698.43 1082.46 700.24 1083.92 701.72 1085.58 702.90 1087.46 703.82 1089.56 704.48 1091.89 704.88 1094.43 705.01 1097.42 704.83 1100.15 704.28 1102.63 703.38 1104.86 702.11 1106.83 700.49 1108.48 698.59 1109.78 696.53 1110.70 694.29 1111.25 691.88 1111.43 689.30 1111.26 686.84 1110.72 684.56 1109.81 682.45 1108.54 680.52 1106.90 678.76 1104.97 677.26 1102.85 676.09 1100.54 675.26 1098.02 674.76 1095.31 674.59 1094.11 674.63 1092.79 674.77 1091.36 674.99 1089.82 675.30 1088.16 675.70 1089.32 665.51 1089.71 665.55 1090.07 665.59 1090.39 665.61 1090.69 665.63 1090.95 665.63 1093.47 665.51 1095.89 665.16 1098.20 664.58 1100.41 663.76 1102.52 662.70 1104.36 661.41 1105.80 659.86 1106.83 658.06 1107.45 656.01 1107.65 653.71 1107.50 651.85 1107.06 650.12 1106.32 648.52 1105.28 647.06 1103.94 645.73 1102.37 644.60 1100.62 643.71 1098.71 643.08 1096.62 642.70 1094.35 642.58 1092.10 642.70 1090.00 643.09 1088.05 643.72 1086.26 644.62 1084.63 645.76 1083.18 647.16 1081.96 648.82 1080.96 650.73 1080.18 652.90 1079.62 655.32 1069.43 654.04 1070.36 650.10 1071.66 646.54 1073.33 643.34 1075.37 640.51 1077.79 638.06 1080.52 636.02 1083.51 634.43 1086.75 633.29 1090.25 632.61 1094.00 632.39 1096.62 632.50 1099.16 632.83 1101.62 633.39 1104.00 634.18 1106.29 635.18 1108.43 636.38 1110.36 637.75 1112.08 639.28 1113.59 640.97 1114.89 642.83 1115.96 644.79 1116.79 646.80 1117.38 648.85 1117.73 650.96 1117.84 653.11 1117.73 655.13 1117.39 657.09 1116.82 658.97 1116.03 660.77 1115.01 662.50 1113.77 664.13 1112.31 665.62 1110.63 666.97 1108.74 668.18 1106.64 669.25 1109.39 670.07 1111.87 671.17 1114.09 672.56 1116.05 674.25 1117.74 676.22 1119.15 678.45 1120.24 680.88 1121.02 683.54 1121.48 686.40 1121.63 689.48 1121.31 693.65 1120.38 697.56 1118.81 701.20 1116.63 704.59 1113.81 707.71 1110.52 710.41 1106.90 712.50 1102.96 714.00 1098.68 714.90 1094.08 715.20 1089.91 714.94 1086.05 714.18 1082.47 712.90 1079.19 711.11 1076.21 708.81 1073.61 706.10 1071.51 703.09 1069.89 699.79 1068.76 696.18 1068.12 692.27 Z" />
<polyline points="0.00 200.00 149.07 200.00 149.07 70.56 1050.14 70.56 1050.14 200.00 1199.63 200.00 1049.97 200.00 1049.97 329.44 1049.97 599.93 1199.80 599.93 1049.97 599.93 1049.97 729.44 149.07 729.44 149.07 599.97 0.30 599.97 149.07 599.97 149.07 200.00" fill="none" stroke="rgb(0,0,255)" stroke-width="2" />
<polyline points="100.00 150.00 50.19 249.63" fill="none" stroke="rgb(0,0,255)" stroke-width="2" />
<path fill="rgb(0,0,255)" stroke="rgb(0,0,255)" stroke-width="0" d=" M 112.22 713.92 L 112.24 694.81 75.29 694.81 75.31 684.62 114.85 633.66 122.49 633.66 122.45 684.62 132.65 684.62 132.63 694.81 122.43 694.81 122.41 713.92 Z M 112.26 684.62 L 112.28 653.13 87.86 684.62 Z" />
<polyline points="250.00 200.00 950.00 200.00 250.00 600.00 950.00 600.00 250.00 200.00" fill="none" stroke="rgb(0,0,255)" stroke-width="2" />
<path fill="rgb(0,0,255)" stroke="rgb(0,0,255)" stroke-width="0" d=" M 574.14 134.81 L 574.26 129.27 574.63 124.16 575.23 119.47 576.08 115.20 577.16 111.35 578.48 107.90 580.03 104.82 581.81 102.12 583.83 99.79 586.07 97.82 588.55 96.23 591.28 94.98 594.25 94.10 597.47 93.56 600.93 93.39 603.52 93.49 606.01 93.81 608.39 94.33 610.67 95.07 612.84 96.01 614.86 97.16 616.69 98.49 618.34 100.00 619.79 101.70 621.06 103.59 622.18 105.65 623.23 107.89 624.18 110.30 625.05 112.89 625.83 115.65 626.49 118.70 627.00 122.13 627.36 125.97 627.58 130.19 627.65 134.81 627.52 140.31 627.16 145.40 626.56 150.07 625.72 154.33 624.65 158.17 623.34 161.62 621.80 164.70 620.03 167.42 618.02 169.76 615.77 171.73 613.29 173.34 610.55 174.59 607.57 175.48 604.33 176.02 600.85 176.20 596.31 175.89 592.18 174.96 588.45 173.40 585.13 171.23 582.22 168.44 579.30 163.64 577.04 157.89 575.42 151.16 574.45 143.47 574.14 134.81 Z M 584.33 134.79 L 584.51 142.02 585.08 148.16 586.03 153.22 587.36 157.20 589.08 160.10 591.07 162.23 593.25 163.88 595.60 165.06 598.14 165.77 600.85 166.01 603.57 165.77 606.10 165.06 608.46 163.87 610.64 162.22 612.65 160.08 614.37 157.18 615.71 153.19 616.68 148.14 617.26 142.00 617.45 134.79 617.28 127.76 616.73 121.75 615.81 116.74 614.52 112.75 612.87 109.77 610.91 107.54 608.72 105.81 606.31 104.57 603.68 103.83 600.81 103.58 598.11 103.80 595.60 104.45 593.30 105.54 591.19 107.07 589.29 109.03 587.51 112.30 586.12 116.51 585.13 121.66 584.53 127.75 584.33 134.79 Z" />
<path fill="rgb(0,0,255)" stroke="rgb(0,0,255)" stroke-width="0" d=" M 551.32 704.92 L 541.13 704.92 541.19 641.38 539.62 642.76 537.87 644.13 535.94 645.51 533.83 646.89 531.53 648.26 529.19 649.56 526.95 650.73 524.80 651.76 522.75 652.65 520.80 653.41 520.80 643.77 524.13 642.13 527.29 640.35 530.28 638.45 533.10 636.41 535.75 634.23 538.17 632.01 540.28 629.81 542.10 627.64 543.61 625.50 544.83 623.39 551.40 623.39 Z M 590.42 660.01 L 588.04 659.05 585.92 657.94 584.07 656.67 582.47 655.26 581.14 653.68 580.06 651.97 579.22 650.13 578.61 648.16 578.25 646.06 578.13 643.83 578.40 640.48 579.20 637.34 580.52 634.43 582.36 631.75 584.72 629.28 587.52 627.16 590.68 625.51 594.18 624.33 598.02 623.62 602.22 623.39 606.44 623.63 610.31 624.35 613.84 625.56 617.03 627.25 619.88 629.42 622.29 631.93 624.16 634.66 625.49 637.60 626.29 640.75 626.55 644.11 626.43 646.26 626.07 648.29 625.47 650.21 624.64 652.02 623.56 653.71 622.24 655.27 620.68 656.69 618.87 657.95 616.82 659.06 614.52 660.01 617.24 661.12 619.68 662.48 621.85 664.08 623.74 665.92 625.36 668.01 626.70 670.30 627.74 672.77 628.47 675.41 628.91 678.22 629.06 681.20 628.76 685.30 627.88 689.13 626.40 692.69 624.34 695.97 621.68 698.99 618.54 701.59 615.04 703.60 611.16 705.05 606.90 705.91 602.28 706.20 597.66 705.91 593.41 705.04 589.53 703.59 586.03 701.57 582.90 698.96 580.25 695.93 578.19 692.60 576.72 688.99 575.84 685.10 575.55 680.92 575.71 677.80 576.18 674.89 576.95 672.19 578.04 669.70 579.43 667.42 581.10 665.38 583.04 663.63 585.24 662.15 587.70 660.94 590.42 660.01 Z M 588.33 644.13 L 588.47 646.02 588.90 647.76 589.63 649.36 590.64 650.82 591.94 652.13 593.52 653.25 595.36 654.12 597.46 654.74 599.83 655.11 602.46 655.24 605.03 655.11 607.34 654.74 609.40 654.13 611.21 653.26 612.77 652.15 614.06 650.86 615.07 649.46 615.78 647.95 616.21 646.32 616.36 644.59 616.21 642.78 615.76 641.10 615.03 639.53 613.99 638.08 612.66 636.75 611.07 635.61 609.24 634.72 607.18 634.09 604.89 633.70 602.36 633.58 599.81 633.70 597.50 634.07 595.43 634.70 593.60 635.57 592.01 636.68 590.68 637.97 589.65 639.36 588.92 640.85 588.47 642.44 588.33 644.13 Z M 585.74 680.56 L 585.81 682.13 586.01 683.69 586.35 685.22 586.83 686.74 587.44 688.23 588.23 689.65 589.22 690.93 590.42 692.08 591.83 693.10 593.45 693.98 595.19 694.71 596.95 695.28 598.73 695.68 600.53 695.93 602.36 696.01 605.34 695.84 608.05 695.32 610.48 694.47 612.64 693.27 614.51 691.74 616.08 689.94 617.30 687.95 618.17 685.78 618.69 683.42 618.86 680.88 618.69 678.29 618.16 675.90 617.27 673.68 616.02 671.65 614.40 669.81 612.48 668.23 610.28 667.01 607.81 666.13 605.07 665.60 602.06 665.43 599.12 665.60 596.45 666.12 594.06 666.98 591.93 668.19 590.07 669.75 588.52 671.56 587.31 673.55 586.44 675.71 585.92 678.05 585.74 680.56 Z M 637.99 664.81 L 638.12 659.27 638.49 654.16 639.09 649.47 639.94 645.20 641.02 641.35 642.34 637.90 643.89 634.82 645.67 632.12 647.68 629.79 649.93 627.82 652.41 626.23 655.14 624.98 658.11 624.10 661.33 623.56 664.79 623.39 667.38 623.49 669.87 623.81 672.25 624.33 674.52 625.07 676.69 626.01 678.72 627.16 680.55 628.49 682.20 630.00 683.65 631.70 684.92 633.59 686.04 635.65 687.08 637.89 688.04 640.30 688.90 642.89 689.68 645.65 690.35 648.70 690.86 652.13 691.22 655.97 691.44 660.19 691.51 664.81 691.38 670.31 691.02 675.40 690.42 680.07 689.58 684.33 688.51 688.17 687.20 691.62 685.66 694.70 683.88 697.42 681.87 699.76 679.63 701.73 677.14 703.34 674.41 704.59 671.43 705.48 668.19 706.02 664.71 706.20 660.17 705.89 656.03 704.96 652.31 703.40 648.99 701.23 646.08 698.44 643.16 693.64 640.89 687.89 639.28 681.16 638.31 673.47 637.99 664.81 Z M 648.19 664.79 L 648.37 672.02 648.94 678.16 649.89 683.22 651.22 687.20 652.93 690.10 654.93 692.23 657.11 693.88 659.46 695.06 662.00 695.77 664.71 696.01 667.42 695.77 669.96 695.06 672.32 693.87 674.50 692.22 676.51 690.08 678.23 687.18 679.57 683.19 680.53 678.14 681.11 672.00 681.31 664.79 681.14 657.76 680.59 651.75 679.67 646.74 678.38 642.75 676.72 639.77 674.77 637.54 672.58 635.81 670.17 634.57 667.53 633.83 664.67 633.58 661.97 633.80 659.46 634.45 657.16 635.54 655.05 637.07 653.14 639.03 651.37 642.30 649.98 646.51 648.99 651.66 648.39 657.75 648.19 664.79 Z" />
<path fill="rgb(0,0,255)" stroke="rgb(0,0,255)" stroke-width="0" d=" M 824.14 359.81 L 824.26 354.27 824.63 349.16 825.23 344.47 826.08 340.20 827.16 336.35 828.48 332.90 830.03 329.82 831.81 327.12 833.83 324.79 836.07 322.82 838.55 321.23 841.28 319.98 844.25 319.10 847.47 318.56 850.93 318.38 853.52 318.49 856.01 318.81 858.39 319.33 860.67 320.07 862.84 321.01 864.86 322.16 866.69 323.49 868.34 325.00 869.79 326.70 871.06 328.59 872.18 330.65 873.23 332.89 874.18 335.30 875.05 337.89 875.83 340.65 876.49 343.70 877.00 347.13 877.36 350.97 877.58 355.19 877.65 359.81 877.52 365.31 877.16 370.40 876.56 375.07 875.72 379.33 874.65 383.17 873.34 386.62 871.80 389.70 870.03 392.42 868.02 394.76 865.77 396.73 863.29 398.34 860.55 399.59 857.57 400.48 854.33 401.02 850.85 401.20 846.31 400.89 842.18 399.96 838.45 398.40 835.13 396.23 832.22 393.44 829.30 388.64 827.04 382.89 825.42 376.16 824.45 368.47 824.14 359.81 Z M 834.33 359.79 L 834.51 367.02 835.08 373.16 836.03 378.22 837.36 382.20 839.08 385.10 841.07 387.23 843.25 388.88 845.60 390.06 848.14 390.77 850.85 391.01 853.57 390.77 856.10 390.06 858.46 388.87 860.64 387.22 862.65 385.08 864.37 382.18 865.71 378.19 866.68 373.14 867.26 367.00 867.45 359.79 867.28 352.76 866.73 346.75 865.81 341.74 864.52 337.75 862.87 334.77 860.91 332.54 858.72 330.81 856.31 329.57 853.68 328.83 850.81 328.58 848.11 328.80 845.60 329.45 843.30 330.54 841.19 332.07 839.29 334.03 837.51 337.30 836.12 341.51 835.13 346.66 834.53 352.75 834.33 359.79 Z" />
<path fill="rgb(0,0,255)" stroke="rgb(0,0,255)" stroke-width="0" d=" M 323.14 359.81 L 323.26 354.27 323.63 349.16 324.23 344.47 325.08 340.20 326.16 336.35 327.48 332.90 329.03 329.82 330.81 327.12 332.83 324.79 335.07 322.82 337.55 321.23 340.28 319.98 343.25 319.10 346.47 318.56 349.93 318.38 352.52 318.49 355.01 318.81 357.39 319.33 359.67 320.07 361.84 321.01 363.86 322.16 365.69 323.49 367.34 325.00 368.79 326.70 370.06 328.59 371.18 330.65 372.23 332.89 373.18 335.30 374.05 337.89 374.83 340.65 375.49 343.70 376.00 347.13 376.36 350.97 376.58 355.19 376.65 359.81 376.52 365.31 376.16 370.40 375.56 375.07 374.72 379.33 373.65 383.17 372.34 386.62 370.80 389.70 369.03 392.42 367.02 394.76 364.77 396.73 362.29 398.34 359.55 399.59 356.57 400.48 353.33 401.02 349.85 401.20 345.31 400.89 341.18 399.96 337.45 398.40 334.13 396.23 331.22 393.44 328.30 388.64 326.04 382.89 324.42 376.16 323.45 368.47 323.14 359.81 Z M 333.33 359.79 L 333.51 367.02 334.08 373.16 335.03 378.22 336.36 382.20 338.08 385.10 340.07 387.23 342.25 388.88 344.60 390.06 347.14 390.77 349.85 391.01 352.57 390.77 355.10 390.06 357.46 388.87 359.64 387.22 361.65 385.08 363.37 382.18 364.71 378.19 365.68 373.14 366.26 367.00 366.45 359.79 366.28 352.76 365.73 346.75 364.81 341.74 363.52 337.75 361.87 334.77 359.91 332.54 357.72 330.81 355.31 329.57 352.68 328.83 349.81 328.58 347.11 328.80 344.60 329.45 342.30 330.54 340.19 332.07 338.29 334.03 336.51 337.30 335.12 341.51 334.13 346.66 333.53 352.75 333.33 359.79 Z" />
</svg>
