<?xml version="1.0" encoding="utf-8"?>
<!-- Created with "sPlan" (http://www.abacom-online.de) -->
<svg version="1.1" baseProfile="full"
xmlns="http://www.w3.org/2000/svg"
width="120mm" height="80mm"
viewBox="0 0 1200 800">
<title>HYBRID_90</title>
<defs>
<style type="text/css">
<![CDATA[
polyline {stroke-linecap:round; stroke-linejoin:round}
polygon {stroke-linecap:round; stroke-linejoin:round}
path {stroke-linecap:round; stroke-linejoin:round}
circle {stroke-linecap:round; stroke-linejoin:round}
]]>
</style>
</defs>
<path fill="rgb(0,0,255)" stroke="rgb(0,0,255)" stroke-width="0" d=" M 119.32 162.93 L 109.13 162.93 109.19 99.38 107.62 100.76 105.87 102.13 103.94 103.51 101.83 104.89 99.53 106.26 97.19 107.56 94.95 108.73 92.80 109.76 90.75 110.65 88.80 111.41 88.80 101.77 92.13 100.13 95.29 98.35 98.28 96.45 101.10 94.41 103.75 92.23 106.17 90.01 108.28 87.81 110.10 85.64 111.61 83.50 112.83 81.39 119.40 81.39 Z" />
<path fill="rgb(0,0,255)" stroke="rgb(0,0,255)" stroke-width="0" d=" M 1120.35 151.73 L 1120.33 161.93 1066.82 161.93 1066.83 160.47 1066.95 159.04 1067.17 157.64 1067.49 156.26 1067.92 154.90 1068.79 152.68 1069.85 150.49 1071.09 148.33 1072.52 146.19 1074.14 144.08 1076.02 141.93 1078.23 139.67 1080.79 137.31 1083.69 134.84 1086.93 132.26 1091.86 128.05 1096.08 124.24 1099.60 120.85 1102.41 117.86 1104.53 115.28 1106.11 112.92 1107.34 110.59 1108.22 108.28 1108.75 105.99 1108.93 103.74 1108.76 101.59 1108.26 99.58 1107.44 97.72 1106.28 95.98 1104.79 94.39 1103.03 93.02 1101.07 91.95 1098.90 91.19 1096.53 90.73 1093.96 90.58 1091.24 90.73 1088.75 91.17 1086.49 91.92 1084.46 92.96 1082.65 94.30 1081.12 95.90 1079.93 97.73 1079.07 99.79 1078.54 102.08 1078.35 104.59 1068.16 103.32 1068.81 99.06 1069.92 95.22 1071.48 91.81 1073.51 88.82 1075.99 86.26 1078.89 84.14 1082.15 82.50 1085.79 81.32 1089.80 80.62 1094.17 80.39 1098.59 80.65 1102.63 81.43 1106.28 82.74 1109.54 84.56 1112.42 86.91 1114.84 89.65 1116.72 92.64 1118.06 95.88 1118.86 99.37 1119.12 103.12 1119.05 105.08 1118.83 107.03 1118.46 108.96 1117.95 110.88 1117.30 112.78 1116.47 114.70 1115.46 116.66 1114.25 118.66 1112.85 120.70 1111.27 122.78 1109.33 125.01 1106.90 127.53 1103.98 130.32 1100.56 133.39 1096.64 136.74 1093.31 139.45 1090.48 141.78 1088.13 143.74 1086.28 145.33 1084.92 146.55 1083.84 147.58 1082.84 148.61 1081.92 149.65 1081.08 150.69 1080.32 151.73 Z" />
<path fill="rgb(0,0,255)" stroke="rgb(0,0,255)" stroke-width="0" d=" M 1068.12 692.27 L 1078.31 690.99 1079.09 693.80 1080.05 696.28 1081.17 698.43 1082.46 700.24 1083.92 701.72 1085.58 702.90 1087.46 703.82 1089.56 704.48 1091.89 704.88 1094.43 705.01 1097.42 704.83 1100.15 704.28 1102.63 703.38 1104.86 702.11 1106.83 700.49 1108.48 698.59 1109.78 696.53 1110.70 694.29 1111.25 691.88 1111.43 689.30 1111.26 686.84 1110.72 684.56 1109.81 682.45 1108.54 680.52 1106.90 678.76 1104.97 677.26 1102.85 676.09 1100.54 675.26 1098.02 674.76 1095.31 674.59 1094.11 674.63 1092.79 674.77 1091.36 674.99 1089.82 675.30 1088.16 675.70 1089.32 665.51 1089.71 665.55 1090.07 665.59 1090.39 665.61 1090.69 665.63 1090.95 665.63 1093.47 665.51 1095.89 665.16 1098.20 664.58 1100.41 663.76 1102.52 662.70 1104.36 661.41 1105.80 659.86 1106.83 658.06 1107.45 656.01 1107.65 653.71 1107.50 651.85 1107.06 650.12 1106.32 648.52 1105.28 647.06 1103.94 645.73 1102.37 644.60 1100.62 643.71 1098.71 643.08 1096.62 642.70 1094.35 642.58 1092.10 642.70 1090.00 643.09 1088.05 643.72 1086.26 644.62 1084.63 645.76 1083.18 647.16 1081.96 648.82 1080.96 650.73 1080.18 652.90 1079.62 655.32 1069.43 654.04 1070.36 650.10 1071.66 646.54 1073.33 643.34 1075.37 640.51 1077.79 638.06 1080.52 636.02 1083.51 634.43 1086.75 633.29 1090.25 632.61 1094.00 632.39 1096.62 632.50 1099.16 632.83 1101.62 633.39 1104.00 634.18 1106.29 635.18 1108.43 636.38 1110.36 637.75 1112.08 639.28 1113.59 640.97 1114.89 642.83 1115.96 644.79 1116.79 646.80 1117.38 648.85 1117.73 650.96 1117.84 653.11 1117.73 655.13 1117.39 657.09 1116.82 658.97 1116.03 660.77 1115.01 662.50 1113.77 664.13 1112.31 665.62 1110.63 666.97 1108.74 668.18 1106.64 669.25 1109.39 670.07 1111.87 671.17 1114.09 672.56 1116.05 674.25 1117.74 676.22 1119.15 678.45 1120.24 680.88 1121.02 683.54 1121.48 686.40 1121.63 689.48 1121.31 693.65 1120.38 697.56 1118.81 701.20 1116.63 704.59 1113.81 707.71 1110.52 710.41 1106.90 712.50 1102.96 714.00 1098.68 714.90 1094.08 715.20 1089.91 714.94 1086.05 714.18 1082.47 712.90 1079.19 711.11 1076.21 708.81 1073.61 706.10 1071.51 703.09 1069.89 699.79 1068.76 696.18 1068.12 692.27 Z" />
<polyline points="0.00 200.00 149.07 200.00 149.07 70.56 1050.14 70.56 1050.14 200.00 1199.63 200.00 1049.97 200.00 1049.97 329.44 1049.97 599.93 1199.80 599.93 1049.97 599.93 1049.97 729.44 149.07 729.44 149.07 599.97 0.30 599.97 149.07 599.97 149.07 200.00" fill="none" stroke="rgb(0,0,255)" stroke-width="2" />
<polyline points="100.00 150.00 50.19 249.63" fill="none" stroke="rgb(0,0,255)" stroke-width="2" />
<path fill="rgb(0,0,255)" stroke="rgb(0,0,255)" stroke-width="0" d=" M 112.22 713.92 L 112.24 694.81 75.29 694.81 75.31 684.62 114.85 633.66 122.49 633.66 122.45 684.62 132.65 684.62 132.63 694.81 122.43 694.81 122.41 713.92 Z M 112.26 684.62 L 112.28 653.13 87.86 684.62 Z" />
<polyline points="250.00 200.00 950.00 200.00 250.00 600.00 950.00 600.00 250.00 200.00" fill="none" stroke="rgb(0,0,255)" stroke-width="2" />
<path fill="rgb(0,0,255)" stroke="rgb(0,0,255)" stroke-width="0" d=" M 520.57 150.72 L 520.59 140.53 552.44 140.53 552.42 150.72 Z M 562.61 154.54 L 572.80 153.27 573.37 155.80 574.11 158.04 575.02 159.99 576.11 161.64 577.37 162.99 578.80 164.08 580.38 164.92 582.11 165.52 584.00 165.89 586.04 166.01 587.82 165.93 589.53 165.70 591.19 165.31 592.78 164.76 594.30 164.07 595.73 163.24 597.00 162.30 598.12 161.27 599.09 160.13 599.91 158.88 600.64 157.49 601.34 155.90 602.01 154.13 602.64 152.17 603.25 150.02 603.79 147.75 604.20 145.43 604.50 143.07 604.68 140.66 604.74 138.20 604.73 137.91 604.73 137.56 604.71 137.16 604.70 136.71 604.68 136.21 603.39 138.04 601.94 139.73 600.30 141.27 598.50 142.67 596.51 143.93 594.41 145.00 592.24 145.83 590.00 146.42 587.70 146.78 585.33 146.90 581.42 146.61 577.77 145.74 574.36 144.29 571.21 142.26 568.31 139.65 565.81 136.57 563.86 133.12 562.48 129.30 561.65 125.11 561.38 120.56 561.68 115.85 562.56 111.53 564.02 107.59 566.07 104.03 568.69 100.85 571.76 98.16 575.12 96.07 578.78 94.58 582.73 93.68 586.98 93.39 590.10 93.56 593.11 94.07 596.02 94.92 598.81 96.11 601.50 97.65 604.01 99.49 606.26 101.63 608.25 104.06 610.00 106.78 611.48 109.79 612.71 113.22 613.66 117.22 614.34 121.79 614.74 126.91 614.87 132.60 614.73 138.57 614.31 144.03 613.62 148.98 612.66 153.42 611.43 157.36 609.94 160.86 608.17 164.02 606.15 166.83 603.86 169.28 601.30 171.38 598.52 173.12 595.56 174.46 592.41 175.43 589.08 176.01 585.57 176.20 581.87 175.97 578.45 175.29 575.32 174.15 572.47 172.56 569.91 170.52 567.68 168.06 565.83 165.23 564.37 162.04 563.30 158.47 562.61 154.54 Z M 604.70 120.32 L 604.52 117.37 603.99 114.67 603.12 112.22 601.89 110.03 600.31 108.10 598.43 106.47 596.33 105.20 594.00 104.30 591.43 103.76 588.63 103.58 585.74 103.77 583.07 104.36 580.62 105.33 578.38 106.69 576.36 108.44 574.63 110.51 573.29 112.80 572.34 115.32 571.76 118.07 571.57 121.06 571.74 123.73 572.28 126.20 573.18 128.46 574.44 130.51 576.07 132.35 578.01 133.92 580.20 135.14 582.65 136.01 585.35 136.53 588.31 136.70 591.07 136.53 593.62 136.01 595.97 135.14 598.12 133.92 600.07 132.35 601.73 130.48 603.02 128.34 603.95 125.93 604.50 123.26 604.70 120.32 Z M 623.79 134.81 L 623.91 129.27 624.28 124.16 624.89 119.47 625.73 115.20 626.81 111.35 628.13 107.90 629.68 104.82 631.46 102.12 633.48 99.79 635.72 97.82 638.20 96.23 640.93 94.98 643.90 94.10 647.12 93.56 650.58 93.39 653.17 93.49 655.66 93.81 658.04 94.33 660.32 95.07 662.49 96.01 664.51 97.16 666.34 98.49 667.99 100.00 669.44 101.70 670.71 103.59 671.84 105.65 672.88 107.89 673.83 110.30 674.70 112.89 675.48 115.65 676.14 118.70 676.65 122.13 677.02 125.97 677.23 130.19 677.30 134.81 677.17 140.31 676.81 145.40 676.21 150.07 675.37 154.33 674.30 158.17 672.99 161.62 671.45 164.70 669.68 167.42 667.67 169.76 665.42 171.73 662.94 173.34 660.20 174.59 657.22 175.48 653.99 176.02 650.50 176.20 645.96 175.89 641.83 174.96 638.10 173.40 634.78 171.23 631.87 168.44 628.95 163.64 626.69 157.89 625.07 151.16 624.10 143.47 623.79 134.81 Z M 633.98 134.79 L 634.16 142.02 634.73 148.16 635.68 153.22 637.01 157.20 638.73 160.10 640.72 162.23 642.90 163.88 645.26 165.06 647.79 165.77 650.50 166.01 653.22 165.77 655.75 165.06 658.11 163.87 660.29 162.22 662.30 160.08 664.02 157.18 665.37 153.19 666.33 148.14 666.91 142.00 667.11 134.79 666.93 127.76 666.38 121.75 665.46 116.74 664.18 112.75 662.52 109.77 660.56 107.54 658.38 105.81 655.97 104.57 653.33 103.83 650.46 103.58 647.76 103.80 645.26 104.45 642.95 105.54 640.84 107.07 638.94 109.03 637.16 112.30 635.77 116.51 634.78 121.66 634.18 127.75 633.98 134.79 Z" />
<path fill="rgb(0,0,255)" stroke="rgb(0,0,255)" stroke-width="0" d=" M 520.57 680.72 L 520.59 670.53 552.44 670.53 552.42 680.72 Z M 562.61 684.54 L 572.80 683.27 573.37 685.80 574.11 688.04 575.02 689.99 576.11 691.64 577.37 692.99 578.80 694.08 580.38 694.92 582.11 695.52 584.00 695.89 586.04 696.01 587.82 695.93 589.53 695.70 591.19 695.31 592.78 694.76 594.30 694.07 595.73 693.24 597.00 692.30 598.12 691.27 599.09 690.13 599.91 688.88 600.64 687.49 601.34 685.90 602.01 684.13 602.64 682.17 603.25 680.02 603.79 677.75 604.20 675.43 604.50 673.07 604.68 670.66 604.74 668.20 604.73 667.91 604.73 667.56 604.71 667.16 604.70 666.71 604.68 666.21 603.39 668.04 601.94 669.73 600.30 671.27 598.50 672.67 596.51 673.93 594.41 675.00 592.24 675.83 590.00 676.42 587.70 676.78 585.33 676.90 581.42 676.61 577.77 675.74 574.36 674.29 571.21 672.26 568.31 669.65 565.81 666.57 563.86 663.12 562.48 659.30 561.65 655.11 561.38 650.56 561.68 645.85 562.56 641.53 564.02 637.59 566.07 634.03 568.69 630.85 571.76 628.16 575.12 626.07 578.78 624.58 582.73 623.68 586.98 623.39 590.10 623.56 593.11 624.07 596.02 624.92 598.81 626.11 601.50 627.65 604.01 629.49 606.26 631.63 608.25 634.06 610.00 636.78 611.48 639.79 612.71 643.22 613.66 647.22 614.34 651.79 614.74 656.91 614.87 662.60 614.73 668.57 614.31 674.03 613.62 678.98 612.66 683.42 611.43 687.36 609.94 690.86 608.17 694.02 606.15 696.83 603.86 699.28 601.30 701.38 598.52 703.12 595.56 704.46 592.41 705.43 589.08 706.01 585.57 706.20 581.87 705.97 578.45 705.29 575.32 704.15 572.47 702.56 569.91 700.52 567.68 698.06 565.83 695.23 564.37 692.04 563.30 688.47 562.61 684.54 Z M 604.70 650.32 L 604.52 647.37 603.99 644.67 603.12 642.22 601.89 640.03 600.31 638.10 598.43 636.47 596.33 635.20 594.00 634.30 591.43 633.76 588.63 633.58 585.74 633.77 583.07 634.36 580.62 635.33 578.38 636.69 576.36 638.44 574.63 640.51 573.29 642.80 572.34 645.32 571.76 648.07 571.57 651.06 571.74 653.73 572.28 656.20 573.18 658.46 574.44 660.51 576.07 662.35 578.01 663.92 580.20 665.14 582.65 666.01 585.35 666.53 588.31 666.70 591.07 666.53 593.62 666.01 595.97 665.14 598.12 663.92 600.07 662.35 601.73 660.48 603.02 658.34 603.95 655.93 604.50 653.26 604.70 650.32 Z M 623.79 664.81 L 623.91 659.27 624.28 654.16 624.89 649.47 625.73 645.20 626.81 641.35 628.13 637.90 629.68 634.82 631.46 632.12 633.48 629.79 635.72 627.82 638.20 626.23 640.93 624.98 643.90 624.10 647.12 623.56 650.58 623.39 653.17 623.49 655.66 623.81 658.04 624.33 660.32 625.07 662.49 626.01 664.51 627.16 666.34 628.49 667.99 630.00 669.44 631.70 670.71 633.59 671.84 635.65 672.88 637.89 673.83 640.30 674.70 642.89 675.48 645.65 676.14 648.70 676.65 652.13 677.02 655.97 677.23 660.19 677.30 664.81 677.17 670.31 676.81 675.40 676.21 680.07 675.37 684.33 674.30 688.17 672.99 691.62 671.45 694.70 669.68 697.42 667.67 699.76 665.42 701.73 662.94 703.34 660.20 704.59 657.22 705.48 653.99 706.02 650.50 706.20 645.96 705.89 641.83 704.96 638.10 703.40 634.78 701.23 631.87 698.44 628.95 693.64 626.69 687.89 625.07 681.16 624.10 673.47 623.79 664.81 Z M 633.98 664.79 L 634.16 672.02 634.73 678.16 635.68 683.22 637.01 687.20 638.73 690.10 640.72 692.23 642.90 693.88 645.26 695.06 647.79 695.77 650.50 696.01 653.22 695.77 655.75 695.06 658.11 693.87 660.29 692.22 662.30 690.08 664.02 687.18 665.37 683.19 666.33 678.14 666.91 672.00 667.11 664.79 666.93 657.76 666.38 651.75 665.46 646.74 664.18 642.75 662.52 639.77 660.56 637.54 658.38 635.81 655.97 634.57 653.33 633.83 650.46 633.58 647.76 633.80 645.26 634.45 642.95 635.54 640.84 637.07 638.94 639.03 637.16 642.30 635.77 646.51 634.78 651.66 634.18 657.75 633.98 664.79 Z" />
<path fill="rgb(0,0,255)" stroke="rgb(0,0,255)" stroke-width="0" d=" M 824.14 359.81 L 824.26 354.27 824.63 349.16 825.23 344.47 826.08 340.20 827.16 336.35 828.48 332.90 830.03 329.82 831.81 327.12 833.83 324.79 836.07 322.82 838.55 321.23 841.28 319.98 844.25 319.10 847.47 318.56 850.93 318.38 853.52 318.49 856.01 318.81 858.39 319.33 860.67 320.07 862.84 321.01 864.86 322.16 866.69 323.49 868.34 325.00 869.79 326.70 871.06 328.59 872.18 330.65 873.23 332.89 874.18 335.30 875.05 337.89 875.83 340.65 876.49 343.70 877.00 347.13 877.36 350.97 877.58 355.19 877.65 359.81 877.52 365.31 877.16 370.40 876.56 375.07 875.72 379.33 874.65 383.17 873.34 386.62 871.80 389.70 870.03 392.42 868.02 394.76 865.77 396.73 863.29 398.34 860.55 399.59 857.57 400.48 854.33 401.02 850.85 401.20 846.31 400.89 842.18 399.96 838.45 398.40 835.13 396.23 832.22 393.44 829.30 388.64 827.04 382.89 825.42 376.16 824.45 368.47 824.14 359.81 Z M 834.33 359.79 L 834.51 367.02 835.08 373.16 836.03 378.22 837.36 382.20 839.08 385.10 841.07 387.23 843.25 388.88 845.60 390.06 848.14 390.77 850.85 391.01 853.57 390.77 856.10 390.06 858.46 388.87 860.64 387.22 862.65 385.08 864.37 382.18 865.71 378.19 866.68 373.14 867.26 367.00 867.45 359.79 867.28 352.76 866.73 346.75 865.81 341.74 864.52 337.75 862.87 334.77 860.91 332.54 858.72 330.81 856.31 329.57 853.68 328.83 850.81 328.58 848.11 328.80 845.60 329.45 843.30 330.54 841.19 332.07 839.29 334.03 837.51 337.30 836.12 341.51 835.13 346.66 834.53 352.75 834.33 359.79 Z" />
<path fill="rgb(0,0,255)" stroke="rgb(0,0,255)" stroke-width="0" d=" M 323.14 359.81 L 323.26 354.27 323.63 349.16 324.23 344.47 325.08 340.20 326.16 336.35 327.48 332.90 329.03 329.82 330.81 327.12 332.83 324.79 335.07 322.82 337.55 321.23 340.28 319.98 343.25 319.10 346.47 318.56 349.93 318.38 352.52 318.49 355.01 318.81 357.39 319.33 359.67 320.07 361.84 321.01 363.86 322.16 365.69 323.49 367.34 325.00 368.79 326.70 370.06 328.59 371.18 330.65 372.23 332.89 373.18 335.30 374.05 337.89 374.83 340.65 375.49 343.70 376.00 347.13 376.36 350.97 376.58 355.19 376.65 359.81 376.52 365.31 376.16 370.40 375.56 375.07 374.72 379.33 373.65 383.17 372.34 386.62 370.80 389.70 369.03 392.42 367.02 394.76 364.77 396.73 362.29 398.34 359.55 399.59 356.57 400.48 353.33 401.02 349.85 401.20 345.31 400.89 341.18 399.96 337.45 398.40 334.13 396.23 331.22 393.44 328.30 388.64 326.04 382.89 324.42 376.16 323.45 368.47 323.14 359.81 Z M 333.33 359.79 L 333.51 367.02 334.08 373.16 335.03 378.22 336.36 382.20 338.08 385.10 340.07 387.23 342.25 388.88 344.60 390.06 347.14 390.77 349.85 391.01 352.57 390.77 355.10 390.06 357.46 388.87 359.64 387.22 361.65 385.08 363.37 382.18 364.71 378.19 365.68 373.14 366.26 367.00 366.45 359.79 366.28 352.76 365.73 346.75 364.81 341.74 363.52 337.75 361.87 334.77 359.91 332.54 357.72 330.81 355.31 329.57 352.68 328.83 349.81 328.58 347.11 328.80 344.60 329.45 342.30 330.54 340.19 332.07 338.29 334.03 336.51 337.30 335.12 341.51 334.13 346.66 333.53 352.75 333.33 359.79 Z" />
</svg>
