<svg width="216" height="54" viewBox="0 0 216 54" fill="none" xmlns="http://www.w3.org/2000/svg">
<g clip-path="url(#clip0_880_516)">
<path d="M148.5 27H216" stroke="#0000FF" stroke-linecap="round"/>
<path d="M64.6877 19.1209C66.1721 19.1209 67.3755 17.9176 67.3755 16.4332C67.3755 14.9488 66.1721 13.7455 64.6877 13.7455C63.2033 13.7455 62 14.9488 62 16.4332C62 17.9176 63.2033 19.1209 64.6877 19.1209Z" stroke="#0000FF"/>
<path d="M81 13.5V14V13.5ZM67 27C67 27.2761 67.2239 27.5 67.5 27.5C67.7761 27.5 68 27.2761 68 27H67ZM94.5 27H95C95 25.1615 94.6379 23.341 93.9343 21.6424L93.4724 21.8338L93.0104 22.0251C93.6637 23.6023 94 25.2928 94 27H94.5ZM93.4724 21.8338L93.9343 21.6424C93.2307 19.9439 92.1995 18.4005 90.8995 17.1005L90.5459 17.4541L90.1924 17.8076C91.3995 19.0148 92.3571 20.4479 93.0104 22.0251L93.4724 21.8338ZM90.5459 17.4541L90.8995 17.1005C89.5995 15.8005 88.0561 14.7693 86.3576 14.0657L86.1662 14.5276L85.9749 14.9896C87.5521 15.6429 88.9852 16.6004 90.1924 17.8076L90.5459 17.4541ZM86.1662 14.5276L86.3576 14.0657C84.659 13.3621 82.8385 13 81 13V13.5V14C82.7072 14 84.3977 14.3363 85.9749 14.9896L86.1662 14.5276ZM81 13.5V13C79.1615 13 77.341 13.3621 75.6424 14.0657L75.8338 14.5276L76.0251 14.9896C77.6023 14.3363 79.2928 14 81 14V13.5ZM75.8338 14.5276L75.6424 14.0657C73.9439 14.7693 72.4005 15.8005 71.1005 17.1005L71.4541 17.4541L71.8076 17.8076C73.0148 16.6005 74.4479 15.6429 76.0251 14.9896L75.8338 14.5276ZM71.4541 17.4541L71.1005 17.1005C69.8005 18.4005 68.7693 19.9439 68.0657 21.6424L68.5276 21.8338L68.9896 22.0251C69.6429 20.4479 70.6004 19.0148 71.8076 17.8076L71.4541 17.4541ZM68.5276 21.8338L68.0657 21.6424C67.3621 23.341 67 25.1615 67 27H67.5H68C68 25.2928 68.3363 23.6023 68.9896 22.0251L68.5276 21.8338Z" fill="#0000FF"/>
<path d="M135 13.5V14V13.5ZM121 27C121 27.2761 121.224 27.5 121.5 27.5C121.776 27.5 122 27.2761 122 27H121ZM148.5 27H149C149 25.1615 148.638 23.341 147.934 21.6424L147.472 21.8338L147.01 22.0251C147.664 23.6023 148 25.2928 148 27H148.5ZM147.472 21.8338L147.934 21.6424C147.231 19.9439 146.2 18.4005 144.899 17.1005L144.546 17.4541L144.192 17.8076C145.4 19.0148 146.357 20.4479 147.01 22.0251L147.472 21.8338ZM144.546 17.4541L144.899 17.1005C143.599 15.8005 142.056 14.7693 140.358 14.0657L140.166 14.5276L139.975 14.9896C141.552 15.6429 142.985 16.6004 144.192 17.8076L144.546 17.4541ZM140.166 14.5276L140.358 14.0657C138.659 13.3621 136.839 13 135 13V13.5V14C136.707 14 138.398 14.3363 139.975 14.9896L140.166 14.5276ZM135 13.5V13C133.161 13 131.341 13.3621 129.642 14.0657L129.834 14.5276L130.025 14.9896C131.602 14.3363 133.293 14 135 14V13.5ZM129.834 14.5276L129.642 14.0657C127.944 14.7693 126.401 15.8005 125.101 17.1005L125.454 17.4541L125.808 17.8076C127.015 16.6005 128.448 15.6429 130.025 14.9896L129.834 14.5276ZM125.454 17.4541L125.101 17.1005C123.8 18.4005 122.769 19.9439 122.066 21.6424L122.528 21.8338L122.99 22.0251C123.643 20.4479 124.6 19.0148 125.808 17.8076L125.454 17.4541ZM122.528 21.8338L122.066 21.6424C121.362 23.341 121 25.1615 121 27H121.5H122C122 25.2928 122.336 23.6023 122.99 22.0251L122.528 21.8338Z" fill="#0000FF"/>
<path d="M108 13.5V14V13.5ZM94 27C94 27.2761 94.2239 27.5 94.5 27.5C94.7761 27.5 95 27.2761 95 27H94ZM121.5 27H122C122 25.1615 121.638 23.341 120.934 21.6424L120.472 21.8338L120.01 22.0251C120.664 23.6023 121 25.2928 121 27H121.5ZM120.472 21.8338L120.934 21.6424C120.231 19.9439 119.2 18.4005 117.899 17.1005L117.546 17.4541L117.192 17.8076C118.4 19.0148 119.357 20.4479 120.01 22.0251L120.472 21.8338ZM117.546 17.4541L117.899 17.1005C116.599 15.8005 115.056 14.7693 113.358 14.0657L113.166 14.5276L112.975 14.9896C114.552 15.6429 115.985 16.6004 117.192 17.8076L117.546 17.4541ZM113.166 14.5276L113.358 14.0657C111.659 13.3621 109.839 13 108 13V13.5V14C109.707 14 111.398 14.3363 112.975 14.9896L113.166 14.5276ZM108 13.5V13C106.161 13 104.341 13.3621 102.642 14.0657L102.834 14.5276L103.025 14.9896C104.602 14.3363 106.293 14 108 14V13.5ZM102.834 14.5276L102.642 14.0657C100.944 14.7693 99.4005 15.8005 98.1005 17.1005L98.4541 17.4541L98.8076 17.8076C100.015 16.6005 101.448 15.6429 103.025 14.9896L102.834 14.5276ZM98.4541 17.4541L98.1005 17.1005C96.8005 18.4005 95.7693 19.9439 95.0657 21.6424L95.5276 21.8338L95.9896 22.0251C96.6429 20.4479 97.6004 19.0148 98.8076 17.8076L98.4541 17.4541ZM95.5276 21.8338L95.0657 21.6424C94.3621 23.341 94 25.1615 94 27H94.5H95C95 25.2928 95.3363 23.6023 95.9896 22.0251L95.5276 21.8338Z" fill="#0000FF"/>
<path d="M0 27H67.5" stroke="#0000FF" stroke-linecap="round"/>
<path d="M6.75 33.075L13.5 21.3836" stroke="#0000FF" stroke-linecap="round"/>
</g>
<defs>
<clipPath id="clip0_880_516">
<rect width="216" height="54" fill="white"/>
</clipPath>
</defs>
</svg>

