<?xml version="1.0" encoding="utf-8"?>
<!-- Created with "sPlan" (http://www.abacom-online.de) -->
<svg version="1.1" baseProfile="full"
xmlns="http://www.w3.org/2000/svg"
width="80mm" height="80mm"
viewBox="0 0 800 800">
<title>MUTIND</title>
<defs>
<style type="text/css">
<![CDATA[
polyline {stroke-linecap:round; stroke-linejoin:round}
polygon {stroke-linecap:round; stroke-linejoin:round}
path {stroke-linecap:round; stroke-linejoin:round}
circle {stroke-linecap:round; stroke-linejoin:round}
]]>
</style>
</defs>
<polyline points="92.47 149.36 41.73 250.82" fill="none" stroke="rgb(0,0,255)" stroke-width="2" />
<polyline points="-3.26 200.25 142.14 200.25" fill="none" stroke="rgb(0,0,255)" stroke-width="2" />
<polyline points="651.92 200.25 799.00 200.25" fill="none" stroke="rgb(0,0,255)" stroke-width="2" />
<path fill="none" stroke="rgb(0,0,255)" stroke-width="2" d=" M 311.22 600.25 Q 311.22 600.25 310.41 592.00 Q 309.59 583.76 307.19 575.83 Q 304.78 567.90 300.87 560.59 Q 296.97 553.29 291.71 546.88 Q 286.46 540.47 280.05 535.22 Q 273.65 529.96 266.34 526.06 Q 259.03 522.15 251.10 519.75 Q 243.18 517.34 234.93 516.53 Q 226.68 515.71 218.43 516.53 Q 210.19 517.34 202.26 519.75 Q 194.33 522.15 187.02 526.06 Q 179.71 529.96 173.31 535.22 Q 166.90 540.47 161.65 546.88 Q 156.39 553.29 152.49 560.59 Q 148.58 567.90 146.18 575.83 Q 143.77 583.76 142.96 592.00 Q 142.14 600.25 142.14 600.25" />
<polyline points="-3.26 600.25 142.14 600.25" fill="none" stroke="rgb(0,0,255)" stroke-width="2" />
<polyline points="651.49 600.25 799.00 600.25" fill="none" stroke="rgb(0,0,255)" stroke-width="2" />
<path fill="none" stroke="rgb(0,0,255)" stroke-width="2" d=" M 481.15 600.25 Q 481.14 600.25 480.33 592.00 Q 479.52 583.76 477.11 575.83 Q 474.70 567.90 470.80 560.59 Q 466.89 553.29 461.64 546.88 Q 456.39 540.47 449.98 535.22 Q 443.57 529.96 436.27 526.06 Q 428.96 522.15 421.03 519.75 Q 413.10 517.34 404.85 516.53 Q 396.61 515.71 388.36 516.53 Q 380.11 517.34 372.18 519.75 Q 364.25 522.15 356.95 526.06 Q 349.64 529.96 343.23 535.22 Q 336.83 540.47 331.57 546.88 Q 326.32 553.29 322.41 560.59 Q 318.51 567.90 316.10 575.83 Q 313.69 583.76 312.88 592.00 Q 312.07 600.25 312.07 600.25" />
<path fill="none" stroke="rgb(0,0,255)" stroke-width="2" d=" M 651.07 600.25 Q 651.07 600.25 650.26 592.00 Q 649.44 583.76 647.04 575.83 Q 644.63 567.90 640.72 560.59 Q 636.82 553.29 631.57 546.88 Q 626.31 540.47 619.90 535.22 Q 613.50 529.96 606.19 526.06 Q 598.89 522.15 590.96 519.75 Q 583.03 517.34 574.78 516.53 Q 566.53 515.71 558.28 516.53 Q 550.04 517.34 542.11 519.75 Q 534.18 522.15 526.87 526.06 Q 519.57 529.96 513.16 535.22 Q 506.75 540.47 501.50 546.88 Q 496.24 553.29 492.34 560.59 Q 488.43 567.90 486.03 575.83 Q 483.62 583.76 482.81 592.00 Q 481.99 600.25 481.99 600.25" />
<path fill="none" stroke="rgb(0,0,255)" stroke-width="2" d=" M 311.64 200.25 Q 311.64 200.25 310.83 192.00 Q 310.02 183.76 307.61 175.83 Q 305.20 167.90 301.30 160.59 Q 297.39 153.28 292.14 146.88 Q 286.88 140.47 280.48 135.22 Q 274.07 129.96 266.76 126.06 Q 259.46 122.15 251.53 119.75 Q 243.60 117.34 235.35 116.53 Q 227.10 115.71 218.86 116.53 Q 210.61 117.34 202.68 119.75 Q 194.75 122.15 187.44 126.06 Q 180.14 129.96 173.73 135.22 Q 167.32 140.47 162.07 146.88 Q 156.82 153.28 152.91 160.59 Q 149.01 167.90 146.60 175.83 Q 144.19 183.76 143.38 192.00 Q 142.57 200.25 142.56 200.25" />
<path fill="none" stroke="rgb(0,0,255)" stroke-width="2" d=" M 481.57 200.25 Q 481.57 200.25 480.75 192.00 Q 479.94 183.76 477.53 175.83 Q 475.13 167.90 471.22 160.59 Q 467.32 153.28 462.06 146.88 Q 456.81 140.47 450.40 135.22 Q 444.00 129.96 436.69 126.06 Q 429.38 122.15 421.45 119.75 Q 413.52 117.34 405.28 116.53 Q 397.03 115.71 388.78 116.53 Q 380.53 117.34 372.61 119.75 Q 364.68 122.15 357.37 126.06 Q 350.06 129.96 343.66 135.22 Q 337.25 140.47 332.00 146.88 Q 326.74 153.28 322.84 160.59 Q 318.93 167.90 316.52 175.83 Q 314.12 183.76 313.30 192.00 Q 312.49 200.25 312.49 200.25" />
<path fill="none" stroke="rgb(0,0,255)" stroke-width="2" d=" M 651.49 200.25 Q 651.49 200.25 650.68 192.00 Q 649.87 183.76 647.46 175.83 Q 645.05 167.90 641.15 160.59 Q 637.24 153.28 631.99 146.88 Q 626.73 140.47 620.33 135.22 Q 613.92 129.96 606.61 126.06 Q 599.31 122.15 591.38 119.75 Q 583.45 117.34 575.20 116.53 Q 566.95 115.71 558.71 116.53 Q 550.46 117.34 542.53 119.75 Q 534.60 122.15 527.29 126.06 Q 519.99 129.96 513.58 135.22 Q 507.18 140.47 501.92 146.88 Q 496.67 153.28 492.76 160.59 Q 488.86 167.90 486.45 175.83 Q 484.04 183.76 483.23 192.00 Q 482.42 200.25 482.42 200.25" />
<path fill="none" stroke="rgb(0,0,255)" stroke-width="2" d=" M 391 496 C 311 392 311 310 391 206" />
<polygon points="357.60 470.05 391.00 495.85 374.74 456.90" fill="rgb(0,0,255)" stroke="rgb(0,0,255)" stroke-width="2" />
<polygon points="374.74 245.10 391.00 206.15 357.60 231.95" fill="rgb(0,0,255)" stroke="rgb(0,0,255)" stroke-width="2" />
</svg>
