<?xml version="1.0" encoding="utf-8"?>
<!-- Created with "sPlan" (http://www.abacom-online.de) -->
<svg version="1.1" baseProfile="full"
xmlns="http://www.w3.org/2000/svg"
width="160mm" height="80mm"
viewBox="0 0 1600 800">
<title>SLC</title>
<defs>
<style type="text/css">
<![CDATA[
polyline {stroke-linecap:round; stroke-linejoin:round}
polygon {stroke-linecap:round; stroke-linejoin:round}
path {stroke-linecap:round; stroke-linejoin:round}
circle {stroke-linecap:round; stroke-linejoin:round}
]]>
</style>
</defs>
<polyline points="200.00 300.00 100.00 500.00" fill="none" stroke="rgb(0,0,255)" stroke-width="2" />
<polyline points="0.00 400.00 270.00 400.00" fill="none" stroke="rgb(0,0,255)" stroke-width="2" />
<polyline points="1325.30 400.00 1600.00 400.00" fill="none" stroke="rgb(0,0,255)" stroke-width="2" />
<polyline points="1324.77 150.00 1324.77 650.00" fill="none" stroke="rgb(0,0,255)" stroke-width="2" />
<path fill="none" stroke="rgb(0,0,255)" stroke-width="2" d=" M 540.10 400.00 Q 540.10 400.00 538.80 386.86 Q 537.51 373.71 533.67 361.08 Q 529.84 348.44 523.61 336.80 Q 517.39 325.16 509.02 314.95 Q 500.64 304.74 490.44 296.37 Q 480.23 287.99 468.58 281.77 Q 456.94 275.55 444.30 271.71 Q 431.67 267.88 418.53 266.58 Q 405.38 265.29 392.24 266.58 Q 379.10 267.88 366.46 271.71 Q 353.83 275.55 342.18 281.77 Q 330.54 287.99 320.33 296.37 Q 310.12 304.74 301.75 314.95 Q 293.38 325.16 287.15 336.80 Q 280.93 348.44 277.10 361.08 Q 273.26 373.71 271.96 386.86 Q 270.67 400.00 270.67 400.00" />
<path fill="none" stroke="rgb(0,0,255)" stroke-width="2" d=" M 809.52 400.00 Q 809.53 400.00 808.23 386.86 Q 806.94 373.71 803.10 361.08 Q 799.27 348.44 793.04 336.80 Q 786.82 325.16 778.45 314.95 Q 770.07 304.74 759.87 296.37 Q 749.66 287.99 738.01 281.77 Q 726.37 275.55 713.73 271.71 Q 701.10 267.88 687.96 266.58 Q 674.81 265.29 661.67 266.58 Q 648.53 267.88 635.89 271.71 Q 623.26 275.55 611.61 281.77 Q 599.97 287.99 589.76 296.37 Q 579.55 304.74 571.18 314.95 Q 562.81 325.16 556.58 336.80 Q 550.36 348.44 546.53 361.08 Q 542.69 373.71 541.39 386.86 Q 540.10 400.00 540.10 400.00" />
<path fill="none" stroke="rgb(0,0,255)" stroke-width="2" d=" M 1078.95 400.00 Q 1078.96 400.00 1077.66 386.86 Q 1076.37 373.71 1072.53 361.08 Q 1068.70 348.44 1062.47 336.80 Q 1056.25 325.16 1047.88 314.95 Q 1039.50 304.74 1029.30 296.37 Q 1019.09 287.99 1007.44 281.77 Q 995.80 275.55 983.16 271.71 Q 970.53 267.88 957.39 266.58 Q 944.24 265.29 931.10 266.58 Q 917.96 267.88 905.32 271.71 Q 892.69 275.55 881.04 281.77 Q 869.40 287.99 859.19 296.37 Q 848.98 304.74 840.61 314.95 Q 832.24 325.16 826.01 336.80 Q 819.79 348.44 815.95 361.08 Q 812.12 373.71 810.82 386.86 Q 809.53 400.00 809.53 400.00" />
<polyline points="1079.63 400.00 1199.12 400.00" fill="none" stroke="rgb(0,0,255)" stroke-width="2" />
<path fill="none" stroke="rgb(0,0,255)" stroke-width="2" d=" M 1145 150 C 1270 400 1145 650 1145 650" />
</svg>
