<?xml version="1.0" encoding="utf-8"?>
<!-- Created with "sPlan" (http://www.abacom-online.de) -->
<svg version="1.1" baseProfile="full"
xmlns="http://www.w3.org/2000/svg"
width="120mm" height="80mm"
viewBox="0 0 1200 800">
<title>SWITCH</title>
<defs>
<style type="text/css">
<![CDATA[
polyline {stroke-linecap:round; stroke-linejoin:round}
polygon {stroke-linecap:round; stroke-linejoin:round}
path {stroke-linecap:round; stroke-linejoin:round}
circle {stroke-linecap:round; stroke-linejoin:round}
]]>
</style>
</defs>
<polyline points="0.00 400.00 149.07 400.00 149.07 70.56 1050.14 70.56 1050.14 200.00 1199.63 200.00 1049.97 200.00 1049.97 329.44 1049.97 599.93 1199.80 599.93 1049.97 599.93 1049.97 729.44 149.07 729.44 149.07 400.00" fill="none" stroke="rgb(0,0,255)" stroke-width="2" />
<polyline points="100.00 350.00 50.19 449.63" fill="none" stroke="rgb(0,0,255)" stroke-width="2" />
<polyline points="149.07 400.00 400.00 400.00" fill="none" stroke="rgb(0,0,255)" stroke-width="2" />
<polyline points="800.00 200.00 1049.97 200.00" fill="none" stroke="rgb(0,0,255)" stroke-width="2" />
<polygon points="823.00 200.00 822.77 197.66 822.09 195.41 820.98 193.33 819.49 191.51 817.67 190.02 815.59 188.91 813.34 188.23 811.00 188.00 808.66 188.23 806.41 188.91 804.33 190.02 802.51 191.51 801.02 193.33 799.91 195.41 799.23 197.66 799.00 200.00 799.23 202.34 799.91 204.59 801.02 206.67 802.51 208.49 804.33 209.98 806.41 211.09 808.66 211.77 811.00 212.00 813.34 211.77 815.59 211.09 817.67 209.98 819.49 208.49 820.98 206.67 822.09 204.59 822.77 202.34 823.00 200.00" fill="rgb(255,255,255)" stroke="rgb(0,0,255)" stroke-width="2" />
<polyline points="800.00 600.00 1049.97 599.93" fill="none" stroke="rgb(0,0,255)" stroke-width="2" />
<polygon points="823.00 600.00 822.77 597.66 822.09 595.40 820.98 593.33 819.49 591.51 817.67 590.02 815.59 588.91 813.34 588.23 811.00 588.00 808.66 588.23 806.41 588.91 804.33 590.02 802.51 591.51 801.02 593.33 799.91 595.40 799.23 597.66 799.00 600.00 799.23 602.34 799.91 604.59 801.02 606.66 802.51 608.48 804.33 609.97 806.41 611.08 808.66 611.77 811.00 612.00 813.34 611.77 815.59 611.08 817.67 609.97 819.49 608.48 820.98 606.66 822.09 604.59 822.77 602.34 823.00 600.00" fill="rgb(255,255,255)" stroke="rgb(0,0,255)" stroke-width="2" />
<polyline points="400.00 400.00 797.22 207.81" fill="none" stroke="rgb(0,0,255)" stroke-width="2" />
<polygon points="749.19 249.05 797.22 207.81 735.07 219.88" fill="rgb(0,0,255)" stroke="rgb(0,0,255)" stroke-width="2" />
</svg>
