<svg width="216" height="108" viewBox="0 0 216 108" fill="none" xmlns="http://www.w3.org/2000/svg">
<path d="M13.5 66.1499L6.75 42.7672" stroke="#0000FF" stroke-linecap="round"/>
<path d="M59 54.5C59.2761 54.5 59.5 54.2761 59.5 54C59.5 53.7239 59.2761 53.5 59 53.5V54.5ZM0 54L0 54.5H59V54V53.5H0L0 54Z" fill="#0000FF"/>
<rect x="42.5" y="19.5" width="129" height="69" stroke="#0000FF"/>
<path d="M108.375 53.5H149" stroke="#0000FF"/>
<path d="M59.3241 53.5L63.2916 37.4912" stroke="#0000FF" stroke-linecap="round"/>
<path d="M71.3612 69.1481L63.4184 37.5192" stroke="#0000FF" stroke-linecap="round"/>
<path d="M71.5435 69.4808L79.4862 37.8518" stroke="#0000FF" stroke-linecap="round"/>
<path d="M87.6112 69.1481L79.6684 37.5192" stroke="#0000FF" stroke-linecap="round"/>
<path d="M104.162 69.75L95.9183 37.5192" stroke="#0000FF" stroke-linecap="round"/>
<path d="M87.7934 69.4808L95.7361 37.25" stroke="#0000FF" stroke-linecap="round"/>
<path d="M104.194 69.5087C105.827 63.2569 108.375 53.5 108.375 53.5" stroke="#0000FF" stroke-linecap="round"/>
<path d="M149 42V64" stroke="#0000FF"/>
<path d="M152 45V61" stroke="#0000FF"/>
<path d="M155 48V58" stroke="#0000FF"/>
<path d="M52 74V84" stroke="#FF0000"/>
<path d="M47 79H57" stroke="#FF0000"/>
</svg>

