<?xml version="1.0" encoding="utf-8"?>
<!-- Created with "sPlan" (http://www.abacom-online.de) -->
<svg version="1.1" baseProfile="full"
xmlns="http://www.w3.org/2000/svg"
width="80mm" height="80mm"
viewBox="0 0 800 800">
<title>TF</title>
<defs>
<style type="text/css">
<![CDATA[
polyline {stroke-linecap:round; stroke-linejoin:round}
polygon {stroke-linecap:round; stroke-linejoin:round}
path {stroke-linecap:round; stroke-linejoin:round}
circle {stroke-linecap:round; stroke-linejoin:round}
]]>
</style>
</defs>
<polyline points="0.00 1.23 200.05 1.23 200.05 100.04" fill="none" stroke="rgb(0,0,255)" stroke-width="2" />
<polyline points="200.05 700.50 200.05 798.73 0.00 798.73" fill="none" stroke="rgb(0,0,255)" stroke-width="2" />
<polyline points="797.69 798.67 600.00 798.67 600.00 700.15" fill="none" stroke="rgb(0,0,255)" stroke-width="2" />
<polyline points="600.00 99.69 600.00 0.97 798.00 0.97" fill="none" stroke="rgb(0,0,255)" stroke-width="2" />
<circle cx="150.09" cy="50.04" r="20.09" fill="none" stroke="rgb(0,0,255)" stroke-width="2" />
<circle cx="650.09" cy="50.04" r="20.09" fill="none" stroke="rgb(0,0,255)" stroke-width="2" />
<path fill="rgb(0,0,255)" stroke="rgb(0,0,255)" stroke-width="0" d=" M 686.47 438.93 L 676.28 438.93 676.34 375.38 674.78 376.76 673.03 378.13 671.10 379.51 668.98 380.89 666.69 382.26 664.35 383.56 662.10 384.73 659.96 385.76 657.91 386.65 655.96 387.41 655.96 377.77 659.29 376.13 662.45 374.35 665.44 372.45 668.26 370.41 670.91 368.23 673.32 366.01 675.44 363.81 677.25 361.64 678.77 359.50 679.98 357.39 686.55 357.39 Z" />
<path fill="rgb(0,0,255)" stroke="rgb(0,0,255)" stroke-width="0" d=" M 119.46 438.93 L 119.54 367.58 92.78 367.58 92.78 357.39 156.49 357.39 156.49 367.58 129.73 367.58 129.65 438.93 Z" />
<path fill="none" stroke="rgb(0,0,255)" stroke-width="2" d=" M 600.00 500.50 Q 600.00 500.50 590.29 501.46 Q 580.57 502.42 571.23 505.25 Q 561.89 508.08 553.29 512.68 Q 544.68 517.28 537.13 523.47 Q 529.59 529.66 523.40 537.21 Q 517.21 544.75 512.61 553.36 Q 508.01 561.97 505.17 571.31 Q 502.34 580.65 501.38 590.36 Q 500.42 600.08 501.38 609.79 Q 502.34 619.50 505.17 628.84 Q 508.01 638.18 512.61 646.79 Q 517.21 655.40 523.40 662.94 Q 529.59 670.49 537.13 676.68 Q 544.68 682.87 553.29 687.47 Q 561.89 692.07 571.23 694.90 Q 580.57 697.74 590.29 698.69 Q 600.00 699.65 600.00 699.65" />
<path fill="none" stroke="rgb(0,0,255)" stroke-width="2" d=" M 600.00 300.34 Q 600.00 300.34 590.29 301.30 Q 580.57 302.26 571.23 305.09 Q 561.89 307.93 553.29 312.53 Q 544.68 317.13 537.13 323.32 Q 529.59 329.51 523.40 337.05 Q 517.21 344.60 512.61 353.20 Q 508.01 361.81 505.17 371.15 Q 502.34 380.49 501.38 390.21 Q 500.42 399.92 501.38 409.63 Q 502.34 419.35 505.17 428.69 Q 508.01 438.03 512.61 446.63 Q 517.21 455.24 523.40 462.79 Q 529.59 470.33 537.13 476.52 Q 544.68 482.71 553.29 487.31 Q 561.89 491.91 571.23 494.75 Q 580.57 497.58 590.29 498.54 Q 600.00 499.49 600.00 499.50" />
<path fill="none" stroke="rgb(0,0,255)" stroke-width="2" d=" M 600.00 100.18 Q 600.00 100.19 590.29 101.15 Q 580.57 102.10 571.23 104.94 Q 561.89 107.77 553.29 112.37 Q 544.68 116.97 537.13 123.16 Q 529.59 129.35 523.40 136.90 Q 517.21 144.44 512.61 153.05 Q 508.01 161.65 505.17 170.99 Q 502.34 180.33 501.38 190.05 Q 500.42 199.76 501.38 209.48 Q 502.34 219.19 505.17 228.53 Q 508.01 237.87 512.61 246.48 Q 517.21 255.08 523.40 262.63 Q 529.59 270.18 537.13 276.37 Q 544.68 282.56 553.29 287.16 Q 561.89 291.76 571.23 294.59 Q 580.57 297.42 590.29 298.38 Q 600.00 299.34 600.00 299.34" />
<path fill="none" stroke="rgb(0,0,255)" stroke-width="2" d=" M 200.05 499.85 Q 200.05 499.85 209.76 498.89 Q 219.48 497.93 228.82 495.10 Q 238.16 492.26 246.76 487.66 Q 255.37 483.06 262.91 476.87 Q 270.46 470.68 276.65 463.14 Q 282.84 455.59 287.44 446.99 Q 292.04 438.38 294.87 429.04 Q 297.71 419.70 298.66 409.99 Q 299.62 400.27 298.66 390.56 Q 297.71 380.84 294.87 371.50 Q 292.04 362.16 287.44 353.56 Q 282.84 344.95 276.65 337.40 Q 270.46 329.86 262.91 323.67 Q 255.37 317.48 246.76 312.88 Q 238.16 308.28 228.82 305.45 Q 219.48 302.61 209.76 301.65 Q 200.05 300.70 200.05 300.69" />
<path fill="none" stroke="rgb(0,0,255)" stroke-width="2" d=" M 200.05 299.70 Q 200.05 299.69 209.76 298.73 Q 219.48 297.78 228.82 294.94 Q 238.16 292.11 246.76 287.51 Q 255.37 282.91 262.91 276.72 Q 270.46 270.53 276.65 262.98 Q 282.84 255.44 287.44 246.83 Q 292.04 238.22 294.87 228.88 Q 297.71 219.54 298.66 209.83 Q 299.62 200.12 298.66 190.40 Q 297.71 180.69 294.87 171.35 Q 292.04 162.01 287.44 153.40 Q 282.84 144.79 276.65 137.25 Q 270.46 129.70 262.91 123.51 Q 255.37 117.32 246.76 112.72 Q 238.16 108.12 228.82 105.29 Q 219.48 102.46 209.76 101.50 Q 200.05 100.54 200.05 100.54" />
<path fill="none" stroke="rgb(0,0,255)" stroke-width="2" d=" M 200.05 700.01 Q 200.05 700.00 209.76 699.04 Q 219.48 698.09 228.82 695.25 Q 238.16 692.42 246.76 687.82 Q 255.37 683.22 262.91 677.03 Q 270.46 670.84 276.65 663.29 Q 282.84 655.75 287.44 647.14 Q 292.04 638.54 294.87 629.20 Q 297.71 619.86 298.66 610.14 Q 299.62 600.43 298.66 590.71 Q 297.71 581.00 294.87 571.66 Q 292.04 562.32 287.44 553.71 Q 282.84 545.11 276.65 537.56 Q 270.46 530.01 262.91 523.82 Q 255.37 517.64 246.76 513.04 Q 238.16 508.44 228.82 505.60 Q 219.48 502.77 209.76 501.81 Q 200.05 500.85 200.05 500.85" />
<polyline points="360.00 100.00 360.00 700.00" fill="none" stroke="rgb(0,0,255)" stroke-width="2" />
<polyline points="440.00 100.00 440.00 700.00" fill="none" stroke="rgb(0,0,255)" stroke-width="2" />
</svg>
