<?xml version="1.0" encoding="utf-8"?>
<!-- Created with "sPlan" (http://www.abacom-online.de) -->
<svg version="1.1" baseProfile="full"
xmlns="http://www.w3.org/2000/svg"
width="80mm" height="120mm"
viewBox="0 0 800 1200">
<title>TLOC</title>
<defs>
<style type="text/css">
<![CDATA[
polyline {stroke-linecap:round; stroke-linejoin:round}
polygon {stroke-linecap:round; stroke-linejoin:round}
path {stroke-linecap:round; stroke-linejoin:round}
circle {stroke-linecap:round; stroke-linejoin:round}
]]>
</style>
</defs>
<polyline points="100.00 950.00 50.00 1050.00" fill="none" stroke="rgb(0,0,255)" stroke-width="2" />
<polyline points="-0.37 1000.00 270.00 1000.00" fill="none" stroke="rgb(0,0,255)" stroke-width="2" />
<polyline points="499.63 0.00 499.63 1000.00 799.63 1000.00" fill="none" stroke="rgb(0,0,255)" stroke-width="8" />
<path fill="rgb(0,0,255)" stroke="rgb(0,0,255)" stroke-width="0" d=" M 717.93 897.08 L 636.39 897.00 636.39 861.87 636.47 857.78 636.74 854.10 637.18 850.84 637.79 847.99 638.58 845.55 639.60 843.41 640.89 841.45 642.44 839.66 644.27 838.06 646.37 836.64 648.65 835.45 651.02 834.52 653.49 833.85 656.05 833.45 658.70 833.32 662.08 833.54 665.24 834.20 668.18 835.31 670.89 836.86 673.39 838.85 675.61 841.31 677.47 844.24 678.99 847.66 680.16 851.56 680.98 855.93 681.86 854.48 682.74 853.17 683.61 852.01 684.47 851.00 685.34 850.14 687.25 848.47 689.25 846.81 691.35 845.16 693.54 843.52 695.83 841.90 717.93 828.32 717.93 840.17 701.02 850.76 698.24 852.55 695.73 854.22 693.49 855.75 691.53 857.15 689.84 858.41 688.38 859.59 687.13 860.71 686.07 861.78 685.21 862.81 684.55 863.79 684.02 864.74 683.57 865.70 683.18 866.67 682.86 867.65 682.61 868.63 682.48 869.45 682.38 870.45 682.31 871.63 682.27 873.00 682.25 874.55 682.25 886.85 717.93 886.89 Z M 672.06 886.85 L 672.06 864.04 672.00 861.24 671.83 858.67 671.54 856.35 671.14 854.25 670.62 852.39 669.97 850.73 669.18 849.24 668.26 847.91 667.20 846.76 666.00 845.77 664.70 844.96 663.37 844.32 661.98 843.87 660.55 843.60 659.08 843.51 656.97 843.68 655.02 844.20 653.23 845.06 651.59 846.26 650.10 847.81 648.83 849.73 647.85 852.05 647.14 854.78 646.72 857.90 646.58 861.43 646.58 886.81 Z M 700.09 774.87 L 701.36 764.88 704.60 766.07 707.54 767.60 710.17 769.47 712.50 771.69 714.52 774.24 716.21 777.12 717.52 780.30 718.45 783.78 719.01 787.57 719.20 791.65 718.88 796.77 717.91 801.44 716.29 805.67 714.03 809.46 711.13 812.80 707.64 815.62 703.63 817.80 699.10 819.36 694.05 820.29 688.48 820.60 682.72 820.28 677.51 819.33 672.83 817.75 668.69 815.53 665.09 812.68 662.10 809.33 659.77 805.60 658.10 801.50 657.10 797.02 656.77 792.17 657.10 787.47 658.10 783.14 659.76 779.16 662.08 775.53 665.07 772.26 668.66 769.48 672.79 767.32 677.46 765.77 682.67 764.85 688.42 764.54 688.83 764.54 689.30 764.55 689.85 764.57 690.47 764.59 691.17 764.62 691.17 810.42 694.46 810.00 697.43 809.20 700.08 808.03 702.41 806.49 704.41 804.57 706.06 802.37 707.35 799.95 708.27 797.33 708.82 794.49 709.01 791.45 708.92 789.18 708.67 787.04 708.24 785.04 707.64 783.18 706.88 781.45 705.92 779.86 704.77 778.40 703.41 777.09 701.85 775.91 700.09 774.87 Z M 680.98 810.41 L 680.98 774.73 678.64 775.12 676.55 775.73 674.70 776.54 673.10 777.57 671.74 778.81 670.02 781.00 668.68 783.43 667.73 786.11 667.15 789.04 666.96 792.21 667.12 795.10 667.57 797.80 668.33 800.32 669.40 802.64 670.77 804.77 672.40 806.63 674.24 808.12 676.28 809.25 678.52 810.01 680.98 810.41 Z M 717.93 751.84 L 668.24 751.78 668.24 760.70 658.04 760.70 658.04 751.78 652.01 751.78 649.84 751.73 647.90 751.59 646.20 751.37 644.74 751.07 643.51 750.68 642.07 750.00 640.74 749.13 639.53 748.09 638.43 746.87 637.44 745.47 636.60 743.87 635.95 742.04 635.48 739.98 635.20 737.70 635.11 735.20 635.16 733.48 635.29 731.69 635.51 729.83 635.82 727.90 636.23 725.90 645.78 727.39 645.61 728.62 645.48 729.82 645.38 731.00 645.32 732.14 645.30 733.26 645.37 734.97 645.57 736.47 645.91 737.75 646.39 738.83 647.00 739.68 647.79 740.36 648.82 740.89 650.08 741.27 651.58 741.50 653.31 741.59 658.04 741.59 658.04 730.12 668.24 730.12 668.24 741.59 717.93 741.65 Z" />
<polyline points="270.00 1000.00 270.00 850.00 140.00 850.00 140.00 350.00 400.00 350.00 400.00 850.00 270.00 850.00" fill="none" stroke="rgb(0,0,255)" stroke-width="2" />
</svg>
